<svg width="561" height="352" viewBox="0 0 561 352" fill="none" xmlns="http://www.w3.org/2000/svg">
<path fill-rule="evenodd" clip-rule="evenodd" d="M195.002 325.655H193.501V332.277H188.022V312.021H194.643C196.97 312.021 198.699 312.554 199.83 313.619C200.96 314.684 201.525 316.434 201.525 318.872C201.525 321.307 200.992 323.046 199.927 324.089C198.862 325.133 197.219 325.655 195.002 325.655ZM195.621 321.252C195.818 320.882 195.915 320.218 195.915 319.263C195.915 318.305 195.805 317.631 195.59 317.24C195.372 316.849 194.937 316.652 194.283 316.652H193.501V321.805H194.414C195.023 321.805 195.424 321.622 195.621 321.252ZM218.171 332.277H212.724L212.105 329.081H208.255L207.636 332.277H202.449L206.169 312.021H214.453L218.171 332.277ZM211.485 325.264L210.343 318.022H210.115L208.974 325.264H211.485ZM232.534 318.056C230.446 317.424 228.92 317.109 227.952 317.109C226.984 317.109 226.322 317.533 225.963 318.381C225.603 319.229 225.424 320.574 225.424 322.41C225.424 324.247 225.592 325.586 225.929 326.422C226.267 327.26 226.956 327.678 228 327.678C228.304 327.678 228.892 327.591 229.763 327.415V324.938H228.294V321.089H234.524V332.277H230.676L230.154 331.233H230.023C229.653 331.538 229.359 331.766 229.142 331.918C228.532 332.374 227.675 332.603 226.565 332.603C222.02 332.603 219.748 329.168 219.748 322.296C219.748 318.859 220.346 316.234 221.542 314.418C222.739 312.602 224.749 311.695 227.575 311.695C229.837 311.695 231.784 312.042 233.416 312.738L232.534 318.056ZM248.692 332.277H237.732V312.021H249.017L248.692 317.011H243.31V320.045H247.974V324.35H243.31V327.709H249.017L248.692 332.277ZM273.003 332.277H267.655L263.446 322.85H263.186V332.277H258.228V312.021H263.74L267.752 321.742H268.012V312.021H273.003L273.003 332.277ZM277.564 314.141C278.816 312.509 280.864 311.695 283.713 311.695C286.563 311.695 288.601 312.498 289.829 314.109C291.058 315.718 291.671 318.333 291.671 321.954C291.671 325.574 291.042 328.255 289.779 329.995C288.52 331.732 286.476 332.603 283.648 332.603C280.821 332.603 278.788 331.745 277.549 330.026C276.308 328.308 275.69 325.64 275.69 322.019C275.69 318.398 276.315 315.773 277.564 314.141ZM286.062 321.969C286.062 319.969 285.905 318.616 285.588 317.908C285.273 317.202 284.633 316.849 283.665 316.849C282.696 316.849 282.071 317.202 281.789 317.908C281.507 318.616 281.365 319.958 281.365 321.937V322.719C281.365 324.829 281.523 326.215 281.839 326.878C282.153 327.542 282.794 327.873 283.762 327.873C284.73 327.873 285.355 327.557 285.639 326.928C285.92 326.298 286.062 324.991 286.062 323.013V321.969ZM306.134 316.946H302.351V332.277H296.772V316.946H292.76L293.086 312.021H306.46L306.134 316.946ZM326.008 317.011H320.626V320.045H324.966V324.35H320.626V332.277H315.051V312.021H326.336L326.008 317.011ZM329.299 314.141C330.548 312.509 332.597 311.695 335.446 311.695C338.295 311.695 340.333 312.498 341.563 314.109C342.791 315.718 343.404 318.333 343.404 321.954C343.404 325.574 342.775 328.255 341.512 329.995C340.253 331.732 338.209 332.603 335.38 332.603C332.554 332.603 330.521 331.745 329.282 330.026C328.041 328.308 327.422 325.64 327.422 322.019C327.422 318.398 328.048 315.773 329.299 314.141ZM337.794 321.969C337.794 319.969 337.638 318.616 337.321 317.908C337.006 317.202 336.365 316.849 335.398 316.849C334.43 316.849 333.806 317.202 333.523 317.908C333.24 318.616 333.098 319.958 333.098 321.937V322.719C333.098 324.829 333.256 326.215 333.571 326.878C333.886 327.542 334.529 327.873 335.495 327.873C336.462 327.873 337.089 327.557 337.371 326.928C337.653 326.298 337.794 324.991 337.794 323.013V321.969ZM351.801 325.623C351.801 326.297 351.94 326.796 352.224 327.124C352.506 327.45 352.967 327.612 353.61 327.612C354.25 327.612 354.696 327.453 354.947 327.139C355.197 326.824 355.322 326.308 355.322 325.589V312.021H360.932V325.917C360.932 328.242 360.296 329.94 359.023 331.005C357.753 332.07 355.882 332.603 353.414 332.603C350.946 332.603 349.107 332.077 347.903 331.022C346.693 329.967 346.091 328.286 346.091 325.981V312.021H351.8V325.623H351.801ZM379.047 332.277H373.697L369.489 322.85H369.228V332.277H364.27V312.021H369.782L373.794 321.742H374.057V312.021H379.047V332.277ZM397.454 321.709C397.454 328.754 394.67 332.277 389.105 332.277H382.385V312.021H389.235C392.214 312.021 394.328 312.854 395.579 314.516C396.828 316.178 397.454 318.578 397.454 321.709ZM389.005 327.58C390.159 327.58 390.904 327.172 391.241 326.356C391.578 325.541 391.747 324.171 391.747 322.248C391.747 320.321 391.567 318.958 391.208 318.153C390.848 317.348 390.083 316.946 388.908 316.946H387.929V327.58L389.005 327.58Z" fill="#0B4565"/>
<path fill-rule="evenodd" clip-rule="evenodd" d="M302.655 285.36C356.568 285.36 400.538 241.39 400.538 187.477C400.538 133.566 356.568 89.5918 302.655 89.5918C248.743 89.5918 204.772 133.566 204.772 187.477C204.772 241.39 248.743 285.36 302.655 285.36Z" fill="#70708C" fill-opacity="0.08"/>
<path fill-rule="evenodd" clip-rule="evenodd" d="M292.739 274.281C346.651 274.281 390.623 230.31 390.623 176.398C390.623 122.485 346.651 78.5146 292.739 78.5146C238.827 78.5146 194.854 122.485 194.854 176.398C194.854 230.31 238.827 274.281 292.739 274.281Z" fill="#C2FF00"/>
<path fill-rule="evenodd" clip-rule="evenodd" d="M164.561 275.528H126.915C126.024 275.528 114.635 266.015 115.01 265.257L125.581 243.789H53.4009C52.5687 243.789 40.6636 233.749 41.114 232.971L52.122 213.915L124.803 95.5476C125.244 94.8243 126.099 94.8094 126.915 94.5073L153.864 84.4776C154.424 84.2703 165.504 94.854 165.506 95.5475L165.84 212.788L178.815 202.898C179.601 202.298 190.92 213.221 190.92 214.175V242.489C190.92 243.356 190.474 243.789 189.641 243.789H165.84V274.27C165.84 275.094 165.396 275.528 164.561 275.528ZM91.5486 212.788H125.581V156.118L91.5486 212.788Z" fill="#70708C" fill-opacity="0.08"/>
<path fill-rule="evenodd" clip-rule="evenodd" d="M155.373 265.439H117.727C116.836 265.439 116.393 265.004 116.393 264.181V233.7H44.213C43.38 233.7 42.9341 233.267 42.9341 232.398V203.826L115.615 85.4585C116.116 84.7628 116.836 84.416 117.727 84.416H155.373C155.986 84.416 156.32 84.7628 156.32 85.4585L156.652 202.699H180.119C181.176 202.699 181.732 203.133 181.732 204.086V232.398C181.732 233.267 181.286 233.7 180.453 233.7H156.652V264.181C156.652 265.004 156.208 265.439 155.373 265.439ZM82.3605 202.699H116.393V146.029L82.3605 202.699Z" fill="#0B4565"/>
<path fill-rule="evenodd" clip-rule="evenodd" d="M153.471 265.439H115.824C114.935 265.439 114.489 265.004 114.489 264.181V233.7H42.3111C41.476 233.7 41.0322 233.267 41.0322 232.398V203.826L113.711 85.4585C114.212 84.7628 114.935 84.416 115.824 84.416H153.471C154.082 84.416 154.415 84.7628 154.415 85.4585L154.75 202.699H178.215C179.274 202.699 179.829 203.133 179.829 204.086V232.398C179.829 233.267 179.384 233.7 178.551 233.7H154.749V264.181C154.75 265.004 154.304 265.439 153.471 265.439ZM80.4566 202.699H114.489V146.029L80.4566 202.699Z" fill="#C2FF00"/>
<path fill-rule="evenodd" clip-rule="evenodd" d="M292.74 242.804C329.317 242.804 359.148 212.973 359.148 176.395C359.148 139.818 329.317 109.984 292.74 109.984C256.162 109.984 226.329 139.818 226.329 176.395C226.329 212.973 256.162 242.804 292.74 242.804Z" fill="#0B4565"/>
<path fill-rule="evenodd" clip-rule="evenodd" d="M292.739 241.193C328.428 241.193 357.537 212.084 357.537 176.395C357.537 140.704 328.428 111.595 292.739 111.595C257.05 111.595 227.939 140.704 227.939 176.395C227.939 212.084 257.05 241.193 292.739 241.193Z" fill="white"/>
<path fill-rule="evenodd" clip-rule="evenodd" d="M131.821 13.383C133.582 10.99 136.467 9.79395 140.475 9.79395C144.485 9.79395 147.353 10.9729 149.083 13.3345C150.811 15.6953 151.676 19.5319 151.676 24.8459C151.676 30.1583 150.788 34.0895 149.015 36.6429C147.239 39.1947 144.362 40.4713 140.384 40.4713C136.406 40.4713 133.544 39.211 131.798 36.6898C130.054 34.1701 129.181 30.2529 129.181 24.9414C129.181 19.629 130.063 15.7759 131.821 13.383ZM143.781 24.8689C143.781 21.9331 143.559 19.948 143.115 18.9108C142.671 17.875 141.769 17.3546 140.407 17.3546C139.044 17.3546 138.165 17.875 137.767 18.9108C137.37 19.948 137.169 21.9182 137.169 24.8204V25.9703C137.169 29.0649 137.391 31.0985 137.835 32.0708C138.279 33.0454 139.181 33.5316 140.545 33.5316C141.906 33.5316 142.785 33.0686 143.185 32.1424C143.582 31.2192 143.781 29.3035 143.781 26.3997V24.8689ZM154.447 28.4349C154.447 24.2397 155.22 21.1994 156.766 19.3165C158.311 17.4352 160.73 16.4947 164.018 16.4947C167.31 16.4947 169.704 17.4179 171.203 19.2695C172.704 21.1196 173.452 24.159 173.452 28.3863C173.452 32.6145 172.719 35.6852 171.25 37.6001C169.781 39.5136 167.377 40.471 164.041 40.471C160.706 40.471 158.273 39.5135 156.742 37.6001C155.212 35.6852 154.447 32.631 154.447 28.4349ZM165.487 23.9115C165.289 23.2732 164.792 22.954 163.995 22.954C163.2 22.954 162.695 23.2732 162.481 23.9115C162.266 24.5499 162.161 25.8906 162.161 27.9323V29.08C162.161 31.3462 162.266 32.813 162.481 33.4833C162.695 34.153 163.192 34.4893 163.974 34.4893C164.754 34.4893 165.251 34.153 165.464 33.4833C165.68 32.813 165.785 31.4409 165.785 29.3678V27.9808C165.785 25.9047 165.686 24.5499 165.487 23.9115ZM184.212 39.4667V46.5501H176.498V17.0675H182.833L183.294 18.5045H183.523C184.379 17.1966 186.063 16.541 188.572 16.541C191.081 16.541 192.848 17.4501 193.873 19.2696C194.899 21.0876 195.412 24.0726 195.412 28.2195C195.412 32.3671 194.869 35.4527 193.782 37.4803C192.696 39.5049 190.698 40.5199 187.792 40.5199C186.445 40.5199 185.312 40.1693 184.395 39.467H184.212V39.4667ZM187.447 32.7897C187.555 32.2312 187.623 31.6817 187.655 31.1387C187.684 30.5951 187.699 29.5683 187.699 28.0523C187.699 26.537 187.593 25.3723 187.378 24.5587C187.165 23.7444 186.729 23.3365 186.069 23.3365C185.412 23.3365 184.761 23.529 184.118 23.9115V33.8188C184.702 34.1066 185.26 34.2506 185.795 34.2506C186.329 34.2506 186.712 34.147 186.942 33.9373C187.171 33.7301 187.34 33.3476 187.447 32.7897ZM197.357 23.8399C197.357 21.5276 198.038 19.7244 199.399 18.4329C200.76 17.1391 202.635 16.4949 205.024 16.4949C207.41 16.4949 209.829 16.814 212.276 17.4501L211.496 24.104C208.374 23.3709 206.278 23.0026 205.207 23.0026C204.563 23.0026 204.242 23.2733 204.242 23.8169C204.242 24.1673 204.594 24.4865 205.298 24.7744C207.746 25.6984 209.589 26.7505 210.83 27.9325C212.069 29.1122 212.688 30.8832 212.688 33.2441C212.688 35.6057 212.107 37.3999 210.944 38.6281C209.782 39.8563 208 40.4714 205.597 40.4714C203.193 40.4714 200.798 40.1522 198.412 39.5139L198.917 33.0539C201.978 33.9144 203.958 34.3455 204.863 34.3455C205.766 34.3455 206.216 34.1218 206.216 33.6757C206.216 33.2291 205.88 32.8787 205.207 32.6229C202.483 31.5386 200.494 30.3798 199.238 29.1516C197.985 27.9233 197.357 26.1523 197.357 23.8399ZM216.975 36.7383C216.975 35.4616 217.297 34.5123 217.939 33.8912C218.581 33.2693 219.607 32.9568 221.015 32.9568C222.423 32.9568 223.447 33.2693 224.09 33.8912C224.733 34.5123 225.054 35.493 225.054 36.833C225.054 39.2893 223.707 40.5197 221.015 40.5197C218.321 40.5196 216.975 39.258 216.975 36.7383ZM231.222 36.7383C231.222 35.4616 231.543 34.5123 232.186 33.8912C232.828 33.2693 233.853 32.9568 235.261 32.9568C236.669 32.9568 237.695 33.2693 238.337 33.8912C238.979 34.5123 239.301 35.493 239.301 36.833C239.301 39.2893 237.955 40.5197 235.261 40.5197C232.569 40.5196 231.222 39.258 231.222 36.7383Z" fill="#0B4565"/>
<path fill-rule="evenodd" clip-rule="evenodd" d="M534.409 275.528H496.762C495.872 275.528 484.483 266.015 484.857 265.257L495.428 243.789H423.249C422.416 243.789 410.511 233.749 410.962 232.971L421.97 213.915L494.65 95.5476C495.092 94.8243 495.946 94.8094 496.762 94.5073L523.711 84.4776C524.271 84.2703 535.351 94.854 535.354 95.5475L535.688 212.788L548.662 202.898C549.448 202.298 560.768 213.221 560.768 214.175V242.489C560.768 243.356 560.322 243.789 559.489 243.789H535.688V274.27C535.688 275.094 535.244 275.528 534.409 275.528ZM461.396 212.788H495.428V156.118L461.396 212.788Z" fill="#70708C" fill-opacity="0.08"/>
<path fill-rule="evenodd" clip-rule="evenodd" d="M525.22 265.439H487.574C486.683 265.439 486.24 265.004 486.24 264.181V233.7H414.06C413.227 233.7 412.781 233.267 412.781 232.398V203.826L485.462 85.4585C485.963 84.7628 486.683 84.416 487.574 84.416H525.22C525.833 84.416 526.167 84.7628 526.167 85.4585L526.501 202.699H549.966C551.023 202.699 551.579 203.133 551.579 204.086V232.398C551.579 233.267 551.135 233.7 550.3 233.7H526.501V264.181C526.501 265.004 526.055 265.439 525.22 265.439ZM452.208 202.699H486.24V146.029L452.208 202.699Z" fill="#0B4565"/>
<path fill-rule="evenodd" clip-rule="evenodd" d="M523.318 265.439H485.671C484.781 265.439 484.335 265.004 484.335 264.181V233.7H412.158C411.323 233.7 410.879 233.267 410.879 232.398V203.826L483.558 85.4585C484.059 84.7628 484.781 84.416 485.671 84.416H523.318C523.929 84.416 524.263 84.7628 524.263 85.4585L524.596 202.699H548.062C549.121 202.699 549.677 203.133 549.677 204.086V232.398C549.677 233.267 549.23 233.7 548.398 233.7H524.596V264.181C524.596 265.004 524.153 265.439 523.318 265.439ZM450.303 202.699H484.335V146.029L450.303 202.699Z" fill="#C2FF00"/>
<path fill-rule="evenodd" clip-rule="evenodd" d="M444.575 30.9528C446.786 30.8111 448.978 30.9438 451.111 31.333L455.099 25.6702L465.23 30.6715L463.88 37.4439C465.602 38.9278 467.146 40.64 468.461 42.5527L474.696 41.4708L478.323 52.1708L473.111 55.6517C473.308 58.1066 473.162 60.5435 472.703 62.9021L477.86 66.5337L472.86 76.6656L466.613 75.4203C465.032 77.2443 463.198 78.8698 461.134 80.2315L461.548 86.5789L450.849 90.206L447.936 84.6431C445.469 84.7951 443.025 84.6005 440.666 84.0912L436.549 88.7816L426.418 83.7825L428.297 77.7774C426.597 76.2487 425.079 74.4926 423.799 72.5351L416.952 72.981L413.325 62.281L419.431 59.0873C419.324 56.8636 419.497 54.6631 419.926 52.5258L414.748 47.983L419.748 37.8519L426.238 39.8831C427.69 38.2515 429.351 36.7863 431.201 35.5349L430.037 28.8341L440.737 25.207L444.575 30.9528ZM442.518 46.6474C436.363 48.7361 433.063 55.4176 435.151 61.5748C437.238 67.7306 443.921 71.0303 450.079 68.9416C456.234 66.8551 459.534 60.1714 457.445 54.0157C455.357 47.8584 448.675 44.5609 442.518 46.6474Z" fill="#70708C" fill-opacity="0.08"/>
<path fill-rule="evenodd" clip-rule="evenodd" d="M467.086 298.217C505.456 324.697 506.069 317.074 463.953 337.065C421.838 357.055 428.131 361.396 431.877 314.929C435.623 268.459 428.715 271.74 467.086 298.217ZM453.579 323.344C453.562 323.955 453.784 324.749 454.251 325.73C454.919 327.14 455.615 327.973 456.34 328.231C457.062 328.488 458.185 328.257 459.707 327.533C461.228 326.813 462.02 325.99 462.074 325.069C462.084 324.572 462.041 324.168 461.941 323.861C461.842 323.553 461.647 323.098 461.362 322.494L461.075 321.891C460.586 320.86 459.982 320.222 459.265 319.976C458.546 319.731 457.642 319.867 456.547 320.387C455.451 320.907 454.689 321.376 454.255 321.799C453.824 322.219 453.598 322.735 453.579 323.344ZM456.551 316.548C456.97 316.195 457.204 315.812 457.255 315.402C457.308 314.992 457.293 314.654 457.211 314.383C457.13 314.115 456.963 313.715 456.714 313.187L451.034 301.223C450.784 300.695 450.578 300.308 450.413 300.062C450.25 299.815 449.994 299.568 449.643 299.316C449.294 299.067 448.846 298.986 448.303 299.075C447.76 299.164 447.085 299.399 446.28 299.781C445.475 300.161 444.866 300.536 444.454 300.901C444.042 301.267 443.813 301.66 443.766 302.083C443.72 302.506 443.741 302.859 443.828 303.14C443.917 303.423 444.085 303.827 444.337 304.355L450.015 316.319C450.264 316.848 450.469 317.228 450.626 317.463C450.784 317.696 451.034 317.932 451.378 318.169C451.723 318.408 452.163 318.476 452.701 318.374C453.238 318.273 453.911 318.031 454.716 317.649C455.519 317.266 456.132 316.899 456.551 316.548Z" fill="#70708C" fill-opacity="0.08"/>
<path fill-rule="evenodd" clip-rule="evenodd" d="M121.702 305.953L133.909 297.492L153.394 349.734L123.583 323.182L114.196 329.025L98.1167 275.658L121.702 305.953Z" fill="#70708C" fill-opacity="0.08"/>
<path fill-rule="evenodd" clip-rule="evenodd" d="M74.3617 0.95081C87.9551 -2.85007 102.054 5.085 105.857 18.679C109.302 30.9935 103.109 43.721 91.8065 48.8343L92.6856 51.9753C93.001 51.9671 93.3224 51.9649 93.6453 51.9731L100.386 76.068C101.035 78.3849 99.467 80.8688 96.9026 81.5854C94.3389 82.3021 91.7118 80.9934 91.0622 78.6742L84.3219 54.5793C84.5918 54.4041 84.867 54.237 85.1436 54.0804L84.2644 50.9396C71.9604 52.419 60.0763 44.7526 56.6348 32.4463C52.8326 18.8544 60.7699 4.7531 74.3617 0.95081ZM76.5116 8.63598C67.1642 11.2512 61.7066 20.9489 64.3209 30.2962C66.9361 39.6457 76.6315 45.1035 85.9811 42.4883C95.3284 39.8739 100.786 30.1754 98.171 20.8288C95.5566 11.4815 85.8581 6.02156 76.5116 8.63598Z" fill="#70708C" fill-opacity="0.08"/>
<path fill-rule="evenodd" clip-rule="evenodd" d="M38.3216 113.111L39.7802 115.083L51.4631 106.439C52.4123 105.738 53.7628 105.941 54.4667 106.89C55.1684 107.839 54.9656 109.19 54.0163 109.891L42.3335 118.535L49.3348 127.998L61.0176 119.357C61.9661 118.656 63.3174 118.856 64.0191 119.805C64.723 120.755 64.5201 122.105 63.5709 122.807L51.888 131.45L53.5643 133.718C54.1452 134.504 53.9782 135.622 53.1922 136.204L41.361 144.957L41.8434 145.61C42.8263 146.94 42.543 148.829 41.2155 149.812C39.886 150.796 37.9963 150.512 37.0128 149.185L35.8525 147.618L29.3186 148.373L25.4507 151.083L14.9602 155.256C13.0892 156.095 11.8692 156.234 11.3033 155.674L9.07292 152.855C3.47129 156.87 3.36756 159.886 5.2304 162.753C6.31684 164.423 7.98879 166.15 9.7344 167.955C15.5643 173.979 22.1339 180.767 15.8372 191.513L12.4636 189.529C17.2554 181.348 11.7784 175.689 6.91713 170.667C5.03129 168.719 3.2259 166.854 1.95153 164.895C-1.10881 160.187 -1.27206 155.464 6.63974 149.776L5.36755 148.166C4.69939 146.949 4.77548 145.79 5.53903 144.682L13.2287 135.333L17.6299 131.85L20.128 126.358L18.6888 124.411C17.706 123.083 17.9871 121.192 19.3167 120.209C20.6464 119.226 22.536 119.509 23.5188 120.837L24.0028 121.492L35.8339 112.739C36.62 112.157 37.7407 112.324 38.3216 113.111Z" fill="#70708C" fill-opacity="0.08"/>
<path fill-rule="evenodd" clip-rule="evenodd" d="M501.603 13.8834C502.89 13.7991 504.167 13.8768 505.41 14.1057L507.733 10.806L513.635 13.7186L512.849 17.6626C513.85 18.5276 514.749 19.5253 515.516 20.6387L519.148 20.0094L521.261 26.2427L518.224 28.2695C518.338 29.6991 518.254 31.1196 517.987 32.4932L520.991 34.6072L518.078 40.5086L514.44 39.7837C513.518 40.8471 512.449 41.7942 511.249 42.5869L511.49 46.2832L505.255 48.3973L503.56 45.1549C502.123 45.2436 500.701 45.131 499.326 44.8357L496.928 47.5665L491.026 44.6538L492.121 41.1572C491.131 40.2676 490.247 39.2445 489.502 38.1028L485.513 38.3631L483.399 32.1313L486.957 30.2693C486.896 28.9755 486.995 27.6929 487.244 26.4498L484.23 23.8033L487.142 17.9018L490.922 19.0853C491.768 18.1338 492.736 17.2822 493.812 16.5529L493.135 12.6484L499.367 10.5352L501.603 13.8834ZM500.405 23.0256C496.819 24.2411 494.898 28.1321 496.114 31.7198C497.329 35.3043 501.223 37.226 504.808 36.0105C508.395 34.795 510.316 30.9017 509.099 27.3164C507.883 23.7297 503.991 21.808 500.405 23.0256Z" fill="#70708C" fill-opacity="0.08"/>
<path fill-rule="evenodd" clip-rule="evenodd" d="M70.8545 285.799L60.8203 287.166L75.0819 322.405L77.8409 295.327L85.2538 293.941L68.7597 259.706L70.8545 285.799Z" fill="#70708C" fill-opacity="0.08"/>
<path fill-rule="evenodd" clip-rule="evenodd" d="M236.077 207.849L236.206 204.69C236.204 204.336 236.255 204.214 236.264 203.923L236.318 202.271C236.563 197.733 237.073 187.885 236.707 184.006C236.561 182.47 235.522 178.663 235.107 177.083C234.993 176.644 234.851 176.168 234.735 175.75C231.658 164.796 227.382 156.81 222.312 147.146C218.817 140.202 213.551 132.779 209.237 126.014C203.434 116.498 196.715 107.587 190.923 98.1312C189.373 95.6033 187.778 93.0165 186.998 90.1223C186.591 88.6235 186.082 87.0426 186.664 85.5206C186.871 84.9733 187.171 84.9584 186.854 84.4387C185.788 82.6878 184.787 80.8661 183.924 79.0056C182.438 75.7991 179.72 70.111 179.775 66.6956C179.851 61.7934 185.068 60.2714 188.872 58.7472C189.136 58.642 189.376 58.557 189.627 58.4578L192.635 57.2849C204.662 52.5922 215.806 51.59 228.626 50.8607C235.815 50.4528 243.249 50.2604 250.436 49.719C253.085 49.5206 253.229 49.8971 254.585 47.6332L258.166 40.8183C259.156 38.5014 259.84 35.5276 261.301 33.5596C262.197 32.3479 263.597 31.5769 264.388 30.4306C265.237 29.201 265.95 27.8796 266.886 26.7149C267.687 25.7216 269.513 24.5248 270.853 24.5248C273.53 24.5248 275.833 26.8924 277.522 28.7104C278.41 29.7081 278.222 29.5202 279.345 29.26C281.207 28.829 282.832 29.0356 284.671 29.4062C285.117 29.4949 285.492 29.5851 285.879 29.6828L286.969 30.0228C287.206 29.8647 287.553 29.4672 287.779 29.2406C288.057 28.9617 288.305 28.7231 288.609 28.4755C289.937 27.4017 290.795 26.685 292.395 25.8797C293.528 25.3071 294.913 24.9983 296.268 24.9693C296.618 24.9073 298.117 23.8336 300.019 23.0155C301.692 22.2989 302.987 21.8552 304.179 21.9529C305.695 22.0751 307.033 22.9991 308.608 24.5122C311.332 27.1295 314.505 31.1817 316.122 33.2063C317.847 35.4299 321.33 40.2054 323.586 42.0212C326.471 44.3441 327.755 44.0524 331.196 44.9168L333.096 45.3269C336.799 46.1196 340.486 46.4261 344.229 46.9525C349.591 47.7093 354.701 48.5907 359.924 49.8987C362.42 50.5243 364.881 51.0724 367.348 51.7696C369.787 52.4609 372.194 53.1521 374.587 53.824C377.371 54.6062 380.777 55.545 383.469 56.6017C386.528 57.8656 392.675 59.9312 395.468 62.0385C398.036 63.9788 399.475 67.8975 399.112 71.06C398.887 73.0235 399.01 75.4865 398.712 77.2575C398.383 79.2172 397.55 81.0688 396.685 82.8189L392.633 91.0336C390.289 95.4175 388.255 100.002 385.909 104.414C382.497 110.831 378.724 117.048 374.851 123.296C373.854 124.793 372.782 126.242 371.7 127.68C367.128 134.127 364.576 137.281 361.463 143.897C361.365 144.136 361.26 144.347 361.157 144.58C360.051 147.04 358.852 149.404 358.493 152.056C357.711 157.814 359.704 162.399 356.775 169.949C355.889 172.23 354.489 174.826 353.01 176.8C351.535 178.612 349.087 181.287 347.939 183.387C347.806 183.634 347.687 183.816 347.573 184.067C346.664 186.096 347.624 193.993 347.789 196.168C348.097 200.231 348.638 204.097 349.328 207.978C338.243 227.795 317.057 241.194 292.74 241.194C268.367 241.195 247.141 227.738 236.077 207.849ZM318.425 55.3228C320.433 59.1147 321.95 62.216 322.867 66.4985C324.542 74.3112 320.847 82.9039 320.847 91.1245C320.847 96.1699 322.607 100.07 324.878 103.921C325.345 104.712 326.197 105.695 326.727 106.58C326.833 106.758 326.909 106.889 327.004 107.073C327.19 107.434 327.702 108.246 327.776 108.557L334.1 104.213C336.165 102.847 338.854 101.668 341.104 100.602C341.257 100.531 341.335 100.509 341.482 100.431C343.657 99.275 344.646 98.5203 346.432 96.9118C347.081 96.3153 347.225 96.0706 347.725 95.5651C348.279 95.0095 349.52 93.1557 349.941 92.4473L353.6 86.5354C356.523 82.1469 359.639 79.3565 363.338 75.6511C365.034 73.9562 364.539 73.2478 363.074 72.159C362.414 71.6684 359.909 70.2628 359.087 69.8212L356.299 68.3731C352.706 66.5618 348.053 64.8452 344.185 63.4948C341.615 62.5962 338.689 61.2815 336.239 60.77L332.883 59.8931C332.329 59.7321 331.823 59.5904 331.259 59.4278C327.75 58.4129 326.517 57.9543 323.374 56.697C321.842 56.0818 321.629 56.1109 320.086 55.7501L318.425 55.3228ZM262.299 96.0431C264.066 85.4065 257.044 76.7251 261.511 63.3577L262.441 61.0409C260.885 61.8648 258.183 62.2817 256.281 62.7463C254.195 63.2579 252.045 63.7126 249.87 64.1459C247.663 64.5814 245.503 65.0505 243.343 65.4815C233.97 67.3569 228.087 69.4449 219.537 73.0235C219.051 73.1995 218.607 73.415 218.121 73.5857L214.61 74.9705C214.371 75.0719 214.185 75.1712 213.934 75.2308C214.011 75.5247 215.914 77.4038 216.174 77.6655C216.313 77.805 216.358 77.8199 216.502 77.9429C218.467 79.7079 220.362 81.409 222.416 83.0816C226.751 86.6154 230.958 89.9912 235.422 93.3394C241.337 97.7785 253.176 103.418 260.734 102.949C260.782 100.835 261.94 98.1944 262.299 96.0431Z" fill="#111111"/>
<path fill-rule="evenodd" clip-rule="evenodd" d="M298.859 24.5376C300.016 23.789 302.643 22.6562 304.071 22.6562C306.912 22.6562 312.803 30.2363 315.15 33.3563C317.262 36.087 320.134 40.1055 322.758 42.4135C325.33 44.6797 327.008 44.7706 330.13 45.5439C333.906 46.4909 337.554 46.9838 341.513 47.47C353.377 48.9241 362.552 51.1202 374.281 54.6294C376.547 55.3072 378.851 55.9142 381.1 56.6644L383.575 57.4891C385.624 58.2348 394.178 61.8581 395.571 63.2578L396.123 63.8597C397.729 65.7008 398.279 68.2168 398.279 70.6112C398.279 71.2353 398.209 72.3256 398.084 73.3085C397.947 74.3763 397.953 75.3546 396.924 75.858C393.984 77.2934 390.306 76.1667 387.357 75.4284L378.47 73.2622C376.449 72.7588 374.549 72.1757 372.427 71.937C369.924 71.6559 367.965 71.3322 365.513 71.9982C364.386 72.3047 364.936 72.4502 363.718 71.5709C362.731 70.8566 360.577 69.6455 359.434 69.0363C358.298 68.4301 357.186 67.8022 356.003 67.2974C355.193 66.9506 354.447 66.5972 353.631 66.2594C350.781 65.0567 347.93 63.9128 345.009 62.8919L341.257 61.5287C339.574 60.9031 337.829 60.2938 336.057 59.8545C334.203 59.3959 332.5 58.9008 330.71 58.3856C328.892 57.8614 327.236 57.3199 325.543 56.6749C323.326 55.8316 322.852 55.4282 320.447 54.9523C316.661 54.2021 314.92 52.1007 313.228 48.719C311.303 44.863 309.976 39.9951 307.756 36.8438C307.534 36.5268 307.269 36.186 306.999 35.8968L304.084 32.817C303.336 32.0647 302.797 31.301 301.74 30.8722C300.645 30.4285 298.076 31.0266 298.076 29.2003C298.076 27.3465 302.442 25.8075 303.828 26.6381C304.671 27.1437 305.243 27.8222 305.929 28.4986L306.644 29.2675C306.919 29.568 307.113 29.9699 307.591 29.9699C307.849 29.9699 308.122 29.5807 307.441 28.9125C307.234 28.7097 307.13 28.5427 306.919 28.3338C306.551 27.9721 306.243 27.5427 305.859 27.1921C305.018 26.4121 304.146 25.5158 302.862 25.5158C302.482 25.5158 302.207 25.6172 301.877 25.6851C301.009 25.8648 300.29 26.2473 299.637 26.427C298.529 26.7314 296.251 26.2245 298.859 24.5376ZM296.65 85.2157C297.745 84.0063 297.411 84.0934 296.029 82.945C294.995 82.0875 293.01 79.6438 291.666 79.4007C291.163 79.3075 290.962 79.6923 290.197 79.6312C288.916 79.5313 288.882 78.1703 285.743 80.2717C284.625 81.0197 283.832 82.0242 282.756 82.7892C282.058 83.2836 281.989 83.2434 282.606 84.3172C286.571 90.2186 292.996 89.2426 296.65 85.2157ZM298.132 63.3527C298.132 65.2639 300.951 65.8791 301.687 64.0462C301.989 63.287 301.86 62.5392 301.311 61.9895C300.089 60.7696 298.132 61.7107 298.132 63.3527ZM293.488 75.2555C292.708 75.2555 292.539 74.9803 291.507 74.9803C290.875 74.9803 290.532 75.5343 290.068 75.6887C289.512 75.8751 288.994 75.365 288.262 75.365C287.485 75.365 286.935 76.3971 285.84 75.6447C285.621 75.4919 285.612 75.321 285.434 75.1943C285.413 75.1794 285.392 75.1667 285.371 75.1563C285.003 74.9638 284.509 75.3002 284.775 75.8684C284.84 76.0055 284.948 76.1562 285.113 76.3166C285.396 76.591 286.189 76.9616 286.723 76.9616C287.282 76.9616 287.878 76.5299 288.191 76.4457C288.666 76.3189 289.561 77.2443 290.797 76.5261C291.023 76.3949 291.271 76.1391 291.499 76.0675C291.835 75.9639 292.898 76.3568 293.433 76.3568C293.904 76.3568 294.754 75.9951 294.974 75.4986C295.24 74.8961 294.564 74.5538 294.151 74.8879C293.974 75.0356 293.832 75.2555 293.488 75.2555ZM279.378 66.1029C280.004 66.1029 280.518 65.8896 280.903 65.5361C282.243 64.3169 281.308 61.9218 279.488 61.9218C277.823 61.9218 276.582 63.9106 277.941 65.4496C278.205 65.7456 278.827 66.1029 279.378 66.1029ZM296.374 54.883C296.374 55.3095 296.678 55.6518 297.088 55.6518C297.637 55.6518 299.892 53.8197 304.364 55.7473C304.901 55.98 305.46 56.2969 305.902 56.6266C306.576 57.1276 306.879 57.6877 307.426 57.6877C307.752 57.6877 308.141 57.3477 308.141 56.9181C308.141 56.0114 305.429 54.4626 304.271 54.08C302.28 53.4201 299.802 53.042 297.754 53.7899C297.255 53.9718 296.374 54.2231 296.374 54.883ZM270.414 55.8189C270.414 56.3074 270.697 56.5885 271.185 56.5885C271.604 56.5885 271.623 56.4178 271.868 56.2254C273.164 55.2149 272.352 55.7393 273.847 54.9063C274.255 54.6781 274.923 54.479 275.451 54.3649C276.711 54.0904 277.793 54.0145 279.072 54.3097C279.689 54.4537 280.275 54.6736 280.791 54.9569C281.23 55.1955 281.763 55.6437 282.071 56.0412C282.545 56.646 283.448 56.3582 283.448 55.5423C283.448 54.9085 281.815 53.731 281.266 53.4917C279.436 52.699 278.932 52.6297 276.906 52.6297C275.493 52.6297 274.05 53.1621 273.037 53.6021C272.854 53.6827 272.822 53.7288 272.65 53.8199C272.487 53.9085 272.418 53.9399 272.259 54.0354C271.75 54.3416 270.414 55.2566 270.414 55.8189ZM268.49 68.5778C268.49 66.9843 268.651 66.1707 269.296 64.8746C269.458 64.5496 269.845 63.8687 270.084 63.6801C270.397 63.4355 270.616 63.1499 271.177 62.7398C271.745 62.3215 273.225 61.6683 273.933 61.4819C276.423 60.831 278.694 60.848 281.217 61.3491C282.194 61.5437 283.031 61.8756 283.866 62.2201C287.049 63.5429 286.673 68.6354 285.561 71.2968C285.122 72.3512 284.565 73.2095 283.82 73.9537C280.757 77.0058 276.261 77.6106 272.394 75.6718C272.135 75.5414 271.925 75.4288 271.682 75.2856C270.393 74.5205 269.886 73.4631 269.251 72.2162C268.866 71.2608 268.49 69.9244 268.49 68.5778ZM292.524 65.9379C292.524 67.2676 292.894 68.7701 293.277 69.7492C294.11 71.8797 295.202 73.814 297.289 74.8663C298.728 75.5896 300.495 75.917 302.224 75.8283C304.949 75.6888 307.439 74.5665 308.978 72.2728C309.781 71.0767 310.396 68.6412 310.396 67.0924C310.396 65.1028 309.891 63.5198 308.849 62.3169C308.13 61.4861 307.153 60.8352 305.911 60.3595C303.693 59.5102 300.013 59.2581 297.193 59.9918C295.557 60.4169 293.731 61.3929 292.996 63.0149C292.615 63.8538 292.524 64.7985 292.524 65.9379ZM289.829 62.8031C291.309 62.8031 293.788 60.3467 295.648 59.6048C300.951 57.4892 305.496 59.6219 310.673 60.4929C311.088 60.5622 311.831 60.8016 312.102 60.8225C310.54 56.0985 308.728 50.5535 305.695 46.5438C296.656 34.5971 276.664 34.6581 271.067 48.2202C270.517 49.5498 269.915 50.9531 269.458 52.3334C269.332 52.7137 269.23 53.0247 269.129 53.4304L268.162 59.6152C268.104 60.038 268.051 60.4482 267.992 60.8754C267.941 61.2497 267.83 61.7502 267.83 62.1439C268.275 62.1335 270.048 61.8374 270.448 61.736C271.219 61.5436 271.97 61.3109 272.701 61.0194C276.043 59.6854 279.865 59.909 283.263 61.0634C283.671 61.2005 284.035 61.3639 284.383 61.5369L285.922 62.4183C286.671 62.9262 288.855 62.8031 289.829 62.8031ZM312.277 79.0727C312.379 79.8258 314.123 80.2629 314.947 79.5633C315.981 78.6841 314.311 74.6126 313.366 73.5262C312.954 75.3002 312.598 77.2823 312.277 79.0727ZM265.464 69.9521C265.563 69.7321 265.854 69.0363 266.015 68.8529C266.015 73.7059 266.358 74.2577 267.275 78.7006C267.355 79.0839 267.546 79.6371 267.554 80.0159C267.214 80.0957 266.85 80.4343 265.977 79.9988C263.162 78.5977 264.472 72.1735 265.464 69.9521ZM306.006 92.2567C305.663 98.1543 307.561 106.535 309.187 112.418C309.295 112.813 308.405 113.883 308.16 114.188C307.135 115.449 306.543 116.115 305.228 117.138C303.425 118.542 301.859 119.615 299.596 120.363C298.187 120.829 296.276 121.321 294.777 121.484C292.102 121.776 289.463 121.87 286.811 121.093C281.665 119.582 277.747 114.677 276.085 109.708C275.802 108.862 275.633 107.833 275.538 106.698C275.212 102.792 275.789 97.6427 275.859 94.5355C278.973 96.7994 281.501 98.7882 286.868 99.3653C288.263 99.5152 289.316 99.4712 290.656 99.4309C293.984 99.3332 296.035 98.6636 299.014 97.1752C301.438 95.8375 303.277 94.8099 305.35 92.8994C305.562 92.6853 305.773 92.4154 306.006 92.2567ZM312.597 62.1984C310.931 62.5325 311.345 64.8687 311.296 66.9313C311.28 67.6605 311.168 68.5696 310.87 69.7657C310.466 71.0237 310.235 72.0088 309.407 73.0885C308.246 74.6022 307.065 75.4687 305.249 76.078C304.2 76.4286 303.159 76.644 302.123 76.7015C300.629 76.7835 299.145 76.5426 297.661 75.9237C294.389 74.5583 293.383 72.2138 291.824 69.3853L291.002 67.4577C289.858 65.0714 288.193 66.1363 287.282 68.2862C286.903 69.178 286.931 71.0915 285.572 73.1205C285.086 73.8476 284.513 74.4651 283.874 75.0548C283.12 75.7544 282.202 76.4687 281.228 76.8049C279.423 77.4305 278.774 77.5977 276.739 77.5977C274.694 77.5977 272.469 76.8616 270.963 75.7819C269.262 74.5597 268.317 72.6999 267.884 70.6895C267.55 69.1385 267.831 66.5047 267.28 65.278C267.28 65.5554 267.201 65.9148 267.152 66.1959C266.599 69.5188 266.951 73.0444 267.605 76.2829C267.919 77.8362 268.268 79.4156 268.685 80.9689C270.272 86.8727 271.754 90.2186 276.74 94.0955C278.55 95.4802 281.017 96.8904 283.208 97.636C291.641 100.503 300.787 96.9702 306.424 90.5086C307.219 89.5974 307.946 88.6398 308.544 87.5683C308.954 86.8309 309.331 86.0927 309.658 85.2746C310.473 83.2389 310.969 80.8399 311.484 78.6311C312.301 75.1435 312.927 71.9623 312.927 68.2481C312.926 66.589 312.962 63.771 312.597 62.1984ZM276.793 29.3653C276.157 29.029 275.422 28.6673 274.698 28.4369C272.946 27.8792 271.471 28.5174 270.152 29.5979C269.924 29.7859 268.83 30.621 268.772 30.9208C268.763 30.9566 268.761 31.0289 268.763 31.0647C268.772 31.1408 268.886 31.5993 269.331 31.422C269.619 31.3078 269.926 30.9104 270.152 30.6994C270.281 30.5809 270.448 30.4578 270.581 30.3563C272.153 29.1267 273.151 28.6949 275.104 29.4585C275.736 29.7053 276.742 30.1431 277.07 30.6314C272.179 33.2168 269.904 35.8058 267.634 41.2129C267.526 41.4687 267.438 41.6761 267.336 41.9064C264.918 47.3828 264.73 56.0493 263.339 59.0261C263.046 59.6532 263.058 59.6853 262.451 60.0633C262.007 60.3407 261.682 60.4861 261.154 60.6889C259.507 61.328 244.298 64.4264 242.299 64.8239C230.055 67.2594 221.182 71.3599 209.626 76.2591C209.358 76.3882 208.489 76.7394 208.345 76.9042C208.1 77.1875 208.201 77.8915 209.131 77.4113C210.126 76.8998 211.934 76.1816 213.109 75.6171C213.49 76.1854 215.287 77.8556 215.365 78.1472C215.098 78.2166 213.836 79.3329 213.542 79.57C208.467 83.611 203.189 85.6191 196.964 87.4096C195.582 87.807 193.064 88.6571 191.716 88.6504C190.365 88.6571 190.088 87.9383 189.044 86.3738C187.477 83.8735 185.952 81.2568 184.666 78.5976C182.973 75.0906 180.635 69.7746 180.677 66.6456C180.713 63.8708 182.383 62.592 184.694 61.4458C187.371 60.1184 192.479 58.2334 195.189 57.2564C196.817 56.6666 198.431 56.111 200.118 55.6413C210.088 52.9762 218.248 52.5407 228.483 51.8808C235.793 51.4096 243.104 50.9658 250.42 50.5625C253.618 50.1881 253.939 50.6721 255.583 47.5879C256.056 46.7064 256.543 45.8295 257.015 44.9481C257.685 43.5954 258.252 42.5783 258.903 41.116C259.661 39.4098 260.262 37.6023 260.98 35.8775C261.071 35.6582 261.145 35.533 261.238 35.3115L261.834 34.2586C262.678 33.0604 264.056 32.1617 265.039 30.9739C265.445 30.4817 265.977 29.5786 266.321 29.0119C266.719 28.3549 267.163 27.6338 267.706 27.097C268.524 26.288 269.568 25.402 270.909 25.4042C271.513 25.4064 272.619 25.8374 273.708 26.5668C275.121 27.5114 276.514 28.8538 276.793 29.3653Z" fill="white"/>
<path fill-rule="evenodd" clip-rule="evenodd" d="M365.008 73.0299C366.646 71.9329 372.29 72.7294 373.765 73.0172C375.86 73.4206 377.731 73.9687 379.758 74.4481L389.798 76.8917C390.445 77.0438 391.178 77.1662 391.897 77.2676L393.554 77.4204C394.305 77.4412 395.597 77.2087 396.268 77.014C396.888 76.8343 397.643 76.3168 398.004 76.2191C397.835 78.2652 397.046 79.8656 396.284 81.6478L395.163 84.1019C395.051 84.3256 394.996 84.4845 394.888 84.7082C393.73 87.1242 392.468 89.4746 391.278 91.8766L389.187 96.1099C387.858 98.7459 386.546 101.384 385.182 104.003C383.081 108.038 380.857 112.004 378.513 115.901C377.83 117.039 377.194 118.144 376.469 119.247L374.357 122.526C372.731 124.997 370.14 128.409 368.314 130.838C364.813 135.498 361.18 141.366 359.254 146.856C358.908 147.839 357.931 150.111 357.912 150.959L357.632 148.545C357.569 147.778 357.447 146.962 357.351 146.184C356.814 141.774 355.937 137.094 354.832 132.92C354.117 130.216 353.293 127.506 352.405 124.843C351.812 123.057 350.759 119.594 349.994 118.018C349.837 117.696 349.725 117.246 349.334 117.246C349.19 117.246 349.004 117.491 349.004 117.576C349.004 117.777 349.323 118.59 349.413 118.819C349.85 119.963 350.632 121.994 350.941 123.121L351.566 125.023C351.855 125.885 352.09 126.697 352.38 127.566L354.57 135.44C354.79 136.313 354.982 137.266 355.168 138.196C355.777 141.242 356.95 148.389 356.975 151.456C357.261 155.85 357.956 163.772 356.889 167.038C356.267 168.943 355.623 170.689 354.686 172.425C353.695 174.267 353.042 175.341 351.746 177.075C350.27 179.045 347.527 181.643 346.717 184.086C345.908 186.532 346.668 193.427 346.894 195.917C347.087 198.05 347.281 200.028 347.322 200.32C347.706 203.37 348.15 206.237 348.672 209.122C342.215 220.137 332.597 229.074 321.064 234.688C320.656 229.955 320.101 225.288 319.661 220.944C319.466 219.617 319.308 218.302 319.103 217.049L318.595 214.199C318.532 213.878 318.509 213.496 318.253 213.379C317.98 213.257 317.71 213.495 317.724 213.804C317.737 214.035 317.832 214.495 317.876 214.753C317.987 215.406 318.08 216.03 318.183 216.702C318.382 218.002 318.591 219.31 318.745 220.594L319.227 224.568C319.415 225.943 319.498 227.258 319.643 228.66C319.861 230.763 320.071 232.908 320.246 235.077C311.896 239.001 302.574 241.194 292.739 241.194C268.946 241.194 248.153 228.37 236.884 209.259C236.961 207.562 237.034 205.86 237.085 204.138L237.174 202.136C237.472 200.162 237.649 191.554 237.637 188.798C237.624 185.496 237.857 182.406 237.857 179.227C237.857 176.633 237.747 174.217 237.747 171.638C237.747 166.269 238.132 161.19 238.132 155.799C238.132 153.445 238.036 151.157 237.967 148.816C237.861 146.879 237.839 144.66 237.857 142.709C237.865 141.847 236.977 141.272 236.977 143.096C236.98 145.119 237.14 147.188 237.144 149.198C237.147 151.669 237.252 154.168 237.252 156.679C237.252 158.562 237.134 160.473 237.142 162.346L237.071 164.197C236.816 166.066 236.859 169.192 236.867 171.503C236.88 174.633 236.977 177.736 236.977 180.877C236.787 180.573 235.78 176.371 235.595 175.659C235.432 175.1 235.265 174.515 235.106 173.948C234.792 172.818 234.449 171.689 234.081 170.573C231.386 162.371 227.265 154.747 223.265 147.127C219.255 139.077 212.263 129.142 207.185 121.189C202.339 112.987 196.416 105.591 191.662 97.7425C190.916 96.5121 190.191 95.2668 190.118 95.1385C189.03 93.1281 188.069 91.1624 187.536 88.8687C189.066 89.6695 189.453 89.8366 191.594 89.5749C194.792 89.1812 200.658 87.2177 203.302 86.1589C208.367 84.1298 211.149 82.7913 215.266 79.2023C215.504 78.9928 215.711 78.8138 215.968 78.64C217.16 79.4394 219.526 81.8085 220.858 82.8927C226.002 87.0805 230.845 90.9806 236.159 94.9648C241.199 98.7485 253.052 103.828 259.58 103.828C263.177 103.828 265.069 103.143 268.401 102.31C268.724 102.23 269.204 102.069 269.534 102.069L269.479 104.378C269.479 106.348 269.796 108.322 270.347 110.208C274.244 123.588 289.201 131.821 302.538 126.987C303.297 126.712 304.253 126.338 304.942 125.925C308.882 123.577 311.463 121.445 313.733 117.229C315.001 114.873 315.434 112.463 315.621 112.076C316.052 112.087 316.76 112.262 317.238 112.33C322.205 113.017 324.23 112.04 327.861 109.525L330.902 107.394C332.527 106.194 334.216 105.039 336.004 104.084C337.307 103.393 338.581 102.754 339.91 102.103C343.916 100.182 346.816 98.5539 349.464 94.7218C350.19 93.6755 350.826 92.6017 351.481 91.5131C352.449 89.9023 353.43 88.3111 354.47 86.7466L355.554 85.1911C358.568 81.2024 360.323 80.0099 363.838 76.3471C364.568 75.5879 365.172 74.7551 365.172 73.9669C365.173 73.6198 365.143 73.3342 365.008 73.0299ZM270.359 104.487C270.359 106.401 270.706 108.078 271.097 109.636C273.589 119.561 281.942 125.587 291.611 127.341C292.856 127.515 293.74 127.53 294.997 127.53C301.748 127.53 305.684 124.972 310.324 120.696C312.226 118.423 313.287 116.656 314.294 113.665C315.002 111.562 314.763 111.849 314.281 111.712C313.497 111.488 312.632 111.14 311.916 110.776C311.521 110.575 311.425 110.474 311.113 110.262C310.282 112.467 309.502 114.253 307.758 115.984L305.68 117.864C303.374 119.761 301.368 120.744 298.468 121.599C297.982 121.742 297.369 121.881 296.825 121.992C292.615 122.827 288.614 122.942 284.656 121.21C284.377 121.085 284.141 120.99 283.87 120.84C280.811 119.13 278.106 115.976 276.554 112.921C276.408 112.634 276.316 112.421 276.189 112.133C275.345 110.237 274.895 109.258 274.442 106.893C273.952 104.322 273.878 104.058 273.878 101.408C273.026 101.408 271.039 101.575 270.468 101.848C270.334 102.431 270.359 103.788 270.359 104.487Z" fill="#0B4565"/>
<path fill-rule="evenodd" clip-rule="evenodd" d="M286.394 83.5063C288.267 82.4563 290.564 82.1894 292.807 83.5763C291.898 84.2951 287.157 84.0521 286.394 83.5063Z" fill="white"/>
<path d="M336.411 163.828H336.353V164.051H336.411V163.828Z" fill="#F37D80"/>
</svg>
