<svg width="222" height="128" viewBox="0 0 222 128" fill="none" xmlns="http://www.w3.org/2000/svg">
<rect width="222" height="128" rx="6" fill="#E6F0F8"/>
<path d="M53.5745 62.8351L53 62.9023L54.0255 71.6679L54.6001 71.6007L53.5745 62.8351Z" fill="#407BFF"/>
<path d="M54.9798 74.8586L54.4053 74.9258L54.9224 79.3462L55.497 79.2789L54.9798 74.8586Z" fill="#407BFF"/>
<path d="M93.279 44.9664L92.5958 43.051C91.6273 40.3358 88.912 38.6488 86.0487 38.9836L58.8387 42.1663C55.4442 42.5631 53.0148 45.6365 53.4116 49.031L61.1571 115.249C61.4293 117.576 63.537 119.243 65.8645 118.971L163.218 107.584C165.546 107.312 167.212 105.204 166.94 102.877L160.245 45.6336C159.973 43.3061 157.865 41.6396 155.537 41.9118L99.0056 48.5237C96.501 48.8163 94.1262 47.3411 93.279 44.9664Z" fill="#407BFF"/>
<path d="M96.0031 16.161L65.2427 22.293L73.6907 64.6713L104.451 58.5393L96.0031 16.161Z" fill="#407BFF"/>
<path opacity="0.7" d="M96.0031 16.161L65.2427 22.293L73.6907 64.6713L104.451 58.5393L96.0031 16.161Z" fill="white"/>
<g opacity="0.4">
<path d="M91.891 26.3649L72.9423 30.1414C72.0233 30.3248 71.13 29.7281 70.9467 28.8091C70.7633 27.8902 71.36 26.9969 72.279 26.8135L91.2277 23.037C92.1466 22.8537 93.0399 23.4504 93.2233 24.3693C93.4066 25.2882 92.8099 26.1816 91.891 26.3649Z" fill="#407BFF"/>
<path d="M93.2877 33.3727L74.339 37.1492C73.4201 37.3326 72.5267 36.7359 72.3434 35.8169C72.1601 34.898 72.7568 34.0047 73.6757 33.8214L92.6244 30.0448C93.5433 29.8615 94.4367 30.4582 94.62 31.3771C94.8028 32.2966 94.2066 33.1899 93.2877 33.3727Z" fill="#407BFF"/>
<path d="M94.6842 40.3805L75.7355 44.157C74.8165 44.3404 73.9232 43.7437 73.7399 42.8248C73.5566 41.9058 74.1532 41.0125 75.0722 40.8292L94.0209 37.0526C94.9398 36.8693 95.8332 37.466 96.0165 38.3849C96.1992 39.3039 95.6031 40.1972 94.6842 40.3805Z" fill="#407BFF"/>
<path d="M96.0809 47.3883L77.1322 51.1649C76.2133 51.3482 75.3199 50.7515 75.1366 49.8326C74.9533 48.9136 75.55 48.0203 76.4689 47.837L95.4176 44.0604C96.3366 43.8771 97.2299 44.4738 97.4132 45.3927C97.596 46.3122 96.9999 47.2056 96.0809 47.3883Z" fill="#407BFF"/>
<path d="M92.2985 55.4274L78.5287 58.1717C77.6098 58.355 76.7164 57.7583 76.5331 56.8394C76.3498 55.9204 76.9465 55.0271 77.8654 54.8438L91.6352 52.0995C92.5542 51.9162 93.4475 52.5129 93.6308 53.4318C93.8136 54.3507 93.2175 55.2441 92.2985 55.4274Z" fill="#407BFF"/>
</g>
<path d="M139.834 8.00071L108.757 12.2539L114.616 55.0687L145.693 50.8155L139.834 8.00071Z" fill="#407BFF"/>
<path opacity="0.7" d="M139.834 8.00071L108.757 12.2539L114.616 55.0687L145.693 50.8155L139.834 8.00071Z" fill="white"/>
<g opacity="0.4">
<path d="M135.11 17.9242L115.967 20.5444C115.039 20.6713 114.183 20.0217 114.056 19.0937C113.929 18.1656 114.579 17.3099 115.507 17.1829L134.65 14.5627C135.578 14.4358 136.434 15.0854 136.561 16.0134C136.688 16.9421 136.039 17.7972 135.11 17.9242Z" fill="#407BFF"/>
<path d="M136.079 25.0057L116.936 27.6258C116.008 27.7528 115.153 27.1032 115.026 26.1751C114.899 25.2465 115.548 24.3913 116.476 24.2644L135.619 21.6448C136.547 21.5178 137.403 22.1674 137.53 23.0955C137.657 24.023 137.007 24.8787 136.079 25.0057Z" fill="#407BFF"/>
<path d="M123.18 33.9789L117.905 34.7008C116.977 34.8278 116.122 34.1782 115.995 33.2501C115.868 32.3215 116.517 31.4663 117.445 31.3394L122.72 30.6174C123.648 30.4904 124.504 31.1401 124.631 32.0681C124.758 32.9968 124.108 33.8519 123.18 33.9789Z" fill="#407BFF"/>
<path d="M133.408 32.5805L128.134 33.3024C127.206 33.4294 126.35 32.7797 126.223 31.8517C126.096 30.9236 126.746 30.0679 127.674 29.9409L132.948 29.219C133.876 29.092 134.732 29.7416 134.859 30.6697C134.986 31.5977 134.336 32.4535 133.408 32.5805Z" fill="#407BFF"/>
<path d="M138.016 39.1625L118.874 41.7827C117.946 41.9096 117.09 41.26 116.963 40.3319C116.836 39.4033 117.486 38.5481 118.414 38.4212L137.556 35.801C138.485 35.674 139.34 36.3237 139.467 37.2517C139.595 38.1798 138.945 39.0349 138.016 39.1625Z" fill="#407BFF"/>
<path d="M133.754 46.9555L119.843 48.8594C118.915 48.9863 118.059 48.3367 117.932 47.4087C117.805 46.4806 118.455 45.6249 119.383 45.4979L133.294 43.594C134.222 43.467 135.078 44.1166 135.205 45.0447C135.332 45.9727 134.683 46.8285 133.754 46.9555Z" fill="#407BFF"/>
</g>
<path d="M110.501 14.2501L79.2542 16.9727L83.005 60.0208L114.252 57.2982L110.501 14.2501Z" fill="#407BFF"/>
<path opacity="0.8" d="M110.501 14.2501L79.2542 16.9727L83.005 60.0208L114.252 57.2982L110.501 14.2501Z" fill="white"/>
<g opacity="0.4">
<path d="M105.305 23.9376L86.0567 25.6149C85.1235 25.6963 84.3008 25.0057 84.2194 24.0719C84.138 23.1388 84.8286 22.316 85.7624 22.2346L105.011 20.5573C105.944 20.4759 106.766 21.1665 106.848 22.1003C106.929 23.034 106.238 23.8561 105.305 23.9376Z" fill="#407BFF"/>
<path d="M105.925 31.0553L86.6768 32.7326C85.7437 32.8141 84.9209 32.1234 84.8395 31.1897C84.7581 30.2565 85.4487 29.4338 86.3825 29.3524L105.631 27.6745C106.564 27.5931 107.387 28.2837 107.468 29.2174C107.549 30.1512 106.859 30.9739 105.925 31.0553Z" fill="#407BFF"/>
<path d="M106.546 38.1758L87.2974 39.8532C86.3643 39.9346 85.5416 39.2439 85.4601 38.3102C85.3787 37.3765 86.0693 36.5543 87.0031 36.4729L106.251 34.7956C107.184 34.7142 108.007 35.4048 108.089 36.3385C108.17 37.2717 107.479 38.0944 106.546 38.1758Z" fill="#407BFF"/>
<path d="M107.166 45.293L87.918 46.9703C86.9843 47.0518 86.1622 46.3611 86.0807 45.4274C85.9993 44.4942 86.6899 43.6715 87.6237 43.5901L106.872 41.9128C107.805 41.8314 108.628 42.522 108.709 43.4557C108.79 44.3889 108.099 45.2116 107.166 45.293Z" fill="#407BFF"/>
<path d="M102.526 52.8672L88.5384 54.0862C87.6052 54.1677 86.7825 53.477 86.7011 52.5433C86.6197 51.6101 87.3103 50.7874 88.2441 50.706L102.231 49.487C103.165 49.4056 103.987 50.0962 104.069 51.0299C104.15 51.9631 103.459 52.7858 102.526 52.8672Z" fill="#407BFF"/>
</g>
<path d="M148.581 12.1483L117.253 13.6602L119.336 56.8207L150.664 55.3088L148.581 12.1483Z" fill="#407BFF"/>
<path opacity="0.8" d="M148.581 12.1483L117.253 13.6602L119.336 56.8207L150.664 55.3088L148.581 12.1483Z" fill="white"/>
<g opacity="0.4">
<path d="M143.016 21.6296L123.718 22.5611C122.782 22.6061 121.986 21.8842 121.941 20.9481C121.896 20.0121 122.618 19.2167 123.554 19.1717L142.852 18.2403C143.789 18.1953 144.583 18.9172 144.629 19.8533C144.674 20.7887 143.952 21.5841 143.016 21.6296Z" fill="#407BFF"/>
<path d="M143.361 28.7664L124.062 29.6978C123.126 29.7428 122.331 29.0209 122.286 28.0848C122.241 27.1488 122.963 26.3534 123.899 26.3085L143.198 25.377C144.134 25.332 144.929 26.054 144.974 26.99C145.019 27.9254 144.297 28.7208 143.361 28.7664Z" fill="#407BFF"/>
<path d="M129.724 36.5789L124.407 36.8356C123.471 36.8806 122.675 36.1587 122.63 35.2227C122.585 34.2866 123.307 33.4918 124.243 33.4463L129.56 33.1895C130.496 33.1445 131.292 33.8665 131.337 34.8025C131.382 35.7385 130.66 36.5339 129.724 36.5789Z" fill="#407BFF"/>
<path d="M140.036 36.0789L134.718 36.3356C133.782 36.3806 132.987 35.6587 132.942 34.7227C132.897 33.7866 133.619 32.9918 134.555 32.9463L139.872 32.6895C140.808 32.6445 141.604 33.3665 141.649 34.3025C141.694 35.2385 140.972 36.0333 140.036 36.0789Z" fill="#407BFF"/>
<path d="M144.05 43.0398L124.751 43.9713C123.815 44.0162 123.02 43.2943 122.975 42.3583C122.93 41.4223 123.652 40.6269 124.588 40.5819L143.886 39.6504C144.823 39.6055 145.618 40.3274 145.663 41.2634C145.708 42.1994 144.986 42.9943 144.05 43.0398Z" fill="#407BFF"/>
<path d="M139.12 50.4304L125.096 51.1074C124.16 51.1524 123.365 50.4304 123.32 49.4944C123.275 48.5584 123.997 47.763 124.933 47.718L138.957 47.0411C139.893 46.9961 140.688 47.718 140.733 48.654C140.778 49.5901 140.056 50.3854 139.12 50.4304Z" fill="#407BFF"/>
</g>
<path d="M101.969 46.1921L101.47 44.3184C100.763 41.6618 98.2325 40.0169 95.3693 40.3517L68.1592 43.5338C64.7647 43.9306 62.0773 46.9459 62.1565 50.2687L63.7006 115.087C63.7547 117.365 65.6859 118.992 68.0134 118.719L165.367 107.333C167.694 107.061 169.537 104.993 169.483 102.714L168.149 46.6818C168.095 44.4032 166.163 42.7771 163.836 43.0493L107.304 49.6612C104.8 49.9538 102.587 48.5151 101.969 46.1921Z" fill="#407BFF"/>
<path opacity="0.3" d="M101.969 46.1921L101.47 44.3184C100.763 41.6618 98.2325 40.0169 95.3693 40.3517L68.1592 43.5338C64.7647 43.9306 62.0773 46.9459 62.1565 50.2687L63.7006 115.087C63.7547 117.365 65.6859 118.992 68.0134 118.719L165.367 107.333C167.694 107.061 169.537 104.993 169.483 102.714L168.149 46.6818C168.095 44.4032 166.163 42.7771 163.836 43.0493L107.304 49.6612C104.8 49.9538 102.587 48.5151 101.969 46.1921Z" fill="black"/>
</svg>
