<svg width="455" height="524" viewBox="0 0 455 524" fill="none" xmlns="http://www.w3.org/2000/svg">
<path d="M144.062 281.589C151.894 283.286 165.081 286.144 179.059 280.329C204.471 269.758 216.004 237.385 216.09 212.745C216.164 191.581 205.468 171.838 184.077 132.351C163.931 95.162 154.554 86.9452 158.634 73.3767C164.451 54.0335 189.396 51.1626 192.798 27.5795C193.206 24.7495 194.609 15.03 188.974 7.93235C179.329 -4.21774 155.833 -0.156919 142.865 5.27471C130.357 10.5138 112.967 23.1754 111.181 40.2622C109.886 52.642 117.881 56.828 114.42 66.9468C110.937 77.1278 101.793 75.9613 89.8403 89.2426C85.0652 94.5484 75.4803 105.199 74.9943 118.697C74.3658 136.151 89.5182 142.566 85.8167 155.305C83.1424 164.509 74.3569 164.169 69.2358 173.696C62.494 186.238 69.5051 202.108 75.5162 215.237C82.5946 230.698 101.691 272.407 144.062 281.589Z" fill="url(#paint0_linear_4750_83271)"/>
<path opacity="0.56" d="M181.235 10.5335C185.142 19.186 153.419 28.3457 142.53 58.9541C130.815 91.8874 150.366 129.56 159.402 146.97C174.817 176.674 187.133 179.694 192.695 206.105C194.896 216.558 199.481 238.334 186.398 256.928C185.183 258.656 171.344 277.712 150.122 277.958C126.049 278.238 110.78 254.103 97.6219 233.308C89.6716 220.742 73.7897 195.64 82.9885 183.988C88.6117 176.866 102.313 176.41 111.55 179.431C124.733 183.743 130.629 195.731 132.884 194.339C134.915 193.086 132.086 182.155 125.64 171.456C112.748 150.057 98.5681 151.464 90.1271 133.679C89.1039 131.523 81.2449 114.323 89.3792 100.122C94.0706 91.9319 104.204 84.5259 111.736 86.786C120.255 89.3422 121.769 103.159 124.437 102.598C126.989 102.061 127.155 89.1024 125.448 76.2708C122.941 57.4168 118.48 54.548 119.56 44.2053C121.207 28.4256 133.358 18.1772 135.126 16.7289C151.692 3.15905 177.894 3.13612 181.235 10.5335Z" fill="white"/>
<path d="M161.922 295.777C169.052 293.872 181.056 290.663 190.059 280.018C206.427 260.664 202.251 229.292 191.952 209.073C183.106 191.705 166.036 180.033 131.897 156.689C99.7444 134.704 88.605 131.92 86.2374 119.088C82.8622 100.795 102.087 87.946 94.95 67.196C94.0934 64.7061 91.1518 56.154 83.5496 52.7111C70.5357 46.8173 52.9977 60.0316 44.6608 69.9381C36.6192 79.4937 27.7033 97.1833 33.4304 111.932C37.5797 122.618 45.8905 122.682 47.3133 132.427C48.7448 142.233 40.7636 145.125 36.5618 161.035C34.8832 167.39 31.5138 180.148 36.796 191.41C43.6261 205.972 58.738 204.85 61.0667 216.843C62.7494 225.508 55.4099 228.927 55.2241 238.886C54.9794 251.996 67.4015 262.046 77.8504 270.271C90.1545 279.957 123.35 306.087 161.922 295.777Z" fill="url(#paint1_linear_4750_83271)"/>
<path opacity="0.16" d="M78.3015 58.0999C85.1431 63.5434 63.0118 84.3965 66.9734 114.052C71.2359 145.959 103.105 168.591 117.833 179.05C142.961 196.894 154.321 194.185 169.991 213.479C176.193 221.116 189.113 237.024 186.221 257.761C185.952 259.687 182.636 281.122 165.355 290.254C145.754 300.613 123.089 287.269 103.56 275.772C91.7592 268.824 68.1859 254.946 70.8179 241.53C72.427 233.329 83.4581 227.19 92.2961 225.778C104.91 223.762 114.784 231.1 116.045 229.012C117.182 227.13 110.264 219.367 100.483 213.315C80.9165 201.211 69.8933 208.332 55.4939 197.315C53.7485 195.979 40.0728 185.198 40.7599 170.142C41.1562 161.459 46.3405 151.127 53.4614 149.809C61.5151 148.318 68.5699 159 70.5195 157.417C72.3839 155.903 67.0665 145.218 60.2687 135.425C50.2803 121.036 45.4188 120.563 41.9507 111.637C36.6596 98.0176 42.3006 84.5091 43.1392 82.5787C50.9984 64.4914 72.4521 53.4461 78.3015 58.0999Z" fill="white"/>
<path d="M275.582 368.905C270.559 367.238 266.804 362.975 265.746 357.735L258.434 321.548L195.889 323.769L188.192 361.468C187.114 366.747 191.429 372.044 196.399 373.988L222.567 384.227C227.434 386.131 232.665 386.89 237.865 386.445L293.166 381.714C294.783 381.576 296.079 380.305 296.267 378.675C296.455 377.044 297.588 375.214 296.047 374.702L275.582 368.905Z" fill="#97A6B7"/>
<path d="M276.2 366.704C271.182 365.059 267.431 360.849 266.373 355.675L259.069 319.943L198.049 322.138L190.359 359.363C189.282 364.576 192.132 369.804 197.097 371.724L223.238 381.834C228.1 383.714 233.326 384.463 238.521 384.024L293.766 379.352C295.381 379.216 296.676 377.961 296.864 376.351C297.052 374.741 296.081 373.222 294.541 372.717L276.2 366.704Z" fill="url(#paint2_linear_4750_83271)"/>
<path d="M68.0931 345.6C61.3105 346.004 55.7617 341.604 55.7617 335.789V126.209C55.7617 120.395 61.3105 115.904 68.0931 116.198L381.758 129.789C386.737 130.004 390.769 134.203 390.769 139.148V317.395C390.769 322.34 386.737 326.604 381.758 326.901L68.0931 345.6Z" fill="url(#paint3_linear_4750_83271)"/>
<path d="M70.9114 345.6C64.1289 346.004 58.5801 341.604 58.5801 335.789V126.209C58.5801 120.395 64.1289 115.904 70.9114 116.198L384.576 129.789C389.556 130.004 393.588 134.203 393.588 139.148V317.395C393.588 322.34 389.556 326.604 384.576 326.901L70.9114 345.6Z" fill="url(#paint4_linear_4750_83271)"/>
<path opacity="0.3" d="M384.579 133.984L70.9139 121.08C67.288 120.931 64.3398 123.327 64.3398 126.432V289.43V335.473C64.3398 338.578 67.2878 340.926 70.9139 340.718L384.579 322.706C387.247 322.553 389.406 320.278 389.406 317.624V276.878V138.987C389.406 136.333 387.248 134.094 384.579 133.984Z" fill="#D8DEE8"/>
<path d="M70.909 322.914C69.4973 322.983 68.3477 322.057 68.3477 320.85V126.587C68.3477 125.379 69.4975 124.442 70.909 124.498L384.574 136.92C385.615 136.962 386.461 137.838 386.461 138.873V305.437C386.461 306.472 385.615 307.356 384.574 307.408L70.909 322.914Z" fill="#DAF77F"/>
<path opacity="0.6" d="M351.831 313.928C325.443 297.605 343.874 251.193 314.239 227.875C284.361 204.365 242.32 233.199 221.392 208.852C205.808 190.723 224.042 168.834 209.163 151.785C185.829 125.048 126.095 161.82 98.6516 135.48C94.7551 131.74 90.8231 126.066 88.5853 116.964L70.9114 116.198C64.1289 115.904 58.5801 120.395 58.5801 126.209V335.789C58.5801 341.604 64.1289 346.004 70.9114 345.6L384.576 326.901C389.556 326.604 393.588 322.34 393.588 317.395V314.226C372.761 321.293 360.028 318.999 351.831 313.928Z" fill="white"/>
<path d="M353.468 296.705V58.6267L122.152 47.0588V309.639C122.152 315.552 117.867 320.594 112.031 321.548L341.038 309.98C348.031 309.519 353.468 303.713 353.468 296.705Z" fill="white"/>
<path d="M328.504 154.111L152.494 154.494V140.588L328.504 140.926V154.111Z" fill="#D8DEE8"/>
<path d="M234.413 188.902L156.529 189.884C154.302 189.912 152.494 188.234 152.494 186.136V167.197C152.494 165.099 154.302 163.389 156.529 163.378L234.413 163.005C236.536 162.995 238.255 164.644 238.255 166.689V185.151C238.255 187.196 236.536 188.875 234.413 188.902Z" fill="url(#paint5_linear_4750_83271)"/>
<path d="M324.867 187.762L251.222 188.69C249.118 188.717 247.41 187.085 247.41 185.045V166.635C247.41 164.596 249.118 162.934 251.222 162.924L324.867 162.571C326.876 162.561 328.502 164.166 328.502 166.155V184.114C328.502 186.103 326.876 187.736 324.867 187.762Z" fill="url(#paint6_linear_4750_83271)"/>
<path d="M328.504 209.344L152.494 212.745V198.84L328.504 196.159V209.344Z" fill="#D8DEE8"/>
<path d="M234.413 245.749L156.529 248.067C154.302 248.133 152.494 246.486 152.494 244.388V225.448C152.494 223.35 154.302 221.61 156.529 221.561L234.413 219.852C236.536 219.805 238.255 221.425 238.255 223.47V241.932C238.255 243.977 236.536 245.686 234.413 245.749Z" fill="#D8DEE8"/>
<path d="M328.504 264.577L152.494 270.997V257.091L328.504 251.392V264.577Z" fill="#D8DEE8"/>
<path d="M234.413 302.596L156.529 306.249C154.302 306.353 152.494 304.737 152.494 302.639V283.7C152.494 281.602 154.302 279.83 156.529 279.743L234.413 276.698C236.536 276.615 238.255 278.206 238.255 280.251V298.712C238.255 300.758 236.536 302.496 234.413 302.596Z" fill="#D8DEE8"/>
<path d="M324.867 243.057L251.222 245.248C249.118 245.311 247.41 243.709 247.41 241.669V223.259C247.41 221.219 249.118 219.529 251.222 219.482L324.867 217.866C326.876 217.822 328.502 219.399 328.502 221.389V239.347C328.502 241.336 326.876 242.997 324.867 243.057Z" fill="#D8DEE8"/>
<path d="M324.867 298.352L251.222 301.807C249.118 301.906 247.41 300.332 247.41 298.293V279.882C247.41 277.843 249.118 276.123 251.222 276.041L324.867 273.161C326.876 273.083 328.502 274.632 328.502 276.621V294.58C328.502 296.569 326.876 298.258 324.867 298.352Z" fill="#D8DEE8"/>
<path d="M231.636 66.5129L152.436 63.2438C149.21 63.1108 146.592 65.4925 146.592 68.5661V146.392C146.592 149.466 149.21 151.978 152.436 152.006L231.636 152.687C234.669 152.713 237.121 150.327 237.121 147.355V72.1178C237.121 69.1464 234.669 66.6382 231.636 66.5129Z" fill="url(#paint7_linear_4750_83271)"/>
<path opacity="0.7" d="M152.439 149.514C150.665 149.497 149.221 148.109 149.221 146.42V68.6689C149.221 66.9796 150.665 65.6637 152.439 65.7352L231.639 68.9316C233.309 68.9989 234.665 70.3849 234.665 72.021V147.329C234.665 148.965 233.309 150.283 231.639 150.268L152.439 149.514Z" fill="white"/>
<g opacity="0.3">
<path d="M180.148 121.503C174.98 109.172 190.774 99.6509 187.308 83.2774C185.646 75.4257 180.232 69.0968 173.965 64.1323L152.436 63.2436C149.21 63.1104 146.592 65.4922 146.592 68.5659V146.392C146.592 149.465 149.21 151.978 152.436 152.006L227.921 152.654C226.298 150.088 224.362 147.648 222.05 145.406C206.747 130.568 185.69 134.728 180.148 121.503Z" fill="url(#paint8_linear_4750_83271)"/>
</g>
<path d="M189.723 160.338L183.701 152.275L201.485 152.428L195.515 160.371C194.09 162.267 191.153 162.252 189.723 160.338Z" fill="url(#paint9_linear_4750_83271)"/>
<path d="M312.139 86.5926L254.614 84.2182C252.271 84.1216 250.369 85.8514 250.369 88.0839V144.611C250.369 146.843 252.271 148.668 254.614 148.688L312.139 149.182C314.342 149.201 316.123 147.468 316.123 145.31V90.6636C316.123 88.5054 314.342 86.6836 312.139 86.5926Z" fill="url(#paint10_linear_4750_83271)"/>
<path opacity="0.7" d="M254.615 146.878C253.327 146.866 252.277 145.858 252.277 144.631V88.159C252.277 86.932 253.327 85.9762 254.615 86.0281L312.14 88.3497C313.352 88.3987 314.338 89.4053 314.338 90.5936V145.291C314.338 146.48 313.352 147.437 312.14 147.426L254.615 146.878Z" fill="white"/>
<g opacity="0.3">
<path d="M274.741 126.534C270.988 117.577 282.46 110.662 279.942 98.7692C278.735 93.0663 274.803 88.4695 270.251 84.8637L254.614 84.2182C252.271 84.1215 250.369 85.8515 250.369 88.0839V144.611C250.369 146.843 252.271 148.668 254.614 148.688L309.44 149.159C308.261 147.295 306.855 145.523 305.176 143.894C294.061 133.117 278.767 136.139 274.741 126.534Z" fill="url(#paint11_linear_4750_83271)"/>
</g>
<path d="M281.696 154.74L277.322 148.884L290.239 148.995L285.903 154.764C284.868 156.141 282.735 156.131 281.696 154.74Z" fill="url(#paint12_linear_4750_83271)"/>
<path d="M270.598 129.787L296.691 103.693" stroke="#424988" stroke-width="6" stroke-linecap="round" stroke-linejoin="round"/>
<path d="M296.691 129.787L270.598 103.693" stroke="#424988" stroke-width="6" stroke-linecap="round" stroke-linejoin="round"/>
<path d="M173.949 107.064L184.924 117.927L206.912 96.2017" stroke="#424988" stroke-width="6" stroke-linecap="round" stroke-linejoin="round"/>
<path d="M447.149 249.101C447.149 249.101 454.708 291.148 454.343 295.079C453.978 299.011 451.967 305.265 447.408 306.337C442.848 307.408 438.651 306.337 438.651 306.337L444.125 254.692L447.149 249.101Z" fill="#FFBF9D"/>
<path d="M425.062 213.183L425.592 169.734C426.075 158.93 420.191 149.643 409.377 149.46L408.377 149.501C398.312 149.917 390.249 157.99 389.853 168.057C389.486 177.423 389.2 187.777 389.469 192.784C390.026 203.146 400.462 204.331 400.462 204.331C400.486 204.331 400.527 210.639 400.521 213.684L408.866 225.263L408.867 225.882L425.062 213.183Z" fill="#FFBF9D"/>
<path d="M400.476 204.328C400.476 204.328 407.027 204.442 413.811 199.779C413.811 199.779 410.885 207.709 400.501 207.202L400.476 204.328Z" fill="#FF9A6C"/>
<path d="M393.145 176.999C393.149 177.783 393.816 178.424 394.634 178.435C395.45 178.445 396.11 177.82 396.105 177.036C396.101 176.253 395.434 175.61 394.618 175.6C393.8 175.59 393.14 176.216 393.145 176.999Z" fill="#263238"/>
<path d="M392.243 172.547C392.434 172.732 393.522 171.856 395.116 171.795C396.706 171.711 397.91 172.482 398.074 172.279C398.156 172.19 397.954 171.848 397.43 171.499C396.913 171.151 396.044 170.827 395.051 170.873C394.059 170.92 393.239 171.319 392.775 171.713C392.301 172.108 392.15 172.464 392.243 172.547Z" fill="#263238"/>
<path d="M407.381 177.002C407.386 177.786 408.052 178.427 408.871 178.437C409.687 178.447 410.347 177.822 410.342 177.038C410.337 176.255 409.67 175.613 408.853 175.603C408.036 175.593 407.377 176.219 407.381 177.002Z" fill="#263238"/>
<path d="M407.902 172.272C408.094 172.458 409.184 171.581 410.776 171.52C412.366 171.435 413.57 172.206 413.734 172.004C413.816 171.914 413.616 171.574 413.09 171.224C412.573 170.875 411.704 170.552 410.712 170.597C409.719 170.644 408.9 171.043 408.435 171.437C407.961 171.833 407.809 172.189 407.902 172.272Z" fill="#263238"/>
<path d="M402.675 184.747C402.679 184.657 401.682 184.527 400.068 184.387C399.659 184.362 399.271 184.297 399.191 184.023C399.083 183.733 399.235 183.288 399.413 182.805C399.755 181.804 400.112 180.756 400.488 179.658C401.976 175.177 403.036 171.501 402.855 171.442C402.674 171.383 401.32 174.967 399.832 179.447C399.474 180.552 399.132 181.604 398.808 182.611C398.674 183.08 398.43 183.615 398.663 184.217C398.785 184.516 399.093 184.725 399.356 184.783C399.62 184.852 399.85 184.847 400.051 184.851C401.671 184.873 402.672 184.839 402.675 184.747Z" fill="#263238"/>
<path d="M407.144 167.309C407.377 167.706 408.905 167.215 410.786 167.097C412.665 166.941 414.248 167.205 414.421 166.778C414.496 166.575 414.164 166.222 413.487 165.92C412.817 165.617 411.795 165.401 410.668 165.483C409.542 165.566 408.562 165.928 407.942 166.324C407.317 166.721 407.039 167.119 407.144 167.309Z" fill="#263238"/>
<path d="M391.995 167.865C392.335 168.218 393.624 167.809 395.184 167.749C396.743 167.644 398.073 167.916 398.367 167.529C398.495 167.342 398.277 166.985 397.691 166.658C397.113 166.331 396.154 166.078 395.082 166.133C394.01 166.19 393.09 166.543 392.556 166.928C392.015 167.315 391.844 167.693 391.995 167.865Z" fill="#263238"/>
<path d="M425.053 177.446C425.226 177.362 432.09 175.045 432.156 182.143C432.222 189.241 425.082 187.844 425.068 187.639C425.054 187.436 425.053 177.446 425.053 177.446Z" fill="#FFBF9D"/>
<path d="M427.249 184.932C427.28 184.91 427.373 185.017 427.584 185.112C427.788 185.203 428.139 185.264 428.509 185.122C429.256 184.84 429.876 183.644 429.899 182.364C429.911 181.718 429.77 181.104 429.536 180.597C429.315 180.079 428.976 179.72 428.597 179.657C428.22 179.573 427.956 179.802 427.87 180.002C427.777 180.202 427.823 180.343 427.786 180.356C427.767 180.374 427.633 180.238 427.688 179.945C427.715 179.803 427.797 179.635 427.963 179.497C428.131 179.357 428.382 179.284 428.644 179.31C429.193 179.342 429.689 179.841 429.947 180.398C430.234 180.956 430.408 181.646 430.394 182.372C430.362 183.803 429.642 185.148 428.619 185.454C428.121 185.589 427.703 185.442 427.486 185.276C427.264 185.103 427.225 184.945 427.249 184.932Z" fill="#FF9A6C"/>
<path d="M407.674 185.742C407.43 185.726 407.42 187.357 406.019 188.508C404.621 189.661 402.885 189.472 402.871 189.698C402.848 189.801 403.256 190.017 403.99 190.04C404.709 190.068 405.761 189.842 406.617 189.138C407.471 188.432 407.841 187.487 407.9 186.819C407.966 186.137 407.786 185.733 407.674 185.742Z" fill="#263238"/>
<path d="M375.531 158.721C375.639 158.302 375.94 157.954 376.31 157.73C377.118 157.24 378.055 157.294 378.96 157.269C381.212 157.207 383.439 156.606 385.436 155.564C384.732 155.217 384.072 154.793 383.511 154.245C382.351 153.113 381.671 151.368 382.179 149.829C382.275 149.541 382.439 149.237 382.729 149.145C383.189 148.998 383.597 149.446 383.923 149.802C384.993 150.971 385.975 151.467 387.551 151.289C388.529 151.179 389.475 150.948 390.24 150.461C390.27 150.429 390.298 150.393 390.329 150.361C390.693 149.976 391.049 149.609 391.4 149.252L391.402 149.249L391.401 149.251C394.042 146.573 396.317 144.712 398.671 143.733C402.12 142.299 407.909 141.668 411.533 142.574C415.157 143.482 418.435 146.376 418.98 150.072C420.987 148.336 424.029 148.315 426.508 149.279L426.57 149.251C429.329 150.2 430.924 153.086 431.766 155.879C431.813 156.032 431.853 156.187 431.897 156.34C432.842 157.803 434.12 159.05 435.637 159.911C435.904 160.062 436.211 160.248 436.247 160.553C436.283 160.856 436.029 161.11 435.784 161.29C435.13 161.77 434.366 162.089 433.57 162.24C433.829 162.903 434.132 163.547 434.503 164.161C434.82 164.682 435.195 165.307 434.93 165.858C434.725 166.283 434.19 166.463 433.723 166.4C433.256 166.336 432.839 166.082 432.437 165.835C432.752 166.565 433.066 167.296 433.381 168.026C432.389 168.211 431.359 168.142 430.39 167.861C429.835 170.489 429.453 175.348 428.798 177.131C426.914 177.185 426.454 176.986 425.507 177.311C424.284 177.733 424.776 179.904 423.17 179.304C422.351 178.998 421.067 175.927 420.785 175.1C418.914 169.617 418.247 163.728 418.835 157.965C417.684 156.765 416.298 155.789 414.779 155.108L414.903 155.217C411.99 154.242 408.696 153.288 405.958 154.681C403.834 155.762 402.604 157.993 401.027 159.779C398.038 163.165 394.633 164.993 390.123 165.239C389.752 168.377 389.69 173.503 389.57 176.429L387.006 170.605L387.005 170.628C386.8 170.287 386.63 169.944 386.464 169.6L386.408 169.495V169.482C386.146 168.928 385.897 168.374 385.566 167.828C385.557 167.836 385.548 167.844 385.538 167.852C383.97 169.268 381.612 167.157 382.842 165.44C383.086 165.099 383.378 164.794 383.714 164.543C382.998 165.23 381.922 165.569 380.969 165.288C380.016 165.007 379.269 164.055 379.34 163.064C379.389 162.388 379.864 161.778 380.472 161.505C379.194 161.618 377.882 161.354 376.759 160.731C376.019 160.321 375.294 159.644 375.531 158.721Z" fill="#263238"/>
<path d="M415.708 151.301C415.688 151.328 416.147 151.571 416.762 152.242C417.371 152.911 418.058 154.078 418.395 155.673C418.568 156.466 418.68 157.354 418.691 158.311C418.706 159.267 418.64 160.292 418.58 161.373C418.522 162.453 418.459 163.595 418.541 164.78C418.582 165.373 418.66 165.974 418.795 166.575C418.933 167.165 419.095 167.806 419.548 168.31C419.908 168.72 420.506 168.898 421.019 168.786C421.538 168.689 421.995 168.407 422.33 168.025C422.99 167.238 423.145 166.247 423.301 165.373L423.084 165.401C423.449 166.181 423.824 166.951 424.372 167.563C424.912 168.179 425.654 168.582 426.406 168.64C426.779 168.67 427.155 168.605 427.474 168.44C427.8 168.277 428.035 168.003 428.194 167.715C428.346 167.422 428.424 167.1 428.403 166.793C428.382 166.485 428.259 166.193 428.061 165.989L427.952 166.088C428.763 166.992 429.615 167.472 430.202 167.737C430.499 167.869 430.736 167.948 430.896 167.998C431.058 168.044 431.142 168.062 431.144 168.056C431.147 168.049 431.065 168.017 430.909 167.959C430.753 167.897 430.523 167.807 430.235 167.665C429.664 167.382 428.84 166.888 428.062 165.991L427.953 166.09C428.306 166.457 428.334 167.107 428.039 167.633C427.89 167.893 427.675 168.137 427.388 168.275C427.104 168.419 426.761 168.475 426.419 168.444C425.729 168.384 425.037 168.006 424.531 167.42C424.014 166.835 423.65 166.085 423.29 165.304L423.137 164.972L423.072 165.333C422.916 166.205 422.75 167.157 422.148 167.867C421.85 168.208 421.429 168.463 420.976 168.547C420.521 168.64 420.04 168.496 419.725 168.144C419.329 167.708 419.163 167.102 419.03 166.52C418.897 165.934 418.819 165.345 418.777 164.763C418.693 163.597 418.751 162.463 418.803 161.384C418.857 160.304 418.916 159.275 418.892 158.306C418.872 157.337 418.748 156.437 418.562 155.634C418.199 154.018 417.472 152.837 416.832 152.178C416.184 151.515 415.708 151.301 415.708 151.301Z" fill="#455A64"/>
<path d="M383.726 161.772C383.724 161.775 383.751 161.799 383.81 161.842C383.881 161.892 383.967 161.953 384.072 162.028C384.187 162.112 384.331 162.209 384.515 162.305C384.696 162.406 384.901 162.529 385.151 162.631C386.121 163.078 387.673 163.515 389.606 163.38C391.521 163.251 393.813 162.545 395.849 160.994C397.907 159.478 399.704 157.259 401.165 154.725C401.906 153.458 402.507 152.162 403.173 150.963C403.834 149.764 404.566 148.654 405.458 147.775C406.34 146.891 407.367 146.233 408.43 145.924C408.96 145.759 409.496 145.717 410.007 145.723C410.519 145.745 411.006 145.844 411.455 145.984C412.355 146.275 413.083 146.761 413.636 147.263C414.192 147.77 414.567 148.308 414.826 148.77C415.309 149.72 415.342 150.333 415.379 150.322C415.383 150.321 415.38 150.285 415.37 150.213C415.355 150.126 415.338 150.023 415.318 149.896C415.263 149.618 415.139 149.216 414.91 148.727C414.659 148.25 414.289 147.692 413.729 147.164C413.172 146.64 412.433 146.131 411.51 145.821C411.049 145.67 410.547 145.563 410.015 145.536C409.485 145.523 408.924 145.563 408.375 145.729C407.27 146.04 406.206 146.713 405.301 147.613C404.383 148.51 403.634 149.639 402.965 150.846C402.292 152.053 401.69 153.347 400.955 154.601C399.506 157.117 397.736 159.311 395.717 160.812C393.718 162.35 391.481 163.056 389.595 163.208C387.694 163.364 386.161 162.958 385.191 162.543C384.21 162.122 383.744 161.743 383.726 161.772Z" fill="#455A64"/>
<path d="M382.697 157.219C382.689 157.234 382.822 157.324 383.073 157.475C383.32 157.63 383.7 157.821 384.183 158.022C384.664 158.228 385.261 158.418 385.936 158.575C386.614 158.72 387.371 158.826 388.173 158.846C388.974 158.859 389.737 158.785 390.419 158.668C391.1 158.538 391.704 158.373 392.193 158.187C392.684 158.006 393.071 157.831 393.325 157.685C393.581 157.545 393.718 157.46 393.711 157.446C393.69 157.405 393.119 157.707 392.138 158.024C391.648 158.187 391.052 158.332 390.381 158.447C389.709 158.55 388.963 158.614 388.177 158.603C387.393 158.582 386.65 158.486 385.982 158.357C385.318 158.214 384.727 158.045 384.244 157.862C383.277 157.505 382.72 157.179 382.697 157.219Z" fill="#455A64"/>
<path d="M409.88 487.02L410.906 510.485C410.906 510.485 387.401 519.408 387.167 523.763L432.734 523.407L432.636 486.781L409.88 487.02Z" fill="url(#paint13_linear_4750_83271)"/>
<path d="M424.991 508.401C425.875 508.635 426.492 509.623 426.295 510.515C426.098 511.408 425.099 512.044 424.211 511.825C423.323 511.606 422.546 510.444 422.843 509.58C423.139 508.715 424.352 508.032 425.161 508.458" fill="#E0E0E0"/>
<g opacity="0.6">
<path d="M432.734 523.408L432.58 519.716L388.95 521.437C388.95 521.437 386.927 522.335 387.168 523.762L432.734 523.408Z" fill="white"/>
</g>
<path d="M410.155 510.257C410.165 510.48 411.277 510.571 412.378 511.279C413.497 511.957 414.069 512.916 414.273 512.827C414.478 512.781 414.136 511.454 412.789 510.621C411.448 509.778 410.105 510.054 410.155 510.257Z" fill="#263238"/>
<path d="M405.404 512.274C405.354 512.49 406.32 512.862 407.084 513.797C407.875 514.709 408.073 515.726 408.294 515.715C408.504 515.748 408.648 514.444 407.676 513.299C406.717 512.145 405.407 512.062 405.404 512.274Z" fill="#263238"/>
<path d="M402.744 518.01C402.946 518.056 403.247 516.941 402.666 515.727C402.094 514.509 401.04 514.037 400.948 514.222C400.824 514.406 401.504 515.055 401.966 516.059C402.452 517.052 402.523 517.99 402.744 518.01Z" fill="#263238"/>
<path d="M410.537 504.886C410.631 505.088 411.65 504.773 412.908 504.849C414.168 504.899 415.15 505.314 415.264 505.122C415.391 504.96 414.429 504.144 412.946 504.076C411.464 503.996 410.426 504.712 410.537 504.886Z" fill="#263238"/>
<path d="M409.942 504.619C409.828 504.623 409.812 506.792 409.88 510.27L410.061 509.991C407.4 511.003 403.861 512.366 400.101 514.138C395.986 516.063 392.358 518.073 390.004 519.954C388.823 520.881 387.954 521.762 387.506 522.499C387.032 523.229 387.094 523.789 387.169 523.762C387.204 523.756 387.237 523.304 387.75 522.667C388.243 522.027 389.135 521.235 390.329 520.384C392.708 518.656 396.335 516.741 400.425 514.829C404.159 513.067 407.66 511.642 410.271 510.525L410.465 510.442L410.454 510.247C410.245 506.776 410.056 504.615 409.942 504.619Z" fill="#263238"/>
<path d="M439.338 323.402V344.667L430.948 412.575C430.948 412.575 433.607 444.421 435.241 462.397C436.658 478.01 434.34 505.198 434.34 505.198H409.47L400.571 414.525L395.048 357.976L385.03 324.479L439.338 323.402Z" fill="url(#paint14_linear_4750_83271)"/>
<path d="M395.261 482.946L401.775 505.511C401.775 505.511 381.026 519.711 381.824 523.998L426.029 512.939L417.323 477.363L395.261 482.946Z" fill="url(#paint15_linear_4750_83271)"/>
<path d="M414.922 500.179C415.836 500.198 416.668 501.012 416.685 501.926C416.703 502.84 415.882 503.693 414.968 503.69C414.054 503.686 413.025 502.739 413.11 501.829C413.195 500.918 414.213 499.969 415.099 500.192" fill="#E0E0E0"/>
<g opacity="0.6">
<path d="M426.02 512.94L425.002 509.389L382.999 521.32C382.999 521.32 381.245 522.669 381.814 523.999L426.02 512.94Z" fill="white"/>
</g>
<path d="M400.99 505.469C401.051 505.684 402.155 505.511 403.39 505.939C404.637 506.336 405.418 507.133 405.595 506.998C405.784 506.906 405.139 505.696 403.633 505.204C402.134 504.699 400.893 505.283 400.99 505.469Z" fill="#263238"/>
<path d="M396.829 508.546C396.832 508.768 397.859 508.901 398.821 509.63C399.803 510.332 400.235 511.272 400.448 511.209C400.659 511.193 400.492 509.891 399.279 509.006C398.074 508.112 396.783 508.34 396.829 508.546Z" fill="#263238"/>
<path d="M395.573 514.754C395.78 514.751 395.811 513.597 394.961 512.554C394.118 511.505 392.984 511.292 392.937 511.495C392.859 511.704 393.673 512.174 394.358 513.041C395.063 513.891 395.353 514.787 395.573 514.754Z" fill="#263238"/>
<path d="M400.054 500.162C400.193 500.335 401.109 499.79 402.35 499.569C403.586 499.321 404.639 499.493 404.704 499.28C404.791 499.093 403.663 498.525 402.206 498.808C400.746 499.078 399.905 500.018 400.054 500.162Z" fill="#263238"/>
<path d="M375.425 324.853L374.284 336.419L375.662 420.402L395.346 487.867L400.114 504.228L425.52 499.443L405.937 324.877L375.425 324.853Z" fill="url(#paint16_linear_4750_83271)"/>
<path d="M376.207 422.161C376.207 422.161 376.234 422.298 376.304 422.561C376.38 422.836 376.485 423.223 376.624 423.727C376.919 424.767 377.348 426.281 377.904 428.245C379.042 432.202 380.695 437.954 382.781 445.206C386.994 459.731 392.944 480.252 399.915 504.291L399.971 504.485L400.17 504.447C408.201 502.939 416.74 501.334 425.577 499.675L425.809 499.631L425.764 499.399C424.469 492.554 423.114 485.399 421.733 478.105C417.63 456.502 413.759 436.126 410.377 418.322L410.378 418.395C414.585 391.984 417.94 370.922 419.867 358.83L419.855 358.862C421.703 355.501 423.127 352.91 424.098 351.143C424.571 350.272 424.931 349.608 425.18 349.147C425.421 348.697 425.532 348.462 425.532 348.462C425.532 348.462 425.391 348.681 425.135 349.122C424.874 349.578 424.501 350.234 424.009 351.094C423.019 352.85 421.567 355.426 419.684 358.767L419.676 358.782L419.673 358.799C417.7 370.884 414.265 391.933 409.958 418.327L409.952 418.364L409.959 418.401C413.325 436.208 417.178 456.588 421.263 478.194C422.646 485.488 424.003 492.641 425.3 499.486L425.488 499.21C416.652 500.878 408.115 502.491 400.086 504.008L400.342 504.165C393.303 480.145 387.295 459.642 383.043 445.128C380.905 437.891 379.21 432.151 378.044 428.203C377.458 426.248 377.006 424.741 376.696 423.705C376.542 423.205 376.424 422.823 376.34 422.549C376.258 422.291 376.207 422.161 376.207 422.161Z" fill="#455A64"/>
<path d="M379.994 331.742C379.951 331.77 380.4 332.601 381.376 333.772C382.348 334.94 383.898 336.405 385.888 337.622C387.884 338.834 389.896 339.54 391.381 339.867C392.868 340.198 393.814 340.216 393.818 340.165C393.865 340.005 390.048 339.633 386.138 337.214C382.196 334.848 380.115 331.627 379.994 331.742Z" fill="#455A64"/>
<path d="M325.857 205.016C325.536 204.541 325.616 203.866 326.096 203.535C326.219 203.449 326.349 203.401 326.476 203.423C326.985 203.507 328.324 204.484 329.354 204.502C330.383 204.519 332.138 204.203 333.168 205.16C334.199 206.116 336.71 211.364 337.031 212.503C337.35 213.641 338.467 223.65 338.467 223.65L325.857 205.016Z" fill="#FFBF9D"/>
<path d="M321.503 203.705C321.558 203.768 333.832 209.185 339.223 211.563C340.423 212.092 340.695 213.649 339.748 214.57C339.163 215.138 338.277 215.276 337.554 214.912L319.939 206.328L318.488 204.123L321.503 203.705Z" fill="#263238"/>
<path d="M334.5 214.75L330.587 211.867L325.42 204.369C325.42 204.369 323.305 203.111 322.209 203.903C321.112 204.694 320.754 205.611 321.263 206.635C321.263 206.635 318.344 207.333 318.135 208.31C317.927 209.287 318.557 211.666 318.557 211.666C318.557 211.666 318.124 213.492 318.536 214.459C318.946 215.426 318.904 216.262 318.904 216.262C318.904 216.262 317.013 218.576 317.825 220.942C318.637 223.309 322.049 228.589 323.872 229.954C325.695 231.319 329.151 232.955 329.151 232.955L331.405 237.679L340.764 229.205L334.5 214.75Z" fill="#FFBF9D"/>
<path d="M325.584 204.692C325.573 204.699 325.657 204.843 325.818 205.096C326.004 205.38 326.238 205.735 326.515 206.158C327.111 207.05 327.946 208.274 328.876 209.62C329.343 210.289 329.788 210.928 330.196 211.513C330.405 211.802 330.624 212.069 330.867 212.284C331.111 212.498 331.372 212.652 331.617 212.771C332.112 213.003 332.538 213.106 332.829 213.178C333.122 213.247 333.286 213.274 333.289 213.262C333.292 213.249 333.134 213.196 332.849 213.107C332.565 213.014 332.147 212.89 331.676 212.65C330.667 212.227 329.996 210.818 329.031 209.511C328.1 208.165 327.248 206.953 326.624 206.081C326.327 205.671 326.076 205.327 325.877 205.053C325.699 204.814 325.595 204.685 325.584 204.692Z" fill="#FF9A6C"/>
<path d="M324.386 212.49C324.433 212.464 323.757 211.145 322.878 209.542C322 207.94 321.249 206.661 321.203 206.687C321.157 206.713 321.831 208.032 322.711 209.635C323.591 211.237 324.34 212.515 324.386 212.49Z" fill="#FF9A6C"/>
<path d="M323.156 217.178C323.185 217.179 323.2 217.011 323.295 216.766C323.389 216.525 323.582 216.207 323.904 215.983C324.226 215.76 324.592 215.687 324.851 215.681C325.112 215.674 325.277 215.716 325.285 215.687C325.293 215.667 325.139 215.574 324.855 215.547C324.575 215.517 324.161 215.573 323.794 215.827C323.429 216.081 323.232 216.452 323.166 216.725C323.097 217.002 323.133 217.179 323.156 217.178Z" fill="#FF9A6C"/>
<path d="M318.811 218.581C318.83 218.6 318.974 218.493 319.197 218.316C319.422 218.141 319.728 217.893 320.112 217.718C320.493 217.543 320.886 217.492 321.145 217.55C321.412 217.602 321.508 217.763 321.532 217.747C321.559 217.747 321.488 217.52 321.182 217.42C320.887 217.317 320.448 217.353 320.033 217.544C319.617 217.734 319.312 218.012 319.108 218.214C318.903 218.421 318.794 218.562 318.811 218.581Z" fill="#FF9A6C"/>
<path d="M320.483 214.636C320.527 214.608 320.143 213.92 319.625 213.102C319.106 212.283 318.649 211.642 318.605 211.67C318.561 211.699 318.945 212.385 319.463 213.204C319.982 214.023 320.439 214.664 320.483 214.636Z" fill="#FF9A6C"/>
<path d="M327.985 214.981C328.015 214.979 328.011 214.819 328.083 214.586C328.151 214.355 328.316 214.045 328.611 213.831C328.908 213.618 329.253 213.556 329.494 213.559C329.739 213.56 329.891 213.61 329.902 213.582C329.912 213.562 329.772 213.463 329.505 213.424C329.243 213.383 328.843 213.429 328.499 213.676C328.156 213.925 327.991 214.293 327.951 214.555C327.908 214.823 327.964 214.985 327.985 214.981Z" fill="#FF9A6C"/>
<path d="M338.227 214.953C338.25 214.927 338.058 214.782 337.89 214.456C337.722 214.141 337.599 213.61 337.798 213.096C338.001 212.584 338.439 212.265 338.772 212.132C339.11 211.991 339.351 211.997 339.35 211.964C339.354 211.945 339.105 211.888 338.725 212.006C338.355 212.116 337.851 212.446 337.62 213.028C337.394 213.613 337.56 214.202 337.773 214.524C337.988 214.86 338.219 214.971 338.227 214.953Z" fill="#455A64"/>
<path d="M371.135 238.642L356.29 251.347L338.068 224.123L326.219 231.112C326.219 231.112 343.978 271.992 348.791 275.605C353.605 279.218 357.664 278.28 363.857 275.42C370.051 272.56 392.105 250.355 392.105 250.355L371.135 238.642Z" fill="#FFBF9D"/>
<path d="M355.758 262.645C355.904 262.622 355.499 260.056 355.679 256.885C355.837 253.711 356.514 251.202 356.371 251.165C356.262 251.122 355.365 253.619 355.202 256.86C355.019 260.098 355.644 262.677 355.758 262.645Z" fill="#FF9A6C"/>
<path d="M431.734 217.848C431.734 217.848 419.114 218.031 418.93 233.761C418.748 249.49 422.143 270.533 422.143 270.533L454.355 264.856C454.355 264.856 450.359 235.572 446.949 227.138C443.516 218.65 436.958 216.418 431.734 217.848Z" fill="url(#paint17_linear_4750_83271)"/>
<path d="M425.74 206.526L426.141 209.09C426.141 209.09 443.358 220.465 444.332 223.401C445.841 227.954 442.55 266.409 441.097 277.307C439.644 288.206 439.35 312.226 439.35 312.226C440.406 315.055 441.607 317.607 442.004 321.554C442.399 325.468 439.35 329.041 439.35 329.041C420.878 335.069 398.311 330.441 373.899 324.876L374.129 317.956L382.11 242.776C382.11 242.776 379.785 223.236 389.318 217.579C390.365 216.958 398.68 212.234 398.68 212.234L425.74 206.526Z" fill="url(#paint18_linear_4750_83271)"/>
<g opacity="0.3">
<path d="M398.05 239.116C398.05 239.116 398.199 249.936 392.378 262.306C386.558 274.675 377.897 282.404 377.897 282.404L380.479 259.909L398.05 239.116Z" fill="black"/>
</g>
<path d="M383.596 220.135C386.614 217.693 392.227 216.365 395.43 218.561C396.855 219.538 398.519 221.014 399.316 223.345C402.05 231.339 400.416 239.934 398.228 246.313C396.04 252.693 385.469 264.979 385.469 264.979L359.35 249.125C359.35 249.125 376.832 227.936 378.656 225.747C379.606 224.606 381.92 221.491 383.596 220.135Z" fill="url(#paint19_linear_4750_83271)"/>
<path d="M383.586 220.134C383.586 220.134 383.38 220.263 383.034 220.575C382.686 220.884 382.194 221.371 381.594 222.038C380.383 223.372 378.788 225.451 376.633 227.982C372.367 233.116 366.33 240.38 359.175 248.989L359.015 249.181L359.229 249.311C366.62 253.805 375.025 258.917 383.907 264.318C384.396 264.615 384.884 264.911 385.336 265.185L385.51 265.291L385.641 265.136C388.56 261.684 391.276 258.214 393.711 254.722C394.926 252.976 396.067 251.221 397.043 249.413C397.531 248.509 397.975 247.59 398.328 246.64C398.679 245.695 398.959 244.749 399.236 243.81C401.417 236.309 401.473 228.95 399.483 223.352C399.007 221.928 398.158 220.731 397.194 219.806C396.219 218.906 395.195 218.105 394.047 217.741C392.916 217.369 391.8 217.304 390.798 217.356C389.792 217.41 388.885 217.588 388.093 217.818C386.5 218.257 385.367 218.889 384.638 219.344C383.906 219.804 383.586 220.134 383.586 220.134C383.607 220.162 383.946 219.856 384.688 219.422C385.428 218.996 386.561 218.398 388.141 217.991C388.926 217.778 389.822 217.618 390.808 217.578C391.791 217.539 392.878 217.619 393.961 217.988C395.047 218.341 396.037 219.131 396.985 220.019C397.914 220.928 398.718 222.084 399.167 223.457C401.089 228.991 401.003 236.255 398.816 243.687C398.539 244.614 398.256 245.561 397.909 246.485C397.565 247.404 397.127 248.304 396.644 249.194C395.677 250.975 394.539 252.718 393.328 254.453C390.9 257.922 388.184 261.387 385.278 264.822L385.583 264.774C385.131 264.5 384.644 264.203 384.154 263.906C375.264 258.521 366.85 253.423 359.452 248.94L359.506 249.262C366.606 240.607 372.596 233.306 376.83 228.146C378.957 225.591 380.527 223.48 381.695 222.129C382.277 221.449 382.751 220.951 383.081 220.627C383.411 220.299 383.598 220.147 383.586 220.134Z" fill="url(#paint20_linear_4750_83271)"/>
<path d="M444.666 232.108C444.649 232.107 444.624 232.264 444.591 232.564C444.558 232.919 444.518 233.351 444.47 233.876C444.382 235.089 444.264 236.721 444.12 238.705C443.857 242.852 443.501 248.454 443.108 254.643C442.701 260.867 442.274 266.496 441.904 270.566C441.72 272.545 441.568 274.173 441.456 275.383C441.411 275.907 441.373 276.34 441.342 276.694C441.322 276.995 441.319 277.154 441.335 277.156C441.352 277.158 441.387 277.003 441.439 276.707C441.494 276.355 441.561 275.926 441.642 275.405C441.809 274.274 442.02 272.631 442.242 270.598C442.698 266.533 443.179 260.902 443.587 254.674C443.992 248.448 444.273 242.807 444.459 238.723C444.54 236.736 444.607 235.101 444.656 233.886C444.669 233.36 444.679 232.925 444.687 232.569C444.689 232.267 444.682 232.109 444.666 232.108Z" fill="#263238"/>
<path d="M386.905 323.402C386.901 323.419 387.069 323.47 387.389 323.553C387.764 323.644 388.23 323.757 388.798 323.895C389.41 324.046 390.165 324.204 391.044 324.368C391.921 324.542 392.922 324.735 394.036 324.901C396.257 325.284 398.924 325.594 401.889 325.883C404.858 326.131 408.129 326.314 411.568 326.357C415.008 326.381 418.284 326.263 421.257 326.066C424.227 325.825 426.898 325.557 429.124 325.196C430.239 325.043 431.242 324.857 432.121 324.689C433.002 324.531 433.758 324.378 434.37 324.227C434.939 324.09 435.405 323.978 435.78 323.888C436.101 323.805 436.268 323.754 436.264 323.738C436.261 323.722 436.086 323.742 435.759 323.793C435.38 323.86 434.908 323.943 434.333 324.044C433.717 324.167 432.958 324.292 432.075 324.425C431.194 324.567 430.191 324.729 429.076 324.86C426.853 325.177 424.188 325.41 421.227 325.626C418.263 325.797 414.999 325.902 411.572 325.877C408.146 325.834 404.885 325.666 401.925 325.442C398.968 325.178 396.307 324.903 394.087 324.565C392.973 324.421 391.971 324.252 391.091 324.103C390.209 323.965 389.451 323.834 388.835 323.711C388.26 323.609 387.788 323.524 387.409 323.458C387.083 323.406 386.91 323.386 386.905 323.402Z" fill="#263238"/>
<path d="M36.7392 127.507C33.6596 126.9 30.4026 127.889 27.857 129.725C26.0761 131.009 24.5695 132.738 23.7978 134.794C23.0262 136.85 23.0481 139.247 24.1011 141.175C25.1891 143.168 27.2296 144.472 29.3418 145.301C31.1122 145.996 33.033 146.419 34.918 146.169C36.8029 145.918 38.646 144.918 39.6107 143.28L43.2478 135.602C43.2478 130.673 39.8187 128.113 36.7392 127.507Z" fill="#263238"/>
<path d="M71.0585 137.072C64.7264 129.048 53.4122 126.703 44.5904 131.867C43.6842 132.397 42.826 132.972 42.0142 133.571C36.3313 137.76 33.1452 144.998 33.5594 152.046C33.9736 159.093 37.858 165.786 43.5776 169.924L71.2246 163.188C72.9522 158.503 73.709 154.011 74.2561 148.337C74.3129 147.748 74.3408 146.994 74.326 146.158C74.2657 142.856 73.1052 139.665 71.0585 137.072Z" fill="#263238"/>
<path d="M40.2306 148.314C40.554 143.744 43.5121 139.997 47.9505 138.864L61.7858 135.335C67.7649 134.689 71.7576 142.044 72.1491 148.045C72.5835 154.712 72.8517 161.748 72.0731 166.725C70.5062 176.733 62.8414 178.024 62.8414 178.024C62.8406 178.009 62.8397 182.784 62.8344 185.705L62.9778 198.425L43.284 184.262L40.1957 148.435C40.1922 148.264 40.2149 148.542 40.2306 148.314Z" fill="#FFBF9D"/>
<path d="M70.2627 156.095C70.288 156.773 69.7357 157.352 69.0288 157.392C68.3236 157.432 67.7293 156.916 67.704 156.239C67.6786 155.562 68.2309 154.98 68.937 154.941C69.6431 154.901 70.2374 155.417 70.2627 156.095Z" fill="#263238"/>
<path d="M70.3977 152.163C70.2387 152.331 69.2652 151.613 67.8845 151.62C66.5055 151.607 65.4935 152.319 65.3432 152.151C65.2698 152.075 65.4315 151.773 65.8719 151.451C66.3053 151.131 67.0455 150.818 67.9054 150.82C68.7653 150.822 69.4898 151.138 69.9057 151.46C70.3313 151.786 70.4764 152.088 70.3977 152.163Z" fill="#263238"/>
<path d="M58.3721 156.097C58.3974 156.775 57.8451 157.355 57.1381 157.394C56.4329 157.433 55.8387 156.918 55.8133 156.241C55.788 155.563 56.3412 154.982 57.0464 154.943C57.7533 154.903 58.3467 155.419 58.3721 156.097Z" fill="#263238"/>
<path d="M57.6049 152.428C57.4459 152.596 56.4706 151.878 55.0916 151.885C53.7127 151.872 52.7007 152.584 52.5504 152.416C52.477 152.342 52.636 152.039 53.0791 151.717C53.5125 151.396 54.2527 151.083 55.1126 151.084C55.9725 151.087 56.697 151.402 57.1138 151.725C57.5368 152.051 57.6827 152.353 57.6049 152.428Z" fill="#263238"/>
<path d="M61.8402 162.805C61.8341 162.726 62.6913 162.577 64.0817 162.395C64.4339 162.358 64.7677 162.287 64.8262 162.046C64.9092 161.791 64.7607 161.412 64.5885 161.002C64.2547 160.15 63.906 159.256 63.5399 158.32C62.084 154.501 61.0283 151.361 61.183 151.304C61.3377 151.246 62.6433 154.295 64.0992 158.115C64.4496 159.056 64.7852 159.954 65.1041 160.813C65.2387 161.214 65.4694 161.668 65.2903 162.197C65.1959 162.461 64.9372 162.652 64.7118 162.713C64.4863 162.783 64.2879 162.787 64.1131 162.798C62.7141 162.876 61.8454 162.884 61.8402 162.805Z" fill="#263238"/>
<path d="M49.5781 174.465C49.5781 174.465 52.8342 181.337 62.8445 180.378L62.8471 178.025C62.8471 178.025 56.2555 178.458 49.5781 174.465Z" fill="#FF9A6C"/>
<path d="M57.1237 146.98C56.9882 147.355 55.6093 147.181 53.99 147.379C52.3663 147.545 51.0616 148.022 50.8457 147.687C50.7496 147.526 50.9768 147.172 51.5038 146.807C52.0263 146.443 52.8609 146.097 53.8335 145.986C54.8053 145.878 55.6967 146.03 56.2865 146.268C56.8816 146.508 57.1814 146.801 57.1237 146.98Z" fill="#263238"/>
<path d="M68.9825 147.167C68.7404 147.481 67.7888 147.158 66.6449 147.145C65.5018 147.092 64.5336 147.36 64.3098 147.033C64.212 146.874 64.364 146.56 64.7861 146.262C65.203 145.965 65.8994 145.722 66.6851 145.744C67.4707 145.767 68.1523 146.049 68.5508 146.37C68.9563 146.692 69.0891 147.014 68.9825 147.167Z" fill="#263238"/>
<path d="M41.6149 155.569C41.5101 155.282 36.2912 153.399 36.2213 158.946C36.154 164.335 41.5922 163.274 41.6027 163.12C41.6132 162.965 41.6149 155.569 41.6149 155.569Z" fill="#FFBF9D"/>
<path d="M39.9351 161.057C39.9115 161.04 39.8407 161.122 39.6817 161.194C39.527 161.263 39.2596 161.31 38.9799 161.201C38.4128 160.987 37.9418 160.078 37.9243 159.107C37.9156 158.616 38.0222 158.15 38.1996 157.765C38.3682 157.372 38.6252 157.099 38.9127 157.051C39.1984 156.988 39.4003 157.161 39.4641 157.313C39.5349 157.465 39.4999 157.572 39.5279 157.582C39.5427 157.596 39.6441 157.493 39.603 157.27C39.5821 157.162 39.52 157.035 39.3942 156.93C39.2657 156.823 39.0761 156.768 38.8768 156.788C38.4609 156.813 38.0833 157.192 37.8885 157.614C37.6709 158.038 37.5389 158.562 37.5494 159.113C37.5739 160.199 38.1201 161.221 38.8969 161.453C39.2753 161.555 39.5925 161.444 39.7568 161.318C39.9246 161.188 39.9543 161.068 39.9351 161.057Z" fill="#FF9A6C"/>
<path d="M39.3242 162.006C38.799 161.909 38.231 162.274 38.1008 162.791C37.9706 163.308 38.3 163.899 38.8086 164.061C39.3172 164.223 39.9272 163.932 40.1203 163.434C40.3134 162.937 40.0609 162.31 39.5768 162.086" fill="white"/>
<path d="M39.5786 162.087C39.5471 162.118 39.9299 162.274 40.0636 162.81C40.1265 163.066 40.0916 163.407 39.853 163.656C39.6267 163.905 39.2177 164.06 38.8489 163.944C38.481 163.825 38.2372 163.462 38.1961 163.128C38.1454 162.787 38.3141 162.489 38.5133 162.316C38.9328 161.956 39.3339 162.05 39.3278 162.006C39.3313 161.993 39.2448 161.95 39.0752 161.947C38.9075 161.942 38.6514 161.994 38.4032 162.182C38.1585 162.359 37.9217 162.723 37.9715 163.154C38.0109 163.568 38.2931 164.018 38.7746 164.179C39.2605 164.326 39.7508 164.122 40.0225 163.807C40.3127 163.484 40.3293 163.05 40.2323 162.765C40.1388 162.468 39.9587 162.278 39.8198 162.184C39.6782 162.088 39.5838 162.073 39.5786 162.087Z" fill="#263238"/>
<path d="M56.6055 165.177C56.9367 164.588 57.565 164.26 58.2205 164.213C59.1643 164.144 59.9691 164.437 60.6175 165.285C60.8369 165.529 60.8465 166.24 60.7678 166.439C60.6892 166.639 60.7521 166.54 60.6053 166.681C60.0722 167.191 59.5077 167.701 58.8042 167.899C58.1016 168.096 57.2199 167.901 56.7287 167.227C56.2927 166.626 56.2743 165.766 56.6055 165.177Z" fill="#FF9A6C"/>
<path d="M56.8141 163.299C57.0361 163.277 57.106 164.761 58.4247 165.758C59.7416 166.759 61.3172 166.52 61.3382 166.728C61.3636 166.82 60.9983 167.033 60.3315 167.081C59.677 167.133 58.7104 166.965 57.9039 166.355C57.099 165.744 56.7267 164.896 56.649 164.289C56.5624 163.671 56.7119 163.295 56.8141 163.299Z" fill="#263238"/>
<path d="M64.3847 134.573C64.0482 133.969 63.267 133.807 62.5793 133.732C53.0085 132.696 43.0323 136.996 37.2148 144.666L38.752 153.984C38.1001 155.142 41.1604 157.473 42.4878 157.39C43.8153 157.307 44.8499 156.145 45.3227 154.902C46.2473 152.471 45.7186 149.357 47.6193 147.581C48.6907 146.579 50.2357 146.331 51.668 146.017C54.3971 145.416 57.0642 144.4 59.3363 142.774C61.6084 141.147 63.4715 138.88 64.3506 136.227C64.5298 135.687 64.6608 135.069 64.3847 134.573Z" fill="#263238"/>
<path d="M35.5872 160.065C35.5636 160.076 35.3635 159.735 35.0638 159.088C34.7623 158.441 34.3856 157.475 34.0457 156.242C33.3571 153.791 32.9464 150.169 33.7774 146.323C34.6085 142.475 36.4777 139.345 38.1171 137.398C38.9359 136.415 39.6779 135.691 40.2197 135.226C40.7597 134.76 41.0831 134.533 41.0997 134.552C41.1591 134.617 39.9164 135.601 38.36 137.592C36.8054 139.563 35.0209 142.65 34.2082 146.416C33.3947 150.18 33.7451 153.728 34.3481 156.165C34.9423 158.619 35.6676 160.031 35.5872 160.065Z" fill="#455A64"/>
<path d="M42.3145 406.428L45.484 433.781L57.4711 431.956L58.2785 404.999L42.3145 406.428Z" fill="#263238"/>
<path d="M57.5222 426.536C57.5222 426.536 49.4764 433.36 44.9943 428.346L44.7688 427.526L40.5829 449.802C40.3548 451.018 40.9945 452.289 42.1489 452.651C43.0376 452.93 43.9762 452.661 44.5827 451.976C47.8309 448.307 59.7428 434.155 59.7428 434.155L59.2682 430.587C59.1922 429.65 58.2886 427.676 57.5222 426.536Z" fill="#263238"/>
<path d="M59.3717 431.483L42.5801 452.743C43.3526 452.858 44.1347 452.567 44.6582 451.971C53.6478 441.727 59.7492 434.154 59.7492 434.154L59.3717 431.483Z" fill="#E0E0E0"/>
<path d="M47.0907 442.17C46.9658 442.245 46.3707 441.062 44.9724 440.505C43.5908 439.905 42.3543 440.327 42.3158 440.185C42.2923 440.129 42.5684 439.926 43.0962 439.81C43.6188 439.691 44.3948 439.711 45.1621 440.029C45.9285 440.349 46.4965 440.888 46.7884 441.346C47.0881 441.805 47.1467 442.147 47.0907 442.17Z" fill="#455A64"/>
<path d="M45.6835 445.413C45.5821 445.521 44.8 444.818 43.5993 444.559C42.4038 444.273 41.4015 444.572 41.3551 444.429C41.2817 444.315 42.3444 443.74 43.7094 444.057C45.077 444.36 45.798 445.342 45.6835 445.413Z" fill="#455A64"/>
<path d="M49.8647 437.95C49.7651 438.068 48.5688 436.98 46.7362 436.41C44.9116 435.811 43.3194 436.009 43.3036 435.853C43.2582 435.732 44.9291 435.282 46.8874 435.92C48.8502 436.536 49.9705 437.876 49.8647 437.95Z" fill="#455A64"/>
<path d="M49.8809 432.311C49.8293 432.455 48.5351 432.009 46.8939 432.07C45.2519 432.108 43.9813 432.63 43.9228 432.488C43.852 432.379 45.1165 431.602 46.8808 431.557C48.6452 431.497 49.9455 432.197 49.8809 432.311Z" fill="#263238"/>
<path d="M89.8296 427.98C89.5526 427.557 87.041 418.404 87.041 418.404L102.559 414.181L104.758 427.373L89.8296 427.98Z" fill="#263238"/>
<path d="M104.107 423.504L104.633 425.832C104.633 425.832 121.711 432.79 121.931 436.177L88.1816 436.423L88.5985 423.992C93.6312 426.397 98.3396 425.985 104.107 423.504Z" fill="#263238"/>
<path d="M88.1816 436.42L88.2734 433.58L120.586 434.385C120.586 434.385 122.093 435.062 121.931 436.175L88.1816 436.42Z" fill="#E0E0E0"/>
<path d="M104.753 425.93C104.748 426.103 103.925 426.188 103.117 426.751C102.296 427.291 101.884 428.044 101.731 427.977C101.579 427.944 101.818 426.907 102.807 426.244C103.79 425.572 104.787 425.771 104.753 425.93Z" fill="#455A64"/>
<path d="M108.292 427.443C108.331 427.611 107.619 427.91 107.064 428.647C106.489 429.366 106.353 430.16 106.189 430.154C106.034 430.182 105.914 429.169 106.62 428.266C107.319 427.358 108.288 427.278 108.292 427.443Z" fill="#455A64"/>
<path d="M110.343 431.879C110.194 431.917 109.959 431.054 110.375 430.102C110.786 429.148 111.56 428.768 111.631 428.911C111.725 429.052 111.228 429.565 110.897 430.352C110.549 431.131 110.507 431.861 110.343 431.879Z" fill="#455A64"/>
<path d="M79.31 262.571C79.31 262.571 87.8766 300.966 95.1167 345.242C101.07 381.657 103.706 421.081 103.706 421.081L86.1717 422.109C86.1717 422.109 75.4876 376.951 67.1674 344.485C59.4947 314.545 53.2543 298.836 53.2543 298.836L49.7422 259.326L79.31 262.571Z" fill="url(#paint21_linear_4750_83271)"/>
<path d="M30.933 254.928C30.933 254.928 15.5526 275.72 16.8469 297.421C17.6211 310.404 43.9118 425.772 43.9118 425.772L59.4844 425.242L54.5077 302.688L59.7815 262.569L30.933 254.928Z" fill="url(#paint22_linear_4750_83271)"/>
<path d="M78.1393 198.976C78.1568 198.975 78.1848 199.197 78.2215 199.62C78.2564 200.096 78.3019 200.711 78.3587 201.474C78.4819 203.083 78.5666 205.419 78.6226 208.306C78.7292 214.079 78.46 222.058 77.8833 230.841C77.3083 239.628 76.8101 247.577 76.7 253.341C76.6362 256.221 76.6144 258.555 76.6354 260.167C76.6345 260.932 76.6345 261.548 76.6336 262.024C76.6275 262.449 76.6161 262.672 76.5987 262.673C76.5812 262.674 76.5593 262.451 76.5323 262.027C76.5087 261.551 76.4781 260.936 76.4396 260.171C76.3583 258.559 76.326 256.222 76.3452 253.336C76.3645 247.56 76.8075 239.594 77.3825 230.811C77.9593 222.03 78.2844 214.073 78.2687 208.309C78.2582 205.428 78.2276 203.095 78.1647 201.484C78.1472 200.719 78.1323 200.103 78.1218 199.627C78.1157 199.202 78.1218 198.978 78.1393 198.976Z" fill="#263238"/>
<path d="M129.661 200.11L120.283 203.556L110.041 217.422L112.838 222.27L115.604 219.672C115.604 219.672 126.153 217.708 126.906 216.205C127.659 214.702 126.801 213.417 126.801 213.417C126.801 213.417 127.248 211.77 126.886 210.493C126.524 209.214 125.561 209.035 125.561 209.035C125.561 209.035 126.719 208.558 126.225 207.083C125.732 205.607 124.702 205.329 124.702 205.329C124.702 205.329 130.994 202.335 131.552 201.487C131.748 201.19 131.67 200.897 131.488 200.642C131.072 200.061 130.317 199.869 129.661 200.11Z" fill="#FFBF9D"/>
<path d="M108.436 214.529L110.33 211.872L114.421 204.455L123.535 201.998C123.535 201.998 125.069 202.716 122.949 205.435C120.829 208.155 117.859 207.602 117.859 207.602C117.859 207.602 118.506 213.518 116.896 216.159C115.287 218.801 110.941 219.031 110.941 219.031L108.436 214.529Z" fill="#FFBF9D"/>
<path d="M116.995 216.577C117.014 216.589 117.167 216.389 117.396 215.991C117.625 215.593 117.907 214.983 118.145 214.185C118.631 212.61 118.833 210.154 117.892 207.723L117.748 207.99C117.851 207.973 117.962 207.955 118.074 207.936C119.313 207.734 120.519 207.468 121.517 206.931C122.525 206.417 123.244 205.575 123.594 204.774C123.96 203.968 123.985 203.21 123.882 202.731C123.782 202.246 123.621 202.023 123.608 202.031C123.575 202.045 123.688 202.29 123.739 202.755C123.792 203.215 123.729 203.913 123.357 204.651C122.992 205.39 122.324 206.137 121.362 206.609C120.411 207.099 119.246 207.349 118.014 207.55C117.903 207.568 117.792 207.587 117.69 207.603L117.457 207.642L117.546 207.87C118.45 210.194 118.304 212.557 117.895 214.109C117.493 215.689 116.931 216.541 116.995 216.577Z" fill="#FF9A6C"/>
<path d="M125.317 209.33C125.304 209.303 124.983 209.45 124.384 209.665C123.788 209.889 122.913 210.172 121.843 210.588C121.312 210.801 120.723 211.047 120.142 211.431C119.858 211.625 119.539 211.877 119.385 212.288C119.226 212.698 119.33 213.183 119.562 213.535C119.791 213.895 120.123 214.18 120.52 214.355C120.924 214.546 121.404 214.512 121.801 214.429C122.006 214.391 122.204 214.352 122.403 214.325C122.624 214.294 122.833 214.238 123.041 214.178C123.456 214.055 123.863 213.903 124.271 213.746C124.643 213.6 125.012 213.456 125.358 213.32L125.239 212.952C124.439 213.24 123.789 213.71 123.16 214.135C122.849 214.348 122.543 214.558 122.244 214.762C121.952 214.963 121.631 215.114 121.34 215.364C121.051 215.602 120.821 215.977 120.826 216.383C120.824 216.583 120.892 216.793 121.017 216.946C121.141 217.099 121.3 217.194 121.451 217.262C122.057 217.498 122.641 217.529 123.165 217.494C124.213 217.401 124.995 217.074 125.526 216.865C126.054 216.643 126.334 216.498 126.326 216.475C126.317 216.45 126.019 216.55 125.479 216.73C124.94 216.896 124.152 217.176 123.151 217.231C122.658 217.249 122.095 217.194 121.57 216.976C121.314 216.862 121.133 216.662 121.144 216.383C121.148 216.103 121.305 215.832 121.551 215.634C121.792 215.429 122.118 215.277 122.428 215.071C122.731 214.867 123.041 214.66 123.357 214.449C123.982 214.032 124.634 213.577 125.352 213.322L125.233 212.954C124.885 213.09 124.515 213.235 124.141 213.381C123.737 213.537 123.337 213.687 122.94 213.805C122.742 213.863 122.544 213.916 122.354 213.943C122.141 213.972 121.935 214.015 121.737 214.053C121.341 214.134 120.982 214.158 120.655 214.011C120.327 213.872 120.037 213.627 119.849 213.336C119.656 213.047 119.586 212.702 119.693 212.409C119.795 212.114 120.048 211.887 120.312 211.702C120.853 211.327 121.42 211.072 121.94 210.844C122.986 210.4 123.854 210.075 124.437 209.807C125.024 209.546 125.327 209.352 125.317 209.33Z" fill="#FF9A6C"/>
<path d="M124.6 205.403C124.587 205.359 123.82 205.54 122.664 206.081C122.087 206.352 121.418 206.72 120.713 207.195C120.362 207.434 120.002 207.7 119.642 207.993C119.299 208.286 118.842 208.63 118.766 209.273C118.741 209.59 118.893 209.9 119.098 210.086C119.301 210.283 119.561 210.388 119.803 210.434C120.292 210.52 120.734 210.465 121.155 210.416C121.99 210.298 122.722 210.117 123.331 209.944C124.551 209.6 125.259 209.231 125.237 209.18C125.217 209.132 124.49 209.404 123.268 209.675C122.659 209.813 121.927 209.965 121.115 210.058C120.713 210.097 120.276 210.136 119.874 210.059C119.483 209.993 119.111 209.683 119.14 209.299C119.171 208.912 119.531 208.568 119.87 208.293C120.219 208.002 120.567 207.736 120.906 207.495C121.585 207.014 122.228 206.628 122.781 206.33C123.886 205.735 124.619 205.462 124.6 205.403Z" fill="#FF9A6C"/>
<path d="M91.0825 222.226L81.6761 192.067C80.8144 189.304 78.711 187.159 76.0457 186.326L70.3008 185.025L76.6565 233.983L78.0801 237.657C81.4401 245.149 88.7974 243.882 95.2833 240.572C95.5166 240.453 95.7438 240.33 95.9632 240.204L114.941 224.914L108.663 213.603L91.0825 222.226Z" fill="url(#paint23_linear_4750_83271)"/>
<path d="M88.9935 230.834C89.1097 230.838 89.1482 228.827 89.7887 226.469C90.4118 224.105 91.3775 222.364 91.2761 222.306C91.2044 222.247 90.0701 223.938 89.4296 226.364C88.7715 228.785 88.9026 230.845 88.9935 230.834Z" fill="#263238"/>
<path d="M32.0664 200.665L38.423 259.985L73.6308 262.571L76.436 260.173L75.4607 215.381L62.8148 183.478C61.31 186.331 58.4288 187.299 54.9542 187.032C52.5869 186.85 50.334 185.934 48.4071 184.546L42.5888 180.357L32.0664 200.665Z" fill="white"/>
<path d="M42.5822 180.359L38.2923 185.024L18.1414 189.846L29.9327 246.863L20.9536 268.93C20.0089 271.253 19.2233 273.637 18.602 276.066L13.0703 297.711C13.0703 297.711 32.1201 302.897 37.0217 300.068C41.9233 297.239 47.9137 269.71 49.7296 263.175C51.5447 256.639 54.2677 237.214 52.9971 226.867C51.7265 216.519 48.4992 204.916 47.4104 199.651C46.3206 194.387 42.5822 180.359 42.5822 180.359Z" fill="url(#paint24_linear_4750_83271)"/>
<path d="M21.7834 239.948L26.3145 222.328L18.1455 189.846C18.1455 189.846 14.3275 192.57 11.7915 202.541C9.13574 212.981 0.258856 241.728 0.803284 248.445C1.34771 255.161 36.8439 267.349 36.8439 267.349L38.2963 248.651L21.7834 239.948Z" fill="url(#paint25_linear_4750_83271)"/>
<path d="M62.8418 179.372L65.6155 183.67L77.1831 186.594C77.1831 186.594 80.2268 201.831 80.2268 206.006C80.2268 210.181 78.5052 256.466 78.5052 258.644C78.5052 260.823 86.8561 290.413 86.1299 292.228C85.4037 294.043 76.6902 295.315 76.6902 295.315C76.6902 295.315 73.4228 269.718 73.4228 261.005C73.4228 252.291 73.0592 230.87 71.2442 220.34C69.4291 209.811 62.8925 183.67 62.8925 183.67L62.8418 179.372Z" fill="url(#paint26_linear_4750_83271)"/>
<path d="M73.6086 265.87C73.6007 265.87 73.5954 265.796 73.592 265.652C73.5911 265.482 73.5902 265.272 73.5893 265.016C73.5981 264.419 73.6094 263.603 73.6243 262.571C73.6732 260.408 73.7431 257.347 73.8288 253.582C74.0062 245.993 74.3129 235.508 74.5017 223.931C74.5148 222.484 74.5357 221.054 74.5226 219.647C74.5305 218.252 74.375 216.871 74.271 215.506C74.0525 212.784 73.8358 210.16 73.5815 207.666C73.328 205.172 73.0432 202.806 72.6683 200.614C72.2995 198.424 71.6598 196.455 70.9756 194.69C69.5913 191.168 68.1617 188.442 67.1715 186.569C66.6787 185.664 66.2889 184.948 66.0032 184.424C65.88 184.199 65.7803 184.016 65.6982 183.866C65.6309 183.74 65.5994 183.673 65.6064 183.669C65.6134 183.665 65.6589 183.723 65.7393 183.842C65.8319 183.986 65.9455 184.162 66.0844 184.377C66.3798 184.851 66.8071 185.557 67.3306 186.482C68.3714 188.332 69.8482 191.039 71.2814 194.57C71.9893 196.333 72.6587 198.334 73.0475 200.547C73.4408 202.753 73.7414 205.124 74.0071 207.622C74.2736 210.12 74.4999 212.747 74.7245 215.469C74.8311 216.827 74.9902 218.213 74.9849 219.642C74.9989 221.057 74.9797 222.488 74.9657 223.938C74.7769 235.524 74.4187 246.005 74.1565 253.593C74.0088 257.355 73.8891 260.415 73.8052 262.577C73.7536 263.607 73.7134 264.423 73.6837 265.019C73.6662 265.275 73.6514 265.483 73.64 265.653C73.6269 265.797 73.6164 265.87 73.6086 265.87Z" fill="#263238"/>
<path d="M52.0832 248.443C52.0674 248.445 52.0299 248.22 51.9809 247.79C51.9329 247.361 51.8761 246.727 51.821 245.908C51.7153 244.271 51.6113 241.898 51.662 238.964C51.6856 237.498 51.7493 235.891 51.8656 234.169C51.9381 232.475 51.6121 230.661 51.1848 228.783C50.2367 225.036 48.7301 221.026 47.0085 216.883C45.2616 212.743 43.4518 208.856 41.7749 205.334C40.9604 203.565 40.0725 201.922 39.5395 200.248C39.002 198.592 38.6525 197.016 38.3554 195.577C37.7725 192.695 37.4561 190.34 37.2499 188.713C37.1503 187.899 37.083 187.266 37.0454 186.836C37.007 186.406 36.9974 186.179 37.0131 186.177C37.0288 186.176 37.0699 186.399 37.138 186.826C37.2115 187.294 37.3076 187.915 37.429 188.691C37.6903 190.308 38.0556 192.653 38.677 195.515C38.9924 196.943 39.3595 198.509 39.9056 200.137C40.4378 201.76 41.3353 203.396 42.1629 205.163C43.8617 208.679 45.6872 212.568 47.4385 216.718C49.1653 220.874 50.6666 224.902 51.6008 228.692C52.0202 230.595 52.3418 232.435 52.2492 234.196C52.1172 235.911 52.0342 237.51 51.9897 238.972C51.8979 241.896 51.9512 244.264 52.001 245.9C52.0316 246.685 52.0561 247.311 52.0744 247.784C52.0928 248.215 52.0989 248.441 52.0832 248.443Z" fill="#263238"/>
<path d="M104.18 247.016L94.2689 260.412C93.8565 260.969 93.1617 261.241 92.4801 261.113L49.6092 253.011C48.5387 252.808 47.8894 251.712 48.2259 250.677L52.8505 236.439C53.131 235.576 54.0075 235.054 54.8997 235.22L103.057 244.165C104.37 244.408 104.974 245.943 104.18 247.016Z" fill="#263238"/>
<path d="M11.7812 241.119C11.7453 241.083 12.226 240.543 13.2213 239.955C14.2053 239.368 15.753 238.786 17.5339 238.762C19.3158 238.737 20.8783 239.277 21.878 239.837C22.8899 240.397 23.3837 240.924 23.3496 240.962C23.3033 241.022 22.7431 240.596 21.7312 240.131C20.7271 239.663 19.2301 239.203 17.54 239.226C15.8517 239.248 14.367 239.75 13.376 240.245C12.378 240.737 11.8292 241.179 11.7812 241.119Z" fill="#263238"/>
<g opacity="0.3">
<path d="M21.9434 266.529L38.8809 272.757L40.6462 265.729L48.6684 267.349L49.7494 263.288L37.1594 261.522L37.0344 267.349L23.8746 262.383L21.9434 266.529Z" fill="black"/>
</g>
<path d="M38.1798 250.146C38.1798 250.146 41.5679 247.284 42.6165 246.638C43.6652 245.992 47.2149 243.653 48.8289 243.895C50.4421 244.137 50.4421 244.137 50.4421 244.137L48.9897 248.413C48.9897 248.413 61.9791 246.476 63.754 248.575C65.5288 250.672 61.8174 251.076 59.8809 251.318C57.9444 251.56 51.7232 252.608 51.7232 252.608C51.7232 252.608 67.9486 250.834 69.0785 252.608C70.2076 254.383 67.5038 254.787 67.5038 254.787L56.7568 259.063L55.5246 259.547L54.2907 261.16C54.2907 261.16 49.8776 264.226 48.5065 263.823C47.1354 263.419 37.1504 261.522 37.1504 261.522L38.1798 250.146Z" fill="#FFBF9D"/>
<path d="M49.4631 257.478C49.4482 257.42 50.4034 257.105 51.9798 256.711C53.5554 256.317 55.7567 255.861 58.2132 255.516C60.6706 255.174 62.913 255.007 64.5358 254.954C66.1594 254.899 67.1644 254.94 67.1662 255C67.1679 255.068 66.1673 255.143 64.5559 255.281C62.9436 255.418 60.7204 255.636 58.2779 255.977C55.8363 256.32 53.6393 256.721 52.0515 257.032C50.4628 257.342 49.4797 257.545 49.4631 257.478Z" fill="#FF9A6C"/>
<path d="M50.9246 260.605C50.8922 260.48 51.933 260.103 53.2491 259.761C54.5652 259.42 55.6584 259.243 55.6907 259.367C55.723 259.491 54.6823 259.869 53.3662 260.211C52.0501 260.551 50.9569 260.729 50.9246 260.605Z" fill="#FF9A6C"/>
<path d="M79.9252 199.651C79.941 199.65 79.9672 199.855 80.0012 200.246C80.0336 200.686 80.0755 201.254 80.128 201.959C80.2424 203.447 80.3202 205.604 80.3718 208.271C80.4705 213.606 80.2215 220.978 79.6884 229.094C79.1571 237.213 78.6974 244.558 78.5952 249.883C78.5357 252.545 78.5156 254.701 78.5349 256.19C78.534 256.896 78.534 257.466 78.5331 257.905C78.5279 258.298 78.5165 258.505 78.5008 258.505C78.4851 258.506 78.4641 258.3 78.4396 257.908C78.4178 257.468 78.3889 256.899 78.354 256.193C78.2788 254.703 78.2491 252.544 78.2666 249.878C78.2849 244.542 78.693 237.18 79.2244 229.064C79.7574 220.951 80.0572 213.599 80.0432 208.273C80.0336 205.611 80.0056 203.455 79.9471 201.967C79.9305 201.261 79.9174 200.691 79.9069 200.252C79.9043 199.859 79.9095 199.652 79.9252 199.651Z" fill="#263238"/>
<path d="M27.6218 220.472C27.5894 220.472 27.5641 220.046 27.5458 219.278C27.5344 218.511 27.4872 217.401 27.3919 216.034C27.2067 213.301 26.7147 209.536 25.6398 205.497C24.5553 201.459 23.1029 197.95 21.8987 195.49C21.2992 194.259 20.7863 193.273 20.4131 192.603C20.0461 191.928 19.8556 191.547 19.8836 191.529C19.9106 191.512 20.1536 191.862 20.5696 192.511C20.9925 193.156 21.5518 194.121 22.1924 195.342C23.4787 197.779 24.994 201.303 26.0881 205.377C27.1726 209.452 27.6174 213.261 27.7197 216.016C27.773 217.393 27.7703 218.51 27.7258 219.28C27.6891 220.049 27.6532 220.473 27.6218 220.472Z" fill="#263238"/>
<defs>
<linearGradient id="paint0_linear_4750_83271" x1="139.232" y1="192.58" x2="214.709" y2="-76.3224" gradientUnits="userSpaceOnUse">
<stop offset="0.0036" stop-color="#C2FF00"/>
<stop offset="1" stop-color="#C2FF00"/>
</linearGradient>
<linearGradient id="paint1_linear_4750_83271" x1="26.6879" y1="168.73" x2="205.891" y2="181.684" gradientUnits="userSpaceOnUse">
<stop stop-color="#C2FF00"/>
<stop offset="0.9964" stop-color="#719501"/>
</linearGradient>
<linearGradient id="paint2_linear_4750_83271" x1="236.457" y1="436.746" x2="244.256" y2="361.357" gradientUnits="userSpaceOnUse">
<stop stop-color="#444B8C"/>
<stop offset="0.9964" stop-color="#26264F"/>
</linearGradient>
<linearGradient id="paint3_linear_4750_83271" x1="182.341" y1="226.397" x2="100.02" y2="235.929" gradientUnits="userSpaceOnUse">
<stop stop-color="#444B8C"/>
<stop offset="0.3946" stop-color="#383C74"/>
<stop offset="0.9964" stop-color="#26264F"/>
</linearGradient>
<linearGradient id="paint4_linear_4750_83271" x1="322.445" y1="75.2214" x2="101.477" y2="411.439" gradientUnits="userSpaceOnUse">
<stop stop-color="#444B8C"/>
<stop offset="0.9964" stop-color="#26264F"/>
</linearGradient>
<linearGradient id="paint5_linear_4750_83271" x1="233.954" y1="236.989" x2="194.399" y2="174.881" gradientUnits="userSpaceOnUse">
<stop offset="0.0036" stop-color="#00BD9D"/>
<stop offset="0.0037" stop-color="#00BD9D"/>
<stop offset="1" stop-color="#49E47E"/>
</linearGradient>
<linearGradient id="paint6_linear_4750_83271" x1="324.435" y1="234.463" x2="285.565" y2="175.073" gradientUnits="userSpaceOnUse">
<stop stop-color="#F67676"/>
<stop offset="1" stop-color="#F15151"/>
</linearGradient>
<linearGradient id="paint7_linear_4750_83271" x1="148.505" y1="70.6356" x2="252.533" y2="163.273" gradientUnits="userSpaceOnUse">
<stop stop-color="#FFC444"/>
<stop offset="0.9964" stop-color="#F36F56"/>
</linearGradient>
<linearGradient id="paint8_linear_4750_83271" x1="226.058" y1="43.7814" x2="132.921" y2="202.488" gradientUnits="userSpaceOnUse">
<stop stop-color="#FFC444"/>
<stop offset="0.9964" stop-color="#F36F56"/>
</linearGradient>
<linearGradient id="paint9_linear_4750_83271" x1="128.911" y1="97.0414" x2="229.165" y2="186.318" gradientUnits="userSpaceOnUse">
<stop stop-color="#FFC444"/>
<stop offset="0.9964" stop-color="#F36F56"/>
</linearGradient>
<linearGradient id="paint10_linear_4750_83271" x1="251.759" y1="89.587" x2="327.316" y2="156.871" gradientUnits="userSpaceOnUse">
<stop stop-color="#FFC444"/>
<stop offset="0.9964" stop-color="#F36F56"/>
</linearGradient>
<linearGradient id="paint11_linear_4750_83271" x1="308.087" y1="70.0824" x2="240.44" y2="185.354" gradientUnits="userSpaceOnUse">
<stop stop-color="#FFC444"/>
<stop offset="0.9964" stop-color="#F36F56"/>
</linearGradient>
<linearGradient id="paint12_linear_4750_83271" x1="237.527" y1="108.767" x2="310.344" y2="173.61" gradientUnits="userSpaceOnUse">
<stop stop-color="#FFC444"/>
<stop offset="0.9964" stop-color="#F36F56"/>
</linearGradient>
<linearGradient id="paint13_linear_4750_83271" x1="431.985" y1="501.405" x2="386.762" y2="503.494" gradientUnits="userSpaceOnUse">
<stop stop-color="#444B8C"/>
<stop offset="0.9964" stop-color="#26264F"/>
</linearGradient>
<linearGradient id="paint14_linear_4750_83271" x1="446.944" y1="476.268" x2="397.887" y2="355.002" gradientUnits="userSpaceOnUse">
<stop stop-color="#AA80F9"/>
<stop offset="0.9964" stop-color="#6165D7"/>
</linearGradient>
<linearGradient id="paint15_linear_4750_83271" x1="425.302" y1="495.804" x2="381.369" y2="497.366" gradientUnits="userSpaceOnUse">
<stop stop-color="#444B8C"/>
<stop offset="0.9964" stop-color="#26264F"/>
</linearGradient>
<linearGradient id="paint16_linear_4750_83271" x1="432.696" y1="475.684" x2="382.732" y2="357.59" gradientUnits="userSpaceOnUse">
<stop stop-color="#AA80F9"/>
<stop offset="0.9964" stop-color="#6165D7"/>
</linearGradient>
<linearGradient id="paint17_linear_4750_83271" x1="437.383" y1="223.358" x2="431.712" y2="291.073" gradientUnits="userSpaceOnUse">
<stop stop-color="#FF9085"/>
<stop offset="1" stop-color="#FB6FBB"/>
</linearGradient>
<linearGradient id="paint18_linear_4750_83271" x1="410.796" y1="220.484" x2="395.018" y2="379.939" gradientUnits="userSpaceOnUse">
<stop stop-color="#FF9085"/>
<stop offset="1" stop-color="#FB6FBB"/>
</linearGradient>
<linearGradient id="paint19_linear_4750_83271" x1="380.919" y1="222.74" x2="377.017" y2="283.545" gradientUnits="userSpaceOnUse">
<stop stop-color="#FF9085"/>
<stop offset="1" stop-color="#FB6FBB"/>
</linearGradient>
<linearGradient id="paint20_linear_4750_83271" x1="380.851" y1="222.68" x2="376.927" y2="284.023" gradientUnits="userSpaceOnUse">
<stop stop-color="#FF9085"/>
<stop offset="1" stop-color="#FB6FBB"/>
</linearGradient>
<linearGradient id="paint21_linear_4750_83271" x1="42.1839" y1="396.205" x2="82.8424" y2="284.672" gradientUnits="userSpaceOnUse">
<stop stop-color="#431696"/>
<stop offset="0.9964" stop-color="#6165D7"/>
</linearGradient>
<linearGradient id="paint22_linear_4750_83271" x1="10.7452" y1="398.586" x2="62.48" y2="290.807" gradientUnits="userSpaceOnUse">
<stop stop-color="#431696"/>
<stop offset="0.9964" stop-color="#6165D7"/>
</linearGradient>
<linearGradient id="paint23_linear_4750_83271" x1="91.6838" y1="191.502" x2="97.0969" y2="265.82" gradientUnits="userSpaceOnUse">
<stop stop-color="#FF9085"/>
<stop offset="1" stop-color="#FB6FBB"/>
</linearGradient>
<linearGradient id="paint24_linear_4750_83271" x1="32.3519" y1="193.783" x2="57.5703" y2="344.414" gradientUnits="userSpaceOnUse">
<stop stop-color="#FF9085"/>
<stop offset="1" stop-color="#FB6FBB"/>
</linearGradient>
<linearGradient id="paint25_linear_4750_83271" x1="18.7501" y1="198.476" x2="30.0957" y2="296.721" gradientUnits="userSpaceOnUse">
<stop stop-color="#FF9085"/>
<stop offset="1" stop-color="#FB6FBB"/>
</linearGradient>
<linearGradient id="paint26_linear_4750_83271" x1="74.0183" y1="192.283" x2="112.425" y2="330.545" gradientUnits="userSpaceOnUse">
<stop stop-color="#FF9085"/>
<stop offset="1" stop-color="#FB6FBB"/>
</linearGradient>
</defs>
</svg>
