<svg width="218" height="218" viewBox="0 0 218 218" fill="none" xmlns="http://www.w3.org/2000/svg">
<path d="M0 108.635C0 48.4867 48.7558 0 108.635 0C168.425 0 217.27 48.4642 217.27 108.635C217.27 134.157 208.457 157.638 193.722 176.162C173.381 201.841 142.298 217.248 108.658 217.248C74.8157 217.248 43.9116 201.729 23.5705 176.162C8.79129 157.638 0 134.157 0 108.635Z" fill="#D6DCE8"/>
<path d="M12.6269 194.53C13.8155 191.928 12.6269 188.833 10.003 187.645C7.40147 186.456 4.30658 187.622 3.14039 190.224C1.95177 192.825 3.09554 195.943 5.71947 197.131C8.29854 198.32 11.4383 197.154 12.6269 194.53Z" fill="#D6DCE8"/>
<path d="M20.2962 204.757C21.0587 203.097 20.2962 201.124 18.6366 200.361C16.977 199.599 15.0259 200.339 14.2634 201.998C13.5009 203.658 14.241 205.631 15.9006 206.394C17.5601 207.156 19.5337 206.416 20.2962 204.757Z" fill="#D6DCE8"/>
<path d="M204.689 13.8594C206.551 11.6841 206.282 8.38732 204.106 6.50347C201.931 4.64205 198.657 4.88874 196.773 7.06414C194.911 9.23953 195.136 12.5587 197.311 14.4201C199.486 16.2815 202.828 16.0348 204.689 13.8594Z" fill="#D6DCE8"/>
<path d="M209.196 25.8127C210.384 24.4223 210.205 22.3141 208.815 21.1255C207.424 19.9369 205.338 20.0939 204.15 21.4844C202.961 22.8748 203.096 24.9829 204.486 26.1715C205.877 27.3602 208.007 27.2032 209.196 25.8127Z" fill="#D6DCE8"/>
<path d="M19.1748 24.1534C21.0362 21.978 20.7671 18.6813 18.5917 16.7974C16.4163 14.936 13.142 15.1827 11.2582 17.3581C9.39675 19.5335 9.62102 22.8526 11.7964 24.7141C13.9718 26.5755 17.3134 26.3288 19.1748 24.1534Z" fill="#D6DCE8"/>
<path d="M193.139 53.8018V201.011C193.139 209.982 185.872 217.248 176.902 217.248H43.3053C34.3346 217.248 27.0684 209.982 27.0684 201.011V16.237C27.0684 7.26627 34.3346 0 43.3053 0H135.973C136.825 0 137.655 0.0672801 138.462 0.179414C141.602 0.672803 144.562 2.08569 146.939 4.26108L187.868 41.8259C190.313 44.0686 191.995 46.9841 192.712 50.1687C193.004 51.3573 193.139 52.5683 193.139 53.8018Z" fill="white"/>
<path d="M192.735 50.1689H146.334C141.983 50.1689 138.462 46.6479 138.462 42.2971V0.179688C141.602 0.673076 144.562 2.08596 146.939 4.26136L187.868 41.8262C190.335 44.0689 192.017 47.0068 192.735 50.1689Z" fill="url(#paint0_linear_3543_38175)"/>
<path d="M114.891 24.243V18.3223C114.891 17.9859 114.622 17.7168 114.286 17.7168H57.0977C56.7613 17.7168 56.4922 17.9859 56.4922 18.3223V24.243C56.4922 24.5794 56.7613 24.8485 57.0977 24.8485H114.264C114.622 24.8709 114.891 24.6018 114.891 24.243Z" fill="#E0E4ED"/>
<path d="M91.5004 41.1981V35.2774C91.5004 34.941 91.2312 34.6719 90.8948 34.6719H57.0977C56.7613 34.6719 56.4922 34.941 56.4922 35.2774V41.1981C56.4922 41.5345 56.7613 41.8036 57.0977 41.8036H90.8724C91.2312 41.826 91.5004 41.5345 91.5004 41.1981Z" fill="#E0E4ED"/>
<path d="M128.078 186.389V191.166C128.078 191.838 127.518 192.399 126.845 192.399H57.7257C57.0529 192.399 56.4922 191.838 56.4922 191.166V186.389C56.4922 185.716 57.0529 185.155 57.7257 185.155H126.845C127.54 185.155 128.078 185.694 128.078 186.389Z" fill="#E0E4ED"/>
<path d="M113.009 151.627C135.712 151.627 154.117 133.222 154.117 110.518C154.117 87.8149 135.712 69.4102 113.009 69.4102C90.3052 69.4102 71.9004 87.8149 71.9004 110.518C71.9004 133.222 90.3052 151.627 113.009 151.627Z" fill="url(#paint1_linear_3543_38175)"/>
<path d="M75.4209 72.9541C54.6761 93.6988 54.6761 127.339 75.4209 148.084C96.1656 168.828 129.806 168.828 150.551 148.084C171.295 127.339 171.295 93.6988 150.551 72.9541C129.806 52.2093 96.188 52.2093 75.4209 72.9541ZM140.144 137.655C125.163 152.636 100.853 152.636 85.8717 137.655C70.8907 122.674 70.8907 98.3636 85.8717 83.3825C100.853 68.4014 125.163 68.4014 140.144 83.3825C155.126 98.3636 155.126 122.674 140.144 137.655Z" fill="url(#paint2_linear_3543_38175)"/>
<path d="M166.877 154.341L156.807 164.388L145.19 152.771C149.07 149.855 152.546 146.312 155.26 142.724L166.877 154.341Z" fill="url(#paint3_linear_3543_38175)"/>
<path d="M174.391 152.636L196.885 175.13C202.222 180.467 202.222 189.102 196.885 194.417C191.547 199.754 182.913 199.754 177.598 194.417L155.104 171.923C153.489 170.308 153.489 167.729 155.104 166.114L168.582 152.636C170.197 151.021 172.798 151.021 174.391 152.636Z" fill="url(#paint4_linear_3543_38175)"/>
<path d="M117.808 119.757C116.866 119.757 116.103 118.995 116.103 118.053C116.103 114.285 110.407 114.285 110.407 118.053C110.407 118.995 109.644 119.757 108.702 119.757C107.761 119.757 106.998 118.995 106.998 118.053C106.998 109.8 119.467 109.8 119.467 118.053C119.512 118.995 118.75 119.757 117.808 119.757Z" fill="#AAB2C5"/>
<path d="M132.273 105.338H125.231C124.289 105.338 123.526 104.575 123.526 103.633C123.526 102.691 124.289 101.929 125.231 101.929H132.273C133.215 101.929 133.977 102.691 133.977 103.633C133.977 104.575 133.215 105.338 132.273 105.338Z" fill="#AAB2C5"/>
<path d="M101.325 105.338H94.2826C93.3406 105.338 92.5781 104.575 92.5781 103.633C92.5781 102.691 93.3406 101.929 94.2826 101.929H101.325C102.266 101.929 103.029 102.691 103.029 103.633C103.029 104.575 102.244 105.338 101.325 105.338Z" fill="#AAB2C5"/>
<path d="M157.728 63.7354C157.728 65.1259 156.606 66.2472 155.216 66.2472C153.825 66.2472 152.704 65.1259 152.704 63.7354C152.704 62.345 153.825 61.2236 155.216 61.2236C156.606 61.2236 157.728 62.345 157.728 63.7354Z" fill="#989FB0"/>
<path d="M166.429 63.7354C166.429 65.1259 165.308 66.2472 163.917 66.2472C162.527 66.2472 161.405 65.1259 161.405 63.7354C161.405 62.345 162.527 61.2236 163.917 61.2236C165.308 61.2236 166.429 62.345 166.429 63.7354Z" fill="#989FB0"/>
<path d="M175.131 63.7354C175.131 65.1259 174.01 66.2472 172.619 66.2472C171.229 66.2472 170.107 65.1259 170.107 63.7354C170.107 62.345 171.229 61.2236 172.619 61.2236C174.01 61.2236 175.131 62.345 175.131 63.7354Z" fill="#989FB0"/>
<defs>
<linearGradient id="paint0_linear_3543_38175" x1="138.479" y1="25.1801" x2="192.724" y2="25.1801" gradientUnits="userSpaceOnUse">
<stop stop-color="#D6DCE8"/>
<stop offset="1" stop-color="white"/>
</linearGradient>
<linearGradient id="paint1_linear_3543_38175" x1="71.8799" y1="110.522" x2="154.114" y2="110.522" gradientUnits="userSpaceOnUse">
<stop stop-color="#D6DCE8"/>
<stop offset="1" stop-color="white"/>
</linearGradient>
<linearGradient id="paint2_linear_3543_38175" x1="59.869" y1="110.521" x2="166.127" y2="110.521" gradientUnits="userSpaceOnUse">
<stop stop-color="#989FB0"/>
<stop offset="1" stop-color="#AAB2C5"/>
</linearGradient>
<linearGradient id="paint3_linear_3543_38175" x1="145.192" y1="153.553" x2="166.866" y2="153.553" gradientUnits="userSpaceOnUse">
<stop stop-color="#989FB0"/>
<stop offset="1" stop-color="#AAB2C5"/>
</linearGradient>
<linearGradient id="paint4_linear_3543_38175" x1="153.903" y1="174.914" x2="200.881" y2="174.914" gradientUnits="userSpaceOnUse">
<stop stop-color="#989FB0"/>
<stop offset="1" stop-color="#AAB2C5"/>
</linearGradient>
</defs>
</svg>
