<svg width="229" height="175" viewBox="0 0 229 175" fill="none" xmlns="http://www.w3.org/2000/svg">
<g opacity="0.2">
<path d="M51.4845 43.8245C48.6228 42.4787 43.8903 44.6668 42.3813 47.8686C39.5008 53.9808 48.8172 62.8328 52.2052 61.8827C55.9912 60.821 56.7386 46.2952 51.4845 43.8245Z" stroke="#0B4565" stroke-width="1.36894" stroke-miterlimit="10" stroke-linecap="round" stroke-dasharray="3.42 3.42 3.42 3.42 3.42 3.42"/>
<path d="M37.1718 57.6684C36.1506 57.0777 25.3324 50.8198 19.2101 55.7724C14.9114 59.2499 14.8703 66.683 18.1007 70.8607C24.4988 79.1349 44.3388 75.4253 46.3974 69.5047C47.7836 65.5177 41.2752 60.0421 37.1718 57.6684Z" stroke="#0B4565" stroke-width="1.36894" stroke-miterlimit="10" stroke-linecap="round" stroke-dasharray="3.42 3.42 3.42 3.42 3.42 3.42"/>
<path d="M51.0915 159.839C77.4238 153.303 107.344 146.649 153.805 147.783C179.788 148.417 185.676 140.353 205.369 130.328C222.921 121.392 231.542 103.624 226.247 93.5542C220.902 83.3879 204.621 87.4354 191.287 72.3021C185.215 65.4098 186.284 60.5789 182.778 52.9357C171.676 28.7342 130.067 9.81786 109.548 19.8289C82.441 33.0543 105.615 90.1996 75.3142 105.81C56.1475 115.685 41.6605 96.7282 22.7354 111.199C13.3582 118.369 1.8896 128.427 1.00265 139.348C1.00265 139.348 -0.239226 166.049 51.0915 159.839Z" stroke="#0B4565" stroke-width="1.36894" stroke-miterlimit="10" stroke-linecap="round" stroke-dasharray="3.42 3.42 3.42 3.42 3.42 3.42"/>
<path opacity="0.2" d="M196.575 130.102C196.575 130.102 191.806 136.426 187.035 145.103C182.734 152.928 179.463 163.471 178.741 172.274C176.715 172.178 174.49 172.088 172.084 172.003C157.837 171.497 137.268 171.181 114.398 171.181C88.3969 171.181 65.3721 171.59 51.2277 172.221C50.7408 172.242 50.2642 172.264 49.7985 172.286C32.1396 150.399 -3.41987 112.267 29.3045 96.5799C29.3045 96.5799 31.7018 95.8497 35.296 94.2814C46.6716 89.3165 70.0477 75.9565 67.4476 50.7667C67.4476 50.7667 66.5617 46.0662 66.5617 39.5257C66.5617 24.232 71.4035 -1.11875 103.727 0.0382648C123.302 0.739923 141.329 10.7008 152.228 26.6443C162.919 42.2821 180.012 61.5223 193.932 50.538C197.146 48.0014 201.394 47.0618 205.361 48.1769C215.381 50.9913 226.764 65.561 196.575 130.102Z" fill="#0B4565"/>
</g>
<path opacity="0.15" d="M222.57 173.126C222.57 174.161 174.14 175 114.399 175C80.6908 175 50.584 174.733 30.7455 174.314C26.1761 174.218 22.152 174.113 18.7542 174.002C16.5161 173.929 14.5497 173.853 12.878 173.774C8.57708 173.572 6.22803 173.354 6.22803 173.126C6.22803 172.835 10.0407 172.56 16.8456 172.315C19.6324 172.215 22.9207 172.119 26.6546 172.03C46.3014 171.559 78.2834 171.252 114.399 171.252C146.167 171.252 174.737 171.489 194.527 171.867C211.952 172.2 222.57 172.641 222.57 173.126Z" fill="#898989"/>
<path d="M152.974 35.5002L145.888 48.7792C145.62 49.2822 144.994 49.4724 144.491 49.204L132.749 42.9379C132.246 42.6695 132.056 42.0441 132.324 41.5411L140.715 25.818C140.983 25.315 141.609 25.1248 142.112 25.3933L151.349 30.3226L151.378 30.415L152.974 35.5002Z" fill="#E3E9F7"/>
<path opacity="0.1" d="M152.975 35.5001L150.361 34.1054C149.952 33.8869 149.797 33.3779 150.016 32.9683L151.378 30.4148L152.975 35.5001Z" fill="black"/>
<path d="M141.494 38.0934L141.717 37.6764C141.909 37.3158 142.153 37.0432 142.45 36.8587C142.746 36.6741 143.179 36.5409 143.749 36.4588C144.294 36.3876 144.676 36.2973 144.896 36.1878C145.116 36.0785 145.285 35.9148 145.401 35.6969C145.531 35.4527 145.54 35.2187 145.428 34.9947C145.316 34.7708 145.098 34.5725 144.775 34.4001C144.212 34.0994 143.471 33.9407 142.553 33.9239L142.598 32.3621C143.686 32.3395 144.7 32.5788 145.639 33.08C146.413 33.493 146.929 34.0072 147.187 34.6227C147.445 35.2382 147.408 35.8559 147.078 36.4758C146.857 36.889 146.573 37.1958 146.225 37.3961C145.876 37.5964 145.339 37.7441 144.613 37.8391C144.11 37.9134 143.773 37.9945 143.603 38.0823C143.433 38.1702 143.288 38.3268 143.168 38.5522L142.987 38.8903L141.494 38.0934ZM140.285 39.9245C140.454 39.6089 140.666 39.4155 140.921 39.3441C141.176 39.2729 141.465 39.3233 141.788 39.4957C142.1 39.6621 142.297 39.8736 142.38 40.1301C142.463 40.3867 142.422 40.669 142.258 40.977C142.099 41.2738 141.888 41.4615 141.624 41.5402C141.36 41.6189 141.074 41.5761 140.766 41.4117C140.45 41.2433 140.251 41.0293 140.167 40.77C140.084 40.5106 140.123 40.2287 140.285 39.9245Z" fill="#00BD9D"/>
<path d="M56.4532 106.024L48.0765 118.877C47.7592 119.364 47.1073 119.501 46.6204 119.184L35.2547 111.777C34.7678 111.46 34.6304 110.808 34.9477 110.321L44.866 95.1019C45.1833 94.615 45.8353 94.4775 46.3222 94.7948L55.2631 100.622L55.2844 100.718L56.4532 106.024Z" fill="#E3E9F7"/>
<path opacity="0.1" d="M56.4532 106.024L53.9237 104.375C53.5273 104.117 53.4154 103.586 53.6737 103.19L55.2845 100.718L56.4532 106.024Z" fill="black"/>
<path d="M47.3551 112.024L45.8396 111.037L45.927 107.721L42.9286 109.14L41.5073 108.213L45.6872 106.339L45.7189 102.041L47.183 102.995L47.064 106.126L49.8544 104.736L51.2842 105.668L47.2965 107.491L47.3551 112.024Z" fill="#00BD9D"/>
<path d="M202.057 65.3196L207.552 79.6436C207.761 80.1862 207.49 80.7948 206.947 81.003L194.281 85.8621C193.738 86.0703 193.129 85.7991 192.921 85.2565L186.415 68.2961C186.207 67.7535 186.478 67.1449 187.02 66.9367L196.985 63.1143L197.075 63.1536L202.057 65.3196Z" fill="#E3E9F7"/>
<path opacity="0.1" d="M202.057 65.3195L199.238 66.401C198.796 66.5705 198.301 66.3497 198.131 65.908L197.075 63.1536L202.057 65.3195Z" fill="black"/>
<path d="M200.773 77.6601L199.7 78.0715L198.201 77.2437L197.64 78.8618L196.635 79.2476L197.464 77.0166L195.488 75.9785L196.524 75.5811L197.925 76.3782L198.415 74.8559L199.427 74.4678L198.651 76.6045L200.773 77.6601Z" fill="#00BD9D"/>
<path d="M200.311 68.0354L190.521 71.7913C190.404 71.8362 190.272 71.7777 190.228 71.6607C190.183 71.5436 190.241 71.4124 190.358 71.3675L200.149 67.6116C200.266 67.5667 200.397 67.6251 200.442 67.7422C200.487 67.8592 200.428 67.9905 200.311 68.0354Z" fill="#00BD9D"/>
<path d="M200.734 69.094L190.943 72.8499C190.826 72.8948 190.695 72.8363 190.65 72.7193C190.605 72.6022 190.663 72.471 190.78 72.4261L200.571 68.6702C200.688 68.6252 200.819 68.6837 200.864 68.8008C200.909 68.9178 200.851 69.049 200.734 69.094Z" fill="#00BD9D"/>
<path d="M201.158 70.1523L191.367 73.9082C191.25 73.9531 191.119 73.8947 191.074 73.7776C191.029 73.6606 191.087 73.5294 191.204 73.4844L200.995 69.7285C201.112 69.6836 201.243 69.7421 201.288 69.8591C201.333 69.9761 201.275 70.1074 201.158 70.1523Z" fill="#00BD9D"/>
<path d="M201.58 71.2106L191.789 74.9666C191.672 75.0115 191.541 74.953 191.496 74.836C191.451 74.7189 191.51 74.5877 191.627 74.5428L201.417 70.7869C201.534 70.7419 201.666 70.8004 201.711 70.9175C201.755 71.0345 201.697 71.1658 201.58 71.2106Z" fill="#00BD9D"/>
<path d="M201.922 72.3042L192.132 76.0601C192.015 76.105 191.883 76.0465 191.838 75.9295C191.793 75.8124 191.852 75.6812 191.969 75.6363L201.76 71.8804C201.877 71.8354 202.008 71.8939 202.053 72.011C202.098 72.128 202.039 72.2592 201.922 72.3042Z" fill="#00BD9D"/>
<path d="M58.7107 143.617L64.8908 157.659C65.1249 158.191 64.8834 158.812 64.3515 159.046L51.9345 164.51C51.4026 164.745 50.7816 164.503 50.5475 163.971L43.23 147.345C42.9959 146.813 43.2374 146.192 43.7693 145.958L53.5373 141.659L53.6296 141.694L58.7107 143.617Z" fill="#E3E9F7"/>
<path opacity="0.1" d="M58.711 143.616L55.9474 144.833C55.5144 145.023 55.0088 144.827 54.8183 144.394L53.6299 141.693L58.711 143.616Z" fill="black"/>
<path d="M58.0236 156.005L56.9723 156.467L55.4349 155.713L54.9528 157.356L53.9669 157.79L54.6878 155.522L52.6641 154.58L53.6797 154.133L55.1171 154.862L55.5329 153.317L56.5248 152.881L55.8533 155.052L58.0236 156.005Z" fill="#00BD9D"/>
<path d="M57.098 146.414L47.5001 150.638C47.3853 150.688 47.2514 150.636 47.2009 150.521C47.1504 150.407 47.2025 150.273 47.3173 150.222L56.9152 145.998C57.0299 145.948 57.1638 146 57.2143 146.114C57.2648 146.229 57.2127 146.363 57.098 146.414Z" fill="#00BD9D"/>
<path d="M57.5721 147.45L47.9742 151.674C47.8595 151.725 47.7255 151.673 47.675 151.558C47.6245 151.443 47.6766 151.309 47.7914 151.259L57.3893 147.035C57.5041 146.984 57.638 147.036 57.6885 147.151C57.7389 147.266 57.6869 147.4 57.5721 147.45Z" fill="#00BD9D"/>
<path d="M58.0443 148.487L48.4464 152.711C48.3316 152.762 48.1977 152.71 48.1472 152.595C48.0967 152.48 48.1488 152.346 48.2635 152.296L57.8615 148.072C57.9762 148.021 58.1101 148.073 58.1606 148.188C58.2111 148.303 58.159 148.436 58.0443 148.487Z" fill="#00BD9D"/>
<path d="M58.5184 149.524L48.9205 153.748C48.8058 153.799 48.6718 153.746 48.6213 153.632C48.5708 153.517 48.6229 153.383 48.7377 153.333L58.3356 149.108C58.4503 149.058 58.5843 149.11 58.6348 149.225C58.6852 149.339 58.6332 149.473 58.5184 149.524Z" fill="#00BD9D"/>
<path d="M58.9125 150.599L49.3145 154.823C49.1998 154.874 49.0658 154.822 49.0154 154.707C48.9649 154.592 49.017 154.458 49.1317 154.408L58.7297 150.184C58.8444 150.133 58.9783 150.185 59.0288 150.3C59.0793 150.415 59.0272 150.549 58.9125 150.599Z" fill="#00BD9D"/>
<path d="M101.606 42.2489L107.786 56.291C108.02 56.8229 107.778 57.4439 107.247 57.678L94.8295 63.1428C94.2976 63.3769 93.6766 63.1355 93.4425 62.6035L86.1251 45.977C85.891 45.445 86.1324 44.8241 86.6643 44.59L96.4323 40.291L96.5246 40.3259L101.606 42.2489Z" fill="#E3E9F7"/>
<path opacity="0.1" d="M101.606 42.2489L98.8424 43.4652C98.4094 43.6557 97.9039 43.4592 97.7133 43.0262L96.5249 40.3259L101.606 42.2489Z" fill="black"/>
<path d="M100.918 54.6372L99.8668 55.0999L98.3295 54.3454L97.8474 55.9886L96.8614 56.4225L97.5824 54.1541L95.5586 53.2126L96.5742 52.7656L98.0116 53.4942L98.4274 51.95L99.4193 51.5134L98.7479 53.685L100.918 54.6372Z" fill="#00BD9D"/>
<path d="M99.9926 45.0461L90.3946 49.2702C90.2799 49.3207 90.146 49.2686 90.0955 49.1539C90.045 49.0392 90.0971 48.9053 90.2118 48.8547L99.8098 44.6306C99.9245 44.5801 100.058 44.6322 100.109 44.7469C100.159 44.8617 100.107 44.9956 99.9926 45.0461Z" fill="#00BD9D"/>
<path d="M100.467 46.0827L90.8687 50.3068C90.754 50.3573 90.62 50.3053 90.5696 50.1905C90.5191 50.0758 90.5712 49.9419 90.6859 49.8914L100.284 45.6672C100.399 45.6167 100.533 45.6688 100.583 45.7836C100.633 45.8983 100.581 46.0322 100.467 46.0827Z" fill="#00BD9D"/>
<path d="M100.939 47.1193L91.3409 51.3434C91.2262 51.3939 91.0922 51.3418 91.0417 51.2271C90.9912 51.1124 91.0434 50.9785 91.1581 50.928L100.756 46.7039C100.871 46.6534 101.005 46.7055 101.055 46.8202C101.106 46.9349 101.054 47.0688 100.939 47.1193Z" fill="#00BD9D"/>
<path d="M101.413 48.1562L91.815 52.3803C91.7003 52.4308 91.5663 52.3787 91.5159 52.264C91.4654 52.1493 91.5175 52.0153 91.6322 51.9648L101.23 47.7407C101.345 47.6902 101.479 47.7423 101.529 47.857C101.58 47.9718 101.528 48.1057 101.413 48.1562Z" fill="#00BD9D"/>
<path d="M101.807 49.2319L92.209 53.456C92.0943 53.5065 91.9604 53.4544 91.9099 53.3397C91.8594 53.2249 91.9115 53.091 92.0262 53.0405L101.624 48.8164C101.739 48.7659 101.873 48.818 101.923 48.9327C101.974 49.0474 101.922 49.1814 101.807 49.2319Z" fill="#00BD9D"/>
<path d="M166.177 81.439H70.1851V151.094H166.177V81.439Z" fill="#E3E9F7"/>
<path d="M166.176 72.6948H70.2207V81.4583H166.176V72.6948Z" fill="#0B4565"/>
<path d="M74.6572 78.0697C75.4716 78.0697 76.1319 77.442 76.1319 76.6676C76.1319 75.8932 75.4716 75.2654 74.6572 75.2654C73.8428 75.2654 73.1826 75.8932 73.1826 76.6676C73.1826 77.442 73.8428 78.0697 74.6572 78.0697Z" fill="#E3E9F7"/>
<path d="M78.959 78.0697C79.7734 78.0697 80.4336 77.442 80.4336 76.6676C80.4336 75.8932 79.7734 75.2654 78.959 75.2654C78.1446 75.2654 77.4844 75.8932 77.4844 76.6676C77.4844 77.442 78.1446 78.0697 78.959 78.0697Z" fill="#E3E9F7"/>
<path d="M83.2608 78.0697C84.0752 78.0697 84.7354 77.442 84.7354 76.6676C84.7354 75.8932 84.0752 75.2654 83.2608 75.2654C82.4463 75.2654 81.7861 75.8932 81.7861 76.6676C81.7861 77.442 82.4463 78.0697 83.2608 78.0697Z" fill="#E3E9F7"/>
<path d="M163.289 85.106H73.0732V147.428H163.289V85.106Z" fill="#F4F6FC"/>
<path d="M132.175 100.43V127.831C132.175 128.869 131.334 129.71 130.296 129.71H106.066C105.028 129.71 104.187 128.869 104.187 127.831V95.3863C104.187 94.3483 105.028 93.5068 106.066 93.5068H125.127L125.253 93.6304L132.175 100.43Z" fill="#0B4565" fill-opacity="0.1"/>
<path opacity="0.15" d="M132.175 100.43H126.782C125.937 100.43 125.252 99.7445 125.252 98.8996V93.6304L132.175 100.43Z" fill="black"/>
<path d="M126.555 106.824L108.667 107.074C108.453 107.077 108.278 106.906 108.275 106.692C108.272 106.478 108.442 106.303 108.656 106.3L126.544 106.05C126.758 106.047 126.934 106.218 126.937 106.431C126.94 106.645 126.769 106.821 126.555 106.824Z" fill="#0B4565"/>
<path d="M126.608 108.768L108.72 109.018C108.506 109.021 108.331 108.85 108.328 108.636C108.325 108.422 108.496 108.246 108.709 108.243L126.597 107.993C126.811 107.99 126.987 108.161 126.99 108.375C126.993 108.589 126.822 108.765 126.608 108.768Z" fill="#0B4565"/>
<path d="M126.662 110.711L108.774 110.961C108.561 110.964 108.385 110.793 108.382 110.579C108.379 110.365 108.55 110.19 108.764 110.187L126.652 109.937C126.865 109.934 127.041 110.105 127.044 110.319C127.047 110.532 126.876 110.708 126.662 110.711Z" fill="#0B4565"/>
<path d="M126.716 112.655L108.828 112.905C108.614 112.908 108.438 112.737 108.435 112.523C108.432 112.309 108.603 112.134 108.817 112.131L126.705 111.881C126.919 111.878 127.094 112.049 127.097 112.262C127.1 112.476 126.929 112.652 126.716 112.655Z" fill="#0B4565"/>
<path d="M126.621 114.607L108.733 114.857C108.52 114.86 108.344 114.689 108.341 114.475C108.338 114.262 108.509 114.086 108.723 114.083L126.611 113.833C126.824 113.83 127 114.001 127.003 114.215C127.006 114.429 126.835 114.604 126.621 114.607Z" fill="#0B4565"/>
</svg>
