<svg width="302" height="232" viewBox="0 0 302 232" fill="none" xmlns="http://www.w3.org/2000/svg">
<g opacity="0.2">
<path d="M67.7809 57.9705C63.9955 56.1904 57.7353 59.0847 55.7393 63.32C51.929 71.4052 64.2526 83.1144 68.7342 81.8576C73.7423 80.4532 74.731 61.2387 67.7809 57.9705Z" stroke="#0B4565" stroke-width="1.36894" stroke-miterlimit="10" stroke-linecap="round" stroke-dasharray="3.42 3.42 3.42 3.42 3.42 3.42"/>
<path d="M48.8471 76.2833C47.4962 75.5018 33.1861 67.224 25.0876 73.7752C19.4013 78.3752 19.3469 88.2077 23.6201 93.7338C32.0834 104.679 58.3274 99.7718 61.0505 91.9401C62.8842 86.6662 54.275 79.4231 48.8471 76.2833Z" stroke="#0B4565" stroke-width="1.36894" stroke-miterlimit="10" stroke-linecap="round" stroke-dasharray="3.42 3.42 3.42 3.42 3.42 3.42"/>
<path d="M67.2603 211.433C102.092 202.787 141.67 193.986 203.128 195.485C237.498 196.323 245.287 185.657 271.336 172.396C294.554 160.576 305.957 137.073 298.954 123.752C291.883 110.304 270.347 115.658 252.709 95.6403C244.677 86.5232 246.091 80.133 241.453 70.0227C226.768 38.0093 171.728 12.9871 144.586 26.2295C108.729 43.7239 139.384 119.315 99.3017 139.964C73.9482 153.026 54.7851 127.951 29.7513 147.093C17.3473 156.577 2.17675 169.882 1.0035 184.328C1.0035 184.328 -0.639229 219.647 67.2603 211.433Z" stroke="#0B4565" stroke-width="1.36894" stroke-miterlimit="10" stroke-linecap="round" stroke-dasharray="3.42 3.42 3.42 3.42 3.42 3.42"/>
<path opacity="0.2" d="M259.704 172.096C259.704 172.096 253.394 180.462 247.083 191.94C241.394 202.291 237.067 216.237 236.112 227.882C233.432 227.755 230.489 227.636 227.307 227.523C208.461 226.854 181.253 226.435 151 226.435C116.607 226.435 86.1498 226.977 67.4398 227.811C66.7957 227.84 66.1653 227.869 65.5493 227.898C42.1904 198.946 -4.84711 148.505 38.4402 127.754C38.4402 127.754 41.6113 126.789 46.3657 124.714C61.4131 118.146 92.3347 100.474 88.8952 67.1534C88.8952 67.1534 87.7234 60.9357 87.7234 52.284C87.7234 32.0538 94.128 -1.4798 136.886 0.0506772C162.778 0.978819 186.625 14.1549 201.042 35.2448C215.183 55.9302 237.794 81.3809 256.207 66.8509C260.458 63.4956 266.078 62.2526 271.325 63.7277C284.579 67.4505 299.636 86.7231 259.704 172.096Z" fill="#0B4565"/>
</g>
<path opacity="0.15" d="M294.087 229.008C294.087 230.377 230.025 231.487 151 231.487C106.411 231.487 66.5865 231.134 40.3444 230.58C34.3 230.452 28.9771 230.314 24.4825 230.167C21.522 230.071 18.9209 229.97 16.7096 229.865C11.0204 229.599 7.91309 229.31 7.91309 229.008C7.91309 228.624 12.9564 228.26 21.9578 227.936C25.6442 227.803 29.9938 227.676 34.933 227.559C60.9215 226.935 103.227 226.529 151 226.529C193.022 226.529 230.814 226.843 256.992 227.343C280.041 227.783 294.087 228.367 294.087 229.008Z" fill="#898989"/>
<path d="M202.025 46.959L192.652 64.5243C192.297 65.1897 191.47 65.4412 190.804 65.0862L175.272 56.7975C174.606 56.4424 174.355 55.6152 174.71 54.9498L185.809 34.1516C186.164 33.4862 186.991 33.2346 187.656 33.5897L199.875 40.1101L199.914 40.2324L202.025 46.959Z" fill="#E3E9F7"/>
<path opacity="0.1" d="M202.025 46.959L198.568 45.1142C198.027 44.8252 197.822 44.1518 198.111 43.6101L199.914 40.2323L202.025 46.959Z" fill="black"/>
<path d="M186.84 50.3894L187.134 49.8378C187.389 49.3607 187.712 49.0002 188.104 48.7561C188.496 48.512 189.069 48.3357 189.823 48.2272C190.544 48.1329 191.049 48.0135 191.341 47.8687C191.632 47.724 191.854 47.5075 192.008 47.2193C192.18 46.8963 192.192 46.5867 192.044 46.2904C191.896 45.9942 191.608 45.7319 191.18 45.5039C190.435 45.1061 189.455 44.8963 188.241 44.874L188.3 42.808C189.739 42.7782 191.081 43.0947 192.323 43.7577C193.347 44.304 194.029 44.9842 194.37 45.7984C194.712 46.6126 194.663 47.4296 194.226 48.2496C193.934 48.7962 193.558 49.202 193.097 49.467C192.637 49.732 191.926 49.9273 190.965 50.0529C190.3 50.1512 189.855 50.2585 189.63 50.3746C189.405 50.4909 189.213 50.6981 189.054 50.9963L188.815 51.4435L186.84 50.3894ZM185.241 52.8115C185.464 52.394 185.744 52.1382 186.082 52.0438C186.419 51.9495 186.802 52.0163 187.229 52.2443C187.642 52.4645 187.902 52.7441 188.012 53.0835C188.121 53.4229 188.067 53.7963 187.85 54.2037C187.64 54.5963 187.361 54.8446 187.012 54.9487C186.663 55.0529 186.284 54.9962 185.877 54.7787C185.459 54.556 185.195 54.2729 185.085 53.9299C184.974 53.5869 185.026 53.214 185.241 52.8115Z" fill="#00BD9D"/>
<path d="M74.3445 140.246L63.264 157.248C62.8443 157.893 61.9819 158.074 61.3378 157.655L46.3035 147.857C45.6595 147.437 45.4776 146.574 45.8973 145.93L59.0172 125.799C59.4369 125.155 60.2993 124.973 60.9434 125.393L72.7703 133.101L72.7985 133.228L74.3445 140.246Z" fill="#E3E9F7"/>
<path opacity="0.1" d="M74.3445 140.246L70.9984 138.066C70.4741 137.724 70.3262 137.022 70.6678 136.498L72.7986 133.228L74.3445 140.246Z" fill="black"/>
<path d="M62.3105 148.184L60.3059 146.877L60.4215 142.491L56.4552 144.368L54.5752 143.143L60.1043 140.663L60.1462 134.978L62.0829 136.24L61.9255 140.381L65.6165 138.543L67.5079 139.776L62.2331 142.187L62.3105 148.184Z" fill="#00BD9D"/>
<path d="M266.949 86.4037L274.218 105.351C274.493 106.069 274.135 106.874 273.417 107.149L256.662 113.577C255.944 113.852 255.139 113.494 254.864 112.776L246.257 90.3409C245.982 89.6232 246.341 88.8181 247.058 88.5428L260.239 83.4865L260.358 83.5385L266.949 86.4037Z" fill="#E3E9F7"/>
<path opacity="0.1" d="M266.949 86.4034L263.22 87.834C262.636 88.0582 261.98 87.7662 261.756 87.1819L260.358 83.5383L266.949 86.4034Z" fill="black"/>
<path d="M265.25 102.727L263.832 103.272L261.849 102.177L261.107 104.317L259.776 104.827L260.874 101.876L258.26 100.503L259.63 99.9774L261.483 101.032L262.131 99.0182L263.469 98.5048L262.443 101.331L265.25 102.727Z" fill="#00BD9D"/>
<path d="M264.639 89.9961L251.688 94.9644C251.533 95.0238 251.36 94.9465 251.3 94.7917C251.241 94.6368 251.318 94.4632 251.473 94.4038L264.424 89.4355C264.579 89.3761 264.752 89.4535 264.812 89.6083C264.871 89.7631 264.794 89.9368 264.639 89.9961Z" fill="#00BD9D"/>
<path d="M265.198 91.3964L252.247 96.3647C252.092 96.4241 251.919 96.3468 251.859 96.1919C251.8 96.0371 251.877 95.8635 252.032 95.8041L264.983 90.8358C265.138 90.7764 265.312 90.8537 265.371 91.0086C265.43 91.1633 265.353 91.337 265.198 91.3964Z" fill="#00BD9D"/>
<path d="M265.758 92.7964L252.807 97.7647C252.652 97.8241 252.478 97.7468 252.419 97.592C252.36 97.4371 252.437 97.2635 252.592 97.2041L265.543 92.2358C265.697 92.1764 265.871 92.2538 265.93 92.4086C265.99 92.5634 265.912 92.737 265.758 92.7964Z" fill="#00BD9D"/>
<path d="M266.317 94.1963L253.366 99.1646C253.211 99.224 253.037 99.1467 252.978 98.9919C252.919 98.837 252.996 98.6634 253.151 98.604L266.102 93.6357C266.257 93.5763 266.43 93.6537 266.49 93.8085C266.549 93.9633 266.472 94.137 266.317 94.1963Z" fill="#00BD9D"/>
<path d="M266.77 95.6427L253.819 100.611C253.665 100.67 253.491 100.593 253.432 100.438C253.372 100.283 253.45 100.11 253.604 100.05L266.555 95.0821C266.71 95.0227 266.884 95.1001 266.943 95.2549C267.002 95.4097 266.925 95.5833 266.77 95.6427Z" fill="#00BD9D"/>
<path d="M77.3342 189.974L85.509 208.548C85.8187 209.252 85.4993 210.073 84.7957 210.383L68.3707 217.612C67.6671 217.922 66.8456 217.602 66.536 216.899L56.8565 194.905C56.5469 194.202 56.8663 193.38 57.5699 193.07L70.4908 187.384L70.613 187.43L77.3342 189.974Z" fill="#E3E9F7"/>
<path opacity="0.1" d="M77.334 189.974L73.6783 191.583C73.1056 191.835 72.4368 191.575 72.1848 191.002L70.6128 187.43L77.334 189.974Z" fill="black"/>
<path d="M76.4249 206.361L75.0343 206.973L73.0007 205.975L72.363 208.148L71.0588 208.722L72.0125 205.722L69.3354 204.476L70.6789 203.885L72.5803 204.849L73.1303 202.806L74.4424 202.229L73.5542 205.101L76.4249 206.361Z" fill="#00BD9D"/>
<path d="M75.2003 193.674L62.5042 199.261C62.3525 199.328 62.1753 199.259 62.1085 199.107C62.0417 198.956 62.1106 198.778 62.2624 198.712L74.9584 193.124C75.1102 193.057 75.2873 193.126 75.3541 193.278C75.4209 193.43 75.352 193.607 75.2003 193.674Z" fill="#00BD9D"/>
<path d="M75.8262 195.045L63.1302 200.633C62.9784 200.699 62.8012 200.63 62.7345 200.479C62.6677 200.327 62.7366 200.15 62.8884 200.083L75.5844 194.495C75.7362 194.429 75.9134 194.497 75.9801 194.649C76.0468 194.801 75.978 194.978 75.8262 195.045Z" fill="#00BD9D"/>
<path d="M76.4527 196.416L63.7567 202.004C63.6049 202.071 63.4278 202.002 63.361 201.85C63.2942 201.698 63.3631 201.521 63.5148 201.454L76.2109 195.867C76.3626 195.8 76.5398 195.869 76.6066 196.021C76.6733 196.172 76.6044 196.349 76.4527 196.416Z" fill="#00BD9D"/>
<path d="M77.0787 197.788L64.3826 203.376C64.2309 203.442 64.0537 203.373 63.9869 203.222C63.9201 203.07 63.9891 202.893 64.1408 202.826L76.8368 197.238C76.9886 197.171 77.1657 197.24 77.2325 197.392C77.2993 197.544 77.2304 197.721 77.0787 197.788Z" fill="#00BD9D"/>
<path d="M77.6016 199.211L64.9056 204.798C64.7538 204.865 64.5766 204.796 64.5099 204.644C64.4431 204.493 64.512 204.315 64.6638 204.249L77.3598 198.661C77.5115 198.594 77.6887 198.663 77.7555 198.815C77.8222 198.967 77.7534 199.144 77.6016 199.211Z" fill="#00BD9D"/>
<path d="M134.077 55.886L142.252 74.4607C142.561 75.1643 142.242 75.9857 141.538 76.2954L125.113 83.5241C124.41 83.8338 123.588 83.5144 123.279 82.8108L113.599 60.8174C113.29 60.1138 113.609 59.2924 114.313 58.9827L127.233 53.2961L127.356 53.3423L134.077 55.886Z" fill="#E3E9F7"/>
<path opacity="0.1" d="M134.077 55.8859L130.421 57.4948C129.848 57.7469 129.18 57.4869 128.927 56.9141L127.355 53.3422L134.077 55.8859Z" fill="black"/>
<path d="M133.168 72.2728L131.777 72.8848L129.743 71.8869L129.106 74.0605L127.801 74.6345L128.755 71.6337L126.078 70.3884L127.422 69.7971L129.323 70.7608L129.873 68.7182L131.185 68.1407L130.297 71.0133L133.168 72.2728Z" fill="#00BD9D"/>
<path d="M131.943 59.586L119.247 65.1736C119.095 65.2404 118.918 65.1715 118.851 65.0197C118.784 64.868 118.853 64.6909 119.005 64.6241L131.701 59.0364C131.853 58.9696 132.03 59.0385 132.097 59.1903C132.164 59.3421 132.095 59.5192 131.943 59.586Z" fill="#00BD9D"/>
<path d="M132.569 60.9573L119.873 66.5449C119.721 66.6117 119.544 66.5428 119.477 66.391C119.41 66.2393 119.479 66.0621 119.631 65.9953L132.327 60.4077C132.479 60.3409 132.656 60.4098 132.723 60.5616C132.79 60.7133 132.721 60.8905 132.569 60.9573Z" fill="#00BD9D"/>
<path d="M133.195 62.3286L120.499 67.9162C120.348 67.983 120.17 67.914 120.104 67.7623C120.037 67.6105 120.106 67.4334 120.258 67.3666L132.954 61.779C133.105 61.7122 133.282 61.7811 133.349 61.9329C133.416 62.0846 133.347 62.2618 133.195 62.3286Z" fill="#00BD9D"/>
<path d="M133.821 63.7001L121.125 69.2877C120.974 69.3545 120.796 69.2856 120.73 69.1339C120.663 68.9821 120.732 68.8049 120.883 68.7382L133.58 63.1506C133.731 63.0838 133.908 63.1527 133.975 63.3044C134.042 63.4562 133.973 63.6333 133.821 63.7001Z" fill="#00BD9D"/>
<path d="M134.344 65.1229L121.648 70.7105C121.497 70.7773 121.319 70.7083 121.253 70.5566C121.186 70.4049 121.255 70.2276 121.406 70.1609L134.102 64.5733C134.254 64.5065 134.431 64.5754 134.498 64.7272C134.565 64.8789 134.496 65.0561 134.344 65.1229Z" fill="#00BD9D"/>
<path d="M219.488 107.726H92.5112V199.865H219.488V107.726Z" fill="#E3E9F7"/>
<path d="M219.486 96.1597H92.5581V107.752H219.486V96.1597Z" fill="#0B4565"/>
<path d="M98.4291 103.269C99.5064 103.269 100.38 102.439 100.38 101.415C100.38 100.39 99.5064 99.5599 98.4291 99.5599C97.3518 99.5599 96.4785 100.39 96.4785 101.415C96.4785 102.439 97.3518 103.269 98.4291 103.269Z" fill="#E3E9F7"/>
<path d="M104.119 103.27C105.196 103.27 106.069 102.439 106.069 101.415C106.069 100.39 105.196 99.5601 104.119 99.5601C103.041 99.5601 102.168 100.39 102.168 101.415C102.168 102.439 103.041 103.27 104.119 103.27Z" fill="#E3E9F7"/>
<path d="M109.808 103.27C110.885 103.27 111.759 102.439 111.759 101.415C111.759 100.39 110.885 99.5601 109.808 99.5601C108.731 99.5601 107.857 100.39 107.857 101.415C107.857 102.439 108.731 103.27 109.808 103.27Z" fill="#E3E9F7"/>
<path d="M215.668 112.577H96.332V195.015H215.668V112.577Z" fill="#F4F6FC"/>
<path d="M174.511 132.847V169.093C174.511 170.466 173.398 171.579 172.025 171.579H139.974C138.601 171.579 137.488 170.466 137.488 169.093V126.176C137.488 124.803 138.601 123.689 139.974 123.689H165.187L165.354 123.853L174.511 132.847Z" fill="#0B4565" fill-opacity="0.1"/>
<path opacity="0.15" d="M174.511 132.847H167.378C166.26 132.847 165.354 131.94 165.354 130.823V123.853L174.511 132.847Z" fill="black"/>
<path d="M167.077 141.305L143.415 141.636C143.132 141.64 142.9 141.414 142.896 141.131C142.892 140.848 143.118 140.616 143.401 140.612L167.063 140.281C167.345 140.277 167.578 140.503 167.582 140.786C167.586 141.069 167.36 141.301 167.077 141.305Z" fill="#0B4565"/>
<path d="M167.148 143.876L143.486 144.207C143.203 144.211 142.971 143.985 142.967 143.702C142.963 143.419 143.189 143.187 143.472 143.183L167.134 142.852C167.417 142.848 167.649 143.074 167.653 143.357C167.657 143.64 167.431 143.872 167.148 143.876Z" fill="#0B4565"/>
<path d="M167.219 146.447L143.558 146.778C143.275 146.782 143.042 146.556 143.038 146.273C143.034 145.99 143.26 145.757 143.543 145.753L167.205 145.423C167.488 145.419 167.721 145.645 167.724 145.928C167.728 146.211 167.502 146.443 167.219 146.447Z" fill="#0B4565"/>
<path d="M167.291 149.018L143.629 149.349C143.346 149.353 143.114 149.127 143.11 148.844C143.106 148.561 143.332 148.329 143.615 148.325L167.276 147.994C167.559 147.99 167.792 148.216 167.796 148.499C167.8 148.782 167.574 149.014 167.291 149.018Z" fill="#0B4565"/>
<path d="M167.165 151.601L143.503 151.932C143.221 151.936 142.988 151.709 142.984 151.427C142.98 151.144 143.206 150.911 143.489 150.907L167.151 150.577C167.434 150.573 167.666 150.799 167.67 151.082C167.674 151.365 167.448 151.597 167.165 151.601Z" fill="#0B4565"/>
</svg>
