<svg width="1814" height="1181" viewBox="0 0 1814 1181" fill="none" xmlns="http://www.w3.org/2000/svg">
<path d="M1224.66 1180.84C1550.05 1180.84 1813.83 916.5 1813.83 590.42C1813.83 264.34 1550.05 0 1224.66 0C899.273 0 635.494 264.34 635.494 590.42C635.494 916.5 899.273 1180.84 1224.66 1180.84Z" fill="#0B4565"/>
<path d="M846.163 270.667C702.525 147.936 598.198 108.036 447 108.036C447 108.036 577.03 73.1867 678.837 113.087C757.438 143.892 852.21 242.383 852.21 242.383C852.21 242.383 912.186 192.887 1032.14 175.21C1152.09 157.532 1270.52 236.322 1270.52 236.322C1113.6 188.441 1021.16 192.647 846.163 270.667Z" fill="url(#paint0_linear_29_56)"/>
<path d="M0 455.55C42.8071 455.083 85.6169 454.81 128.421 455.21C147.571 455.389 166.342 459.183 183.446 468.012C195.384 474.176 205.183 483.257 212.975 494.607C221.595 507.163 226.664 520.943 228.527 535.757C231.483 559.255 229.697 582.157 218.751 603.914C210.031 621.247 197.153 634.223 179.697 641.874C169.57 646.313 158.446 649.131 147.484 650.882C117.26 655.708 86.7224 652.169 56.33 652.952C51.4708 653.077 49.8131 653.982 49.8647 659.235C50.1459 687.881 49.8754 716.534 50.1154 745.181C50.1569 750.144 48.6134 751.287 43.9088 751.19C29.5904 750.895 15.2619 751.083 0.468663 751.083C0 652.728 0 554.374 0 455.55ZM155.556 599.211C156.233 598.52 156.79 597.591 157.607 597.177C166.654 592.585 171.655 584.673 174.666 575.513C178.34 564.335 178.686 552.712 176.772 541.192C175.182 531.617 171.381 522.697 164.171 515.959C154.056 506.507 141.409 502.462 127.9 502.208C103.766 501.755 79.6155 502.19 55.4744 501.974C51.0367 501.935 49.8762 503.211 49.9016 507.588C50.0833 538.89 50.1116 570.194 49.8806 601.495C49.8447 606.366 51.5829 607.201 55.8955 607.165C77.706 606.986 99.5195 606.996 121.331 607.118C133.143 607.185 144.247 604.429 155.556 599.211Z" fill="#0B4565"/>
<path d="M864.002 707.194C896.584 722.63 935.69 714.998 955.86 688.6C960.429 682.621 964.879 680.835 971.857 681.092C984.8 681.57 997.772 681.229 1012.25 681.229C1008.33 689.024 1005.43 696.278 1001.31 702.764C980.359 735.768 949.839 753.035 911.164 755.953C885.837 757.864 861.113 755.002 838.559 742.352C802.303 722.017 782.951 690.602 780.316 649.304C777.869 610.943 789.277 577.668 818.936 551.856C836.021 536.986 856.051 528.611 878.368 525.673C904.646 522.213 930.479 524.031 954.411 536.171C994.748 556.632 1015.64 590.086 1017.83 635.197C1018.15 641.634 1017.88 648.101 1017.88 654.949C953.634 654.949 890.525 654.949 826.943 654.949C831.126 678.452 842.652 696.071 864.002 707.194ZM890.806 566.169C858.436 569.911 831.595 593.209 828.509 620.441C875.325 620.441 922.116 620.441 969.407 620.441C965.588 603.459 957.062 590.04 943.627 579.785C928.26 568.055 910.543 564.974 890.806 566.169Z" fill="#FDFEFE"/>
<path d="M1444.54 741.616C1398.36 763.31 1353.15 763.337 1310.43 734.705C1281.62 715.401 1266.95 686.643 1264.22 652.181C1261.9 622.787 1267.13 595.023 1285.11 570.797C1305.65 543.119 1333.48 528.332 1367.62 525.03C1391.42 522.729 1414.78 524.759 1436.4 535.347C1475.37 554.429 1497.38 585.766 1500.97 629.332C1501.65 637.577 1501.06 645.927 1501.06 654.732C1437.6 654.732 1374.54 654.732 1310.87 654.732C1312.07 665.525 1315.62 674.873 1321.22 683.346C1337.65 708.213 1361.8 716.633 1390.31 714.514C1412.89 712.835 1430.88 702.622 1443.6 683.555C1444.35 682.417 1446.17 681.344 1447.51 681.331C1463.16 681.177 1478.81 681.232 1495.2 681.232C1485.65 707.875 1468.82 727.596 1444.54 741.616ZM1330.55 586.12C1321.06 595.762 1314.59 606.978 1311.91 620.445C1359.27 620.445 1405.98 620.445 1453.27 620.445C1446.78 595.778 1432.88 577.799 1408.78 570.185C1380.5 561.254 1353.81 564.638 1330.55 586.12Z" fill="#FDFEFE"/>
<path d="M1583.93 662.082C1583.93 691.562 1583.93 720.542 1583.93 749.954C1568.83 749.954 1553.95 749.954 1538.89 749.954C1538.78 749.191 1538.56 748.392 1538.56 747.593C1538.69 705.765 1538.14 663.92 1539.26 622.119C1539.98 595.042 1548.98 570.514 1569.37 551.362C1585.63 536.079 1605.36 528.248 1627.19 525.535C1651.34 522.532 1675.17 523.978 1697.82 533.679C1728.76 546.923 1746.6 570.934 1752.76 603.576C1754.81 614.472 1755.68 625.728 1755.79 636.833C1756.16 672.992 1755.93 709.158 1755.93 745.322C1755.93 746.792 1755.93 748.262 1755.93 750.057C1740.83 750.057 1726.09 750.057 1710.53 750.057C1710.53 748.188 1710.53 746.284 1710.53 744.38C1710.53 708.883 1710.78 673.383 1710.37 637.891C1710.26 627.99 1709.33 617.807 1706.79 608.283C1700.21 583.649 1681.03 568.343 1655.58 566.257C1639.48 564.937 1623.93 566.766 1610.1 576.07C1591.64 588.484 1585.31 607.136 1584.17 628.091C1583.56 639.226 1583.98 650.417 1583.93 662.082Z" fill="#FEFEFE"/>
<path d="M1053.64 604.511C1043.91 579.751 1034.33 555.346 1024.48 530.243C1036.83 530.243 1048.42 530.202 1060.02 530.266C1064.64 530.291 1070.42 528.923 1073.54 531.16C1076.71 533.419 1077.35 539.316 1078.91 543.686C1097.89 596.933 1116.85 650.186 1135.75 703.463C1136.82 706.48 1137.68 708.531 1141.73 708.449C1145.62 708.371 1146.26 706.297 1147.24 703.518C1167.23 647.271 1187.32 591.059 1207.22 534.786C1208.5 531.168 1210.16 530.073 1213.95 530.142C1228.09 530.397 1242.24 530.245 1257.07 530.245C1253.86 538.58 1250.88 546.461 1247.79 554.303C1222.67 618.212 1197.5 682.101 1172.49 746.053C1171.18 749.407 1169.63 750.516 1166.07 750.474C1149.41 750.279 1132.75 750.234 1116.09 750.499C1112.07 750.563 1110.35 749.288 1108.91 745.595C1090.64 698.644 1072.19 651.764 1053.64 604.511Z" fill="#FDFEFE"/>
<path d="M743.079 493.081C743.079 579.029 743.079 664.476 743.079 750.153C727.824 750.153 713.084 750.153 698.098 750.153C698.098 643.358 698.098 536.792 698.098 430C713.084 430 727.824 430 743.079 430C743.079 451.013 743.079 471.797 743.079 493.081Z" fill="white"/>
<path d="M402.775 722.294C388.444 706.986 378.606 689.502 374.699 669.285C371.956 655.099 369.522 640.683 372.761 626.055C374.078 620.103 373.941 613.814 375.418 607.917C379.114 593.167 385.606 579.633 395.03 567.636C408.26 550.792 424.963 538.505 445.062 531.196C457.205 526.78 469.784 523.655 482.875 524.129C494.945 524.566 507.192 524.284 519.021 526.305C540.164 529.915 558.679 539.51 574.654 554.139C591.151 569.247 602.25 587.612 607.287 609.122C612.799 632.658 612.411 656.324 605.041 679.714C597.024 705.158 581.056 724.313 559.26 738.924C544.143 749.059 527.163 754.617 509.158 755.924C495.82 756.893 482.191 757.384 468.987 755.73C454.672 753.937 440.431 749.891 428.166 741.638C419.45 735.773 411.378 728.95 402.775 722.294ZM549.485 686.012C557.436 675.054 561.883 662.63 562.852 649.319C564.758 623.155 558.521 599.761 537.506 582.062C529.093 574.975 519.272 570.404 508.737 568.362C500.453 566.756 491.724 567.039 483.203 567.169C470.619 567.36 459.058 571.747 448.981 578.888C428.803 593.189 419.47 613.495 419.056 637.932C418.759 655.435 422.132 671.838 432.989 686.429C441.361 697.68 451.897 705.548 464.866 709.952C476.885 714.033 489.316 714.696 502.104 713.257C521.78 711.044 537.128 702.044 549.485 686.012Z" fill="#0B4565"/>
<path d="M251.891 586.981C255.219 573 261.38 560.911 270.949 550.738C281.542 539.476 294.719 532.48 309.463 528.173C319.9 525.125 330.496 523.788 341.368 524.034C351.191 524.257 361.024 524.125 370.852 524.056C373.387 524.038 374.941 524.524 374.914 527.579C374.812 539.24 374.812 550.901 374.915 562.561C374.942 565.596 373.432 566.132 370.874 566.108C362.546 566.029 354.203 565.788 345.891 566.16C336.298 566.589 326.842 567.771 318.059 572.391C307.887 577.742 301.716 586.154 298.233 596.755C294.476 608.193 294.082 620.112 294.045 631.991C293.927 669.638 293.886 707.286 294.133 744.933C294.168 750.19 292.555 751.335 287.659 751.192C276.008 750.853 264.338 750.941 252.681 751.163C248.861 751.236 247.925 749.911 247.934 746.271C248.039 700.294 247.843 654.316 248.174 608.342C248.224 601.35 250.55 594.374 251.891 586.981Z" fill="#0B4565"/>
<defs>
<linearGradient id="paint0_linear_29_56" x1="782.659" y1="208.591" x2="910.226" y2="251.862" gradientUnits="userSpaceOnUse">
<stop stop-color="#0B4565"/>
<stop offset="1" stop-color="white"/>
</linearGradient>
</defs>
</svg>
