<svg width="1367" height="1181" viewBox="0 0 1367 1181" fill="none" xmlns="http://www.w3.org/2000/svg">
<path d="M778 1181C1103.3 1181 1367 916.624 1367 590.5C1367 264.376 1103.3 0 778 0C452.704 0 189 264.376 189 590.5C189 916.624 452.704 1181 778 1181Z" fill="#0B4565"/>
<path d="M398.908 271C255.362 148.078 151.102 108.116 0 108.116C0 108.116 129.947 73.2122 231.689 113.174C310.24 144.027 404.952 242.672 404.952 242.672C404.952 242.672 464.889 193.099 584.763 175.394C704.637 157.689 823 236.602 823 236.602C666.178 188.646 573.789 192.859 398.908 271Z" fill="url(#paint0_linear_32_59)"/>
<defs>
<linearGradient id="paint0_linear_32_59" x1="335.446" y1="208.828" x2="462.988" y2="251.996" gradientUnits="userSpaceOnUse">
<stop stop-color="#0B4565"/>
<stop offset="1" stop-color="white"/>
</linearGradient>
</defs>
</svg>
