<svg width="359" height="292" viewBox="0 0 359 292" fill="none" xmlns="http://www.w3.org/2000/svg">
<path d="M38.7787 62.5104V40.5075C38.7787 24.932 51.7215 12.2606 67.6301 12.2606C83.5386 12.2606 96.4815 24.932 96.4815 40.5075V62.5104H107.984V40.5075C107.984 18.7231 89.8815 1 67.6301 1C45.3786 1 27.2764 18.7231 27.2764 40.5075V62.5104H38.7787Z" stroke="#0B4565" stroke-width="1.1663" stroke-miterlimit="10" stroke-linecap="round" stroke-linejoin="round"/>
<path d="M111.112 62.6699H23.0029V135.555H111.112V62.6699Z" stroke="#0B4565" stroke-width="1.1663" stroke-miterlimit="10" stroke-linecap="round" stroke-linejoin="round"/>
<path d="M76.2203 92.9374C76.2203 87.7507 71.9259 83.5469 66.6282 83.5469C61.3305 83.5469 57.0361 87.7516 57.0361 92.9374C57.0361 96.5102 59.0736 99.6159 62.0734 101.203L60.4621 117.757H72.7952L71.1839 101.203C74.182 99.6151 76.2203 96.5102 76.2203 92.9374Z" stroke="#0B4565" stroke-width="1.1663" stroke-miterlimit="10" stroke-linecap="round" stroke-linejoin="round"/>
<path d="M166.032 137.915L144.099 136.472V136.117L141.402 136.294L138.706 136.117V136.472L116.773 137.915L100.592 270.953H116.773L140.863 164.881H141.941L166.032 270.953H182.213L166.032 137.915Z" fill="#0B4565" stroke="#0B4565" stroke-width="1.1663" stroke-miterlimit="10" stroke-linecap="round" stroke-linejoin="round"/>
<path d="M100.592 270.953L96.6366 277.065L84.4119 282.459C84.4119 282.459 82.2549 283.537 82.2549 286.055C82.2549 288.572 82.2549 290.729 82.2549 290.729H117.132C117.132 290.729 117.492 286.774 117.132 283.179C116.773 279.583 116.773 270.954 116.773 270.954H100.592V270.953Z" fill="#F9F9F9" stroke="#0B4565" stroke-width="1.1663" stroke-miterlimit="10" stroke-linecap="round" stroke-linejoin="round"/>
<path d="M82.2549 286.773C82.2549 288.968 82.2549 290.729 82.2549 290.729H117.132C117.132 290.729 117.29 288.99 117.291 286.773H82.2549Z" fill="#0B4565" stroke="#0B4565" stroke-width="1.1663" stroke-miterlimit="10" stroke-linecap="round" stroke-linejoin="round"/>
<path d="M182.146 270.953L186.102 277.065L198.327 282.459C198.327 282.459 200.484 283.537 200.484 286.055C200.484 288.572 200.484 290.729 200.484 290.729H165.606C165.606 290.729 165.247 286.774 165.606 283.179C165.966 279.583 165.966 270.954 165.966 270.954H182.146V270.953Z" fill="#F9F9F9" stroke="#0B4565" stroke-width="1.1663" stroke-miterlimit="10" stroke-linecap="round" stroke-linejoin="round"/>
<path d="M200.485 286.773C200.485 288.968 200.485 290.729 200.485 290.729H165.607C165.607 290.729 165.45 288.99 165.448 286.773H200.485Z" fill="#0B4565" stroke="#0B4565" stroke-width="1.1663" stroke-miterlimit="10" stroke-linecap="round" stroke-linejoin="round"/>
<path d="M107.483 76.0225C107.483 76.0225 81.8955 112.025 81.8955 114.661C81.8955 117.298 85.9704 137.674 92.4423 139.591C98.9141 141.509 102.51 138.153 103.709 131.441C104.908 124.729 100.832 115.141 100.832 115.141L112.818 104.354L107.483 76.0225Z" fill="#C2FF00" stroke="#0B4565" stroke-width="1.1663" stroke-miterlimit="10" stroke-linecap="round" stroke-linejoin="round"/>
<path d="M102.511 130.484C102.511 130.484 109.941 129.285 111.859 129.765C113.777 130.244 115.215 134.799 115.215 134.799C115.215 134.799 115.934 141.51 114.735 142.948C113.536 144.386 107.783 146.064 105.387 146.544C102.99 147.023 97.9557 141.51 96.0378 138.155C94.1208 134.799 97.4767 129.046 102.511 130.484Z" fill="#EAEAEA" stroke="#0B4565" stroke-width="1.1663" stroke-miterlimit="10" stroke-linecap="round" stroke-linejoin="round"/>
<path d="M112.871 74.3903L107.483 76.0229L115.973 132.676H166.422L174.096 76.35L167.238 73.7379L141.932 68.1865L112.871 74.3903Z" fill="#C2FF00" stroke="#0B4565" stroke-width="1.1663" stroke-miterlimit="10" stroke-linecap="round" stroke-linejoin="round"/>
<path d="M169.198 93.33L168.054 101.493L159.239 103.616L150.259 100.024L150.912 92.6768L169.198 93.33Z" fill="#0B4565" stroke="#0B4565" stroke-width="1.1663" stroke-miterlimit="10" stroke-linecap="round" stroke-linejoin="round"/>
<path d="M158.26 99.9423C158.26 99.0858 158.954 98.3916 159.81 98.3916C160.667 98.3916 161.361 99.0858 161.361 99.9423C161.361 100.799 160.667 101.493 159.81 101.493C158.954 101.493 158.26 100.799 158.26 99.9423Z" fill="#F9F9F9" stroke="#0B4565" stroke-width="1.1663" stroke-miterlimit="10" stroke-linecap="round" stroke-linejoin="round"/>
<path d="M136.544 78.6353L141.279 84.1866L135.238 122.718L141.606 132.84L149.116 122.228L142.749 84.3497L148.136 79.1255L142.422 71.7783L136.544 78.6353Z" fill="#0B4565" stroke="#0B4565" stroke-width="1.1663" stroke-miterlimit="10" stroke-linecap="round" stroke-linejoin="round"/>
<path d="M131.973 69.0029L110.259 74.3903L110.912 77.0025L132.136 71.1249L131.973 69.0029Z" fill="#0B4565" stroke="#0B4565" stroke-width="1.1663" stroke-miterlimit="10" stroke-linecap="round" stroke-linejoin="round"/>
<path d="M149.769 68.3496L171.484 73.7378L170.831 76.35L149.605 70.4725L149.769 68.3496Z" fill="#0B4565" stroke="#0B4565" stroke-width="1.1663" stroke-miterlimit="10" stroke-linecap="round" stroke-linejoin="round"/>
<path d="M171.483 73.7373C171.483 73.7373 179.696 75.5903 184.729 78.4663C189.763 81.3432 190.962 87.815 188.085 95.0059C185.208 102.198 176.34 101.239 172.265 99.3208C168.19 97.4028 166.991 90.212 167.71 87.096" fill="#C2FF00"/>
<path d="M171.483 73.7373C171.483 73.7373 179.696 75.5903 184.729 78.4663C189.763 81.3432 190.962 87.815 188.085 95.0059C185.208 102.198 176.34 101.239 172.265 99.3208C168.19 97.4028 166.991 90.212 167.71 87.096" stroke="#0B4565" stroke-width="1.1663" stroke-miterlimit="10" stroke-linecap="round" stroke-linejoin="round"/>
<path d="M132.952 66.2274L130.503 67.8593L131.156 84.3493L141.769 76.8391L152.871 84.5133L153.85 68.1863L150.912 65.7373L132.952 66.2274Z" fill="#C2FF00" stroke="#0B4565" stroke-width="1.1663" stroke-miterlimit="10" stroke-linecap="round" stroke-linejoin="round"/>
<path d="M154.4 46.6144C154.4 46.6144 160.429 45.1473 161.57 39.1178C162.711 33.0883 151.792 25.7548 144.296 24.4509C136.8 23.147 125.718 30.9697 123.926 36.3469C122.133 41.7248 129.141 47.1028 136.637 48.2437C144.133 49.3845 154.4 46.6144 154.4 46.6144Z" fill="#0B4565" stroke="#0B4565" stroke-width="1.1663" stroke-miterlimit="10" stroke-linecap="round" stroke-linejoin="round"/>
<path d="M131.912 47.5921C131.912 47.5921 128.652 42.5403 127.838 46.9406C127.023 51.3408 130.445 53.2963 131.912 53.1332C133.379 52.9701 131.912 47.5921 131.912 47.5921Z" fill="#EAEAEA" stroke="#0B4565" stroke-width="1.1663" stroke-miterlimit="10" stroke-linecap="round" stroke-linejoin="round"/>
<path d="M153.096 47.5921C153.096 47.5921 156.356 42.5403 157.17 46.9406C157.985 51.3408 154.563 53.2963 153.096 53.1332C151.629 52.9701 153.096 47.5921 153.096 47.5921Z" fill="#EAEAEA" stroke="#0B4565" stroke-width="1.1663" stroke-miterlimit="10" stroke-linecap="round" stroke-linejoin="round"/>
<path d="M132.626 57.5742V68.3498L141.769 76.8395L152.054 68.0236V57.9004L132.626 57.5742Z" fill="#EAEAEA" stroke="#0B4565" stroke-width="1.1663" stroke-miterlimit="10" stroke-linecap="round" stroke-linejoin="round"/>
<path d="M131.26 44.3321C131.26 44.3321 130.771 54.4357 131.586 57.6951C132.401 60.9545 137.779 67.7986 142.016 69.2657C146.253 70.7327 152.119 61.9322 153.423 58.999C154.727 56.0658 154.238 43.6805 154.238 43.6805C154.238 43.6805 152.446 39.4434 148.86 38.1394C145.274 36.8364 134.193 34.5547 131.26 44.3321Z" fill="#EAEAEA" stroke="#0B4565" stroke-width="1.1663" stroke-miterlimit="10" stroke-linecap="round" stroke-linejoin="round"/>
<path d="M138.039 49.6963C138.039 50.4666 137.687 51.0899 137.251 51.0899C136.816 51.0899 136.463 50.4657 136.463 49.6963C136.463 48.9269 136.816 48.3027 137.251 48.3027C137.687 48.3027 138.039 48.9261 138.039 49.6963Z" fill="#0B4565"/>
<path d="M148.038 49.6963C148.038 50.4666 147.686 51.0899 147.25 51.0899C146.815 51.0899 146.462 50.4657 146.462 49.6963C146.462 48.9269 146.815 48.3027 147.25 48.3027C147.686 48.3027 148.038 48.9261 148.038 49.6963Z" fill="#0B4565"/>
<path d="M139.738 53.5908C139.003 53.5908 138.408 54.0673 138.408 54.6548C138.408 55.2423 139.003 55.7188 139.738 55.7188C140.108 55.7188 140.442 55.5975 140.684 55.402C141.105 55.975 141.875 56.3635 142.767 56.3635C143.623 56.3635 144.371 56.0066 144.802 55.4703C145.033 55.6231 145.324 55.7188 145.647 55.7188C146.381 55.7188 146.976 55.2423 146.976 54.6548C146.976 54.0673 146.381 53.5908 145.647 53.5908" fill="#EAEAEA"/>
<path d="M139.738 53.5908C139.003 53.5908 138.408 54.0673 138.408 54.6548C138.408 55.2423 139.003 55.7188 139.738 55.7188C140.108 55.7188 140.442 55.5975 140.684 55.402C141.105 55.975 141.875 56.3635 142.767 56.3635C143.623 56.3635 144.371 56.0066 144.802 55.4703C145.033 55.6231 145.324 55.7188 145.647 55.7188C146.381 55.7188 146.976 55.2423 146.976 54.6548C146.976 54.0673 146.381 53.5908 145.647 53.5908" stroke="#0B4565" stroke-width="1.1663" stroke-miterlimit="10" stroke-linecap="round" stroke-linejoin="round"/>
<path d="M141.035 60.2793H144.441" stroke="#0B4565" stroke-width="1.1663" stroke-miterlimit="10" stroke-linecap="round" stroke-linejoin="round"/>
<path d="M130.887 46.7885C130.887 46.7885 131.008 50.0608 132.098 49.2128C133.189 48.364 133.553 42.7888 132.583 42.0621C131.614 41.3346 130.887 45.0918 130.887 46.7885Z" fill="#0B4565" stroke="#0B4565" stroke-width="1.1663" stroke-miterlimit="10" stroke-linecap="round" stroke-linejoin="round"/>
<path d="M151.923 46.7885C151.923 46.7885 152.044 50.0608 153.135 49.2128C154.225 48.364 154.589 42.7888 153.62 42.0621C152.65 41.3346 151.923 45.0918 151.923 46.7885Z" fill="#0B4565" stroke="#0B4565" stroke-width="1.1663" stroke-miterlimit="10" stroke-linecap="round" stroke-linejoin="round"/>
<path d="M130.887 44.1213C130.887 44.1213 131.255 44.4159 131.248 44.5628C132.825 45.4184 136.456 46.9905 142.33 47.3082C147.373 47.5806 151.693 45.7882 154.26 44.3818C154.246 43.942 154.236 43.6833 154.236 43.6816C154.088 39.8603 151.252 37.3199 147.74 36.3421C144.383 35.4071 140.528 35.5659 137.288 36.863C135.611 37.5342 134.085 38.5469 132.964 39.9781C132.592 40.4529 130.292 43.644 130.887 44.1213Z" fill="#F9F9F9" stroke="#0B4565" stroke-width="1.1663" stroke-miterlimit="10" stroke-linecap="round" stroke-linejoin="round"/>
<path d="M131.26 44.333C131.26 44.333 135.334 45.4739 142.341 45.1477C149.348 44.8215 154.227 44.3339 154.227 44.3339C154.227 44.3339 149.448 49.185 142.441 49.5112C134.867 49.863 131.26 44.333 131.26 44.333Z" fill="#F9F9F9" stroke="#0B4565" stroke-width="1.1663" stroke-miterlimit="10" stroke-linecap="round" stroke-linejoin="round"/>
<path d="M113.359 93.33L114.502 101.493L123.319 103.616L132.298 100.024L131.645 92.6768L113.359 93.33Z" fill="#0B4565" stroke="#0B4565" stroke-width="1.1663" stroke-miterlimit="10" stroke-linecap="round" stroke-linejoin="round"/>
<path d="M124.298 99.9423C124.298 99.0858 123.603 98.3916 122.747 98.3916C121.891 98.3916 121.196 99.0858 121.196 99.9423C121.196 100.799 121.891 101.493 122.747 101.493C123.603 101.493 124.298 100.799 124.298 99.9423Z" fill="#F9F9F9" stroke="#0B4565" stroke-width="1.1663" stroke-miterlimit="10" stroke-linecap="round" stroke-linejoin="round"/>
<path d="M166.991 132.161H115.215V140.311H166.991V132.161Z" fill="#F9F9F9" stroke="#0B4565" stroke-width="1.1663" stroke-miterlimit="10" stroke-linecap="round" stroke-linejoin="round"/>
<path d="M125.162 142.708H113.896C112.638 142.708 111.618 141.689 111.618 140.431V134.917C111.618 133.659 112.638 132.64 113.896 132.64H125.162C126.42 132.64 127.44 133.659 127.44 134.917V140.431C127.439 141.689 126.419 142.708 125.162 142.708Z" fill="#F9F9F9" stroke="#0B4565" stroke-width="1.1663" stroke-miterlimit="10" stroke-linecap="round" stroke-linejoin="round"/>
<path d="M166.393 142.708H155.126C153.868 142.708 152.849 141.689 152.849 140.431V134.917C152.849 133.659 153.868 132.64 155.126 132.64H166.393C167.65 132.64 168.67 133.659 168.67 134.917V140.431C168.669 141.689 167.65 142.708 166.393 142.708Z" fill="#F9F9F9" stroke="#0B4565" stroke-width="1.1663" stroke-miterlimit="10" stroke-linecap="round" stroke-linejoin="round"/>
<path d="M147.575 132.64H136.309V139.83H147.575V132.64Z" fill="white" stroke="#0B4565" stroke-width="1.1663" stroke-miterlimit="10" stroke-linecap="round" stroke-linejoin="round"/>
<path d="M100.832 115.142C100.832 115.142 93.64 114.662 91.0039 110.108" stroke="#0B4565" stroke-width="1.1663" stroke-miterlimit="10" stroke-linecap="round" stroke-linejoin="round"/>
<path d="M180.774 94.0475C187.327 94.0475 192.64 88.4669 192.64 81.5828C192.64 74.6988 187.327 69.1182 180.774 69.1182C174.221 69.1182 168.909 74.6988 168.909 81.5828C168.909 88.4669 174.221 94.0475 180.774 94.0475Z" fill="#C2FF00" stroke="#0B4565" stroke-width="1.1663" stroke-miterlimit="10" stroke-linecap="round" stroke-linejoin="round"/>
<path d="M180.774 83.595C185.905 83.595 190.065 79.8679 190.065 75.2702C190.065 70.6725 185.905 66.9453 180.774 66.9453C175.643 66.9453 171.483 70.6725 171.483 75.2702C171.483 79.8679 175.643 83.595 180.774 83.595Z" fill="#C2FF00" stroke="#0B4565" stroke-width="1.1663" stroke-miterlimit="10" stroke-linecap="round" stroke-linejoin="round"/>
<path d="M180.774 77.473C185.905 77.473 190.065 73.7458 190.065 69.1481C190.065 64.5504 185.905 60.8232 180.774 60.8232C175.643 60.8232 171.483 64.5504 171.483 69.1481C171.483 73.7458 175.643 77.473 180.774 77.473Z" fill="#EAEAEA" stroke="#0B4565" stroke-width="1.1663" stroke-miterlimit="10" stroke-linecap="round" stroke-linejoin="round"/>
<path d="M165.849 51.1984C165.849 51.1984 166.006 63.4794 166.636 67.1009C167.266 70.7224 169.785 75.4454 173.249 75.4454C176.712 75.4454 180.019 74.1859 180.019 74.1859C180.019 74.1859 184.112 76.3899 188.049 75.7605C191.985 75.1303 191.355 69.62 191.355 67.258C191.355 64.8961 190.883 47.1047 190.883 47.1047C190.883 47.1047 191.198 45.3729 189.623 45.0578C188.049 44.7427 187.262 44.7427 187.262 44.7427V40.9641C187.262 40.9641 186.631 39.7046 184.584 39.7046C182.538 39.7046 182.381 40.1768 182.381 40.1768V36.7133C182.381 36.7133 180.679 33.9552 178.444 35.2967C176.869 36.2411 176.869 37.8157 176.869 37.8157L176.712 41.1221C176.712 41.1221 172.934 39.7046 172.619 41.9094C172.303 44.1134 171.674 57.6549 171.674 57.6549C171.674 57.6549 171.202 53.4032 170.415 51.3572C169.627 49.3086 165.849 49.3086 165.849 51.1984Z" fill="#EAEAEA" stroke="#0B4565" stroke-width="1.1663" stroke-miterlimit="10" stroke-linecap="round" stroke-linejoin="round"/>
<path d="M176.713 41.1211L177.028 55.607" stroke="#0B4565" stroke-width="1.1663" stroke-miterlimit="10" stroke-linecap="round" stroke-linejoin="round"/>
<path d="M182.382 40.1768L182.539 55.7642" stroke="#0B4565" stroke-width="1.1663" stroke-miterlimit="10" stroke-linecap="round" stroke-linejoin="round"/>
<path d="M187.262 44.7422L186.947 55.6066" stroke="#0B4565" stroke-width="1.1663" stroke-miterlimit="10" stroke-linecap="round" stroke-linejoin="round"/>
<path d="M174.666 55.4492L188.994 56.0794" stroke="#0B4565" stroke-width="1.1663" stroke-miterlimit="10" stroke-linecap="round" stroke-linejoin="round"/>
<path d="M171.674 57.6533C171.674 57.6533 171.659 59.7454 173.214 60.7172C174.77 61.689 178.27 64.2166 178.658 68.3" stroke="#0B4565" stroke-width="1.1663" stroke-miterlimit="10" stroke-linecap="round" stroke-linejoin="round"/>
<path d="M41.5601 290.353H29.3857L45.6179 177.193H57.7922L41.5601 290.353Z" fill="#0B4565" stroke="#0B4565" stroke-width="1.1663" stroke-miterlimit="10"/>
<path d="M65.9079 290.353H78.0814L61.8493 177.193H49.6758L65.9079 290.353Z" fill="white" stroke="#0B4565" stroke-width="1.1663" stroke-miterlimit="10"/>
<path d="M214.317 290.353H202.143L218.375 177.193H230.549L214.317 290.353Z" fill="#0B4565" stroke="#0B4565" stroke-width="1.1663" stroke-miterlimit="10"/>
<path d="M238.665 290.353H250.839L234.607 177.193H222.433L238.665 290.353Z" fill="white" stroke="#0B4565" stroke-width="1.1663" stroke-miterlimit="10"/>
<path d="M247.175 159.451H14.9707V181.963H247.175V159.451Z" fill="#C2FF00" stroke="#0B4565" stroke-width="1.1663" stroke-miterlimit="10"/>
<path d="M252.835 159.451H20.6309V181.963H252.835V159.451Z" fill="#C2FF00" stroke="#0B4565" stroke-width="1.1663" stroke-miterlimit="10"/>
<path d="M24.4316 181.964H44.1418L54.3265 159.451H34.6155L24.4316 181.964Z" fill="#0B4565"/>
<path d="M102.443 159.451H82.7325L72.5479 181.964H92.258L102.443 159.451Z" fill="#0B4565"/>
<path d="M246.794 159.451H227.084L216.899 181.964H236.61L246.794 159.451Z" fill="#0B4565"/>
<path d="M198.677 159.451H178.966L168.781 181.964H188.492L198.677 159.451Z" fill="#0B4565"/>
<path d="M150.56 159.451H130.85L120.665 181.964H140.376L150.56 159.451Z" fill="#0B4565"/>
<path d="M251.568 169.438H213.139" stroke="#0B4565" stroke-width="1.1663" stroke-miterlimit="10"/>
<path d="M250.892 173.203H244.824" stroke="#0B4565" stroke-width="1.1663" stroke-miterlimit="10"/>
<path d="M19.6465 172.263H58.0754" stroke="#0B4565" stroke-width="1.1663" stroke-miterlimit="10"/>
<path d="M20.3213 168.026H68.8624" stroke="#0B4565" stroke-width="1.1663" stroke-miterlimit="10"/>
<path d="M316.215 285.412H250.345V290.352H316.215V285.412Z" fill="#0B4565" stroke="#0B4565" stroke-width="1.1663" stroke-miterlimit="10" stroke-linecap="round" stroke-linejoin="round"/>
<path d="M305.1 285.274H261.461L278.568 192.231H287.993L305.1 285.274Z" fill="#C2FF00" stroke="#0B4565" stroke-width="1.1663" stroke-miterlimit="10" stroke-linecap="round" stroke-linejoin="round"/>
<path d="M272.209 226.813H294.351L292.232 215.286H274.328L272.209 226.813Z" fill="white" stroke="#0B4565" stroke-width="1.1663" stroke-miterlimit="10" stroke-linecap="round" stroke-linejoin="round"/>
<path d="M298.54 269.748L299.635 276.107" stroke="#0B4565" stroke-width="1.1663" stroke-miterlimit="10" stroke-linecap="round" stroke-linejoin="round"/>
<path d="M286.083 197.372L297.163 261.738" stroke="#0B4565" stroke-width="1.1663" stroke-miterlimit="10" stroke-linecap="round" stroke-linejoin="round"/>
<path d="M351.652 290.354H357.555" stroke="#0B4565" stroke-width="1.1663" stroke-miterlimit="10" stroke-linecap="round" stroke-linejoin="round"/>
<path d="M1 290.354H343.415" stroke="#0B4565" stroke-width="1.1663" stroke-miterlimit="10" stroke-linecap="round" stroke-linejoin="round"/>
</svg>
