<svg width="609" height="515" viewBox="0 0 609 515" fill="none" xmlns="http://www.w3.org/2000/svg">
<path d="M508.4 368.198H540.654V354.569H508.4V368.198Z" fill="#EBEBEB"/>
<path d="M526.393 385.384H558.647V371.754H526.393V385.384Z" fill="#EBEBEB"/>
<path d="M251.415 217.685H283.669V204.055H251.415V217.685Z" fill="#EBEBEB"/>
<path d="M269.407 234.87H301.66V221.241H269.407V234.87Z" fill="#EBEBEB"/>
<path d="M287.327 217.685H319.581V204.055H287.327V217.685Z" fill="#EBEBEB"/>
<path d="M50.3532 385.383H82.6071V371.753H50.3532V385.383Z" fill="#EBEBEB"/>
<path d="M68.3449 40.5547L100.599 40.5547V26.9253L68.3449 26.9253V40.5547Z" fill="#EBEBEB"/>
<path d="M50.3534 57.7393L82.6073 57.7393V44.1098H50.3534V57.7393Z" fill="#EBEBEB"/>
<path d="M508.4 40.5547L540.654 40.5547V26.9253L508.4 26.9253V40.5547Z" fill="#EBEBEB"/>
<path d="M548.891 56.7969H374.955V250.852H548.891V56.7969Z" fill="#DBDBDB"/>
<path d="M537.433 68.2529H386.413V239.494H537.433V68.2529Z" fill="#EBEBEB"/>
<path d="M453.297 98.5332H400.066V161.609H453.297V98.5332Z" fill="white"/>
<path d="M428.595 102.823C428.595 103.88 427.739 104.736 426.681 104.736C425.624 104.736 424.768 103.88 424.768 102.823C424.768 101.765 425.624 100.909 426.681 100.909C427.739 100.909 428.595 101.767 428.595 102.823Z" fill="#A6A6A6"/>
<path d="M410.194 111.168C415.577 110.753 420.959 110.727 426.341 110.667C431.724 110.725 437.106 110.75 442.488 111.168C437.106 111.584 431.724 111.61 426.341 111.668C420.959 111.609 415.577 111.582 410.194 111.168Z" fill="#EBEBEB"/>
<path d="M410.194 116.153C413.12 115.763 416.046 115.672 418.973 115.652C421.898 115.671 424.824 115.761 427.751 116.153C424.825 116.545 421.898 116.635 418.973 116.654C416.047 116.633 413.121 116.543 410.194 116.153Z" fill="#EBEBEB"/>
<path d="M410.194 121.137C413.934 120.748 417.672 120.656 421.41 120.637C425.148 120.655 428.887 120.745 432.626 121.137C428.887 121.53 425.149 121.62 421.41 121.638C417.672 121.618 413.934 121.528 410.194 121.137Z" fill="#EBEBEB"/>
<path d="M410.194 126.122C414.873 125.731 419.55 125.641 424.228 125.621C428.907 125.639 433.584 125.729 438.262 126.122C433.584 126.514 428.907 126.604 424.228 126.622C419.55 126.603 414.873 126.511 410.194 126.122Z" fill="#EBEBEB"/>
<path d="M410.194 131.107C414.258 130.717 418.322 130.626 422.385 130.606C426.449 130.625 430.513 130.715 434.576 131.107C430.513 131.499 426.449 131.589 422.385 131.608C418.322 131.587 414.259 131.497 410.194 131.107Z" fill="#EBEBEB"/>
<path d="M410.194 136.092C415.395 135.678 420.597 135.651 425.799 135.592C431.002 135.65 436.202 135.675 441.404 136.092C436.204 136.509 431.002 136.535 425.799 136.593C420.599 136.533 415.397 136.505 410.194 136.092Z" fill="#EBEBEB"/>
<path d="M410.194 141.077C413.554 140.686 416.913 140.596 420.272 140.576C423.631 140.594 426.991 140.685 430.35 141.077C426.991 141.469 423.631 141.559 420.272 141.577C416.914 141.558 413.554 141.467 410.194 141.077Z" fill="#EBEBEB"/>
<path d="M410.194 146.062C415.577 145.648 420.959 145.621 426.341 145.562C431.724 145.62 437.106 145.644 442.488 146.062C437.106 146.479 431.724 146.504 426.341 146.563C420.959 146.503 415.577 146.475 410.194 146.062Z" fill="#EBEBEB"/>
<path d="M410.194 151.047C415.577 150.633 420.959 150.607 426.341 150.547C431.724 150.605 437.106 150.63 442.488 151.047C437.106 151.464 431.724 151.49 426.341 151.548C420.959 151.488 415.577 151.46 410.194 151.047Z" fill="#EBEBEB"/>
<path d="M524.388 137.861H461.399V212.498H524.388V137.861Z" fill="white"/>
<path d="M469.091 143.299C469.091 144.356 468.233 145.213 467.177 145.213C466.12 145.213 465.264 144.356 465.264 143.299C465.264 142.242 466.12 141.386 467.177 141.386C468.233 141.386 469.091 142.243 469.091 143.299Z" fill="#A6A6A6"/>
<path d="M470.214 156.482C472.543 156.092 474.87 156.001 477.199 155.981C479.528 156 481.856 156.09 484.184 156.482C481.856 156.874 479.528 156.966 477.199 156.983C474.87 156.963 472.543 156.873 470.214 156.482Z" fill="#EBEBEB"/>
<path d="M470.214 162.11C473.228 161.72 476.243 161.629 479.258 161.609C482.272 161.628 485.287 161.718 488.301 162.11C485.287 162.502 482.272 162.594 479.258 162.611C476.243 162.59 473.228 162.5 470.214 162.11Z" fill="#EBEBEB"/>
<path d="M470.214 167.738C473.007 167.348 475.8 167.257 478.593 167.237C481.385 167.254 484.178 167.346 486.971 167.738C484.178 168.13 481.385 168.22 478.593 168.239C475.8 168.219 473.007 168.128 470.214 167.738Z" fill="#EBEBEB"/>
<path d="M470.214 173.366C473.007 172.976 475.8 172.885 478.593 172.865C481.385 172.884 484.178 172.974 486.971 173.366C484.178 173.758 481.385 173.848 478.593 173.866C475.8 173.846 473.007 173.756 470.214 173.366Z" fill="#EBEBEB"/>
<path d="M470.214 178.993C472.64 178.603 475.066 178.512 477.493 178.492C479.919 178.51 482.345 178.601 484.771 178.993C482.345 179.385 479.919 179.475 477.493 179.493C475.066 179.474 472.64 179.383 470.214 178.993Z" fill="#EBEBEB"/>
<path d="M470.214 184.621C473.32 184.231 476.424 184.14 479.53 184.12C482.636 184.138 485.742 184.229 488.847 184.621C485.741 185.013 482.636 185.103 479.53 185.121C476.424 185.102 473.32 185.01 470.214 184.621Z" fill="#EBEBEB"/>
<path d="M470.214 190.249C472.778 189.859 475.34 189.768 477.903 189.748C480.466 189.766 483.03 189.856 485.592 190.249C483.03 190.641 480.466 190.731 477.903 190.749C475.34 190.729 472.778 190.638 470.214 190.249Z" fill="#EBEBEB"/>
<path d="M470.214 195.876C473.427 195.486 476.64 195.394 479.854 195.375C483.067 195.393 486.282 195.483 489.495 195.876C486.282 196.268 483.067 196.358 479.854 196.376C476.64 196.355 473.427 196.265 470.214 195.876Z" fill="#EBEBEB"/>
<path d="M470.214 201.503C473.427 201.113 476.64 201.021 479.854 201.002C483.067 201.02 486.282 201.11 489.495 201.503C486.282 201.895 483.067 201.985 479.854 202.003C476.64 201.984 473.427 201.894 470.214 201.503Z" fill="#EBEBEB"/>
<path d="M497.74 156.482C500.791 156.092 503.84 156.001 506.892 155.981C509.943 156 512.992 156.09 516.044 156.482C512.992 156.874 509.943 156.966 506.892 156.983C503.84 156.963 500.791 156.873 497.74 156.482Z" fill="#EBEBEB"/>
<path d="M497.74 162.11C499.746 161.72 501.75 161.629 503.756 161.609C505.762 161.628 507.767 161.718 509.773 162.11C507.767 162.502 505.762 162.594 503.756 162.611C501.75 162.59 499.744 162.5 497.74 162.11Z" fill="#EBEBEB"/>
<path d="M497.74 167.738C500.61 167.348 503.48 167.257 506.35 167.237C509.22 167.254 512.09 167.346 514.96 167.738C512.09 168.13 509.219 168.22 506.35 168.239C503.479 168.219 500.609 168.128 497.74 167.738Z" fill="#EBEBEB"/>
<path d="M497.74 173.366C500.532 172.976 503.325 172.885 506.118 172.865C508.911 172.884 511.704 172.974 514.497 173.366C511.704 173.758 508.911 173.848 506.118 173.866C503.324 173.846 500.532 173.756 497.74 173.366Z" fill="#EBEBEB"/>
<path d="M497.74 178.993C500.791 178.603 503.84 178.512 506.892 178.492C509.943 178.51 512.992 178.601 516.044 178.993C512.992 179.385 509.943 179.475 506.892 179.493C503.84 179.474 500.791 179.383 497.74 178.993Z" fill="#EBEBEB"/>
<path d="M497.74 184.621C500.166 184.231 502.592 184.14 505.018 184.12C507.445 184.138 509.871 184.229 512.297 184.621C509.871 185.013 507.445 185.103 505.018 185.121C502.592 185.102 500.166 185.01 497.74 184.621Z" fill="#EBEBEB"/>
<path d="M497.74 190.249C500.61 189.859 503.48 189.768 506.35 189.748C509.22 189.766 512.09 189.856 514.96 190.249C512.09 190.641 509.219 190.731 506.35 190.749C503.479 190.729 500.609 190.638 497.74 190.249Z" fill="#EBEBEB"/>
<path d="M497.74 195.876C499.96 195.486 502.179 195.394 504.4 195.375C506.62 195.393 508.839 195.483 511.06 195.876C508.839 196.268 506.62 196.358 504.4 196.376C502.179 196.355 499.959 196.265 497.74 195.876Z" fill="#EBEBEB"/>
<path d="M497.74 201.503C499.87 201.113 501.999 201.021 504.129 201.002C506.258 201.02 508.388 201.11 510.518 201.503C508.387 201.895 506.258 201.985 504.129 202.003C501.999 201.984 499.869 201.894 497.74 201.503Z" fill="#EBEBEB"/>
<path d="M480.428 81.1924H448.399V113.221H480.428V81.1924Z" fill="#A6A6A6"/>
<path d="M466.328 84.4428C466.328 85.5 465.472 86.3563 464.415 86.3563C463.358 86.3563 462.501 85.5 462.501 84.4428C462.501 83.3855 463.359 82.5293 464.415 82.5293C465.471 82.5293 466.328 83.3855 466.328 84.4428Z" fill="#EBEBEB"/>
<path d="M537.29 68.2529H532.969V239.682H537.29V68.2529Z" fill="#C7C7C7"/>
<path d="M190.768 115.283C207.647 91.6443 202.168 58.7982 178.529 41.9189C154.891 25.0396 122.045 30.5191 105.165 54.1576C88.286 77.7962 93.7655 110.642 117.404 127.522C141.043 144.401 173.889 138.921 190.768 115.283Z" fill="#EBEBEB"/>
<path d="M190.54 116.004C207.173 93.8308 202.681 62.3724 180.508 45.7397C158.335 29.107 126.876 33.5985 110.244 55.7717C93.6109 77.945 98.1024 109.403 120.276 126.036C142.449 142.669 173.907 138.177 190.54 116.004Z" fill="#DBDBDB"/>
<path d="M177.648 124.183C198.8 109.122 203.738 79.7663 188.678 58.6142C173.617 37.4621 144.261 32.5238 123.109 47.5842C101.957 62.6446 97.0187 92.0007 112.079 113.153C127.14 134.305 156.496 139.243 177.648 124.183Z" fill="white"/>
<path opacity="0.5" d="M196.331 75.912C174.922 88.8849 139.734 110.165 120.066 121.829C114.548 117.173 110.121 111.27 107.218 104.554L172.264 44.2695C184.377 50.6482 193.361 62.1632 196.331 75.912Z" fill="#EBEBEB"/>
<path opacity="0.5" d="M197.362 87.5322C197.183 92.9036 196.097 98.0448 194.255 102.81L135.616 130.542C133.043 129.69 130.566 128.625 128.21 127.36C145.924 117.124 178.292 98.5003 197.362 87.5322Z" fill="#EBEBEB"/>
<path d="M150.835 42.2871H149.926V49.4136H150.835V42.2871Z" fill="#C7C7C7"/>
<path d="M128.975 47.9104L128.187 48.3652L131.75 54.5375L132.538 54.0827L128.975 47.9104Z" fill="#C7C7C7"/>
<path d="M112.842 63.6916L112.387 64.4785L118.559 68.0418L119.013 67.2549L112.842 63.6916Z" fill="#C7C7C7"/>
<path d="M113.903 85.4355H106.777V86.3442H113.903V85.4355Z" fill="#C7C7C7"/>
<path d="M118.562 103.732L112.391 107.297L112.846 108.084L119.017 104.519L118.562 103.732Z" fill="#C7C7C7"/>
<path d="M131.738 117.255L128.177 123.428L128.965 123.882L132.526 117.709L131.738 117.255Z" fill="#C7C7C7"/>
<path d="M150.835 122.368H149.926V129.495H150.835V122.368Z" fill="#C7C7C7"/>
<path d="M169.01 117.247L168.222 117.702L171.785 123.874L172.573 123.419L169.01 117.247Z" fill="#C7C7C7"/>
<path d="M182.204 103.733L181.75 104.52L187.921 108.084L188.376 107.297L182.204 103.733Z" fill="#C7C7C7"/>
<path d="M193.985 85.4355H186.858V86.3442H193.985V85.4355Z" fill="#C7C7C7"/>
<path d="M187.924 63.6905L181.753 67.2559L182.208 68.0426L188.379 64.4772L187.924 63.6905Z" fill="#C7C7C7"/>
<path d="M171.797 47.9015L168.237 54.0752L169.025 54.5298L172.585 48.3561L171.797 47.9015Z" fill="#C7C7C7"/>
<path d="M151.064 45.5146L152.611 89.063L148.15 89.0082L149.853 45.5L151.064 45.5146Z" fill="#C7C7C7"/>
<path d="M178.19 70.7042L148.891 89.4053L146.76 85.4858L177.612 69.6396L178.19 70.7042Z" fill="#A6A6A6"/>
<path d="M151.903 85.8916C151.903 86.7321 151.222 87.4141 150.38 87.4141C149.54 87.4141 148.858 86.7321 148.858 85.8916C148.858 85.0512 149.54 84.3691 150.38 84.3691C151.221 84.3691 151.903 85.05 151.903 85.8916Z" fill="#C7C7C7"/>
<path d="M567.556 497.398L501.793 497.694L436.028 497.802L304.5 498.006L172.972 497.803L107.207 497.696L41.4425 497.398L107.207 497.101L172.972 496.993L304.5 496.79L436.028 496.995L501.793 497.102L567.556 497.398Z" fill="#263238"/>
<path d="M508.463 142.02C508.332 138.271 508.569 134.558 508.896 130.852C509.259 127.15 509.716 123.457 510.542 119.798C510.675 123.547 510.438 127.261 510.108 130.966C509.742 134.667 509.286 138.361 508.463 142.02Z" fill="#263238"/>
<path d="M501.894 143.3C499.906 140.119 498.254 136.784 496.684 133.411C495.149 130.023 493.696 126.597 492.582 123.015C494.572 126.195 496.224 129.53 497.792 132.904C499.325 136.292 500.777 139.72 501.894 143.3Z" fill="#263238"/>
<path d="M496.844 147.692C493.532 145.931 490.435 143.869 487.389 141.733C484.364 139.567 481.393 137.326 478.637 134.78C481.95 136.539 485.049 138.602 488.093 140.74C491.116 142.908 494.087 145.149 496.844 147.692Z" fill="#263238"/>
<path d="M494.668 154.021C490.919 154.151 487.205 153.915 483.5 153.587C479.797 153.224 476.104 152.768 472.445 151.942C476.194 151.809 479.908 152.045 483.613 152.375C487.314 152.742 491.009 153.198 494.668 154.021Z" fill="#263238"/>
<path d="M518.287 162.145C521.599 163.906 524.696 165.968 527.742 168.104C530.767 170.27 533.737 172.511 536.494 175.057C533.181 173.298 530.082 171.234 527.038 169.097C524.015 166.929 521.045 164.686 518.287 162.145Z" fill="#263238"/>
<path d="M520.464 155.816C524.213 155.685 527.926 155.922 531.631 156.249C535.334 156.612 539.027 157.069 542.686 157.895C538.937 158.028 535.223 157.791 531.518 157.461C527.817 157.095 524.122 156.639 520.464 155.816Z" fill="#263238"/>
<path d="M519.183 149.246C522.365 147.258 525.7 145.607 529.072 144.037C532.461 142.501 535.887 141.048 539.469 139.935C536.289 141.925 532.954 143.576 529.58 145.144C526.192 146.677 522.764 148.129 519.183 149.246Z" fill="#263238"/>
<path d="M514.791 144.197C516.552 140.885 518.615 137.788 520.751 134.742C522.917 131.717 525.158 128.745 527.703 125.99C525.944 129.303 523.881 132.402 521.744 135.446C519.576 138.469 517.333 141.439 514.791 144.197Z" fill="#263238"/>
<path d="M237.479 419.186C236.128 420.902 122.413 426.003 116.995 424.447C116.787 424.397 116.538 424.281 116.245 424.127C109.552 420.995 80.8033 399.286 76.22 390.134C72.5367 382.779 94.2317 342.826 101.796 335.977C106.825 331.423 116.157 329.64 116.157 329.64C116.157 329.64 142.5 253.639 158.736 237.727C162.809 233.736 233.327 232.174 245.928 237.92C251.321 240.38 264.445 253.784 264.803 256.188C264.803 256.188 264.803 256.188 264.797 256.215C265.137 259.718 238.839 417.444 237.479 419.186Z" fill="#37474F"/>
<path d="M238.289 419.187C236.937 420.903 123.223 426.004 117.805 424.447C117.597 424.397 117.348 424.281 117.055 424.128C127.946 394.671 179.173 256.426 180.628 255.537C182.052 254.666 249.471 255.053 265.606 256.216C265.947 259.719 239.649 417.445 238.289 419.187Z" fill="#263238"/>
<path d="M196.528 243.333C195.39 242.262 194.638 226.811 196.725 223.738C199.07 220.286 226.113 221.991 227.707 224.931C229.302 227.871 230.064 243.31 229.249 243.866C228.436 244.422 223.924 244.958 223.319 243.967C222.714 242.977 222.747 230.21 222.269 229.539C221.792 228.868 202.855 227.63 202.204 228.605C201.553 229.579 203.139 242.491 202.38 243.055C201.622 243.618 197.636 244.374 196.528 243.333Z" fill="#37474F"/>
<path d="M140.673 313.522L132.325 309.609L127.825 319.211L136.173 323.124L140.673 313.522Z" fill="#DBDBDB"/>
<path d="M140.264 321.246L126.653 314.866L121.514 325.83L135.125 332.209L140.264 321.246Z" fill="#C7C7C7"/>
<path d="M138.132 350.166C133.478 360.097 114.616 400.338 114.616 400.338L82.26 385.173C82.26 385.173 101.122 344.931 105.776 335.001C110.43 325.071 120.266 320.333 130.194 324.985C140.136 329.645 142.787 340.236 138.132 350.166Z" fill="#FFC727"/>
<path opacity="0.1" d="M138.132 350.166C133.478 360.097 114.616 400.338 114.616 400.338L82.26 385.173C82.26 385.173 101.122 344.931 105.776 335.001C110.43 325.071 120.266 320.333 130.194 324.985C140.136 329.645 142.787 340.236 138.132 350.166Z" fill="black"/>
<path d="M126.696 327.915C126.37 328.612 125.542 328.912 124.845 328.585C124.149 328.259 123.849 327.431 124.175 326.734C124.501 326.038 125.33 325.739 126.026 326.064C126.722 326.392 127.022 327.22 126.696 327.915Z" fill="white"/>
<path d="M137.448 346.79C137.121 347.487 136.293 347.786 135.596 347.46C134.901 347.133 134.6 346.305 134.926 345.608C135.253 344.913 136.081 344.612 136.778 344.938C137.474 345.265 137.774 346.094 137.448 346.79Z" fill="white"/>
<path d="M122.538 341.338C122.212 342.033 121.383 342.334 120.687 342.008C119.991 341.681 119.69 340.853 120.017 340.156C120.343 339.461 121.171 339.16 121.868 339.486C122.565 339.814 122.865 340.642 122.538 341.338Z" fill="white"/>
<path d="M118.15 353.979C117.823 354.676 116.995 354.976 116.298 354.649C115.603 354.323 115.302 353.495 115.628 352.798C115.955 352.102 116.783 351.801 117.48 352.128C118.176 352.456 118.476 353.284 118.15 353.979Z" fill="white"/>
<path d="M99.2219 360.461C98.8955 361.156 98.0672 361.457 97.3718 361.131C96.6751 360.804 96.3754 359.976 96.7019 359.279C97.0283 358.584 97.8565 358.283 98.5532 358.609C99.2487 358.936 99.5483 359.765 99.2219 360.461Z" fill="white"/>
<path d="M103.212 348.669C102.886 349.365 102.057 349.666 101.361 349.339C100.665 349.013 100.366 348.184 100.691 347.488C101.017 346.792 101.845 346.493 102.542 346.818C103.239 347.144 103.538 347.974 103.212 348.669Z" fill="white"/>
<path d="M109.094 336.939C108.767 337.635 107.939 337.936 107.242 337.609C106.546 337.283 106.246 336.454 106.572 335.758C106.899 335.062 107.727 334.761 108.424 335.088C109.121 335.414 109.42 336.243 109.094 336.939Z" fill="white"/>
<path d="M117.964 332.239C117.638 332.935 116.81 333.235 116.113 332.909C115.418 332.582 115.117 331.754 115.443 331.058C115.77 330.362 116.598 330.061 117.295 330.388C117.99 330.714 118.291 331.542 117.964 332.239Z" fill="white"/>
<path d="M113.365 345.329C113.039 346.024 112.211 346.325 111.514 345.999C110.818 345.672 110.519 344.844 110.844 344.147C111.17 343.452 111.999 343.151 112.695 343.478C113.392 343.805 113.692 344.633 113.365 345.329Z" fill="white"/>
<path d="M132.076 337.509C131.75 338.205 130.922 338.505 130.225 338.178C129.528 337.852 129.229 337.024 129.555 336.327C129.881 335.632 130.71 335.331 131.406 335.657C132.102 335.984 132.401 336.812 132.076 337.509Z" fill="white"/>
<path d="M127.867 350.464C127.54 351.161 126.712 351.46 126.015 351.134C125.32 350.808 125.02 349.979 125.346 349.283C125.672 348.587 126.5 348.288 127.196 348.613C127.894 348.939 128.193 349.769 127.867 350.464Z" fill="white"/>
<path d="M108.546 357.375C108.219 358.07 107.391 358.37 106.694 358.045C105.998 357.718 105.698 356.89 106.024 356.193C106.351 355.498 107.179 355.197 107.876 355.523C108.572 355.85 108.872 356.679 108.546 357.375Z" fill="white"/>
<path d="M117.459 373.695C117.133 374.392 116.304 374.691 115.608 374.365C114.911 374.039 114.611 373.21 114.938 372.514C115.264 371.818 116.092 371.517 116.789 371.844C117.485 372.171 117.784 373 117.459 373.695Z" fill="white"/>
<path d="M112.826 383.089C112.499 383.785 111.671 384.085 110.974 383.759C110.278 383.432 109.978 382.604 110.305 381.907C110.631 381.212 111.459 380.911 112.156 381.237C112.853 381.564 113.152 382.393 112.826 383.089Z" fill="white"/>
<path d="M104.532 367.906C104.206 368.602 103.378 368.903 102.681 368.576C101.985 368.25 101.686 367.421 102.011 366.725C102.336 366.028 103.166 365.728 103.862 366.055C104.559 366.381 104.859 367.211 104.532 367.906Z" fill="white"/>
<path d="M91.4632 379.803C91.1368 380.499 90.3086 380.799 89.6119 380.473C88.9152 380.147 88.6155 379.319 88.942 378.622C89.2684 377.927 90.0966 377.626 90.7933 377.952C91.4888 378.279 91.7884 379.107 91.4632 379.803Z" fill="white"/>
<path d="M113.712 365.292C113.386 365.989 112.558 366.288 111.861 365.962C111.164 365.635 110.865 364.807 111.191 364.111C111.518 363.414 112.346 363.114 113.042 363.441C113.738 363.767 114.039 364.595 113.712 365.292Z" fill="white"/>
<path d="M109.071 375.605C108.744 376.301 107.916 376.602 107.219 376.275C106.524 375.949 106.224 375.12 106.549 374.424C106.876 373.728 107.704 373.427 108.401 373.754C109.096 374.08 109.396 374.91 109.071 375.605Z" fill="white"/>
<path d="M104.285 385.813C103.959 386.509 103.13 386.808 102.434 386.483C101.738 386.157 101.437 385.329 101.764 384.632C102.09 383.936 102.919 383.635 103.615 383.962C104.312 384.288 104.612 385.118 104.285 385.813Z" fill="white"/>
<path d="M108.482 393.543C108.156 394.239 107.328 394.54 106.631 394.213C105.935 393.887 105.635 393.058 105.961 392.362C106.287 391.666 107.116 391.367 107.812 391.692C108.509 392.019 108.809 392.848 108.482 393.543Z" fill="white"/>
<path d="M95.8091 370.119C95.4827 370.816 94.6544 371.115 93.9577 370.789C93.2623 370.463 92.9614 369.634 93.2878 368.938C93.6143 368.241 94.4425 367.941 95.1392 368.268C95.8359 368.595 96.1355 369.424 95.8091 370.119Z" fill="white"/>
<path d="M99.9844 377.61C99.658 378.307 98.8297 378.606 98.133 378.28C97.4376 377.954 97.1367 377.125 97.4631 376.429C97.7895 375.733 98.6178 375.432 99.3145 375.759C100.01 376.085 100.31 376.915 99.9844 377.61Z" fill="white"/>
<path d="M116.699 391.631C116.373 392.326 115.544 392.627 114.848 392.301C114.152 391.974 113.851 391.146 114.178 390.449C114.504 389.753 115.332 389.453 116.029 389.779C116.726 390.106 117.025 390.934 116.699 391.631Z" fill="white"/>
<path d="M95.6276 387.643C95.3012 388.338 94.4729 388.639 93.7762 388.312C93.0807 387.986 92.7799 387.158 93.1063 386.461C93.4327 385.764 94.261 385.465 94.9577 385.791C95.6531 386.119 95.954 386.947 95.6276 387.643Z" fill="white"/>
<path d="M126.309 371.62C125.983 372.317 125.154 372.615 124.458 372.29C123.762 371.963 123.462 371.135 123.788 370.438C124.114 369.743 124.942 369.442 125.639 369.769C126.336 370.095 126.635 370.923 126.309 371.62Z" fill="white"/>
<path d="M121.672 381.513C121.346 382.208 120.517 382.508 119.821 382.182C119.125 381.856 118.826 381.028 119.151 380.331C119.477 379.636 120.305 379.335 121.002 379.661C121.699 379.988 121.999 380.816 121.672 381.513Z" fill="white"/>
<path d="M122.57 363.487C122.243 364.184 121.415 364.484 120.718 364.157C120.023 363.831 119.723 363.003 120.048 362.306C120.375 361.609 121.203 361.31 121.9 361.636C122.596 361.962 122.896 362.792 122.57 363.487Z" fill="white"/>
<path d="M132.338 360.399C132.012 361.095 131.183 361.396 130.487 361.069C129.791 360.743 129.49 359.914 129.817 359.218C130.143 358.522 130.972 358.221 131.668 358.548C132.365 358.874 132.665 359.704 132.338 360.399Z" fill="white"/>
<path d="M78.4709 385.881C81.2077 399.287 110.978 413.725 113.004 413.668C115.029 413.611 134.796 364.702 134.796 364.702C134.796 364.702 110.714 356.785 99.8407 342.73C99.8407 342.73 77.6171 381.699 78.4709 385.881Z" fill="#111111"/>
<path d="M308.267 496.909H193.054C186.035 470.14 179.594 446.474 175.485 431.538C172.906 422.146 171.251 416.189 170.933 415.071C170.891 414.933 170.878 414.877 170.878 414.877H290.683C290.683 414.877 292.048 421.139 294.338 431.674C295.786 438.46 297.634 447.038 299.745 456.843C299.924 457.698 300.118 458.567 300.297 459.463C302.709 470.692 305.427 483.421 308.267 496.909Z" fill="#111111"/>
<path d="M210.514 496.909H208.349C202.46 475.187 196.667 453.438 191.096 431.635L190.627 429.801C190.516 429.29 191.261 429.07 191.412 429.566C191.619 430.255 191.826 430.944 192.019 431.634C198.378 453.329 204.488 475.105 210.514 496.909Z" fill="#263238"/>
<path d="M281.334 415.072C280.865 418.795 279.403 424.822 277.237 431.869C275.9 436.227 274.286 440.945 272.452 445.799C272.066 446.902 271.625 447.978 271.197 449.081C265.391 463.88 257.751 478.954 249.959 486.111C249.946 486.111 249.946 486.111 249.931 486.124C249.903 486.124 249.903 486.124 249.903 486.124C248.896 487.062 247.903 487.862 246.897 488.482L240.222 492.605C240.222 492.605 240.222 492.646 240.194 492.701V492.715C240.125 493.114 239.891 494.562 239.505 496.907H127.147C124.279 470.869 130.264 446.5 135.49 431.232C138.91 421.178 142.014 415.068 142.014 415.068H281.334V415.072Z" fill="#111111"/>
<path d="M267.983 479.767C260.964 483.793 253.585 486.993 246.178 490.193C244.193 491.048 242.207 491.889 240.193 492.703H240.18C240.056 492.758 239.931 492.814 239.807 492.854C238.069 493.572 236.332 494.261 234.581 494.937C232.884 495.585 231.189 496.274 229.464 496.909H225.658C228.278 495.585 231.023 494.468 233.684 493.282C237.394 491.626 241.104 489.986 244.828 488.359C246.524 487.628 248.221 486.882 249.903 486.125C249.917 486.125 249.945 486.111 249.958 486.111C255.764 483.533 261.557 480.953 267.528 478.774C268.121 478.552 268.507 479.449 267.983 479.767Z" fill="#263238"/>
<path d="M240.221 492.786C240.235 493.669 240.152 495.117 239.986 496.91H238.732C239.118 495.228 239.476 493.848 239.807 492.855C239.82 492.814 239.82 492.786 239.848 492.746C239.903 492.58 240.124 492.567 240.18 492.704H240.193V492.718C240.221 492.745 240.221 492.758 240.221 492.786Z" fill="#263238"/>
<path d="M152.894 422.077C151.378 425.111 149.998 428.2 148.715 431.359C141.075 450.335 137.945 471.215 140.233 491.6C140.44 493.379 140.689 495.144 140.964 496.909H138.977C138.233 491.751 137.736 486.592 137.64 481.379C137.254 464.168 140.591 447.053 147.46 431.331C148.894 428.048 150.494 424.835 152.232 421.705C152.467 421.277 153.115 421.65 152.894 422.077Z" fill="#263238"/>
<path d="M237.402 461.432C237.51 457.106 237.817 452.78 238.031 448.457C238.537 438.249 238.933 427.984 239.88 417.806C239.918 417.402 240.507 417.41 240.515 417.822C240.643 425.718 240.337 433.638 240.177 441.534C240.097 445.485 239.981 449.436 239.873 453.386C239.771 457.145 239.517 460.952 239.797 464.709C240.009 467.555 240.634 473.089 244.349 473.431C247.847 473.754 250.622 469.978 251.496 467.208C253.715 460.179 254.506 452.586 255.223 445.277C255.648 440.948 256.149 423.323 255.911 418.946C255.896 418.665 256.334 418.677 256.349 418.957C256.591 423.415 257.203 427.85 257.351 432.332C257.499 436.78 257.513 441.248 257.226 445.69C256.949 449.953 256.591 454.238 255.949 458.463C255.372 462.264 254.732 466.204 253.204 469.757C251.916 472.75 249.702 475.505 246.343 476.16C245.919 476.243 245.502 476.281 245.096 476.288C245.055 477.204 244.931 478.126 244.867 479.03C244.766 480.461 244.589 481.884 244.397 483.305C244.209 484.694 243.891 486.088 243.522 487.44C243.155 488.782 242.796 490.194 242.069 491.395C241.948 491.595 241.68 491.479 241.665 491.275C241.559 489.916 241.823 488.538 242.006 487.197C242.196 485.808 242.39 484.4 242.677 483.029C242.958 481.678 243.208 480.32 243.485 478.968C243.672 478.063 243.798 477.129 243.97 476.208C241.817 475.868 240.025 474.453 239.012 472.308C237.438 468.979 237.311 465.046 237.402 461.432Z" fill="#263238"/>
<path d="M235.324 265.611C249.859 283.817 306.835 348.454 338.502 354.457C359.83 358.501 428.341 323.67 443.358 311.051C449.502 305.888 415.194 254.767 406.864 256.823C397.804 259.06 348.489 291.829 342.085 291.46C335.681 291.091 285.174 262.699 254.528 250.093C236.169 242.541 227.144 255.365 235.324 265.611Z" fill="#F7A9A0"/>
<path d="M424.539 323.218C437.716 318.139 477.678 290.11 484.315 282.835C490.951 275.561 508.533 253.243 503.479 247.595C498.423 241.946 492.753 248.069 492.753 248.069C492.753 248.069 499.412 236.56 493.079 232.247C488.026 228.806 479.59 237.001 479.59 237.001C479.59 237.001 486.224 224.005 479.395 220.531C473.172 217.367 466.309 228.498 466.309 228.498C466.309 228.498 470.759 217.061 464.177 215.167C456.26 212.888 448.55 232.679 440.621 240.161C438.82 241.861 385.625 267.955 385.625 267.955L424.539 323.218Z" fill="#F7A9A0"/>
<path d="M466.021 227.912C458.734 242.152 455.307 247.827 442.917 256.934C442.675 257.111 442.884 257.512 443.155 257.349C456.098 249.535 460.652 243.09 466.74 228.151C467.033 227.43 466.36 227.25 466.021 227.912Z" fill="#263238"/>
<path d="M479.438 236.992C472.194 251.576 466.657 257.093 454.382 267.585C454.208 267.733 454.442 268.043 454.629 267.909C467.532 258.623 474.639 252.635 479.963 237.112C480.204 236.409 479.769 236.325 479.438 236.992Z" fill="#263238"/>
<path d="M492.143 248.592C484.11 262.207 478.485 268.904 465.261 277.562C464.949 277.765 465.217 278.24 465.55 278.066C479.893 270.551 486.973 262.243 492.53 248.88C492.91 247.968 492.648 247.735 492.143 248.592Z" fill="#263238"/>
<path d="M545.213 288.801C510.245 299.011 475.83 309.222 442.291 319.432C422.233 274.358 419.266 229.284 405.533 184.21C440.547 173.996 475.008 163.782 508.593 153.567C528.594 198.646 531.512 243.723 545.213 288.801Z" fill="white"/>
<path d="M545.213 288.801C527.784 293.974 510.497 299.146 493.394 304.319C476.216 309.479 459.223 314.637 442.453 319.796C442.337 319.832 442.223 319.867 442.107 319.902C442.052 319.781 441.999 319.66 441.944 319.538C421.789 274.486 418.731 229.433 404.952 184.38C404.892 184.186 404.833 183.991 404.773 183.796C404.967 183.74 405.162 183.684 405.355 183.626C440.365 173.47 474.823 163.311 508.408 153.155C508.539 153.114 508.672 153.075 508.804 153.035C508.865 153.173 508.925 153.31 508.986 153.448C518.976 176.038 524.669 198.629 529.574 221.219C534.415 243.746 538.468 266.274 545.213 288.801ZM545.213 288.801C538.259 266.251 534 243.699 528.954 221.149C523.974 198.661 518.208 176.175 508.197 153.687C508.39 153.784 508.582 153.883 508.776 153.98C475.193 164.251 440.728 174.522 405.711 184.793C405.846 184.542 405.98 184.291 406.115 184.041C419.802 229.136 422.678 274.231 442.638 319.326C442.469 319.24 442.3 319.155 442.13 319.069C458.9 314.018 475.882 308.966 493.039 303.915C510.27 298.876 527.674 293.838 545.213 288.801Z" fill="#263238"/>
<path d="M422.082 203.91C441.847 198.233 461.504 192.556 480.999 186.88C481.341 188.037 481.676 189.195 482.005 190.352C462.445 196.029 442.736 201.707 422.93 207.382C422.652 206.225 422.369 205.068 422.082 203.91Z" fill="#DBDBDB"/>
<path d="M424.181 212.675C444.04 206.998 463.82 201.32 483.468 195.645C483.779 196.802 484.084 197.96 484.385 199.117C464.685 204.794 444.863 210.471 424.975 216.147C424.713 214.99 424.449 213.832 424.181 212.675Z" fill="#DBDBDB"/>
<path d="M426.155 221.438C446.079 215.761 465.954 210.084 485.725 204.408C486.011 205.565 486.293 206.724 486.57 207.881C466.759 213.558 446.855 219.235 426.914 224.911C426.663 223.754 426.41 222.597 426.155 221.438Z" fill="#DBDBDB"/>
<path d="M428.052 230.203C457.297 221.885 486.497 213.568 515.48 205.25C515.763 206.407 516.044 207.565 516.319 208.723C487.279 217.04 458.045 225.358 428.791 233.676C428.546 232.519 428.3 231.36 428.052 230.203Z" fill="#DBDBDB"/>
<path d="M429.916 238.968C459.17 230.65 488.442 222.332 517.556 214.015C517.822 215.172 518.085 216.33 518.344 217.487C489.19 225.805 459.902 234.123 430.656 242.44C430.408 241.282 430.162 240.125 429.916 238.968Z" fill="#DBDBDB"/>
<path d="M431.793 247.731C461.013 239.414 490.313 231.096 519.516 222.778C519.769 223.935 520.02 225.094 520.27 226.251C491.043 234.569 461.745 242.886 432.55 251.204C432.296 250.047 432.044 248.889 431.793 247.731Z" fill="#DBDBDB"/>
<path d="M433.729 256.496C462.872 248.178 492.156 239.861 521.405 231.543C521.652 232.7 521.898 233.858 522.143 235.015C492.888 243.333 463.622 251.651 434.522 259.969C434.255 258.81 433.991 257.653 433.729 256.496Z" fill="#DBDBDB"/>
<path d="M435.769 265.259C464.792 256.941 494.017 248.623 523.269 240.306C523.515 241.463 523.762 242.621 524.01 243.778C494.77 252.096 465.579 260.414 436.616 268.731C436.329 267.574 436.046 266.417 435.769 265.259Z" fill="#DBDBDB"/>
<path d="M437.958 274.023C466.817 265.706 495.94 257.388 525.152 249.07C525.404 250.227 525.657 251.386 525.913 252.543C496.73 260.861 467.658 269.178 438.876 277.496C438.564 276.339 438.258 275.181 437.958 274.023Z" fill="#DBDBDB"/>
<path d="M440.341 282.787C468.995 274.469 497.972 266.152 527.099 257.834C527.364 258.991 527.629 260.149 527.9 261.306C498.817 269.624 469.908 277.942 441.35 286.26C441.007 285.103 440.671 283.945 440.341 282.787Z" fill="#DBDBDB"/>
<path d="M442.966 291.552C471.368 283.234 500.158 274.916 529.159 266.599C529.44 267.756 529.725 268.914 530.015 270.071C501.077 278.389 472.375 286.707 444.082 295.024C443.703 293.867 443.33 292.709 442.966 291.552Z" fill="#DBDBDB"/>
<path d="M445.877 300.315C473.987 291.998 502.544 283.68 531.376 275.362C531.68 276.519 531.991 277.678 532.306 278.835C503.555 287.153 475.1 295.47 447.119 303.788C446.695 302.631 446.283 301.474 445.877 300.315Z" fill="#DBDBDB"/>
<path d="M491.056 204.958C489.754 195.492 488.167 186.027 486.036 176.561C492.691 183.346 499.067 190.133 505.258 196.918C504.652 197.474 504.045 198.029 503.436 198.586C499.1 193.81 494.675 189.034 490.131 184.258C491.456 191.013 492.539 197.767 493.474 204.522C492.666 204.667 491.861 204.813 491.056 204.958Z" fill="#069FC1"/>
<path d="M489.319 200.033C488.849 199.388 488.377 198.742 487.903 198.096C492.243 194.861 496.541 191.626 500.789 188.391C501.281 189.036 501.771 189.682 502.259 190.328C497.992 193.563 493.675 196.798 489.319 200.033Z" fill="#069FC1"/>
<path d="M485.514 172.849C483.518 174.347 481.722 176.095 480.243 178.093C478.761 180.087 477.64 182.346 476.906 184.719C476.15 187.083 475.79 189.578 475.861 192.04C475.93 194.492 476.385 196.951 477.422 199.065C479.605 203.269 483.517 206.683 488.174 207.494C492.828 208.405 497.814 206.739 501.977 203.986C506.19 201.309 509.671 197.421 511.114 192.779C512.621 188.208 512.061 182.916 509.334 178.892C507.957 176.908 505.977 175.26 503.808 174.021C501.631 172.776 499.191 171.975 496.72 171.752C494.249 171.505 491.738 171.843 489.445 172.754C487.146 173.662 485.059 175.064 483.172 176.721C484.031 175.805 484.932 174.925 485.922 174.143C486.927 173.382 488.002 172.702 489.148 172.143C491.438 171.023 494.049 170.449 496.715 170.527C502.049 170.745 507.457 173.377 510.891 177.794C512.573 180.045 513.556 182.682 513.944 185.368C514.338 188.057 514.12 190.823 513.327 193.438C511.737 198.71 507.801 203.089 503.233 206.012C500.938 207.467 498.448 208.7 495.777 209.409C493.122 210.127 490.287 210.32 487.612 209.758C484.933 209.215 482.477 207.946 480.454 206.229C478.418 204.504 476.809 202.377 475.673 199.922C473.55 194.901 473.94 189.197 475.758 184.308C477.661 179.405 481.175 175.34 485.514 172.849Z" fill="#069FC1"/>
<path d="M498.883 181.957C497.476 180.047 496.05 178.136 494.601 176.226C495.241 175.755 495.88 175.282 496.517 174.811C497.977 176.72 499.414 178.631 500.831 180.541C500.183 181.013 499.534 181.485 498.883 181.957Z" fill="#069FC1"/>
<path d="M495.755 181.337C495.273 180.672 494.789 180.007 494.302 179.342C496.138 178.026 497.964 176.711 499.778 175.396C500.275 176.061 500.771 176.726 501.263 177.391C499.437 178.706 497.602 180.021 495.755 181.337Z" fill="#069FC1"/>
<path d="M385.627 267.954C385.627 267.954 398.573 254.698 404.405 248.103C410.237 241.506 424.134 220.6 431.681 221.105C440.156 221.671 434.042 243.692 423.73 255.536C423.73 255.536 437.433 277.386 428.064 289.235C426.037 291.799 411.272 299.904 407.599 299.159L385.627 267.954Z" fill="#F7A9A0"/>
<path d="M423.109 257.114C428.742 265.432 432.665 278.081 428.63 287.248C428.513 287.516 428.877 287.721 429.032 287.468C434.694 278.223 430.296 263.544 424.809 256.417C423.754 255.047 421.651 254.962 423.109 257.114Z" fill="#263238"/>
<path d="M385.627 267.954L424.54 323.218C424.54 323.218 425.455 334.612 413.852 339.694C402.248 344.775 354.232 362.096 335.224 355.674C316.216 349.251 261.965 302.531 238.566 271.442C215.166 240.352 249.757 246.551 256.337 249.498C262.917 252.447 340.281 288.924 343.038 288.856C345.794 288.787 363.779 275.146 372.246 270.905C380.711 266.665 385.627 267.954 385.627 267.954Z" fill="#C2FF00"/>
<path opacity="0.1" d="M362.947 355.256C351.997 357.264 341.843 357.926 335.234 355.685C316.206 349.249 261.963 302.523 238.564 271.432C237.085 269.465 235.841 267.646 234.797 265.981L362.947 355.256Z" fill="black"/>
<path d="M409.381 334.636C405.816 330.265 402.845 325.395 399.737 320.723C396.672 316.115 393.638 311.488 390.636 306.844C384.576 297.471 378.244 288.163 372.81 278.446C372.682 278.218 372.983 278.017 373.151 278.229C380.168 287.089 386.295 296.659 392.462 306.067C395.555 310.786 398.578 315.55 401.544 320.343C404.399 324.957 407.448 329.574 409.766 334.457C409.875 334.69 409.528 334.816 409.381 334.636Z" fill="#263238"/>
<g opacity="0.1">
<path d="M396.91 346.082C395.497 346.557 394.023 347.044 392.513 347.532C392.269 345.9 392.184 344.267 392.184 342.672C392.172 339.59 392.427 336.606 392.391 333.646C392.379 330.699 392.135 327.764 391.538 324.901C390.941 322.051 389.943 319.311 388.603 316.814C388.274 316.18 387.896 315.559 387.543 314.987C387.214 314.439 386.788 313.866 386.386 313.306C385.521 312.197 384.62 311.053 383.682 309.932L378.079 303.123C376.179 300.834 374.304 298.531 372.452 296.181C370.577 293.83 368.81 291.394 367.13 288.848C365.485 286.266 363.914 283.648 362.66 280.615C362.221 279.555 361.868 278.471 361.563 277.399C363.135 276.364 364.681 275.365 366.143 274.439C366.642 275.779 367.191 277.07 367.812 278.288C369.042 280.651 370.65 283.063 372.257 285.426C375.522 290.176 378.956 294.963 382.403 299.798C384.121 302.222 385.887 304.621 387.495 307.191C388.298 308.47 389.102 309.761 389.821 311.162C390.174 311.869 390.527 312.563 390.844 313.342C391.136 314.11 391.392 314.828 391.611 315.584C393.414 321.576 393.682 327.617 394.376 333.525C394.888 337.861 395.704 342.185 396.91 346.082Z" fill="black"/>
<path d="M381.538 350.845C380.357 351.186 379.176 351.515 377.97 351.832C376.508 346.789 376.423 341.82 376.313 336.911L376.252 329.311C376.24 328.056 376.204 326.814 376.155 325.584C376.094 324.354 376.033 323.123 375.802 322.027C375.753 321.735 375.692 321.516 375.595 321.248L375.29 320.419L374.925 319.616C374.791 319.348 374.632 319.092 374.498 318.824C373.902 317.789 373.146 316.814 372.306 315.913C370.613 314.135 368.567 312.649 366.399 311.37C365.315 310.712 364.194 310.14 363.061 309.555L359.639 307.813C357.361 306.607 354.998 305.28 353.123 303.112C352.66 302.576 352.221 301.979 351.856 301.346C351.673 301.029 351.515 300.688 351.356 300.359L350.979 299.385C350.516 298.081 350.224 296.754 349.992 295.438C349.529 292.807 349.469 290.189 349.529 287.594C349.554 286.827 349.603 286.06 349.663 285.292C350.443 284.793 351.271 284.257 352.136 283.685C352.136 284.988 352.173 286.279 352.246 287.57C352.355 290.055 352.623 292.503 353.074 294.866C353.317 296.047 353.634 297.192 354.024 298.276L354.341 299.08C354.462 299.311 354.548 299.555 354.682 299.799C354.937 300.262 355.205 300.724 355.546 301.175C356.874 302.965 358.725 304.598 360.711 306.12C362.696 307.643 364.852 309.019 366.983 310.42C369.127 311.796 371.295 313.197 373.256 314.926C374.255 315.779 375.181 316.729 376.021 317.789C376.435 318.312 376.813 318.873 377.178 319.457L377.677 320.346C377.836 320.663 377.994 321.028 378.104 321.357C378.579 322.709 378.798 324 378.993 325.304C379.2 326.595 379.31 327.886 379.419 329.165C379.626 331.722 379.748 334.256 379.919 336.765C380.077 339.286 380.272 341.783 380.515 344.244C380.735 346.509 381.039 348.75 381.538 350.845Z" fill="black"/>
</g>
<path d="M129.672 439.244C129.79 439.401 296.013 431.639 297.093 430.61C297.594 430.133 299.751 420.672 297.203 407.535C289.561 368.123 266.677 287.646 246.494 253.585C241.456 245.083 218.731 232.533 202.237 248.632C168.798 281.273 142.546 364.354 132.207 409.965C127.152 432.265 128.981 438.292 129.672 439.244Z" fill="#C2FF00"/>
<g opacity="0.1">
<path d="M296.461 403.767C295.962 403.779 295.462 403.803 294.975 403.84C290.493 404.181 285.67 405.094 280.919 406.057C271.358 408.005 261.626 410.198 251.821 412.378C246.913 413.462 242.004 414.607 236.95 415.435C234.416 415.837 231.871 416.239 229.228 416.434C227.888 416.519 226.572 416.617 225.135 416.592C223.759 416.543 222.48 416.458 221.152 416.3C210.616 415.167 201.031 411.598 191.348 408.785C181.677 405.959 171.677 404.047 162.786 404.083C160.593 404.096 158.23 404.266 155.855 404.485C153.492 404.705 151.105 405.058 148.706 405.411C143.919 406.178 139.083 407.141 134.26 408.188C133.675 408.31 133.103 408.444 132.518 408.578C133.103 406.02 133.748 403.34 134.431 400.576C138.596 399.224 142.823 398.03 147.171 397.129C149.704 396.58 152.274 396.142 154.893 395.813C156.208 395.655 157.524 395.521 158.851 395.448C160.155 395.35 161.616 395.326 162.993 395.411C168.571 395.655 173.784 397.311 178.559 399.333C183.358 401.331 187.84 403.694 192.468 405.606C197.084 407.53 201.823 409.101 206.67 410.039C211.506 410.989 216.439 411.245 221.225 410.807C222.407 410.721 223.637 410.539 224.77 410.38C225.841 410.21 226.999 409.93 228.143 409.662C230.458 409.041 232.821 408.395 235.171 407.689L249.507 403.438C254.306 401.988 259.154 400.576 264.038 399.248C268.922 397.884 273.892 396.739 278.971 395.801C283.964 394.948 288.995 394.242 294.403 394.266C295.158 397.604 295.84 400.783 296.461 403.767Z" fill="black"/>
<path d="M289.214 372.866C285.779 371.648 282.308 370.661 278.861 369.918C276.863 369.504 274.866 369.248 272.917 369.139L271.468 369.102C271.017 369.139 270.579 369.114 270.128 369.163C269.227 369.26 268.325 369.382 267.4 369.601C263.746 370.491 259.958 372.305 256.291 374.388C252.601 376.483 249.032 378.919 245.451 381.343C241.882 383.767 238.277 386.227 234.282 388.139C232.297 389.114 230.202 389.942 228.009 390.551C226.913 390.856 225.781 391.075 224.648 391.257L222.918 391.44C222.321 391.477 221.639 391.489 221.055 391.44C218.643 391.294 216.475 390.795 214.319 390.234C212.175 389.698 210.093 389.029 208.034 388.346C203.905 386.982 199.874 385.509 195.842 384.108C191.823 382.683 187.791 381.343 183.796 380.101C179.813 378.858 175.806 377.762 171.908 377.177C169.935 376.897 168.181 376.849 166.22 377.056C164.284 377.251 162.298 377.665 160.313 378.164C156.342 379.175 152.372 380.6 148.45 382.159C144.966 383.572 141.495 385.082 138.048 386.69C138.426 385.289 138.815 383.876 139.217 382.439C141.641 380.953 144.114 379.553 146.635 378.225C150.508 376.191 154.528 374.388 158.778 372.939C160.91 372.257 163.114 371.648 165.429 371.27C167.718 370.856 170.301 370.771 172.578 371.002C181.835 371.928 189.983 375.192 197.998 378.395L209.886 383.304C211.847 384.12 213.82 384.887 215.769 385.63C217.717 386.337 219.678 387.055 221.53 387.421C222.017 387.53 222.407 387.567 222.894 387.616L224.38 387.677L225.878 387.64C226.39 387.604 226.889 387.543 227.388 387.494C229.41 387.25 231.408 386.714 233.369 386.008C237.266 384.534 240.932 382.317 244.367 379.796C246.085 378.542 247.717 377.153 249.385 375.801L254.355 371.599C257.729 368.846 261.358 366.045 265.987 364.559C267.132 364.181 268.337 363.901 269.568 363.755C270.189 363.67 270.822 363.658 271.443 363.621L273.209 363.67C275.548 363.804 277.801 364.23 280.006 364.742C282.673 365.351 285.231 366.191 287.728 367.153C288.227 369.078 288.727 370.99 289.214 372.866Z" fill="black"/>
</g>
<path d="M184.784 252.556C130.518 275.563 88.3878 295.591 94.5046 316.443C96.9065 324.632 111.067 346.714 129.27 346.686C143.569 346.664 169.064 323.74 198.104 283.609C213.11 262.87 219.043 238.032 184.784 252.556Z" fill="#C2FF00"/>
<path d="M194.407 294.641C192.09 296.561 189.789 298.514 187.532 300.513C188.013 299.95 188.505 299.4 188.982 298.835C192.864 294.232 196.702 289.593 200.539 284.954C200.619 284.858 200.46 284.735 200.374 284.825C193.07 292.594 185.693 300.295 178.36 308.039C171.052 315.759 151.685 335.41 146.998 339.264C146.902 339.343 147.024 339.504 147.125 339.426C151.362 336.115 163.264 326.153 167.06 322.438C172.796 316.822 178.308 311.028 183.607 305.048C187.501 301.879 191.17 298.438 194.662 294.896C194.796 294.759 194.557 294.517 194.407 294.641Z" fill="#263238"/>
<path d="M113.911 334.091C90.1795 324.359 74.8071 252.387 68.9887 203.945C67.8815 194.725 140.765 185.838 140.821 195.767C141.141 252.429 139.898 344.747 113.911 334.091Z" fill="#F7A9A0"/>
<path d="M59.8233 166.189C60.2557 181.645 73.4954 220.339 79.5915 226.652C85.6875 232.964 131.93 210.874 134.512 202.247C137.096 193.621 139.259 143.035 129.057 131.001C118.855 118.968 59.3751 150.176 59.8233 166.189Z" fill="#F7A9A0"/>
<path d="M141.031 152.663C136.99 159.788 130.906 150.946 130.906 150.946C130.906 150.946 136.596 165.783 129.59 171.518C122.822 177.028 115.849 166.089 115.338 165.312C115.633 166.1 120.506 179.869 112.871 184.907C104.932 190.136 99.8175 177.953 99.4899 177.164C99.5337 177.995 99.9357 188.989 93.2647 191.499C81.8009 195.803 80.0007 167.718 72.2871 161.488C72.2871 161.488 60.2423 167.081 59.8208 167.353C59.8208 167.353 57.5566 146.942 66.5405 137.006C71.2774 131.769 77.0933 135.15 77.0933 135.15C77.0933 135.15 75.4137 126.627 81.2991 122.471C84.3258 120.345 90.4194 123.297 90.4194 123.297C90.4194 123.297 89.3598 116.416 94.8262 113.046C99.1793 110.342 104.613 113.723 104.613 113.723C104.613 113.723 106.661 106.644 112.007 105.328C122.78 102.645 149.671 137.397 141.031 152.663Z" fill="#F7A9A0"/>
<path d="M105.555 114.123C105.457 114.015 105.588 113.856 105.708 113.949C117.34 123.221 127.28 136.971 131.287 151.388C131.419 151.861 130.707 152.28 130.464 151.786C123.491 137.717 116.183 125.786 105.555 114.123Z" fill="#263238"/>
<path d="M90.3548 123.067C90.2391 122.942 90.4474 122.747 90.5899 122.862C102.525 132.48 113.293 148.276 115.956 165.438C116.047 166.027 115.539 166.646 115.382 165.977C112.748 154.7 99.9758 133.518 90.3548 123.067Z" fill="#263238"/>
<path d="M99.2645 178.426C96.0758 162.068 87.9652 148.378 77.6134 135.514C77.4782 135.346 77.7291 135.175 77.8801 135.283C84.6595 140.195 90.4024 149.083 94.2866 156.376C98.0064 163.361 99.96 170.412 99.8358 178.314C99.8309 178.621 99.3315 178.774 99.2645 178.426Z" fill="#263238"/>
<path d="M130.907 150.946C131.722 153.907 132.313 156.927 132.57 159.952C132.794 162.944 132.689 166.106 131.411 168.632C130.773 169.873 129.783 170.857 128.526 171.337C127.242 171.812 125.812 172.034 124.488 171.811C121.816 171.418 119.492 169.325 118.086 167.054L114.552 161.344L115.887 167.937C116.47 170.814 116.68 173.936 116.295 176.83C115.92 179.718 114.776 182.497 112.569 183.95C110.294 185.514 107.574 185.553 105.504 183.786C103.389 182.123 101.786 179.382 100.746 176.73L97.8383 169.322L98.1611 177.238C98.2488 179.382 98.071 181.687 97.5971 183.803C97.1099 185.915 96.2695 187.97 94.8335 189.285C93.4316 190.582 91.3037 191.123 89.6229 190.408C87.8434 189.684 86.3708 187.877 85.148 186.034C82.6937 182.238 81.0226 177.863 79.1505 173.611C78.2285 171.472 77.3053 169.322 76.2785 167.216C75.2261 165.152 74.1348 162.961 72.2871 161.486C73.9606 163.132 74.7791 165.37 75.689 167.479C76.5428 169.634 77.2955 171.833 78.0507 174.035C79.5622 178.441 81.1347 182.86 83.5159 187.045C84.7667 189.072 86.1955 191.229 88.7155 192.461C91.3269 193.713 94.4693 192.923 96.4681 191.1C98.5143 189.249 99.4802 186.76 100.081 184.39C100.652 181.969 100.878 179.594 100.818 177.087L98.2329 177.595C99.4376 180.737 101.006 183.672 103.771 185.986C105.138 187.118 107.01 187.917 108.939 187.892C110.877 187.876 112.611 187.188 114.099 186.166C117.18 184.025 118.451 180.382 118.818 177.152C119.19 173.826 118.921 170.616 118.217 167.377L116.017 168.26C117.902 171.086 120.738 173.321 124.242 173.723C125.972 173.906 127.651 173.546 129.203 172.876C130.801 172.183 132.057 170.788 132.734 169.271C134.077 166.168 133.799 162.899 133.373 159.855C132.898 156.787 132.046 153.804 130.907 150.946Z" fill="#263238"/>
<path d="M135.95 205.557C135.95 205.557 173.539 136.747 138.444 135.83C129.963 135.608 96.0564 149.346 98.5045 156.209C101.665 165.074 116.829 162.355 126.078 159.137C126.078 159.137 114.954 178.73 126.285 190.544C133.392 197.954 135.95 205.557 135.95 205.557Z" fill="#F7A9A0"/>
<path d="M140.822 135.794C137.485 135.524 134.142 136.16 130.883 136.865C127.609 137.588 124.416 138.621 121.276 139.775C115.011 142.169 108.888 144.722 103.02 148.224C101.561 149.125 100.114 150.103 98.8213 151.514C98.1842 152.215 97.5765 153.095 97.2573 154.129C97.0893 154.643 96.9979 155.106 96.9943 155.791C97.0235 156.386 97.1197 156.936 97.3097 157.425C97.9979 159.445 99.5167 160.878 101.143 161.847C102.81 162.764 104.59 163.25 106.353 163.527C109.895 164.04 113.365 163.669 116.699 163.002C120.055 162.369 123.274 161.34 126.453 160.238L125.079 158.547C123.844 160.884 122.939 163.229 122.185 165.678C121.442 168.117 120.926 170.627 120.693 173.168C120.479 175.71 120.625 178.288 121.158 180.769C121.675 183.257 122.675 185.626 124.066 187.701C122.969 185.456 122.249 183.067 121.957 180.634C121.65 178.201 121.796 175.744 122.152 173.338C122.514 170.93 123.141 168.564 123.983 166.278C124.819 164.007 125.863 161.738 127.074 159.732L128.615 157.18L125.7 158.042C122.561 158.968 119.421 159.915 116.225 160.408C113.054 160.934 109.811 161.283 106.767 160.785C103.809 160.333 100.766 158.947 99.9321 156.522C99.0137 154.456 101.82 152.126 104.436 150.445C107.132 148.685 110.068 147.173 112.999 145.668C115.94 144.165 118.899 142.702 121.924 141.395C127.994 138.906 134.182 136.316 140.822 135.794Z" fill="#263238"/>
<path d="M143.752 209.767L67.9522 226.335C67.9522 226.335 62.9608 240.706 67.3663 255.618C75.7303 283.929 100.688 344.693 120.829 343.286C142.622 341.764 147.924 265.799 147.555 228.611C147.432 216.062 143.752 209.767 143.752 209.767Z" fill="#C2FF00"/>
<g opacity="0.1">
<path d="M147.512 239.325C147.488 240.921 147.451 242.565 147.402 244.234C145.575 245.147 143.7 246.012 141.775 246.755C140.35 247.315 138.888 247.827 137.402 248.265C136.647 248.485 135.892 248.704 135.125 248.874C134.382 249.057 133.529 249.203 132.725 249.301C129.449 249.69 126.246 249.24 123.261 248.521C120.277 247.827 117.427 246.877 114.541 246.219C111.666 245.549 108.755 245.099 105.844 245.025C102.933 244.94 100.022 245.269 97.2815 245.988C96.5995 246.158 95.9052 246.377 95.2597 246.584C94.6507 246.779 94.0051 247.06 93.3596 247.327C92.0807 247.912 90.7652 248.521 89.4498 249.167L81.5206 253.04C78.8654 254.343 76.1736 255.646 73.4575 256.889C71.8132 257.668 70.1323 258.387 68.4271 259.081C68.0495 257.875 67.6963 256.73 67.3675 255.622C67.1117 254.782 66.8924 253.941 66.7219 253.101C70.8753 251.469 75.0774 249.763 79.2917 248.046C82.0565 246.95 84.797 245.793 87.6715 244.818C89.1088 244.343 90.546 243.856 92.0685 243.491C92.8358 243.308 93.6032 243.125 94.4436 243.004C95.2475 242.894 96.0026 242.821 96.7822 242.784C103.043 242.419 108.974 243.564 114.882 244.258C120.801 244.965 126.818 245.099 131.995 244.222C133.273 244.002 134.625 243.673 135.99 243.308C137.354 242.955 138.706 242.516 140.07 242.066C142.555 241.237 145.027 240.312 147.512 239.325Z" fill="black"/>
<path d="M147.098 252.626C147.061 253.503 147.025 254.38 146.976 255.269C145.977 256.109 144.966 256.926 143.919 257.717C141.86 259.276 139.692 260.714 137.366 261.98C136.184 262.589 134.954 263.15 133.651 263.6C132.348 264.063 130.862 264.355 129.51 264.453C124.017 264.806 118.962 263.698 113.968 262.614L106.563 260.908C105.345 260.628 104.127 260.372 102.909 260.129C101.715 259.91 100.497 259.678 99.3765 259.642C99.0842 259.629 98.8528 259.642 98.5726 259.666L97.6957 259.776L96.8187 259.946C96.5386 260.007 96.2463 260.105 95.9539 260.178C94.809 260.519 93.6885 261.018 92.6166 261.627C90.4851 262.857 88.5729 264.501 86.8189 266.316C85.9298 267.218 85.1137 268.18 84.2733 269.13L81.7886 272.065C80.0956 274.002 78.2442 275.987 75.6986 277.303C75.455 277.437 75.1992 277.558 74.9313 277.656C74.5537 276.669 74.1883 275.695 73.8229 274.72C74.0056 274.647 74.2005 274.587 74.3832 274.501C76.4294 273.624 78.4513 272.199 80.3879 270.628C82.3367 269.045 84.1759 267.279 86.0272 265.525C87.8786 263.759 89.7421 261.968 91.8858 260.47C92.9455 259.703 94.0782 259.02 95.2962 258.448C95.9174 258.168 96.5508 257.936 97.1963 257.717L98.1829 257.437C98.5239 257.364 98.9259 257.291 99.2669 257.254C100.68 257.108 101.995 257.193 103.311 257.303C104.614 257.413 105.893 257.595 107.16 257.79C109.693 258.192 112.19 258.655 114.675 259.081C117.159 259.52 119.632 259.91 122.08 260.238C124.528 260.58 126.976 260.823 129.291 260.787C130.472 260.75 131.507 260.616 132.628 260.299C133.736 259.995 134.845 259.569 135.953 259.081C138.182 258.107 140.35 256.889 142.482 255.598C144.041 254.648 145.575 253.661 147.098 252.626Z" fill="black"/>
</g>
<path d="M142.781 230.168C105.301 240.693 78.181 245.571 72.9643 246.387C72.8242 246.409 72.7669 246.217 72.9058 246.174C98.9637 238.185 140.186 229.92 142.717 229.713C142.991 229.691 143.024 230.1 142.781 230.168Z" fill="#263238"/>
<path d="M146.477 275.23C145.594 282.333 143.571 293.601 141.931 300.57C141.828 301.009 141.72 301.447 141.617 301.887C142.063 304.395 142.333 306.895 142.315 309.463C142.294 312.426 142.052 315.365 141.752 318.311C141.739 318.437 141.547 318.421 141.557 318.294C141.773 315.372 141.703 312.415 141.479 309.497C141.345 307.75 141.206 305.999 141.053 304.248C139.462 310.901 137.78 317.54 135.707 324.057C135.668 324.181 135.496 324.11 135.522 323.991C137.088 316.912 138.758 309.851 140.063 302.717C141.354 295.649 144.34 278.875 145.586 271.798C146.57 266.199 146.752 273.009 146.477 275.23Z" fill="#263238"/>
<path d="M215.566 245.646C216.447 248.243 230.81 264.253 242.898 262.502C246.835 261.924 244.641 240.299 244.641 240.299L244.845 238.666L247.668 215.799L215.72 199.63C215.72 199.627 215.208 244.54 215.566 245.646Z" fill="#F7A9A0"/>
<path d="M247.666 215.805L244.834 238.659L244.639 240.305C244.639 240.305 245.03 244.22 245.187 248.758C228.398 247.909 219.603 236.216 215.465 227.957C215.536 214.991 215.722 199.63 215.722 199.63L247.666 215.805Z" fill="#263238"/>
<path d="M283.298 176.812C294.958 224.78 267.545 237.181 257.198 239.684C247.806 241.955 215.535 248.5 198.98 201.993C182.425 155.485 201.042 134.899 222.248 128.566C243.456 122.232 271.638 128.842 283.298 176.812Z" fill="#F7A9A0"/>
<path d="M269.519 178.196C268.356 178.258 267.269 178.121 266.112 178.062C264.805 177.996 263.758 178.078 262.664 177.262C262.077 176.825 261.936 175.758 262.307 175.149C263.172 173.727 264.792 173.411 266.368 173.425C268.078 173.441 269.394 173.892 270.707 174.982C271.979 176.04 271.055 178.116 269.519 178.196Z" fill="#263238"/>
<path d="M235.393 185.503C236.512 185.175 237.49 184.687 238.564 184.249C239.775 183.755 240.79 183.487 241.555 182.354C241.964 181.748 241.745 180.694 241.192 180.241C239.906 179.185 238.272 179.421 236.79 179.957C235.181 180.538 234.09 181.398 233.212 182.861C232.358 184.281 233.917 185.934 235.393 185.503Z" fill="#263238"/>
<path d="M249.835 218.627C250.719 219.324 251.634 220.314 252.858 220.286C254.032 220.258 255.338 219.586 256.36 219.057C256.461 219.005 256.58 219.105 256.523 219.213C255.793 220.589 254.055 221.589 252.477 221.486C250.936 221.385 250.046 220.157 249.53 218.814C249.457 218.625 249.706 218.526 249.835 218.627Z" fill="#263238"/>
<path d="M261.938 210.649C261.938 210.649 260.565 214.31 257.814 216.277C256.801 217.007 255.63 217.515 254.26 217.54C251.445 217.602 250.691 215.219 250.582 213.026C250.487 211.224 250.853 209.543 250.853 209.543C250.853 209.543 255.701 212.026 261.938 210.649Z" fill="white"/>
<path d="M260.257 213.76C260.126 213.939 259.981 214.148 259.827 214.336C258.943 214.408 258.042 214.436 257.154 214.307C258.204 214.143 259.246 213.958 260.257 213.76Z" fill="#DBDBDB"/>
<path d="M254.335 214.107C253.648 214.101 252.965 214.042 252.292 213.878C251.709 213.753 251.159 213.516 250.608 213.278C250.603 213.204 250.591 213.108 250.586 213.034C250.586 212.907 250.565 212.789 250.566 212.662C251.764 213.25 253.041 213.656 254.335 214.107Z" fill="#DBDBDB"/>
<path d="M261.707 204.34C261.707 204.34 263.213 209.178 263.602 211.515C263.637 211.733 263.089 211.932 262.304 212.109C262.268 212.128 262.25 212.146 262.213 212.128C258.195 213.457 253.806 212.723 250.739 209.772C250.54 209.57 250.796 209.28 251.032 209.391C254.488 211.14 257.987 211.158 261.656 210.611C261.713 209.938 258.787 202.32 259.164 202.322C260.76 202.326 263.612 202.56 264.668 202.642C263.761 199.476 260.738 190.617 259.095 184.848C258.993 184.486 259.537 184.276 259.68 184.596C263.445 193.021 265.277 197.467 267.394 204.241C267.56 204.769 262.708 204.582 261.707 204.34Z" fill="#263238"/>
<path d="M238.061 194.478C238.08 193.694 238.291 192.858 238.778 192.082C239.265 191.308 240.188 190.801 241.09 190.657C242.021 190.51 243.076 190.936 243.674 191.594C244.272 192.251 244.655 192.992 244.873 193.751C245.015 194.232 245.098 194.719 245.168 195.209C245.295 196.249 245.244 197.292 244.898 198.262C244.846 197.501 244.705 196.764 244.493 196.065C244.299 195.394 244.067 194.773 243.79 194.17C243.203 192.925 242.298 191.941 241.266 192.143C240.166 192.262 239.477 193.256 239.22 194.623C238.959 195.96 238.939 197.422 238.951 198.91C238.336 197.547 237.992 196.05 238.061 194.478Z" fill="#263238"/>
<path d="M271.234 188.067C270.92 187.348 270.411 186.653 269.668 186.118C268.925 185.583 267.878 185.461 266.989 185.669C266.071 185.883 265.255 186.676 264.948 187.51C264.641 188.344 264.567 189.174 264.651 189.958C264.699 190.458 264.807 190.94 264.927 191.42C265.2 192.431 265.641 193.378 266.327 194.147C266.089 193.421 265.942 192.685 265.874 191.958C265.801 191.264 265.782 190.6 265.811 189.939C265.886 188.564 266.353 187.312 267.385 187.111C268.45 186.807 269.463 187.468 270.216 188.637C270.961 189.777 271.531 191.124 272.081 192.506C272.137 191.013 271.891 189.497 271.234 188.067Z" fill="#263238"/>
<path d="M194.238 206.313C208.914 206.475 215.514 188.597 211.265 174.777C211.265 174.777 250.431 177.637 250.45 146.328C250.45 146.328 258.886 159.419 276.54 158.841L281.563 170.085C285.481 168.698 289.055 157.117 278.777 148.807C278.777 148.807 277.186 133.295 265.171 124.638C253.156 115.982 242.126 122.79 242.126 122.79C242.126 122.79 232.561 115.72 218.352 118.399C204.143 121.078 199.022 134.482 199.022 134.482C199.022 134.482 179.987 139.299 177.517 153.167C175.047 167.035 182.656 175.787 182.656 175.787C182.656 175.787 178.143 181.443 181.286 192.968C183.307 200.378 189.833 206.265 194.238 206.313Z" fill="#263238"/>
<path d="M249.427 143.609C249.835 146.14 250.086 148.688 249.963 151.223C249.966 153.758 249.585 156.26 248.988 158.676C247.699 163.486 244.833 167.794 240.652 170.405C236.616 173.343 231.461 174.072 226.538 174.849C224.016 174.922 221.477 175.174 218.935 175.104C216.391 174.998 213.843 174.832 211.266 174.777C213.785 175.236 216.334 175.581 218.887 175.986C221.449 176.236 224.046 176.141 226.642 176.231C231.76 175.718 237.152 174.966 241.643 171.91C246.109 168.961 249.28 164.163 250.333 158.998C251.368 153.836 250.963 148.505 249.427 143.609Z" fill="#263238"/>
<path d="M199.022 134.479C194.142 134.81 189.303 136.141 184.881 138.433C180.462 140.699 176.579 144.406 174.616 149.178C173.732 151.595 173.288 154.098 173.207 156.596C173.048 159.096 173.32 161.646 174.019 164.056C175.369 168.89 178.469 173.228 182.657 175.783C178.94 172.635 176.366 168.316 175.364 163.713C174.391 159.159 174.612 154.123 176.292 149.841C177.121 147.678 178.417 145.716 180.001 143.992C181.649 142.33 183.51 140.856 185.561 139.635C189.655 137.194 194.27 135.54 199.022 134.479Z" fill="#263238"/>
<path d="M242.127 122.789C245.764 121.251 249.581 120.219 253.416 119.906C257.243 119.605 261.107 120.11 264.525 121.691C267.948 123.266 270.805 125.906 273.085 129.002C275.335 132.128 277.077 135.672 278.352 139.41C277.799 135.477 276.348 131.668 274.234 128.225C272.118 124.781 269.039 121.824 265.28 120.054C261.508 118.353 257.249 117.877 253.259 118.533C249.261 119.156 245.431 120.587 242.127 122.789Z" fill="#263238"/>
<path d="M270.524 160.458C266.105 159.138 261.949 157.386 258.361 154.806C256.529 153.57 254.966 152.008 253.532 150.33C252.038 148.665 251.043 146.653 249.917 144.619C250.327 146.881 251.058 149.184 252.41 151.145C253.676 153.15 255.367 154.908 257.312 156.271C259.26 157.629 261.389 158.717 263.637 159.401C265.877 160.093 268.196 160.538 270.524 160.458Z" fill="#263238"/>
<path d="M239.648 212.721C231.973 213.258 224.594 208.567 222.072 200.933C219.089 191.904 224.005 182.135 233.03 179.152C242.059 176.167 251.826 181.081 254.812 190.108C257.793 199.132 252.879 208.904 243.853 211.889C242.46 212.35 241.05 212.624 239.648 212.721ZM237.397 180.62C236.184 180.704 234.961 180.94 233.755 181.339C225.935 183.924 221.678 192.389 224.259 200.21C226.846 208.026 235.315 212.294 243.129 209.702C250.948 207.116 255.206 198.652 252.624 190.831C250.437 184.22 244.047 180.154 237.397 180.62Z" fill="#C2FF00"/>
<path d="M276.995 205.268C270.414 205.73 263.971 199.407 262.299 190.568C261.455 186.108 261.931 181.659 263.64 178.048C265.402 174.309 268.269 171.892 271.708 171.242C275.158 170.583 278.698 171.795 281.706 174.63C284.615 177.373 286.681 181.338 287.522 185.797C289.286 195.138 285.067 203.807 278.116 205.123C277.742 205.194 277.369 205.241 276.995 205.268ZM273.005 173.396C272.715 173.417 272.425 173.454 272.138 173.509C269.445 174.016 267.166 175.979 265.721 179.032C264.223 182.209 263.81 186.154 264.562 190.139C266.094 198.232 271.962 203.946 277.687 202.857C283.392 201.78 286.787 194.317 285.26 186.227C284.505 182.242 282.682 178.719 280.124 176.308C277.931 174.239 275.434 173.226 273.005 173.396Z" fill="#C2FF00"/>
<path d="M254.781 192.141L253.277 190.909C255.099 188.682 259.646 185.288 263.838 188.361L262.69 189.928C258.937 187.17 254.949 191.938 254.781 192.141Z" fill="#C2FF00"/>
<path d="M186.55 208.874L184.688 208.319C184.948 207.45 187.342 199.791 191.474 198.293C195.34 196.904 221.389 194.463 222.494 194.36L222.674 196.296C215.205 196.988 195.12 199.039 192.138 200.12C189.409 201.109 187.18 206.774 186.55 208.874Z" fill="#C2FF00"/>
<path d="M209.171 204.201C209.171 204.201 196.189 190.6 189.859 195.456C183.529 200.312 194.918 221.164 203.495 222.942C212.071 224.721 213.872 216.814 213.872 216.814L209.171 204.201Z" fill="#F7A9A0"/>
<path d="M193.272 201.352C193.139 201.361 193.142 201.549 193.262 201.577C199.305 203.01 203.106 207.827 206.043 212.976C204.028 211.129 201.547 210.329 199.036 212.774C198.904 212.902 199.082 213.112 199.237 213.054C201.491 212.198 203.234 212.345 205.094 213.97C206.411 215.121 207.429 216.675 208.462 218.078C208.805 218.546 209.682 218.133 209.398 217.577C209.378 217.537 209.353 217.495 209.331 217.453C208.364 210.177 201.172 200.891 193.272 201.352Z" fill="#263238"/>
<path d="M195.63 248.952C193.64 246.481 206.483 239.196 209.83 241.955C213.177 244.714 230.052 287.563 224.571 334.053C219.09 380.544 129.068 430.605 125.76 423.655C124.37 420.737 126.147 412.585 128.336 409.978C131.425 406.301 196.398 365.983 202.818 337.154C208.526 311.52 200.704 255.252 195.63 248.952Z" fill="#111111"/>
<path d="M246.29 247.952C243.59 242.822 257.505 246.95 259.033 249.708C260.563 252.468 279.17 296.894 282.376 325.933C283.66 337.563 288.171 368.879 288.171 368.879C288.171 368.879 274.569 326.836 263.369 291.695C256.212 269.238 247.403 250.065 246.29 247.952Z" fill="#111111"/>
<path d="M509.746 431.326C509.746 431.326 523.995 379.919 535.373 362.46C546.752 345.002 567.961 325.824 567.961 325.824C567.961 325.824 567.463 405.082 509.746 431.326Z" fill="#40BE14"/>
<path d="M510.766 430.447C515.648 422.47 519.795 414.057 523.755 405.539C525.507 396.416 527.64 387.232 530.83 378.507C530.89 378.342 531.12 378.433 531.081 378.598C529.191 386.72 526.991 394.769 524.993 402.866C530.745 390.356 536.211 377.685 543.062 365.859C544.446 360.125 547.067 354.612 549.666 349.409C549.742 349.258 549.99 349.34 549.917 349.5C548.089 353.526 546.774 357.675 545.473 361.839C548.711 356.604 552.262 351.559 556.297 346.808C556.547 346.513 557.046 346.839 556.8 347.155C547.641 358.906 541.319 372.272 535.298 385.808C541.805 378.814 547.724 371.163 553.175 363.346C553.231 363.265 553.353 363.349 553.301 363.432C547.673 372.427 541.19 380.495 534.156 388.381C529.77 398.297 525.459 408.253 520.232 417.687C530.679 408.811 538.714 397.326 546.669 386.243C546.848 385.993 547.23 386.256 547.061 386.515C539.104 398.674 530.869 410.124 519.42 419.13C517.079 423.253 514.572 427.282 511.771 431.142C511.308 431.78 510.355 431.119 510.766 430.447Z" fill="#263238"/>
<path d="M505.33 435.956C505.33 435.956 530.94 388.555 523.5 342.599C516.061 296.641 508.095 280.277 508.095 280.277C508.095 280.277 467.839 351.757 505.33 435.956Z" fill="#40BE14"/>
<path d="M494.817 361.438C496.861 374.709 500.446 387.133 504.704 399.712C504.776 382.847 505.095 365.98 505.543 349.118C502.594 338.865 501.113 328.369 500.71 317.708C500.698 317.396 501.161 317.415 501.186 317.717C501.945 326.891 503.547 335.842 505.672 344.745C506.061 330.832 506.52 316.92 507.023 303.014C507.031 302.78 507.385 302.786 507.385 303.02C507.364 324.752 507.375 346.488 507.238 368.222C510.544 359.851 512.616 351.235 514.621 342.402C514.64 342.318 514.777 342.339 514.771 342.425C514.001 352.575 510.931 362.388 507.212 371.807C507.112 385.699 506.962 399.592 506.655 413.481C510.987 398.711 515.615 384.408 516.868 368.801C516.885 368.594 517.196 368.595 517.192 368.807C516.852 386.018 512.439 403.489 506.791 419.674C506.728 419.856 506.623 419.981 506.506 420.082C506.377 425.159 506.235 430.237 506.064 435.312C506.04 436.04 504.955 436.019 504.94 435.291C504.74 424.904 504.67 414.517 504.688 404.129C498.935 390.78 495.873 375.891 494.591 361.464C494.581 361.336 494.798 361.31 494.817 361.438Z" fill="#263238"/>
<path d="M496.572 354.107C497.384 358.179 498.144 362.481 498.36 366.629C498.368 366.773 498.151 366.791 498.117 366.658C497.057 362.636 496.479 358.304 496.01 354.173C495.973 353.852 496.51 353.793 496.572 354.107Z" fill="#263238"/>
<path d="M511.547 319.459C511.571 319.316 511.788 319.361 511.789 319.496C511.824 322.345 511.252 325.396 510.505 328.133C510.442 328.362 510.113 328.256 510.158 328.031C510.717 325.181 511.062 322.315 511.547 319.459Z" fill="#263238"/>
<path d="M495.99 439.585C495.99 439.585 497.034 390.107 482.914 365.512C468.792 340.917 445.373 328.386 445.373 328.386C445.373 328.386 454.816 415.606 495.99 439.585Z" fill="#40BE14"/>
<path d="M470.256 397.27C476.193 405.863 482.091 414.143 489.366 421.619C486.547 411.501 483.273 401.56 479.591 391.778C471.675 384.801 463.824 377.57 458.967 368.024C458.889 367.87 459.107 367.74 459.198 367.888C464.42 376.344 471.403 383.11 478.751 389.617C473.111 374.921 466.551 360.58 459.095 346.589C458.905 346.234 459.421 345.929 459.634 346.272C464.157 353.565 468.259 361.113 471.959 368.855C470.636 363.566 469.578 358.158 468.222 352.907C468.185 352.76 468.394 352.707 468.447 352.845C470.951 359.456 473.443 366.767 474.245 373.831C479.186 384.798 483.346 396.123 486.676 407.691C486.313 400.274 485.851 392.888 485.089 385.492C485.075 385.352 485.31 385.319 485.335 385.458C486.866 393.671 487.669 402.026 487.474 410.381C489.509 417.754 491.223 425.215 492.597 432.733C492.634 432.934 492.338 433.025 492.288 432.819C491.522 429.668 490.688 426.542 489.838 423.424C489.785 423.401 489.727 423.411 489.677 423.36C482.103 415.734 474.91 407.039 470.182 397.315C470.154 397.263 470.224 397.223 470.256 397.27Z" fill="#263238"/>
<path d="M453.895 357.011C455.47 358.718 456.912 360.515 458.432 362.275C459.776 363.83 461.415 365.297 462.498 367.048C462.54 367.117 462.456 367.202 462.388 367.158C460.566 365.996 459.107 364.118 457.693 362.5C456.202 360.794 454.861 359.111 453.672 357.185C453.587 357.047 453.784 356.89 453.895 357.011Z" fill="#263238"/>
<path d="M537.941 433.543L536.161 449.407L530.796 497.363H484.02L478.656 449.407L476.876 433.543C478.864 433.543 507.402 433.543 507.402 433.543C507.402 433.543 535.953 433.543 537.941 433.543Z" fill="#111111"/>
<path d="M537.941 433.543L536.161 449.407H478.656L476.876 433.543C478.864 433.543 507.402 433.543 507.402 433.543C507.402 433.543 535.953 433.543 537.941 433.543Z" fill="#37474F"/>
<path d="M472.719 440.012H542.095V422.044H472.719V440.012Z" fill="#111111"/>
<path d="M474.596 480.837H334.647V497.398H474.596V480.837Z" fill="#37474F"/>
<path d="M367.807 480.837H362.1V497.398H367.807V480.837Z" fill="#111111"/>
<path d="M458.128 480.837H444.453V497.398H458.128V480.837Z" fill="#111111"/>
<path d="M464.515 432.412H321.575V454.296H464.515V432.412Z" fill="#37474F"/>
<path d="M439.227 439.512H404.896V447.196H439.227V439.512Z" fill="#27B1FF"/>
<path d="M456.443 443.355C456.443 445.702 454.414 447.605 451.912 447.605C449.409 447.605 447.381 445.702 447.381 443.355C447.381 441.008 449.41 439.105 451.912 439.105C454.415 439.105 456.443 441.008 456.443 443.355Z" fill="#27B1FF"/>
<path d="M386.898 413.049H314.686V432.369H386.898V413.049Z" fill="#263238"/>
<path d="M453.651 413.049H386.899V432.369H453.651V413.049Z" fill="#263238"/>
<path d="M386.898 415.054H314.686V430.364H386.898V415.054Z" fill="white"/>
<path d="M320.97 418.203C328.536 418.096 336.102 418.019 343.668 417.98L353.934 417.912L376.632 417.979C384.199 418.018 379.332 418.096 386.898 418.203C379.332 418.312 384.199 418.388 376.632 418.427L353.934 418.494L343.668 418.426C336.102 418.387 328.536 418.309 320.97 418.203Z" fill="#DBDBDB"/>
<path d="M320.97 421.207C328.536 421.1 336.102 421.023 343.668 420.984L353.934 420.916L376.632 420.983C384.199 421.022 379.332 421.1 386.898 421.207C379.332 421.316 384.199 421.392 376.632 421.431L353.934 421.498L343.668 421.43C336.102 421.391 328.536 421.313 320.97 421.207Z" fill="#DBDBDB"/>
<path d="M320.97 424.211C328.536 424.104 336.102 424.027 343.668 423.988L353.934 423.92L376.632 423.987C384.199 424.026 379.332 424.104 386.898 424.211C379.332 424.319 384.199 424.396 376.632 424.435L353.934 424.502L343.668 424.434C336.102 424.395 328.536 424.317 320.97 424.211Z" fill="#DBDBDB"/>
<path d="M320.97 427.213C328.536 427.106 336.102 427.029 343.668 426.99L353.934 426.922L376.632 426.989C384.199 427.028 379.332 427.105 386.898 427.213C379.332 427.321 384.199 427.398 376.632 427.437L353.934 427.504L343.668 427.436C336.102 427.398 328.536 427.32 320.97 427.213Z" fill="#DBDBDB"/>
<path d="M411.085 413.049H401.688V432.369H411.085V413.049Z" fill="#111111"/>
<path d="M450.197 413.049H443.881V432.369H450.197V413.049Z" fill="#111111"/>
<path d="M377.304 480.837H458.632V454.286H377.304V480.837Z" fill="#27B1FF"/>
<path d="M315.55 480.837H377.303V454.286H315.55V480.837Z" fill="#27B1FF"/>
<path d="M377.304 478.082H458.632V457.041H377.304V478.082Z" fill="white"/>
<path d="M453.369 473.752C447.03 473.859 440.691 473.936 434.352 473.975L415.335 474.043L396.319 473.976C389.98 473.937 383.641 473.859 377.302 473.752C383.641 473.644 389.979 473.567 396.319 473.528L415.335 473.461L434.352 473.529C440.691 473.568 447.03 473.646 453.369 473.752Z" fill="#DBDBDB"/>
<path d="M453.369 469.625C447.03 469.732 440.691 469.809 434.352 469.848L415.335 469.916L396.319 469.849C389.98 469.81 383.641 469.733 377.302 469.625C383.641 469.518 389.979 469.44 396.319 469.401L415.335 469.334L434.352 469.402C440.691 469.441 447.03 469.519 453.369 469.625Z" fill="#DBDBDB"/>
<path d="M453.369 465.497C447.03 465.604 440.691 465.681 434.352 465.72L415.335 465.788L396.319 465.721C389.98 465.682 383.641 465.606 377.302 465.497C383.641 465.389 389.979 465.312 396.319 465.273L415.335 465.206L434.352 465.274C440.691 465.313 447.03 465.391 453.369 465.497Z" fill="#DBDBDB"/>
<path d="M453.369 461.369C447.03 461.476 440.691 461.553 434.352 461.592L415.335 461.66L396.319 461.593C389.98 461.554 383.641 461.478 377.302 461.369C383.641 461.261 389.979 461.184 396.319 461.145L415.335 461.078L434.352 461.146C440.691 461.185 447.03 461.263 453.369 461.369Z" fill="#DBDBDB"/>
<path d="M336.946 454.285H325.387V480.836H336.946V454.285Z" fill="#111111"/>
<path d="M383.574 96.2533C383.574 120.283 364.083 139.772 340.055 139.772C330.344 139.772 321.378 136.587 314.128 131.19L292.808 136.634L301.684 116.783C298.387 110.662 296.536 103.661 296.536 96.2545C296.536 72.2246 316.026 52.7354 340.055 52.7354C364.083 52.7341 383.574 72.2233 383.574 96.2533Z" fill="white"/>
<path d="M383.574 96.2529C383.489 104.249 381.401 112.29 377.112 119.092C376.149 120.856 374.83 122.385 373.659 124.011C372.291 125.476 371.038 127.056 369.495 128.348C368.735 129.001 368.055 129.753 367.229 130.326L364.826 132.141C364.024 132.743 363.132 133.216 362.288 133.759L361.005 134.549C360.571 134.799 360.108 134.999 359.661 135.226C358.757 135.664 357.861 136.119 356.948 136.541L354.123 137.594C353.192 137.985 352.213 138.217 351.24 138.471C350.262 138.703 349.305 139.039 348.309 139.185C346.321 139.497 344.34 139.882 342.32 139.911C340.31 140.069 338.293 140.059 336.283 139.899C332.264 139.573 328.288 138.697 324.501 137.291C320.72 135.87 317.134 133.929 313.869 131.54L314.236 131.611L292.941 137.152L291.869 137.431L292.32 136.415L301.148 116.544L301.168 117.061C297.976 111.194 296.194 104.571 295.984 97.8996C295.86 91.242 296.973 84.4931 299.789 78.4274C302.522 72.3447 306.649 66.9112 311.746 62.6336C316.842 58.3475 322.965 55.3451 329.398 53.7605C335.84 52.1929 342.633 52.065 349.103 53.4706C355.568 54.903 361.673 57.8225 366.858 61.9004C377.361 69.9635 383.603 83.0741 383.574 96.2529ZM383.574 96.2529C383.538 83.0729 377.238 70.0269 366.741 62.0478C361.532 58.0466 355.431 55.2282 349.014 53.8872C342.592 52.5729 335.882 52.7861 329.559 54.4072C323.244 56.0455 317.27 59.0673 312.331 63.3267C307.403 67.5897 303.423 72.9257 300.771 78.8622C298.051 84.7915 297.003 91.3723 297.152 97.8545C297.408 104.348 299.143 110.771 302.199 116.503L302.336 116.759L302.218 117.021L293.296 136.851L292.676 136.114L314.02 130.77L314.222 130.719L314.387 130.842C317.558 133.222 321.055 135.17 324.757 136.614C328.463 138.041 332.369 138.953 336.331 139.323C338.313 139.505 340.307 139.539 342.293 139.407C344.291 139.403 346.254 139.045 348.227 138.761C349.215 138.628 350.165 138.307 351.137 138.089C352.104 137.848 353.08 137.631 354.006 137.253L356.822 136.241C357.732 135.834 358.627 135.392 359.53 134.968C359.978 134.748 360.44 134.555 360.875 134.312L362.159 133.542C363.004 133.012 363.897 132.553 364.703 131.963L367.111 130.18C367.937 129.614 368.617 128.868 369.377 128.22C370.921 126.942 372.176 125.373 373.547 123.919C374.721 122.303 376.044 120.786 377.014 119.029C381.325 112.268 383.45 104.249 383.574 96.2529Z" fill="#263238"/>
<path d="M333.004 122.148L313.501 102.406L320.053 95.934L331.446 107.465L355.114 70.3584L362.881 75.3108L333.004 122.148Z" fill="#00BD9D"/>
</svg>
