<svg width="42" height="42" viewBox="0 0 42 42" fill="none" xmlns="http://www.w3.org/2000/svg">
<g clip-path="url(#clip0_1220_86294)">
<path d="M10.0974 12.7051V22.5878H2.33398V15.4745C2.33398 13.9454 3.57412 12.7051 5.10337 12.7051H6.51905H10.0974Z" fill="#BED8FB"/>
<path d="M39.7765 16.0616V37.8075C39.7765 39.6061 38.3191 41.0635 36.5214 41.0635H9.77473C8.23819 41.0635 6.95066 39.9988 6.60853 38.5668L6.59545 36.7053L6.51953 25.6197V3.74231C6.51961 1.94368 7.97698 0.486313 9.77473 0.486313H24.2012C25.4977 0.486313 29.6966 4.06637 33.4082 7.83671C36.7949 11.278 39.7765 14.8777 39.7765 16.0616Z" fill="#DDEAFB"/>
<path d="M39.7761 16.0616V24.0276C39.7761 24.0186 39.7753 24.0096 39.7753 23.9998C39.5303 14.2254 31.5684 13.7732 28.9648 11.1695L33.4079 7.83678C36.7945 11.278 39.7761 14.8777 39.7761 16.0616Z" fill="#CBE2FF"/>
<path d="M24.2004 0.486313H16.2344C16.2433 0.486313 16.2524 0.487105 16.2621 0.487105C26.0365 0.732074 26.4888 8.69398 29.0925 11.2976L32.4252 6.85454C28.9839 3.46794 25.3842 0.486313 24.2004 0.486313Z" fill="#CBE2FF"/>
<path d="M39.7771 16.062V17.4391C39.7771 14.5396 37.4259 12.1884 34.5264 12.1884H31.3307C29.5329 12.1884 28.0749 10.7304 28.0749 8.93268V5.737C28.0749 2.83748 25.7237 0.486313 22.8242 0.486313H24.2014C26.6812 0.486313 29.0602 1.47165 30.8136 3.22503L37.0383 9.44972C38.7918 11.2032 39.7771 13.5822 39.7771 16.062Z" fill="#BED8FB"/>
<path d="M28.561 25.1265V32.4287C28.561 34.7907 26.6464 36.7053 24.2844 36.7053H6.59545L6.51953 25.6196V20.85H24.2844C26.6464 20.85 28.561 22.7645 28.561 25.1265Z" fill="#CBE2FF"/>
<path d="M31.3298 22.5204V29.8226C31.3298 32.1845 29.4152 34.0991 27.0533 34.0991H5.10329C5.02087 34.0991 4.94003 34.0958 4.85919 34.0877C3.44431 33.9652 2.33398 32.7773 2.33398 31.3297V15.4745C2.33398 16.2388 2.64426 16.931 3.14553 17.4324C3.59211 17.8798 4.19142 18.1754 4.85919 18.2325C4.94003 18.2407 5.02087 18.2439 5.10329 18.2439H27.0533C29.4153 18.2438 31.3298 20.1584 31.3298 22.5204Z" fill="#00BD9D"/>
<path d="M4.85919 18.2324V34.0877C3.44431 33.9652 2.33398 32.7773 2.33398 31.3297V15.4745C2.33398 16.2388 2.64426 16.931 3.14553 17.4324C3.59211 17.8798 4.19134 18.1753 4.85919 18.2324Z" fill="#61AAB7"/>
<path d="M19.1078 29.4371C18.4787 29.4407 17.5791 29.444 16.9961 29.4436V22.2668C16.9961 21.9286 16.722 21.6545 16.3838 21.6545C16.0456 21.6545 15.7715 21.9286 15.7715 22.2668V30.0494C15.7715 30.3477 15.9864 30.6026 16.2804 30.6529C16.3242 30.6605 16.3719 30.6686 17.2154 30.6686C17.6276 30.6686 18.23 30.6667 19.1148 30.6617C19.453 30.6598 19.7256 30.3841 19.7237 30.046C19.7217 29.7079 19.4477 29.4328 19.1078 29.4371Z" fill="#F7FAFC"/>
<path d="M25.0998 25.6484C24.0835 25.2735 23.1419 24.8639 22.9203 24.7664C22.6414 24.5663 22.5056 24.2435 22.5557 23.8943C22.6173 23.4651 22.9436 23.1216 23.4286 22.9756C24.7235 22.5857 25.8849 23.5209 25.9059 23.538C26.1648 23.7539 26.5497 23.7199 26.7667 23.4617C26.9842 23.2029 26.9508 22.8166 26.6919 22.599C26.6245 22.5423 25.0184 21.2176 23.0754 21.803C22.1363 22.0859 21.4726 22.8206 21.3434 23.7202C21.2235 24.5557 21.5852 25.3592 22.2874 25.817C22.3144 25.8346 22.3428 25.8501 22.3723 25.8633C22.4169 25.8832 23.479 26.3559 24.6758 26.7974C25.578 27.1302 26.0344 27.6634 25.9278 28.2603C25.8253 28.834 25.189 29.4438 24.2114 29.4438C23.3369 29.4438 22.4919 29.0874 21.9508 28.4903C21.7237 28.2397 21.3363 28.2208 21.0859 28.4478C20.8354 28.6748 20.8163 29.0621 21.0434 29.3127C21.8128 30.1616 22.997 30.6684 24.2114 30.6684C25.654 30.6684 26.9102 29.7257 27.1334 28.4756C27.3901 27.0388 26.2511 26.073 25.0998 25.6484Z" fill="#F7FAFC"/>
<path d="M11.2509 25.885L13.5514 22.6194C13.7461 22.3429 13.6799 21.9609 13.4034 21.7661C13.127 21.5713 12.7449 21.6376 12.5502 21.9141L10.5024 24.821L8.45771 21.9145C8.26315 21.6379 7.88115 21.5715 7.60456 21.766C7.32797 21.9605 7.26148 22.3425 7.45604 22.6191L9.75317 25.8846L7.06295 29.7032C6.86823 29.9797 6.93441 30.3617 7.21092 30.5565C7.31814 30.632 7.44114 30.6683 7.56303 30.6683C7.75546 30.6683 7.94487 30.5778 8.06414 30.4086L10.5017 26.9484L12.9356 30.4083C13.0549 30.5778 13.2444 30.6684 13.437 30.6684C13.5587 30.6684 13.6817 30.6322 13.7888 30.5568C14.0654 30.3622 14.1318 29.9802 13.9373 29.7036L11.2509 25.885Z" fill="#F7FAFC"/>
</g>
<defs>
<clipPath id="clip0_1220_86294">
<rect width="40.5771" height="40.5771" fill="white" transform="translate(0.765625 0.48616)"/>
</clipPath>
</defs>
</svg>
