<svg width="71" height="70" viewBox="0 0 71 70" fill="none" xmlns="http://www.w3.org/2000/svg">
<circle cx="35.3552" cy="34.9802" r="34.9802" fill="url(#paint0_linear_1220_86292)"/>
<g clip-path="url(#clip0_1220_86292)">
<path d="M25.0974 36.7051V46.5878H17.334V39.4745C17.334 37.9454 18.5741 36.7051 20.1034 36.7051H21.5191H25.0974Z" fill="#BED8FB"/>
<path d="M54.7765 40.0616V61.8075C54.7765 63.6061 53.3191 65.0635 51.5214 65.0635H24.7747C23.2382 65.0635 21.9507 63.9988 21.6085 62.5668L21.5955 60.7053L21.5195 49.6197V27.7423C21.5196 25.9437 22.977 24.4863 24.7747 24.4863H39.2012C40.4977 24.4863 44.6966 28.0664 48.4082 31.8367C51.7949 35.278 54.7765 38.8777 54.7765 40.0616Z" fill="#DDEAFB"/>
<path d="M54.7761 40.0616V48.0276C54.7761 48.0186 54.7753 48.0096 54.7753 47.9998C54.5303 38.2254 46.5684 37.7732 43.9648 35.1695L48.4079 31.8368C51.7945 35.278 54.7761 38.8777 54.7761 40.0616Z" fill="#CBE2FF"/>
<path d="M39.2004 24.4863H31.2344C31.2433 24.4863 31.2524 24.4871 31.2621 24.4871C41.0365 24.7321 41.4888 32.694 44.0925 35.2976L47.4252 30.8545C43.9839 27.4679 40.3842 24.4863 39.2004 24.4863Z" fill="#CBE2FF"/>
<path d="M54.7771 40.062V41.4391C54.7771 38.5396 52.4259 36.1884 49.5264 36.1884H46.3307C44.5329 36.1884 43.0749 34.7304 43.0749 32.9327V29.737C43.0749 26.8375 40.7237 24.4863 37.8242 24.4863H39.2014C41.6812 24.4863 44.0602 25.4717 45.8136 27.225L52.0383 33.4497C53.7918 35.2032 54.7771 37.5822 54.7771 40.062Z" fill="#BED8FB"/>
<path d="M43.561 49.1265V56.4287C43.561 58.7907 41.6464 60.7053 39.2844 60.7053H21.5955L21.5195 49.6196V44.85H39.2844C41.6464 44.85 43.561 46.7645 43.561 49.1265Z" fill="#CBE2FF"/>
<path d="M46.3298 46.5204V53.8226C46.3298 56.1845 44.4152 58.0991 42.0533 58.0991H20.1033C20.0209 58.0991 19.94 58.0958 19.8592 58.0877C18.4443 57.9652 17.334 56.7773 17.334 55.3297V39.4745C17.334 40.2388 17.6443 40.931 18.1455 41.4324C18.5921 41.8798 19.1914 42.1754 19.8592 42.2325C19.94 42.2407 20.0209 42.2439 20.1033 42.2439H42.0533C44.4153 42.2438 46.3298 44.1584 46.3298 46.5204Z" fill="#00BD9D"/>
<path d="M19.8592 42.2324V58.0877C18.4443 57.9652 17.334 56.7773 17.334 55.3297V39.4745C17.334 40.2388 17.6443 40.931 18.1455 41.4324C18.5921 41.8798 19.1913 42.1753 19.8592 42.2324Z" fill="#61AAB7"/>
<path d="M34.1078 53.4371C33.4787 53.4407 32.5791 53.444 31.9961 53.4436V46.2668C31.9961 45.9286 31.722 45.6545 31.3838 45.6545C31.0456 45.6545 30.7715 45.9286 30.7715 46.2668V54.0494C30.7715 54.3477 30.9864 54.6026 31.2804 54.6529C31.3242 54.6605 31.3719 54.6686 32.2154 54.6686C32.6276 54.6686 33.23 54.6667 34.1148 54.6617C34.453 54.6598 34.7256 54.3841 34.7237 54.046C34.7217 53.7079 34.4477 53.4328 34.1078 53.4371Z" fill="#F7FAFC"/>
<path d="M40.0998 49.6484C39.0835 49.2735 38.1419 48.8639 37.9203 48.7664C37.6414 48.5663 37.5056 48.2435 37.5557 47.8943C37.6173 47.4651 37.9436 47.1216 38.4286 46.9756C39.7235 46.5857 40.8849 47.5209 40.9059 47.538C41.1648 47.7539 41.5497 47.7199 41.7667 47.4617C41.9842 47.2029 41.9508 46.8166 41.6919 46.599C41.6245 46.5423 40.0184 45.2176 38.0754 45.803C37.1363 46.0859 36.4726 46.8206 36.3434 47.7202C36.2235 48.5557 36.5852 49.3592 37.2874 49.817C37.3144 49.8346 37.3428 49.8501 37.3723 49.8633C37.4169 49.8832 38.479 50.3559 39.6758 50.7974C40.578 51.1302 41.0344 51.6634 40.9278 52.2603C40.8253 52.834 40.189 53.4438 39.2114 53.4438C38.3369 53.4438 37.4919 53.0874 36.9508 52.4903C36.7237 52.2397 36.3363 52.2208 36.0859 52.4478C35.8354 52.6748 35.8163 53.0621 36.0434 53.3127C36.8128 54.1616 37.997 54.6684 39.2114 54.6684C40.654 54.6684 41.9102 53.7257 42.1334 52.4756C42.3901 51.0388 41.2511 50.073 40.0998 49.6484Z" fill="#F7FAFC"/>
<path d="M26.2509 49.885L28.5514 46.6194C28.7461 46.3429 28.6799 45.9609 28.4034 45.7661C28.127 45.5713 27.7449 45.6376 27.5502 45.9141L25.5024 48.821L23.4577 45.9145C23.2631 45.6379 22.8812 45.5715 22.6046 45.766C22.328 45.9605 22.2615 46.3425 22.456 46.6191L24.7532 49.8846L22.063 53.7032C21.8682 53.9797 21.9344 54.3617 22.2109 54.5565C22.3181 54.632 22.4411 54.6683 22.563 54.6683C22.7555 54.6683 22.9449 54.5778 23.0641 54.4086L25.5017 50.9484L27.9356 54.4083C28.0549 54.5778 28.2444 54.6684 28.437 54.6684C28.5587 54.6684 28.6817 54.6322 28.7888 54.5568C29.0654 54.3622 29.1318 53.9802 28.9373 53.7036L26.2509 49.885Z" fill="#F7FAFC"/>
</g>
<defs>
<linearGradient id="paint0_linear_1220_86292" x1="35.3552" y1="0" x2="35.3552" y2="69.9605" gradientUnits="userSpaceOnUse">
<stop stop-color="#E6F0FF"/>
<stop offset="1" stop-color="#E6F0FF" stop-opacity="0"/>
</linearGradient>
<clipPath id="clip0_1220_86292">
<rect width="40.5771" height="40.5771" fill="white" transform="translate(15.7656 24.4862)"/>
</clipPath>
</defs>
</svg>
