<svg width="205" height="38" viewBox="0 0 205 38" fill="none" xmlns="http://www.w3.org/2000/svg">
<path d="M145.416 36.9404C145.672 37.0393 145.981 37.2549 146.103 37.42C146.225 37.5852 146.844 37.7379 146.749 37.6304C146.654 37.5229 146.341 37.2058 146.284 37.135C146.227 37.0649 146.572 36.8807 146.634 36.7641C146.634 36.7641 146.634 36.7641 146.727 36.711C146.95 36.5819 146.95 36.5819 146.95 36.5819C147.092 36.4024 147.255 36.2018 147.313 36.1357C147.371 36.0695 147.665 36.2884 147.748 36.3965C147.748 36.3965 147.748 36.3965 147.745 36.4948C147.743 36.5564 147.743 36.5564 147.743 36.5564C147.718 36.6376 147.782 36.8447 147.886 37.017C147.99 37.1894 148.018 37.7025 148.058 37.7136C148.098 37.7248 148.24 37.7084 148.284 37.6527C148.328 37.5963 148.557 37.4004 148.659 37.3198C148.761 37.2392 148.291 37.0446 148.236 36.9771C148.181 36.9096 148.184 36.7969 148.363 36.886C148.541 36.9751 149.06 36.7195 149.173 36.7438C149.287 36.768 149.161 37.0609 149.114 37.1553C149.114 37.1553 149.114 37.1553 149.098 37.2438C149.081 37.3336 149.081 37.3336 149.081 37.3336C149.089 37.4273 149.34 37.4744 149.64 37.4384C149.64 37.4384 149.64 37.4384 149.884 37.4476C149.926 37.4489 149.926 37.4489 149.926 37.4489C149.965 37.6547 150.052 37.7975 150.12 37.7661C150.188 37.7346 150.547 37.7464 150.765 37.7969C150.765 37.7969 150.765 37.7968 150.772 37.787C150.904 37.5983 150.904 37.5983 150.904 37.5983C150.676 37.5695 150.514 37.4843 150.545 37.4096C150.576 37.3349 150.795 37.1678 150.931 37.2818C151.068 37.3958 151.565 37.6723 151.769 37.6723C151.973 37.6723 152.527 37.6612 152.529 37.6474C152.53 37.6337 152.423 37.5885 152.285 37.5773C152.148 37.5662 151.749 37.4312 151.748 37.3054C151.748 37.1796 151.173 37.036 151.065 37.0197C150.958 37.0033 150.643 36.9076 150.599 36.8604C150.599 36.8604 150.599 36.8604 150.615 36.827C150.635 36.7857 150.732 36.7208 150.764 36.7281C151.313 36.8493 151.855 36.9921 152.446 36.9751C152.845 36.9633 152.845 36.9633 152.845 36.9633C153.038 37.1684 153.276 37.3689 153.375 37.4089C153.473 37.4489 153.685 37.2353 153.733 37.2084C153.782 37.1809 154.014 37.0944 154.121 37.0603C154.228 37.0262 154.484 36.8952 154.422 36.8539C154.359 36.8126 154.123 36.7274 154.035 36.7582C154.035 36.7582 154.035 36.7582 154.009 36.8028C153.87 37.04 153.87 37.04 153.87 37.04C153.565 37.0026 153.263 36.945 153.198 36.9122C153.133 36.8794 153.018 36.7051 153.021 36.6206C153.023 36.536 153.455 36.384 153.6 36.3657C153.6 36.3657 153.6 36.3657 153.608 36.3342C153.736 35.8526 154.117 36.1258 154.189 36.291C154.319 36.5859 154.736 36.6114 154.992 36.77C155.22 36.9115 155.22 36.9115 155.22 36.9115C155.37 37.0957 155.522 37.1684 155.558 37.0741C155.558 37.0741 155.558 37.0741 155.576 36.9869C155.608 36.8303 155.608 36.8303 155.608 36.8303C155.877 36.7438 156.28 36.5963 156.502 36.5033C156.502 36.5033 156.502 36.5033 156.542 36.3906C156.64 36.1121 156.897 36.1029 157.232 36.1049C157.376 36.1055 157.545 35.9823 157.661 36.0059C157.774 36.0288 157.824 36.173 157.922 36.2529C157.955 36.2811 157.955 36.2811 157.955 36.2811C158.082 36.2923 158.086 36.344 157.965 36.3971C157.844 36.4495 157.62 36.6396 157.722 36.7084C157.824 36.7772 158.58 36.5275 158.491 36.4463C158.491 36.4463 158.491 36.4463 158.447 36.365C158.321 36.1271 158.493 35.9876 158.858 36.0832C159.146 36.1579 159.223 35.9889 159.4 35.9758C159.622 35.9594 159.622 35.9594 159.622 35.9594C159.888 35.9751 160.386 36.0478 160.73 36.1206C160.73 36.1206 160.73 36.1206 160.92 36.0459C161.158 35.9522 161.158 35.9522 161.158 35.9522C161.374 35.9718 161.701 36.0262 161.884 36.0727C162.068 36.1193 162.706 35.9738 162.848 35.9515C162.989 35.9292 163.349 35.9699 163.526 35.9587C163.703 35.9476 164.256 35.9188 164.411 36.0223C164.566 36.1258 165.203 36.2399 165.47 36.0374C165.47 36.0374 165.47 36.0374 165.871 36.118C166.148 36.1737 166.148 36.1737 166.148 36.1737C166.437 36.1448 166.895 36.1252 167.167 36.1298C167.44 36.1343 168.203 36.2674 168.526 36.3355C168.849 36.4037 169.845 36.2464 170.235 36.289C170.235 36.289 170.235 36.289 170.624 36.1416C170.909 36.0328 170.909 36.0328 170.909 36.0328C171.421 36.1284 171.921 36.2248 172.021 36.2464C172.12 36.268 172.545 36.249 172.795 36.2503C173.044 36.2516 173.693 36.3368 173.719 36.2883C173.744 36.2399 173.887 36.1501 173.974 36.2045C174.061 36.2589 174.373 36.3296 174.484 36.2477C174.484 36.2477 174.484 36.2477 174.597 36.1901C174.674 36.1514 174.674 36.1514 174.674 36.1514C174.779 36.1343 174.914 36.156 174.975 36.2005C175.036 36.2451 175.25 36.3283 175.319 36.2824C175.389 36.2366 175.693 36.3244 175.758 36.3532C175.823 36.3821 176.167 36.4332 176.503 36.479C176.503 36.479 176.503 36.479 176.801 36.4004C176.955 36.3598 177.103 36.306 177.252 36.2569C177.447 36.1927 177.609 35.9889 177.872 36.1973C177.894 36.2143 178.045 36.1907 178.089 36.1579C178.377 35.943 178.512 35.8762 178.809 36.2117C179.008 36.4364 179.008 36.4364 179.008 36.4364C179.15 36.1691 179.319 36.0026 179.381 36.0662C179.443 36.1298 179.674 36.2621 179.728 36.1933C179.783 36.1245 180.006 35.9515 180.134 35.9247C180.262 35.8971 180.583 36.1416 180.659 36.2025C180.735 36.2641 181.004 36.1579 181.044 36.2104C181.084 36.2621 181.162 36.2824 181.137 36.1501C181.111 36.0177 181.61 36.2392 181.643 36.2503C181.643 36.2503 181.643 36.2503 181.674 36.2575C182.002 36.3323 182.01 35.9142 182.417 36.0531C182.633 36.1271 182.633 36.1271 182.633 36.1271C182.936 36.1232 183.256 36.1127 183.347 36.1035C183.436 36.0944 183.754 36.1435 183.961 36.1527C184.168 36.1619 184.776 36.0374 184.888 36.1468C184.888 36.1468 184.888 36.1468 185.028 36.2091C185.109 36.2451 185.109 36.2451 185.109 36.2451C185.259 36.2163 185.512 36.1232 185.672 36.038C185.831 35.9528 186.638 36.1783 186.718 36.0996C186.799 36.021 187.118 35.8945 187.217 35.9758C187.316 36.057 187.677 35.8899 187.735 35.9299C187.735 35.9299 187.735 35.9299 187.784 35.9686C187.843 36.0157 187.902 36.1094 187.951 36.1068C188.13 36.0963 188.438 36.2032 188.416 35.9614C188.409 35.8952 188.409 35.8952 188.409 35.8952C188.198 35.8172 188.103 35.7241 188.2 35.6874C188.297 35.6507 188.607 35.618 188.681 35.6933C188.754 35.7687 189.078 35.9548 189.074 35.7713C189.074 35.7713 189.074 35.7713 189.085 35.6828C189.091 35.6409 189.142 35.5636 189.156 35.5649C189.332 35.5845 189.332 35.5845 189.332 35.5845C189.523 35.6134 189.641 35.5236 189.594 35.3853C189.594 35.3853 189.594 35.3853 189.907 35.4443C189.966 35.4555 189.966 35.4555 189.966 35.4555C190.018 35.4987 190.223 35.4935 190.422 35.4437C190.621 35.3945 191.381 35.3925 191.602 35.4004C191.822 35.4089 192.52 35.1848 192.702 35.2005C192.885 35.2169 193.369 35.2857 193.44 35.1422C193.512 34.9987 194.348 34.9129 194.423 34.9279C194.423 34.9279 194.423 34.9279 194.434 34.9168C194.823 34.5217 194.823 34.5216 194.823 34.5216C195.512 34.462 196.129 34.4004 196.195 34.3853C196.26 34.3703 196.571 34.3775 196.816 34.3644C197.061 34.3513 198.072 34.3985 198.514 34.4247C198.514 34.4247 198.514 34.4247 198.602 34.0518C198.612 34.0105 198.786 33.9417 198.822 33.9561C199.076 34.0551 199.076 34.0551 199.076 34.0551C199.333 33.9778 199.597 33.8618 199.665 33.7982C199.733 33.7346 200.176 33.614 200.306 33.5695C200.437 33.5249 200.838 33.4397 200.892 33.4529C200.947 33.4666 201.129 33.4253 201.172 33.3277C201.172 33.3277 201.172 33.3277 201.255 33.2648C201.302 33.23 201.461 33.2255 201.535 33.2517C201.821 33.3539 202.14 33.3716 202.343 33.3801C202.787 33.3978 202.569 33.2726 202.545 33.1298C202.532 33.0544 202.807 32.9653 202.457 32.9358C202.296 32.9221 202.136 32.8736 201.989 32.8238C201.821 32.7668 201.85 32.7078 201.978 32.6173C202.116 32.5204 202.116 32.5203 202.116 32.5203C201.976 32.4325 201.701 32.2576 201.505 32.1304C201.31 32.004 201.073 31.5145 201.289 31.4889C201.289 31.4889 201.289 31.4889 201.446 31.5027C201.631 31.5184 201.631 31.5184 201.631 31.5184C201.827 31.5695 202.13 31.5564 202.304 31.4896C202.478 31.4227 202.438 30.8513 202.37 30.6246C202.304 30.3978 202.155 29.791 202.182 29.7838C202.209 29.7766 202.422 29.8755 202.577 30.0073C202.577 30.0073 202.577 30.0073 202.786 29.789C202.892 29.6783 202.892 29.6783 202.892 29.6783C202.852 29.5741 202.729 29.3873 202.618 29.2635C202.618 29.2635 202.618 29.2635 202.812 29.2032C202.915 29.1711 202.915 29.1711 202.915 29.1711C203.155 29.2583 203.297 29.2373 203.231 29.1233C203.231 29.1233 203.231 29.1232 203.218 29.0282C203.18 28.7661 203.18 28.7661 203.18 28.7661C203.351 28.5092 203.505 28.2045 203.524 28.0898C203.541 27.9751 203.323 27.5971 203.001 27.4929C202.679 27.3887 202.683 26.7897 202.917 26.8369C202.917 26.8369 202.917 26.8369 203.053 26.9129C203.199 26.9942 203.199 26.9942 203.199 26.9942C203.366 27.0682 203.688 26.9457 203.915 26.7209C203.915 26.7209 203.915 26.7209 203.796 26.5302C203.758 26.4686 203.762 26.3939 203.714 26.3369C203.598 26.1993 203.462 26.0695 203.336 25.9359C203.195 25.7858 203.031 26.1298 202.866 25.9228C202.819 25.8631 202.819 25.8631 202.819 25.8631C202.622 25.8343 202.644 25.7681 202.866 25.717C202.866 25.717 202.866 25.717 202.877 25.6613C202.894 25.5689 202.785 25.4562 202.691 25.3697C202.641 25.3245 202.501 25.3277 202.422 25.291C202.227 25.2013 202.171 24.9293 202.361 24.8893C202.598 24.8389 202.661 24.776 202.749 24.6351C202.795 24.561 202.795 24.561 202.795 24.561C203.129 24.5361 203.097 24.4391 202.723 24.3467C202.35 24.2544 201.341 23.8644 200.873 24.0748C200.873 24.0748 200.873 24.0748 200.304 24.0106C200.191 23.9975 199.95 24.1665 199.903 24.2773C199.786 24.5512 199.786 24.5512 199.786 24.5512C199.514 24.4719 199.367 24.2976 199.461 24.1639C199.461 24.1639 199.461 24.1639 199.445 24.0525C199.394 23.7124 199.307 23.3736 199.199 23.0394C199.175 22.9647 199.175 22.9647 199.175 22.9647C199.024 22.9025 198.834 22.8317 198.753 22.8068C198.671 22.7819 198.465 22.5794 198.318 22.5774C198.171 22.5755 197.74 22.5263 197.687 22.5027C197.633 22.4791 197.461 22.3618 197.398 22.3127C197.336 22.2635 197.037 22.4483 196.991 22.4785C196.945 22.5086 196.695 22.546 196.674 22.4116C196.652 22.2766 196.457 22.0447 196.278 22.1292C196.098 22.2137 195.604 22.0322 195.641 22.0053C195.678 21.9785 195.684 21.8677 195.574 21.8199C195.574 21.8199 195.574 21.8199 195.514 21.8376C195.262 21.911 194.972 22.1868 194.89 21.7458C194.889 21.7367 194.889 21.7367 194.889 21.7367C194.811 21.7347 194.621 21.7616 194.467 21.7963C194.313 21.831 193.811 21.6908 193.666 21.6842C193.521 21.677 193.067 21.7078 192.845 21.7072C192.623 21.7065 192.243 21.4306 192.401 21.3776C192.559 21.3245 192.901 21.0355 192.815 20.8527C192.73 20.6698 193.602 20.1515 193.527 20.1344C193.452 20.1174 193.37 19.9562 193.599 19.8324C193.599 19.8324 193.599 19.8323 193.594 19.7268C193.583 19.4909 193.583 19.4909 193.583 19.4909C193.812 19.4864 194.086 19.4208 194.192 19.3461C194.192 19.3461 194.192 19.3461 194.265 19.2681C194.428 19.0925 194.428 19.0925 194.428 19.0925C194.324 18.8907 194.318 18.5552 194.417 18.3468C194.417 18.3468 194.417 18.3468 194.478 18.1495C194.497 18.0886 194.497 18.0886 194.497 18.0886C194.463 18.0067 194.244 18.0217 194.011 18.1227C193.778 18.2236 193.057 18.0421 193.038 18.0087C193.019 17.9752 193.092 17.8422 193.242 17.7898C193.242 17.7898 193.242 17.7898 193.311 17.8173C193.472 17.8809 193.472 17.8809 193.472 17.8809C193.68 17.9647 193.816 17.9641 193.774 17.8795C193.774 17.8795 193.774 17.8795 193.742 17.8016C193.709 17.7203 193.709 17.7203 193.709 17.7203C193.677 17.6299 193.697 17.5683 193.754 17.584C193.81 17.5997 194.056 17.6181 194.176 17.5906C194.297 17.563 194.059 17.1685 193.966 16.9746C193.966 16.9746 193.966 16.9746 193.637 16.9261C193.572 16.9169 193.454 16.8953 193.456 16.8841C193.508 16.4392 193.508 16.4392 193.508 16.4392C192.988 16.2675 192.673 16.0788 192.809 16.0198C192.944 15.9608 193.47 16.0362 193.555 16.0185C193.639 16.0008 194.27 15.8488 194.757 15.7033C194.757 15.7033 194.757 15.7033 195.266 15.7708C195.494 15.8009 195.521 15.7085 195.583 15.5735C195.674 15.3737 195.674 15.3737 195.674 15.3737C195.818 15.5001 196.106 15.565 196.314 15.5185C196.523 15.472 197.171 15.2655 197.299 15.1817C197.299 15.1817 197.299 15.1817 197.282 15.1659C197.104 15.0001 197.104 15.0001 197.104 15.0001C197.215 14.8344 197.35 14.6686 197.401 14.6312C197.452 14.5938 197.624 14.5401 197.669 14.5945C197.669 14.5945 197.669 14.5945 197.729 14.6292C197.818 14.681 197.818 14.681 197.818 14.681C197.933 14.7249 198.164 14.7976 198.334 14.8429C198.503 14.8881 199.036 14.9641 199.12 14.9084C199.204 14.8527 199.379 14.605 199.292 14.5034C199.205 14.4019 198.57 14.5683 198.319 14.5729C198.319 14.5729 198.319 14.5729 198.28 14.4648C198.238 14.3488 198.373 14.0886 198.444 14.0866C199.564 14.0532 199.564 14.0532 199.564 14.0532C199.417 13.5342 199.429 13.0952 199.592 13.0781C199.754 13.0611 200.031 13.3009 200.072 13.2721C200.114 13.2433 200.235 13.1614 200.25 13.1515C200.264 13.1424 200.354 13.0296 200.42 12.9222C200.485 12.8147 200.263 12.4484 200.189 12.3612C200.189 12.3612 200.189 12.3612 200.167 12.276C200.148 12.1981 200.148 12.1981 200.148 12.1981C200.176 12.1063 200.289 12.0401 200.397 12.0519C200.397 12.0519 200.397 12.0519 200.493 12.067C200.571 12.0794 200.571 12.0795 200.571 12.0795C200.654 12.0991 200.747 12.0683 200.775 12.01C200.775 12.01 200.775 12.01 200.747 11.9818C200.596 11.8331 200.596 11.8331 200.596 11.8331C200.338 11.6103 200.369 11.4943 200.664 11.5755C200.664 11.5755 200.664 11.5755 200.829 11.5847C201.144 11.6017 201.144 11.6017 201.144 11.6017C201.503 11.5952 201.815 11.5126 201.837 11.4196C201.837 11.4196 201.837 11.4196 201.83 11.3527C201.764 10.6653 201.764 10.6653 201.764 10.6653C202.192 10.3802 202.6 10.1253 202.672 10.0991C202.672 10.0991 202.672 10.0991 202.693 10.0637C202.779 9.92022 202.779 9.92022 202.779 9.92022C202.75 9.74853 202.83 9.46348 202.956 9.2859C202.956 9.2859 202.956 9.28588 203.138 9.23608C203.597 9.11026 203.587 8.88616 203.564 8.63321C203.555 8.53754 203.555 8.53754 203.555 8.53754C203.559 8.3593 203.795 8.28655 204.078 8.37567C204.078 8.37567 204.078 8.37567 203.892 8.14565C203.72 7.93268 204.03 7.93728 204.122 7.85078C204.148 7.82653 204.323 8.1247 204.413 7.84816C204.425 7.81146 204.425 7.81146 204.425 7.81146C204.28 7.74855 204.137 7.68564 204.107 7.67187C204.077 7.65811 204.162 7.43793 204.37 7.21447C204.37 7.21447 204.37 7.21447 204.295 6.95956C204.275 6.89402 204.209 6.82851 204.219 6.76691C204.23 6.69548 204.23 6.69548 204.23 6.69548C204.294 6.62077 204.277 6.57162 204.193 6.58669C204.109 6.60176 203.75 6.56114 203.597 6.46088C203.445 6.36062 203.668 5.98054 203.559 5.9517C203.559 5.9517 203.559 5.9517 203.532 5.96808C203.247 6.13846 202.997 6.17122 202.751 5.93138C202.539 5.72365 202.539 5.72366 202.539 5.72366C202.31 5.87045 202.104 5.92549 202.083 5.84751C202.061 5.76887 201.703 5.49823 201.337 5.41829C201.337 5.41829 201.337 5.41829 201.086 5.77412C200.956 5.95826 200.956 5.95826 200.956 5.95826C200.604 5.75315 200.374 5.57163 200.444 5.5546C200.514 5.53821 200.691 5.44973 200.67 5.39731C200.67 5.39731 200.67 5.39731 200.654 5.39797C200.484 5.40321 200.314 5.41567 200.145 5.43271C200.067 5.44057 200.067 5.44057 200.067 5.44057C199.984 5.46153 199.882 5.42549 199.841 5.36061C199.8 5.29574 199.511 5.33048 199.482 5.28592C199.454 5.2407 199.292 5.11619 199.238 5.19417C199.183 5.27215 198.866 5.36718 198.707 5.15617C198.707 5.15617 198.707 5.15616 198.582 5.05656C198.514 5.00217 198.514 5.00216 198.514 5.00216C198.37 4.98644 198.102 5.02577 197.917 5.08868C197.732 5.15158 197.056 5.00675 196.922 5.07294C196.788 5.13912 196.393 5.2905 196.245 5.09915C196.245 5.09915 196.245 5.09916 196.117 4.96679C195.992 4.83769 195.992 4.8377 195.992 4.8377C195.76 4.82459 195.466 4.85866 195.338 4.91239C195.21 4.96613 194.952 4.70531 194.798 4.70859C194.644 4.71252 194.206 4.78657 194.149 4.82196C194.092 4.85734 193.824 4.90978 193.761 4.801C193.698 4.69222 193.402 4.42746 193.254 4.46809C193.105 4.50872 192.746 4.44974 192.628 4.41435C192.511 4.37897 192.177 4.48645 192.118 4.45303C192.118 4.45303 192.118 4.45302 192.11 4.41829C192.08 4.29313 192.08 4.29312 192.08 4.29312C191.943 4.31016 191.579 4.41306 191.273 4.52118C191.273 4.52118 191.273 4.52117 191.234 4.17779C191.231 4.15224 191.231 4.15224 191.231 4.15224C191.164 4.1293 190.859 4.06378 190.553 4.00677C190.247 3.94976 189.218 4.08015 188.952 4.06966C188.952 4.06966 188.952 4.06968 188.758 4.10834C188.56 4.14766 188.429 4.32787 188.418 4.03233C188.417 4.00218 188.19 3.94254 188.182 3.94975C187.942 4.1837 187.58 3.99497 187.512 3.93271C187.294 3.73416 186.989 4.00349 186.754 3.81672C186.666 3.74595 186.666 3.74595 186.666 3.74595C186.289 3.83638 185.936 3.91764 185.881 3.92681C185.826 3.93599 185.53 3.81411 185.323 3.68436C185.116 3.55461 184.403 3.78264 184.364 3.76757C184.364 3.76757 184.364 3.76757 184.364 3.75381C184.38 3.40322 184.38 3.40322 184.38 3.40322C184.033 3.4753 183.516 3.44124 183.23 3.32657C183.23 3.32657 183.23 3.32656 182.983 3.5972C182.859 3.73089 182.859 3.73087 182.859 3.73087C182.602 3.63978 182.263 3.51988 182.105 3.46483C182.105 3.46483 182.105 3.46482 181.942 3.4373C181.89 3.42878 181.89 3.42878 181.89 3.42878C181.837 3.41502 181.655 3.41305 181.485 3.42354C181.315 3.43468 180.72 3.39471 180.542 3.42092C180.364 3.44713 179.921 3.29837 179.877 3.33573C179.833 3.37308 179.646 3.46417 179.607 3.41502C179.607 3.41502 179.607 3.41502 179.567 3.3757C179.522 3.3318 179.522 3.33181 179.522 3.33181C179.467 3.28659 179.407 3.27806 179.389 3.31279C179.371 3.34752 179.281 3.46549 179.236 3.48449C179.236 3.48449 179.236 3.48449 179.193 3.47597C178.875 3.41437 178.875 3.41436 178.875 3.41436C178.514 3.3639 178.166 3.30101 178.101 3.27545C178.101 3.27545 178.101 3.27544 178.056 3.24071C177.731 2.99104 177.731 2.99103 177.731 2.99103C177.485 3.2217 177.232 3.35277 177.169 3.28265C177.106 3.21253 176.898 3.06902 176.835 3.10702C176.772 3.14503 176.636 2.99956 176.626 2.72696C176.626 2.72696 176.626 2.72696 176.162 3.07165C176.081 3.13128 176.081 3.13128 176.081 3.13128C175.843 3.09786 175.531 3.07755 175.39 3.08607C175.248 3.09393 174.921 3.14898 174.911 3.06379C174.902 2.9786 174.419 2.9668 174.344 3.02709C174.27 3.08738 174.138 2.98121 174.149 2.72302C174.149 2.72302 174.149 2.72303 173.639 3.04675C173.588 3.07952 173.306 2.95369 173.134 2.89668C173.044 2.86654 173.044 2.86653 173.044 2.86653C172.955 2.82852 172.584 2.73155 172.218 2.65094C171.853 2.57034 170.909 2.93009 170.834 2.93206C170.759 2.93403 170.308 2.87243 169.996 2.82525C169.683 2.77807 168.539 2.8069 168.309 2.82853C168.309 2.82853 168.309 2.82852 168.21 2.76757C167.972 2.62079 167.972 2.62079 167.972 2.62079C167.761 2.70073 167.466 2.77677 167.318 2.78987C167.318 2.78987 167.318 2.78986 167.177 2.79051C166.921 2.79182 166.921 2.79183 166.921 2.79183C166.663 2.70337 166.34 2.60769 166.206 2.57951C166.071 2.55133 165.406 2.50808 165.05 2.50808C165.05 2.50808 165.05 2.50808 164.726 2.50022C164.631 2.4976 164.631 2.4976 164.631 2.4976C164.529 2.46287 164.43 2.4858 164.412 2.54871C164.393 2.61162 164.01 2.57689 163.956 2.52643C163.901 2.47598 163.666 2.36851 163.581 2.42552C163.496 2.48253 163.196 2.57754 163.075 2.53035C162.953 2.48317 162.432 2.3482 162.185 2.33509C162.185 2.33509 162.185 2.33508 162.104 2.41896C161.927 2.6031 161.72 2.23745 161.526 2.47008C161.444 2.56903 161.444 2.56903 161.444 2.56903C161.14 2.46156 160.822 2.41371 160.737 2.46286C160.652 2.51201 160.392 2.61228 160.368 2.56641C160.344 2.52054 160.235 2.41175 160.178 2.42682C160.122 2.4419 159.939 2.42157 159.895 2.34687C159.851 2.27217 159.138 2.29641 158.717 2.23088C158.717 2.23088 158.717 2.23089 158.253 2.33181C157.88 2.41307 157.378 2.44583 156.932 2.2322C156.718 2.12997 156.718 2.12997 156.718 2.12997C156.312 2.18305 155.94 2.26168 155.89 2.30427C155.84 2.34752 155.595 2.36392 155.472 2.22368C155.349 2.08345 154.784 2.32262 154.745 2.26758C154.707 2.21253 154.547 2.0841 154.524 2.17322C154.502 2.263 154.375 2.36653 154.284 2.24792C154.193 2.12931 153.529 2.30429 153.255 2.2499C153.255 2.2499 153.255 2.24989 152.931 2.28789C152.503 2.3377 152.503 2.33771 152.503 2.33771C151.987 2.19682 151.536 2.12343 151.501 2.17388C151.466 2.22434 151.327 2.32656 151.286 2.2689C151.245 2.21123 151.06 2.06379 150.956 2.05723C150.956 2.05723 150.956 2.05723 150.919 2.08213C150.614 2.28593 150.614 2.28594 150.614 2.28594C150.208 2.25383 149.656 2.24137 149.39 2.25776C149.123 2.27414 148.287 2.17782 148.092 2.29839C148.092 2.29839 148.092 2.29838 147.861 2.07951C147.822 2.04216 147.535 2.14438 147.364 2.14045C146.862 2.12865 146.862 2.12867 146.862 2.12867C146.311 2.10049 145.541 2.03232 145.149 1.97662C145.149 1.97662 145.149 1.97662 144.857 2.2086C144.798 2.25513 144.798 2.25514 144.798 2.25514C144.606 2.22827 144.316 2.2073 144.154 2.20926C143.992 2.21123 143.592 2.27742 143.575 2.2014C143.558 2.12604 143.025 2.16733 142.839 2.31739C142.839 2.31739 142.839 2.3174 142.551 2.12867C142.457 2.06773 142.457 2.06771 142.457 2.06771C142.197 2.10703 141.888 2.14897 141.77 2.16143C141.653 2.17388 141.222 2.2132 141.064 2.21516C141.064 2.21516 141.064 2.21516 140.921 2.21516C140.813 2.21516 140.699 2.22891 140.598 2.21122C140.485 2.19222 140.389 2.13062 140.276 2.11489C140.209 2.10572 140.209 2.10573 140.209 2.10573C140.121 2.13719 139.949 2.13587 139.826 2.10245C139.703 2.06903 139.322 2.1765 139.133 2.2807C139.133 2.2807 139.133 2.28069 139.139 2.00808C139.139 2.00611 139.139 2.00612 139.139 2.00612C139.024 2.00415 138.614 2.08672 138.228 2.18894C138.228 2.18894 138.228 2.18894 137.872 2.20008C137.593 2.2086 137.593 2.2086 137.593 2.2086C137.278 2.10572 136.963 1.99956 136.893 1.974C136.822 1.94844 136.563 2.071 136.453 2.23024C136.453 2.23024 136.453 2.23024 136.114 2.14505C135.937 2.10049 135.616 2.05789 135.551 2.11359C135.273 2.35147 135.182 1.96156 134.925 2.05985C134.702 2.1457 134.702 2.14571 134.702 2.14571C134.384 2.15685 133.976 2.20139 133.795 2.2453C133.795 2.2453 133.795 2.24531 133.737 2.2073C133.397 1.98122 133.397 1.98122 133.397 1.98122C133.033 2.09459 132.677 2.14898 132.606 2.10311C132.536 2.05724 132.261 1.9727 132.19 2.04348C132.117 2.11425 131.9 2.31609 131.886 2.31543C131.872 2.31478 131.656 2.2394 131.46 2.16863C131.265 2.09785 130.446 2.0887 130.185 2.11753C129.923 2.14636 129.222 2.09262 129.02 2.15357C128.818 2.21385 128.299 1.99237 128.121 2.06969C128.121 2.06969 128.121 2.06968 128.115 2.06443C127.622 1.60769 127.622 1.60769 127.622 1.60769C126.967 1.80101 126.3 1.95632 126.14 1.9537C125.979 1.95108 125.681 1.90849 125.7 2.03562C125.719 2.1634 125.094 1.91569 124.933 1.86589C124.772 1.81609 124.423 1.85408 124.304 1.87243C124.185 1.89078 123.879 1.82459 123.851 1.86981C123.823 1.91503 123.679 2.02841 123.623 1.97336C123.567 1.91832 123.2 1.78332 122.922 1.78398C122.922 1.78398 122.922 1.78397 122.692 1.87375L122.005 2.04414C121.847 1.96353 121.847 1.96352 121.847 1.96352C121.641 1.85802 121.444 1.80495 121.408 1.84623C121.373 1.88752 121.095 2.03757 120.922 2.11555C120.922 2.11555 120.922 2.11555 120.555 1.87505C120.513 1.84818 120.513 1.84819 120.513 1.84819C120.422 1.8495 120.265 1.89145 120.163 1.9419C120.061 1.99236 119.43 1.9727 119.044 1.85409C119.044 1.85409 119.044 1.85409 119.013 1.83181C118.867 1.72828 118.867 1.72826 118.867 1.72826C118.684 1.782 118.579 1.99629 118.632 2.20402C118.632 2.20402 118.632 2.20402 118.164 2.00088C117.807 1.84623 117.807 1.84623 117.807 1.84623C117.832 2.04151 117.824 2.08868 117.79 1.95172C117.755 1.81411 117.241 2.02382 117.214 2.01858C117.187 2.01334 116.957 1.98383 116.763 1.95106C116.57 1.9183 115.85 2.07821 115.657 2.11425C115.464 2.15029 114.987 1.96614 114.916 2.01398C114.844 2.06182 114.644 2.18895 114.628 2.19288C114.611 2.19682 114.514 2.14701 114.43 2.09065C114.346 2.0343 113.97 1.97008 113.821 2.0094C113.821 2.0094 113.821 2.00939 113.677 2.01726C113.594 2.02185 113.446 1.91897 113.422 1.93339C113.179 2.08214 113.179 2.08213 113.179 2.08213C112.932 2.00612 112.481 2.00677 112.176 2.08475C112.176 2.08475 112.176 2.08476 111.894 2.15095C111.782 2.17716 111.782 2.17714 111.782 2.17714C111.642 2.17649 111.46 2.13653 111.377 2.08935C111.294 2.04151 110.946 2.0297 110.837 1.974C110.728 1.9183 110.033 2.0402 109.693 2.05723C109.693 2.05723 109.693 2.05723 109.375 2.07361C109.105 2.08737 109.105 2.08737 109.105 2.08737C108.821 2.14832 108.543 2.16339 108.487 2.12145C108.431 2.07951 108.1 1.99301 107.877 2.02316C107.877 2.02316 107.877 2.02316 107.705 2.08017C107.524 2.14046 107.374 2.3305 107.364 2.01792C107.364 2.0094 107.232 1.993 107.163 1.99628C106.746 2.01856 106.317 2.09786 105.918 2.05462C105.61 2.02119 105.61 2.0212 105.61 2.0212C105.366 2.09787 105.112 2.16536 105.045 2.17256C104.978 2.17912 104.674 2.1339 104.506 2.10113C104.338 2.06837 103.298 2.12734 103.01 2.19418C102.721 2.26102 101.923 1.93404 101.738 1.93928C101.554 1.94453 100.872 1.87768 100.638 1.79774C100.404 1.71779 99.8627 2.05789 99.8004 2.05134C99.7381 2.04478 99.3915 1.87243 99.2437 2.0048C99.2437 2.0048 99.2437 2.0048 99.0912 2.02774C98.9322 2.05198 98.7053 1.90652 98.5616 1.93928C98.2628 2.00744 98.2628 2.00744 98.2628 2.00744C98.1047 1.88621 97.8787 1.79184 97.7604 1.79774C97.7604 1.79774 97.7605 1.79773 97.687 1.83377C97.5512 1.90061 97.5512 1.90061 97.5512 1.90061C97.425 1.99432 97.2596 2.02972 97.1838 1.97926C97.1079 1.9288 96.9058 1.86589 96.8914 1.94518C96.877 2.02448 96.4186 2.03757 96.3435 1.97466C96.2684 1.91175 95.9385 1.82984 95.8674 1.90127C95.7963 1.97335 95.5599 2.17257 95.5136 2.16995C95.5136 2.16995 95.5136 2.16994 95.4976 2.14701C95.2691 1.82132 94.9241 2.0913 94.6398 2.07557C94.5032 2.06771 94.5032 2.06771 94.5032 2.06771C94.3027 2.01726 94.0662 1.98842 93.9768 2.00284C93.8873 2.01791 93.6445 2.03496 93.4864 2.08345C93.3282 2.13194 92.6477 1.98973 92.3593 2.05068C92.3593 2.05068 92.3593 2.05067 92.0398 1.99628C91.8633 1.96614 91.6205 2.09459 91.4536 2.05789C91.1684 1.99499 91.1684 1.99498 91.1684 1.99498C90.8857 2.03561 90.4503 2.08344 90.2011 2.10113C90.2011 2.10113 90.2011 2.10115 89.9679 2.07231C89.5613 2.02185 89.5613 2.02184 89.5613 2.02184C89.1045 1.99431 88.6691 1.96746 88.5948 1.96156C88.5206 1.95567 88.2809 2.07886 88.1675 2.18502C88.0541 2.29053 87.5469 2.12407 87.4622 2.17256C87.3776 2.22171 87.1084 2.31477 87.0517 2.27218C87.0517 2.27218 87.0517 2.27217 87.0621 2.24006C87.094 2.14307 87.2178 1.97336 87.1995 1.9668C86.9319 1.87244 86.9319 1.87243 86.9319 1.87243C86.8719 2.02053 86.7641 2.15618 86.693 2.17452C86.6212 2.19287 86.4191 2.13979 86.3472 2.09523C86.2753 2.05067 86.0221 1.97138 85.9398 2.0225C85.8576 2.07361 85.6275 2.02971 85.6092 1.81346C85.6092 1.81346 85.6092 1.81347 85.1922 1.95632C85.1786 1.96091 85.1786 1.9609 85.1786 1.9609C85.2449 2.0723 85.0756 2.13587 84.8032 2.10179C84.5308 2.06772 83.8775 2.32263 83.8184 2.28266C83.8184 2.28266 83.8184 2.28266 83.8199 2.24728C83.8295 2.00023 83.8295 2.00022 83.8295 2.00022C83.5795 2.04544 83.3239 2.12014 83.2608 2.16733C83.1977 2.21451 82.9861 2.30757 82.9677 2.22762C82.9501 2.14833 82.7632 2.02643 82.5907 2.12211C82.4182 2.21778 81.7137 2.06706 81.5212 2.06443C81.3287 2.06116 80.8255 2.23942 80.7855 2.30101C80.7456 2.36261 80.2256 2.24727 80.1561 2.18436C80.0866 2.12145 79.712 2.05986 79.5882 2.2866C79.5882 2.2866 79.5882 2.28659 79.2168 2.21582C78.8246 2.14112 79.4588 1.97139 79.1737 1.94386C78.8845 1.91569 78.8845 1.91569 78.8845 1.91569C78.5514 1.92158 77.7599 1.92617 77.1257 1.92617C77.1257 1.92617 77.1257 1.92617 76.549 1.92617C76.2606 1.92617 75.9723 1.9183 75.6847 1.92879C75.4443 1.9373 75.4443 1.9373 75.4443 1.9373C75.1871 1.97138 74.779 1.88881 74.537 1.75382C74.537 1.75382 74.537 1.75384 74.2782 1.99892C74.124 2.14505 74.124 2.14505 74.124 2.14505C74.1024 2.01268 73.9682 1.82591 73.8253 1.72958C73.8253 1.72958 73.8253 1.72958 73.7039 1.83311C73.509 1.99891 73.509 1.99892 73.509 1.99892C73.2749 1.94781 72.9323 1.88095 72.7494 1.85015C72.5656 1.81935 71.9602 1.73482 71.8148 1.66667C71.6694 1.59852 71.1311 1.78986 70.941 1.79904C70.7509 1.80821 70.1918 1.8731 70.0943 1.83509C69.9969 1.79643 69.6039 1.70795 69.3483 1.66601C69.3483 1.66601 69.3483 1.66601 69.1566 1.58476C68.794 1.43141 68.794 1.43141 68.794 1.43141C68.6382 1.61293 68.4976 1.70207 68.4817 1.62867C68.4657 1.55528 68.2412 1.37048 68.0288 1.43011C67.8171 1.48909 67.1054 1.63916 66.8897 1.63981C66.6749 1.64047 65.9121 1.379 65.4991 1.37113C65.4991 1.37113 65.4991 1.37113 65.1565 1.38423C64.8066 1.39734 64.4799 1.34624 64.1445 1.35475C63.9136 1.36 63.9136 1.35999 63.9136 1.35999C63.7267 1.28267 63.3992 1.26236 63.1868 1.31544C63.1868 1.31544 63.1868 1.31542 63.0789 1.27086C62.7443 1.13325 62.6452 1.1955 62.6077 1.42617C62.6045 1.44517 62.6045 1.44519 62.6045 1.44519C62.416 1.44912 61.9871 1.30756 61.6516 1.12997C61.6516 1.12997 61.6516 1.12998 61.1476 1.40193C61.0973 1.42945 61.0973 1.42945 61.0973 1.42945C61.0414 1.45959 60.9918 1.38751 60.9862 1.26824C60.9806 1.14898 60.3321 1.28464 60.1803 1.32068C60.0285 1.35672 59.4886 1.32002 59.328 1.28988C59.1683 1.25974 58.6667 1.16536 58.5373 1.18961C58.4079 1.21386 57.9047 1.08083 57.6195 1.10508C57.3336 1.12932 56.4925 1.08805 56.3727 1.12605C56.2529 1.16406 55.9973 1.32394 55.9709 1.27348C55.9446 1.22302 55.7904 1.13916 55.7321 1.28398C55.7321 1.28398 55.7321 1.28398 55.6434 1.30954C55.4989 1.35082 55.4989 1.35082 55.4989 1.35082C55.3104 1.33312 54.887 1.30429 54.5579 1.2866C54.5579 1.2866 54.558 1.2866 54.3678 1.19093C54.1131 1.06314 54.1131 1.06314 54.1131 1.06314C53.9261 1.13784 53.7065 1.19945 53.625 1.19945C53.5435 1.19945 53.3223 1.1254 53.2536 1.0946C53.1841 1.0638 52.7152 1.14768 52.4628 1.19355C52.2104 1.23942 51.482 1.08082 51.4165 1.06444C51.351 1.04806 51.0219 1.34163 51.0003 1.25644C50.9788 1.17125 50.7495 0.977947 50.5283 0.977947C50.5283 0.977947 50.5283 0.977957 50.3326 0.987786C50.0802 1.00024 50.0802 1.00023 50.0802 1.00023C49.8126 1.09 49.4356 1.14242 49.2415 1.11556C49.0474 1.08869 48.4467 0.949767 48.2998 0.926831C48.1528 0.903896 47.7734 1.02317 47.751 0.94453C47.7287 0.865893 47.6176 0.664062 47.5529 0.667994C47.5529 0.667994 47.5529 0.667982 47.521 0.688952C47.2654 0.856054 47.0505 1.05265 46.6168 0.850158C46.4906 0.791181 46.4906 0.791183 46.4906 0.791183C46.2462 0.829846 45.9499 0.85147 45.8316 0.839019C45.7134 0.826568 45.3564 0.918323 45.2773 0.925532C45.2773 0.925532 45.2773 0.925533 45.2094 0.914392C44.9498 0.870487 44.9498 0.870476 44.9498 0.870476C44.6655 0.820018 44.2485 0.798394 44.0225 0.82264C44.0225 0.82264 44.0225 0.822633 43.8148 0.835739C43.6543 0.845569 43.6543 0.845578 43.6543 0.845578C43.4378 0.713207 43.2006 0.667337 43.1271 0.744007C43.0536 0.820678 42.8188 0.915687 42.7118 0.844258C42.6047 0.77283 42.179 0.623428 42.0664 0.71255C41.9538 0.801671 41.5648 0.882924 41.2269 0.903893C41.2269 0.903893 41.2269 0.903904 40.9569 0.93929C40.6909 0.974021 40.6909 0.974007 40.6909 0.974007C40.4952 0.911098 40.175 0.851484 39.9793 0.840999C39.9793 0.840999 39.9792 0.840989 39.8091 0.777424C39.7269 0.746625 39.7269 0.746627 39.7269 0.746627C39.6006 0.763009 39.1765 0.707302 38.7843 0.621458C38.7843 0.621458 38.7843 0.621458 38.3993 0.8305C38.1957 0.941246 38.1957 0.94125 38.1957 0.94125C37.8067 0.924868 37.472 0.821321 37.4504 0.71123C37.4288 0.601139 36.9528 0.676499 36.8362 0.719749C36.7196 0.762999 36.2411 0.789875 36.083 0.814121C35.9248 0.838367 35.535 0.685676 35.5031 0.697471C35.4711 0.709267 35.3289 0.794465 35.2467 0.845578C35.1644 0.896692 34.5494 1.00154 34.6429 0.927491C34.7363 0.853442 34.7179 0.77153 34.4408 0.871136C34.4408 0.871136 34.4408 0.871126 34.142 0.643736C34.0166 0.548717 33.5917 0.618191 33.3049 0.631297C33.0933 0.640471 33.0933 0.640456 33.0933 0.640456C32.9319 0.749236 32.7602 0.8436 32.7115 0.849498C32.6628 0.855396 32.2618 0.860651 31.8696 0.890795C31.8696 0.890795 31.8696 0.890793 31.5988 0.647675C31.5565 0.609668 31.5565 0.609659 31.5565 0.609659C31.1771 0.717128 30.9023 0.745967 30.9462 0.672573C30.9902 0.599834 31.0613 0.415705 31.0293 0.388837C30.9966 0.362625 30.7178 0.320019 30.4638 0.291186C30.2098 0.262352 29.5069 0.439279 29.3927 0.392097C29.3927 0.392097 29.3927 0.392096 29.3392 0.411755C29.0924 0.504153 29.0924 0.504168 29.0924 0.504168C28.7968 0.494338 28.4406 0.532993 28.3016 0.59066C28.1626 0.648327 27.6578 0.317407 27.3375 0.156857C27.3375 0.156857 27.3375 0.156844 27.026 0.24531C26.6626 0.348192 26.6626 0.348201 26.6626 0.348201C26.4485 0.211242 26.2457 0.0965685 26.2121 0.0946026C26.1786 0.0919814 26.0492 0.0644493 25.9501 0.0113697C25.8511 -0.0417099 25.4325 0.105746 25.3223 0.151618C25.2129 0.197489 24.7823 0.287256 24.8678 0.150298C24.9533 0.0133393 24.4604 0.129327 24.3686 0.116221C24.2759 0.10377 23.9133 0.13129 23.7743 0.211893C23.6353 0.292495 23.1082 0.280711 23.1441 0.24467C23.1809 0.208628 22.7216 0.126056 22.0426 0.142438C22.0426 0.142438 22.0426 0.142429 21.7934 0.268248C21.3302 0.502191 21.3302 0.502188 21.3302 0.502188C21.2902 0.253172 21.0873 0.174537 20.8805 0.327223C20.8805 0.327223 20.8805 0.327225 20.4491 0.223032C19.9971 0.113596 19.4307 0.159482 18.9203 0.323963C18.7286 0.385562 18.4531 0.51465 18.116 0.36262C17.9635 0.293813 17.5537 0.446504 17.2885 0.535625C17.1591 0.57953 17.6136 0.682408 17.3213 0.763665C17.2382 0.786601 17.0784 0.660779 16.9658 0.669953C16.7861 0.683715 16.5129 0.724344 16.4618 0.805602C16.2965 1.0651 16.2965 1.0651 16.2965 1.0651C15.9315 1.14243 15.4386 1.25513 15.2014 1.31608C14.9642 1.37702 14.2014 1.47663 14.0592 1.45829C13.917 1.43994 13.4817 1.5402 13.3795 1.51202C13.2772 1.48384 13.0679 1.46156 13.0903 1.57952C13.1119 1.69747 12.5847 1.52774 12.4953 1.5048C12.4058 1.48187 12.036 1.50284 11.7492 1.5048C11.4617 1.50677 10.7444 1.75775 10.6685 1.7394C10.5926 1.72105 10.3378 1.70926 10.3315 1.77414C10.3259 1.83901 10.0639 2.02906 9.76993 1.98122C9.47598 1.93338 8.5742 2.20205 8.22755 2.27414C8.22755 2.27414 8.22757 2.27413 8.11893 2.57033C8.06541 2.71712 7.55103 2.73612 7.45438 3.02249C7.41045 3.15159 7.41045 3.15158 7.41045 3.15158C7.07977 3.24988 6.75388 3.34688 6.68678 3.36588C6.61969 3.38489 6.49828 3.52185 6.56856 3.62866C6.56856 3.62866 6.56857 3.62865 6.56297 3.63062C6.27065 3.72498 6.27065 3.72497 6.27065 3.72497C6.38486 3.8829 6.46953 4.13258 6.45914 4.27936C6.45914 4.27936 6.45915 4.27937 6.4296 4.41895C6.36809 4.71253 6.36807 4.71253 6.36807 4.71253C6.28021 5.03363 6.14923 5.30491 6.07735 5.3154C6.07735 5.3154 6.07733 5.3154 6.00705 5.31934C5.93356 5.32327 5.93358 5.32328 5.93358 5.32328C5.8513 5.32196 5.77939 5.34817 5.7722 5.38159C5.76501 5.41501 5.92398 5.5061 6.08134 5.56311C6.08134 5.56311 6.08133 5.56311 6.21153 5.62667C6.24028 5.64109 6.21793 5.71906 6.19077 5.75904C6.17879 5.77608 6.09412 5.77871 6.04538 5.77478C6.01743 5.77216 5.99747 5.73217 5.96793 5.72824C5.79938 5.70793 5.79939 5.70792 5.79939 5.70792C5.61247 5.69088 5.46709 5.71513 5.47667 5.76166C5.48627 5.80818 5.34091 6.03099 5.13483 6.15222C5.13483 6.15222 5.13481 6.15223 4.99904 6.28525C4.91197 6.3711 4.91196 6.37111 4.91196 6.37111C4.89758 6.5428 5.08609 6.62142 5.32971 6.54475C5.57413 6.46808 6.16521 6.52969 5.96472 6.89338C5.76424 7.25707 5.72108 8.24395 5.92078 8.29048C6.12047 8.33701 6.666 8.48773 6.59572 8.50214C6.52542 8.51656 6.26105 8.64237 6.07973 8.7387C6.07973 8.7387 6.07973 8.73871 6.01105 8.85273C5.81056 9.18563 5.68275 8.67646 5.47748 8.84487C5.35846 8.94251 5.35847 8.94251 5.35847 8.94251C5.11087 9.01787 4.97906 9.16531 5.06453 9.27082C5.14999 9.37632 4.89919 9.92677 4.84966 10.1856C4.84966 10.1856 4.84967 10.1856 5.01022 10.4261C5.18434 10.6856 4.86244 11.1279 4.45428 11.1542C4.10922 11.1764 4.10922 11.1764 4.10922 11.1764C3.72342 11.2295 3.55971 11.2806 3.74341 11.2898C3.92792 11.299 4.45029 11.3979 4.45029 11.4864C4.45029 11.5749 4.26419 11.8507 4.03656 11.8206C4.03656 11.8206 4.03654 11.8206 3.82088 11.7977C3.69946 11.7846 3.69946 11.7846 3.69946 11.7846C3.56767 11.7839 3.356 11.8023 3.22821 11.8252C3.1004 11.8481 2.46063 11.797 2.16031 11.8049C1.85918 11.8127 1.50053 12.3573 1.53967 12.4038C1.53967 12.4038 1.53966 12.4038 1.6994 12.3868C2.01572 12.3527 2.18347 12.5244 2.06046 12.7026C1.97659 12.8245 1.9015 12.9798 1.74974 13.0428C1.41826 13.1804 1.41826 13.1804 1.41826 13.1804C1.39749 13.4176 1.31203 13.5591 1.22815 13.4949C1.22815 13.4949 1.22816 13.4949 1.1443 13.4798C1.05803 13.4648 0.916641 13.4772 0.863922 13.5165C0.814407 13.5532 0.808807 13.6581 0.852737 13.7026C0.996521 13.8481 1.1954 13.934 1.48296 13.9064C1.53726 13.9012 1.65788 13.9831 1.66267 14.029C1.66826 14.0794 1.59477 14.1587 1.52368 14.1836C1.29124 14.2629 1.29126 14.2629 1.29126 14.2629C1.01968 14.3337 1.02846 14.4811 1.31042 14.5899C1.31042 14.5899 1.31044 14.5899 1.56044 14.6004C1.76253 14.6089 1.76251 14.6089 1.76251 14.6089C2.05406 14.491 2.29048 14.5552 2.28809 14.7518C2.28809 14.7518 2.2881 14.7518 2.33122 14.8822C2.39352 15.0722 2.39354 15.0722 2.39354 15.0722C2.66989 15.1312 3.02774 15.1876 3.18909 15.1974C3.34962 15.2072 3.30969 15.6168 3.20505 15.8383C3.10042 16.0598 2.90953 16.7845 3.07567 16.8416C3.24181 16.8986 3.09402 17.2806 2.99579 17.3481C2.89754 17.4156 2.7338 17.6436 2.86479 17.7052C2.86479 17.7052 2.86478 17.7052 3.02933 17.7537C3.1691 17.795 3.34085 17.5794 3.4958 17.7708C3.51497 17.7944 3.51497 17.7943 3.51497 17.7943C3.65315 17.7747 3.90636 17.7118 4.07809 17.6541C4.24982 17.5965 4.92636 17.698 5.21071 17.7485C5.49507 17.799 6.43837 17.5866 6.6692 17.5087C6.90004 17.4307 7.75151 17.4752 7.93044 17.4484C8.10936 17.4215 8.56383 17.2321 8.61974 17.3101C8.67564 17.3881 8.78986 17.6613 8.7675 17.7708C8.74513 17.8802 8.1956 17.9392 8.0654 17.9379C8.0654 17.9379 8.0654 17.9379 8.0071 17.9772C7.88409 18.0604 7.98714 18.2727 7.63249 18.24C7.57578 18.2347 7.57579 18.2347 7.57579 18.2347C7.47995 18.3881 7.26508 18.4044 7.09735 18.2727C7.09735 18.2727 7.09732 18.2727 7.05978 18.5702C7.0526 18.6305 7.05261 18.6305 7.05261 18.6305C6.84254 18.6836 6.4847 18.7216 6.25626 18.715C6.25626 18.715 6.25624 18.7151 6.21312 18.8972C6.17796 19.0453 6.17799 19.0453 6.17799 19.0453C6.12288 19.2151 6.17477 19.3061 6.29219 19.2478C6.40961 19.1895 6.84253 19.1508 6.91283 19.1974C6.98311 19.2439 7.32259 19.2983 7.5031 19.2085C7.68362 19.1187 8.10535 18.8422 8.16925 18.9058C8.16925 18.9058 8.16927 18.9058 8.15408 18.9353C8.05185 19.1305 7.81142 19.333 7.85056 19.5106C7.89528 19.7144 7.89528 19.7144 7.89528 19.7144C8.18204 19.9477 8.34178 20.1869 8.24992 20.2465C8.15807 20.3061 7.76909 20.2924 7.62053 20.196C7.62053 20.196 7.6205 20.1961 7.51826 20.084C7.45197 20.0113 7.45198 20.0113 7.45198 20.0113C7.43442 19.9084 7.39207 19.831 7.35854 19.8402C7.35854 19.8402 7.35852 19.8402 7.34415 19.8553C7.13008 20.0774 7.13008 20.0774 7.13008 20.0774C6.87129 19.9621 6.59492 19.8913 6.51506 19.9202C6.43597 19.949 6.46074 20.1417 6.75467 20.2852C6.75467 20.2852 6.75467 20.2852 6.56537 20.5178C6.4863 20.6148 6.4863 20.6148 6.4863 20.6148C6.27782 20.5709 6.00945 20.7072 5.89124 20.9175C5.77222 21.1279 5.61967 21.3644 5.67558 21.4018C5.73149 21.4392 6.01904 21.4536 6.18837 21.3494C6.18837 21.3494 6.18837 21.3494 6.34653 21.2583C6.36729 21.2465 6.36729 21.2465 6.36729 21.2465C6.45355 21.2524 6.57018 21.3101 6.62529 21.3756C6.6804 21.4411 6.74269 21.6633 6.59732 21.6738C6.45195 21.6842 6.02222 21.7753 6.15082 21.8395C6.2794 21.9044 6.60291 22.1541 6.55019 22.2353C6.49747 22.3166 6.28183 22.5165 6.21234 22.4569C6.21234 22.4569 6.21233 22.4568 6.15161 22.4451C5.94633 22.4057 5.63882 22.5722 5.41118 22.8841C5.31693 23.0132 5.31694 23.0132 5.31694 23.0132C5.44713 23.1606 5.58852 23.3074 5.63005 23.3389C5.67238 23.3703 5.68275 23.5021 5.56055 23.5578C5.56055 23.5578 5.56055 23.5578 5.44872 23.5584C5.15318 23.561 5.05814 23.6298 5.18434 23.8146C5.21869 23.8651 5.30016 23.9464 5.27779 23.9627C5.1452 24.0578 5.14522 24.0578 5.14522 24.0578C5.18515 24.1672 5.35767 24.2386 5.52859 24.217C5.52859 24.217 5.52859 24.217 5.60529 24.0656C5.63564 24.0053 5.63564 24.0053 5.63564 24.0053C6.05977 23.9778 6.04619 24.0643 5.60608 24.198C5.60608 24.198 5.60608 24.198 5.77782 24.468C5.86887 24.6108 5.86885 24.6108 5.86885 24.6108C5.93915 24.7766 5.93196 24.9568 5.85208 25.0106C5.77301 25.065 5.61328 25.3435 5.7267 25.4463C5.83932 25.5499 6.37527 25.694 6.38326 25.791C6.38326 25.791 6.38326 25.791 6.33054 25.8579C6.2291 25.987 6.22911 25.987 6.22911 25.987C6.14204 26.1528 6.14523 26.2373 6.2363 26.1744C6.32735 26.1115 6.68039 26.0538 6.78502 26.084C6.88885 26.1141 7.26587 26.1108 7.39607 26.0859C7.52547 26.061 7.89288 26.1187 7.82819 26.1587C7.76347 26.1986 7.52388 26.3572 7.41765 26.4116C7.31142 26.466 6.97432 26.329 6.93678 26.3264C6.89925 26.3238 6.82655 26.3946 6.84651 26.5079C6.86649 26.6213 6.32095 26.5014 6.21791 26.487C6.11488 26.4725 5.94875 26.5722 6.12926 26.6338C6.30978 26.696 6.80659 26.8081 6.84573 26.7497C6.88487 26.6914 7.08617 26.6069 7.14526 26.6141C7.20438 26.622 7.44798 26.9562 7.54703 26.9496C7.64607 26.9424 7.96956 27.0748 8.04944 27.2583C8.04944 27.2583 8.04944 27.2583 7.9536 27.4444C7.86414 27.6174 7.73872 27.7288 7.45357 27.7484C7.39766 27.7523 7.39766 27.7524 7.39766 27.7524C7.32736 27.8015 7.34895 27.9306 7.44479 28.0387C7.54065 28.1469 7.99992 28.3566 8.05424 28.4031C8.10855 28.4496 8.09657 28.6357 8.16367 28.6475C8.22997 28.6593 8.28825 28.7694 8.31062 28.7838C8.33299 28.7982 8.28506 28.888 8.17325 28.9634C8.06142 29.0381 7.81859 29.3657 7.83456 29.5571C7.83456 29.5571 7.83458 29.5571 7.9576 29.6632C8.29466 29.9548 8.21478 30.1055 7.73633 30.2825C7.36652 30.4194 7.3665 30.4194 7.3665 30.4194C7.60612 30.618 7.87851 30.8801 7.97356 31.0007C8.06781 31.1219 8.35776 31.2759 8.09497 31.289C8.09497 31.289 8.09497 31.289 8.12932 31.561C8.14369 31.6737 8.14369 31.6737 8.14369 31.6737C8.11655 31.8349 8.07581 32.0787 8.05344 32.2156C8.05344 32.2156 8.05344 32.2156 7.91286 32.308C7.74512 32.4181 7.7451 32.4181 7.7451 32.4181C7.80022 32.5518 7.90886 32.7884 7.98714 32.9437C7.98714 32.9437 7.98715 32.9437 7.82021 33.1029C7.40726 33.4968 7.40726 33.4967 7.40726 33.4967C7.75632 33.6619 8.05424 33.8041 8.06781 33.8133C8.0822 33.8224 7.83058 34.2005 7.40804 34.5865C7.40804 34.5865 7.40804 34.5865 7.09813 34.9718C7.01027 35.0813 7.01027 35.0813 7.01027 35.0813C7.1828 35.0459 7.34575 35.0151 7.37291 35.0118C7.40007 35.0085 7.55421 35.0446 7.65326 35.0957C7.7523 35.1475 8.11095 35.2733 8.19481 35.2812C8.27869 35.289 8.67326 35.3388 8.86017 35.4083C8.86017 35.4083 8.86015 35.4083 9.03987 35.4686C9.25633 35.5413 9.25633 35.5413 9.25633 35.5413C9.50793 35.5118 10.1302 35.578 10.639 35.6881C11.1478 35.7982 12.7988 35.8801 13.0807 35.9365C13.0807 35.9365 13.0807 35.9365 13.3435 35.964C13.6143 35.9922 13.6143 35.9922 13.6143 35.9922C13.897 36.0439 14.6103 36.0977 15.1982 36.1114C15.1982 36.1114 15.1982 36.1114 15.7382 36.1134C16.0145 36.1147 16.0145 36.1147 16.0145 36.1147C16.2885 36.1933 16.6735 36.384 16.8692 36.5387C16.8692 36.5387 16.8692 36.5387 17.1216 36.2857C17.1559 36.2517 17.5984 36.3663 17.6024 36.3572C17.735 36.0885 18.0002 36.5531 18.1887 36.3034C18.2542 36.2169 18.2542 36.2169 18.2542 36.2169C18.5401 36.3526 18.882 36.4391 19.0138 36.4096C19.0138 36.4096 19.0138 36.4096 19.0418 36.4266C19.3053 36.5865 19.3054 36.5865 19.3054 36.5865C19.644 36.5616 20.0314 36.5858 20.1656 36.6409C20.2998 36.6959 20.8509 36.5793 20.9883 36.5983C21.1257 36.6173 21.7758 36.6914 22.1257 36.6901C22.4756 36.6887 23.4021 36.8775 23.4932 36.8172C23.5842 36.7569 24.1553 36.9377 24.4173 37.0052C24.4173 37.0052 24.4173 37.0053 24.6242 36.9666C24.9788 36.9004 24.9788 36.9004 24.9788 36.9004C25.3415 36.9436 25.8135 36.9935 26.0268 37.0118C26.24 37.0302 26.7305 37.1396 26.7704 37.0911C26.8103 37.0426 27.1818 37.1173 27.3839 37.2379C27.5859 37.3578 28.399 37.1828 28.5828 37.2457C28.5828 37.2457 28.5828 37.2457 28.6475 37.2123C28.9374 37.0636 28.9374 37.0636 28.9374 37.0636C29.1794 37.1822 29.6435 37.2543 29.9694 37.2241C29.9694 37.2241 29.9694 37.2241 30.2314 37.2798C30.4989 37.3368 30.4989 37.3368 30.4989 37.3368C30.7498 37.2785 31.2034 37.2366 31.5078 37.2444C31.5078 37.2444 31.5078 37.2444 31.7865 37.2726C32.0501 37.2988 32.0501 37.2988 32.0501 37.2988C32.3305 37.3637 32.7482 37.3362 32.9799 37.2372C32.9799 37.2372 32.9798 37.2372 33.2882 37.3526C33.5102 37.4358 33.5102 37.4358 33.5102 37.4358C33.8417 37.424 34.4703 37.4613 34.9072 37.5183C34.9072 37.5183 34.9072 37.5184 35.3473 37.4305C35.6405 37.3722 35.6405 37.3722 35.6405 37.3722C36.0343 37.4567 36.4584 37.5374 36.5822 37.5511C36.706 37.5649 37.1205 37.4705 37.2388 37.5125C37.357 37.5537 37.7683 37.54 38.0431 37.5334C38.3179 37.5275 39.0239 37.6409 39.0511 37.5957C39.0783 37.5505 39.1534 37.5452 39.1621 37.6809C39.1709 37.8165 39.726 37.5662 39.8395 37.5636C39.9529 37.5603 40.4561 37.5773 40.6941 37.6016C40.9314 37.6258 41.5728 37.5564 41.7429 37.5826C41.913 37.6088 42.5344 37.5367 42.7573 37.5118C42.9801 37.4869 43.7749 37.5236 44.0113 37.4882C44.2486 37.4528 44.8788 37.7005 44.9858 37.7097C45.0928 37.7189 45.4267 37.6455 45.5561 37.6553C45.6855 37.6651 46.0633 37.6442 46.3453 37.6271C46.6272 37.6101 47.4459 37.5557 47.5458 37.555C47.6456 37.5544 47.8972 37.6284 47.9771 37.5413C48.057 37.4541 48.7335 37.5531 48.9539 37.5741C49.1744 37.595 49.9684 37.6415 50.2735 37.7654C50.2735 37.7654 50.2735 37.7654 50.6481 37.578C50.9221 37.441 50.922 37.441 50.922 37.441C51.3733 37.4319 52.0603 37.4875 52.4476 37.5642C52.4476 37.5642 52.4476 37.5642 52.8406 37.4469C52.8989 37.4292 52.8989 37.4292 52.8989 37.4292C53.0715 37.5714 53.3822 37.6009 53.5899 37.4954C53.7968 37.3899 54.8159 37.5865 55.2648 37.6239C55.7137 37.6612 56.919 37.4358 56.9837 37.4259C57.0484 37.4155 57.4877 37.4764 57.9023 37.5216C57.9023 37.5216 57.9023 37.5216 58.2929 37.4207C58.5213 37.3617 58.5213 37.3617 58.5213 37.3617C58.6539 37.5577 58.9079 37.6566 59.0844 37.5819C59.2618 37.5072 59.7506 37.4004 59.8616 37.4744C59.9726 37.5485 60.4064 37.7235 60.4982 37.6442C60.5901 37.5649 61.0637 37.4502 61.4455 37.479C61.4455 37.479 61.4455 37.479 61.7075 37.5655C62.0038 37.6632 62.2722 37.6422 62.5007 37.5478C62.7586 37.441 62.7586 37.441 62.7586 37.441C62.9599 37.5321 63.2195 37.5786 63.3362 37.5446C63.4528 37.5105 63.8713 37.4345 63.9903 37.4168C64.1093 37.3991 64.5103 37.4764 64.6493 37.5459C64.7883 37.6147 65.2483 37.5446 65.3721 37.5734C65.4959 37.6022 65.992 37.5642 66.1445 37.5609C66.2971 37.5577 66.7132 37.4941 66.726 37.42C66.7388 37.346 66.8243 37.1416 66.8826 37.1678C66.9409 37.1946 67.1038 37.2012 67.1414 37.1363C67.1789 37.0714 67.4321 37.0229 67.5599 37.0649C67.5599 37.0649 67.5599 37.0649 67.6294 37.1848C67.6861 37.2831 67.9593 37.3198 68.1222 37.3971C68.5879 37.618 68.6007 37.6186 69.0919 37.3578C69.1694 37.3165 69.1694 37.3165 69.1694 37.3165C69.2788 37.2733 69.4521 37.2883 69.5544 37.3493C69.6566 37.4102 70.0919 37.5288 70.2349 37.4423C70.3779 37.3552 70.8004 37.1711 70.8204 37.2471C70.8403 37.3237 71.0696 37.5439 71.2829 37.5616C71.4969 37.5793 72.596 37.502 73.3109 37.6134C73.3109 37.6134 73.3109 37.6134 74.0058 37.4325C74.2215 37.3762 74.2214 37.3762 74.2214 37.3762C74.5881 37.5354 74.9451 37.5989 75.0162 37.5183C75.0873 37.4371 75.4196 37.5898 75.4571 37.6153C75.4946 37.6409 75.8213 37.6501 76.152 37.6461C76.4827 37.6422 77.4244 37.5203 77.549 37.4974C77.6736 37.4744 78.1393 37.6081 78.2902 37.6769C78.442 37.7457 79.1976 37.7215 79.5115 37.8899C79.5115 37.8899 79.5115 37.8899 79.879 37.656C80.097 37.517 80.097 37.517 80.097 37.517C80.3558 37.5747 80.6921 37.5708 80.8454 37.5079C80.9988 37.445 81.4517 37.7058 81.6154 37.7248C81.7792 37.7431 82.2688 37.6258 82.2848 37.5557C82.3015 37.4856 82.5324 37.3427 82.7416 37.4764C82.7416 37.4764 82.7416 37.4764 82.8942 37.5917C83.0699 37.7248 83.0699 37.7248 83.0699 37.7248C83.2704 37.6671 83.5117 37.6488 83.6051 37.6841C83.6986 37.7202 83.9997 37.7733 84.0164 37.6979C84.0332 37.6219 84.1219 37.5957 84.1794 37.8008C84.1794 37.8008 84.1794 37.8008 84.5372 37.69C84.7241 37.6324 84.7241 37.6324 84.7241 37.6324C84.8815 37.6664 85.1027 37.7064 85.2162 37.7208C85.3296 37.7353 85.7537 37.6068 85.8903 37.6298C86.0269 37.6527 86.5061 37.6258 86.6547 37.5564C86.8033 37.4869 87.3336 37.5256 87.5677 37.4764C87.5677 37.4764 87.5677 37.4764 87.7737 37.4456C87.8616 37.4325 88.0493 37.5321 88.0661 37.5177C88.2426 37.3598 88.3265 37.4967 88.4678 37.5413C88.5333 37.5622 88.6827 37.4515 88.8049 37.4168C88.8265 37.4102 88.9359 37.483 88.9367 37.5197C88.9375 37.5531 88.9375 37.5531 88.9375 37.5531C88.8592 37.5911 88.8193 37.6396 88.8504 37.6612C88.8816 37.6828 89.0302 37.6697 89.1348 37.6389C89.2394 37.6081 89.6804 37.6317 89.8816 37.692C89.8816 37.692 89.8816 37.692 90.0638 37.6913C90.3481 37.69 90.7411 37.5452 90.892 37.6252C91.1844 37.7805 91.1844 37.7805 91.1844 37.7805C91.42 37.6881 91.7172 37.6219 91.8442 37.6324C91.9712 37.6429 92.3873 37.7582 92.4999 37.8211C92.6125 37.8847 92.7156 37.6029 92.7339 37.5891C92.7523 37.5754 93.0167 37.5858 93.317 37.6101C93.6174 37.6343 94.5878 37.7097 94.8059 37.7254C95.0247 37.7405 95.6374 37.3309 95.7173 37.3899C95.7971 37.4489 95.988 37.7379 96.3235 37.7674C96.6582 37.7968 97.937 37.4941 98.4793 37.3814C98.4793 37.3814 98.4793 37.3814 98.9538 37.6868C99.084 37.7706 99.084 37.7706 99.084 37.7706C99.4115 37.7228 99.7493 37.6547 99.8348 37.6186C99.9203 37.5826 100.271 37.6422 100.415 37.5878C100.558 37.5334 101.037 37.6789 101.111 37.6874C101.186 37.6959 101.606 37.6756 101.876 37.6494C102.146 37.6232 103.245 37.694 103.733 37.77C103.733 37.77 103.733 37.77 104.143 37.555C104.154 37.5498 105.138 37.7222 105.151 37.73C105.203 37.7634 105.246 37.8191 105.305 37.8283C105.555 37.8663 105.555 37.8663 105.555 37.8663C105.786 37.7785 105.957 37.6461 105.936 37.5721C105.916 37.498 105.987 37.2838 106.082 37.2838C106.177 37.2838 106.378 37.3414 106.305 37.4115C106.305 37.4115 106.305 37.4115 106.296 37.4862C106.284 37.5813 106.284 37.5813 106.284 37.5813C106.289 37.7248 106.496 37.8087 106.743 37.7667C106.743 37.7667 106.743 37.7667 106.959 37.7647C107.132 37.7628 107.132 37.7628 107.132 37.7628C107.314 37.8014 107.673 37.8453 107.93 37.8604C108.186 37.8755 108.941 37.7621 109.093 37.8106C109.245 37.8591 109.749 37.7523 109.893 37.8093C110.036 37.8663 110.517 37.7687 110.596 37.7982C110.596 37.7982 110.596 37.7982 110.676 37.8067C111.051 37.846 111.391 37.8388 111.783 37.7477C112.124 37.6691 112.124 37.6691 112.124 37.6691C112.605 37.6763 113.121 37.6796 113.271 37.6769C113.421 37.6743 113.573 37.4207 113.759 37.5885C113.759 37.5885 113.759 37.5885 113.859 37.6828C113.913 37.7339 113.913 37.7339 113.913 37.7339C113.966 37.7929 114.222 37.8788 114.481 37.924C114.739 37.9692 115.514 37.7464 115.644 37.7267C115.775 37.7071 116.036 37.7274 116.123 37.6959C116.21 37.6645 116.574 37.7005 116.685 37.7123C116.796 37.7235 117.287 37.7451 117.529 37.7241C117.771 37.7032 118.406 37.578 118.417 37.5446C118.429 37.5105 118.566 37.5839 118.702 37.7765C118.702 37.7765 118.702 37.7765 119.116 37.6094C119.23 37.5636 119.541 37.7864 119.777 37.8093C119.982 37.829 119.982 37.829 119.982 37.829C120.226 37.7542 120.609 37.8309 120.835 38C120.835 38 120.835 38 121.181 37.7988C121.378 37.6848 121.378 37.6848 121.378 37.6848C121.7 37.5872 122.014 37.5629 122.074 37.6298C122.134 37.6966 122.414 37.8637 122.5 37.7805C122.585 37.6979 122.91 37.6147 123.069 37.7418C123.069 37.7418 123.069 37.7418 123.218 37.7995C123.303 37.8322 123.562 37.791 123.565 37.7739C123.601 37.4515 123.601 37.4515 123.601 37.4515C124.018 37.3604 124.379 37.3689 124.405 37.4699C124.431 37.5708 124.665 37.7556 124.886 37.7248C124.886 37.7248 124.886 37.7248 125.064 37.7608C125.202 37.7883 125.296 37.8788 125.312 37.7149C125.33 37.54 125.521 37.4987 125.658 37.5786C126.043 37.8027 126.481 37.6507 126.886 37.6972C127.167 37.7294 127.167 37.7294 127.167 37.7294C127.479 37.7634 127.778 37.7936 127.832 37.7955C127.832 37.7955 127.832 37.7956 127.881 37.789C128.218 37.7464 128.218 37.7464 128.218 37.7464C128.678 37.6861 128.931 37.6035 128.78 37.5629C128.629 37.5223 128.937 37.3113 128.964 37.2431C128.991 37.175 129.175 37.1049 129.187 37.2516C129.199 37.3984 129.355 37.7562 129.505 37.7018C129.505 37.7018 129.505 37.7018 129.606 37.6389C129.725 37.5642 129.725 37.5642 129.725 37.5642C129.844 37.4168 130.113 37.3689 130.324 37.4587C130.535 37.5485 131.12 37.618 131.196 37.5066C131.272 37.3952 131.621 37.1959 131.785 37.3414C131.785 37.3414 131.785 37.3414 131.786 37.4587C131.791 37.806 131.791 37.806 131.791 37.806C132.065 37.8191 132.508 37.7883 132.777 37.7379C133.045 37.6874 133.822 37.768 133.877 37.7516C133.932 37.7353 134.199 37.6697 134.341 37.6337C134.483 37.5976 135.107 37.6278 135.41 37.7071C135.41 37.7071 135.41 37.7071 135.607 37.654C135.799 37.6016 135.799 37.6016 135.799 37.6016C135.921 37.3997 136.159 37.2851 136.327 37.3467C136.495 37.4083 136.873 37.6101 136.855 37.6638C136.855 37.6638 136.855 37.6638 136.861 37.7136C136.867 37.7575 136.867 37.7575 136.867 37.7575C136.904 37.8041 136.98 37.8342 137.037 37.8244C137.094 37.8145 137.304 37.6854 137.422 37.5898C137.54 37.4941 138.038 37.6959 138.115 37.7018C138.193 37.7077 138.526 37.6665 138.687 37.633C138.687 37.633 138.687 37.633 138.705 37.5813C138.764 37.4096 138.764 37.4096 138.764 37.4096C138.551 37.4096 138.222 37.3958 138.035 37.3794C137.847 37.3631 137.762 37.0111 137.945 36.9862C138.128 36.9613 138.67 36.983 138.672 37.0976C138.672 37.0976 138.672 37.0976 138.75 37.2031C138.845 37.3329 139.008 37.5295 139.155 37.5354C139.565 37.5524 139.242 37.2667 139.414 37.1612C139.439 37.1461 139.439 37.1461 139.439 37.1461C139.478 37.1284 139.645 37.2399 139.81 37.3939C139.975 37.5485 140.842 37.5439 141.112 37.5564C141.382 37.5688 141.677 37.1973 141.758 37.3362C141.84 37.4758 141.258 37.578 141.223 37.5996C141.188 37.6212 141.171 37.7464 141.261 37.8231C141.261 37.8231 141.261 37.8231 141.357 37.8329C141.478 37.8447 141.478 37.8447 141.478 37.8447C141.622 37.8014 141.928 37.637 142.159 37.479C142.159 37.479 142.159 37.479 142.216 36.9207C142.224 36.8454 142.508 36.711 142.521 36.7182C143.216 37.1009 142.983 36.6403 143.057 36.4614C143.066 36.441 143.066 36.441 143.066 36.441C143.14 36.3991 143.213 36.4725 143.229 36.6049C143.245 36.7372 143.411 36.979 143.566 36.8729C143.721 36.7667 143.961 37.2431 144.013 37.3336C144.064 37.424 144.307 37.7064 144.403 37.7182C144.499 37.73 145.034 37.7044 145.439 37.7248C145.439 37.7248 145.439 37.7248 145.803 37.7392C145.881 37.7425 145.881 37.7425 145.881 37.7425C145.964 37.7693 146.034 37.7497 146.037 37.6992C146.039 37.6481 146.026 37.5262 146.031 37.4312C146.036 37.3355 145.747 37.1324 145.583 37.1481C145.583 37.1481 145.583 37.1481 145.453 37.1704C145.333 37.1914 145.333 37.1913 145.333 37.1913C145.226 37.2588 144.986 37.3467 144.802 37.386C144.802 37.386 144.802 37.386 144.622 37.4037C144.536 37.4122 144.379 37.3794 144.354 37.3388C144.255 37.1756 144.255 37.1756 144.255 37.1756C144.172 36.9902 143.963 36.8355 143.79 36.8322C143.79 36.8322 143.79 36.8322 143.735 36.7765C143.612 36.6501 143.612 36.4541 143.461 36.3585C143.173 36.1776 143.173 36.1776 143.173 36.1776C143.338 36.0229 143.558 35.8834 143.662 35.8676C143.766 35.8519 144.087 35.96 144.087 36.1527C144.087 36.3454 144.297 36.8434 144.533 36.8493C144.533 36.8493 144.533 36.8493 144.675 36.9823C144.85 37.1461 145.019 37.1638 145.282 37.0157C145.416 36.9404 145.416 36.9404 145.416 36.9404ZM142.823 35.4732C143.02 35.4214 143.192 35.3945 143.207 35.4135C143.223 35.4332 143.169 35.5426 143.056 35.614C142.942 35.6861 142.341 35.7268 142.019 35.6226C142.019 35.6226 142.019 35.6226 141.715 35.8178C141.7 35.8277 141.587 35.7903 141.548 35.7595C141.445 35.6756 141.445 35.6756 141.445 35.6756C141.31 35.5439 141.359 35.4142 141.553 35.388C141.747 35.3618 142.628 35.5249 142.823 35.4732ZM148.617 35.7569C148.89 35.8283 149.028 35.9751 148.922 36.0826C148.817 36.1901 148.32 35.9679 148.2 35.9109C148.08 35.8539 147.508 35.8198 147.298 35.8205C147.087 35.8211 146.5 35.734 146.591 35.6265C146.682 35.519 147.247 35.6134 147.382 35.6455C147.517 35.6776 147.902 35.6245 148.161 35.5885C148.161 35.5885 148.161 35.5885 148.396 35.675C148.617 35.7569 148.617 35.7569 148.617 35.7569ZM9.27551 17.4608C9.05426 17.5205 8.95682 17.4634 9.05905 17.335C9.1613 17.2065 9.52072 16.7426 9.70042 16.5021C9.70042 16.5021 9.70045 16.5021 10.0263 16.8114C10.2691 17.0421 10.2691 17.0421 10.2691 17.0421C10.5351 16.9641 10.6094 16.932 10.4329 16.9713C10.2572 17.0106 9.49677 17.4012 9.27551 17.4608ZM102.047 35.8336C102.321 35.8395 102.585 35.886 102.633 35.9365C102.633 35.9365 102.633 35.9364 102.614 35.9653C102.538 36.0858 102.538 36.0859 102.538 36.0859C102.616 36.2032 102.596 36.3362 102.492 36.3814C102.388 36.4266 102.001 36.2693 101.808 36.23C101.614 36.1907 101.772 35.8277 102.047 35.8336ZM5.87047 17.2734C6.01505 17.0906 6.09251 17.0893 6.04219 17.2714C5.99187 17.453 5.33611 17.6548 5.14441 17.6679C5.14441 17.6679 5.14441 17.6679 5.12764 17.4851C5.11964 17.4018 5.11964 17.4018 5.11964 17.4018C4.96069 17.2308 5.146 17.219 5.53259 17.3763C5.53259 17.3763 5.53259 17.3763 5.66759 17.3356C5.87047 17.2734 5.87047 17.2734 5.87047 17.2734ZM150.398 35.5747C150.849 35.6632 151.08 35.7372 150.912 35.7386C150.744 35.7399 150.232 35.9679 150.1 36.0288C149.968 36.0898 149.565 36.1822 149.565 36.0741C149.565 35.9659 149.75 35.7628 149.978 35.8434C149.978 35.8434 149.978 35.8434 150.025 35.8132C150.398 35.5747 150.398 35.5747 150.398 35.5747ZM130.771 36.249C130.868 36.2353 130.818 36.4332 130.661 36.6881C130.661 36.6881 130.661 36.6881 130.447 36.772C130.183 36.8748 130.183 36.8748 130.183 36.8748C129.927 37.0098 129.609 37.0858 129.476 37.0446C129.476 37.0446 129.476 37.0446 129.436 36.9836C129.387 36.9083 129.387 36.9083 129.387 36.9083C129.408 36.787 129.659 36.7091 129.946 36.7353C129.946 36.7353 129.946 36.7353 130.104 36.6756C130.283 36.6081 130.283 36.6081 130.283 36.6081C130.413 36.4522 130.674 36.2628 130.771 36.249ZM65.9792 36.2182C65.8434 36.1717 65.8146 36.0754 65.9161 36.0033C66.0175 35.9312 66.3067 35.7372 66.365 35.6756C66.4241 35.614 66.7396 35.6828 66.6741 35.8408C66.6094 35.9993 66.115 36.2648 65.9792 36.2182ZM137.201 36.5793C137.241 36.3939 137.263 36.3742 137.252 36.5347C137.24 36.6953 137.309 37.1298 137.137 37.1186C136.964 37.1075 137.161 36.7648 137.201 36.5793ZM198.405 24.4909C198.239 24.5217 198.145 24.4418 198.195 24.314C198.195 24.314 198.195 24.314 198.235 24.312C198.551 24.2963 198.627 24.1849 198.599 23.9942C198.585 23.9044 198.585 23.9044 198.585 23.9044C198.634 23.7766 198.773 23.81 198.894 23.9785C199.015 24.1475 198.571 24.4608 198.405 24.4909ZM201.168 27.6449C201.176 27.5735 201.292 27.4948 201.426 27.4706C201.426 27.4706 201.426 27.4706 201.539 27.4319C201.64 27.3972 201.685 27.2707 201.851 27.3893C201.981 27.4824 202.082 27.5394 201.876 27.6508C201.707 27.7425 202.025 28.0387 201.611 28.0151C201.46 28.0066 201.328 27.8008 201.203 27.6783C201.168 27.6449 201.168 27.6449 201.168 27.6449Z" fill="#C2FF00"/>
</svg>
