<svg width="500" height="373" viewBox="0 0 500 373" fill="none" xmlns="http://www.w3.org/2000/svg">
<path d="M500 327.4H0V327.65H500V327.4Z" fill="#EBEBEB"/>
<path d="M449.9 343.49H416.78V343.74H449.9V343.49Z" fill="#EBEBEB"/>
<path d="M331.22 346.21H322.53V346.46H331.22V346.21Z" fill="#EBEBEB"/>
<path d="M415.78 334.21H396.59V334.46H415.78V334.21Z" fill="#EBEBEB"/>
<path d="M95.65 335.89H52.46V336.14H95.65V335.89Z" fill="#EBEBEB"/>
<path d="M110.89 335.89H104.56V336.14H110.89V335.89Z" fill="#EBEBEB"/>
<path d="M225.15 340.11H131.47V340.36H225.15V340.11Z" fill="#EBEBEB"/>
<path d="M237 282.8H43.91C42.3974 282.797 40.9476 282.195 39.8789 281.124C38.8102 280.054 38.21 278.603 38.21 277.09V5.66C38.2232 4.15603 38.8292 2.71798 39.8965 1.65822C40.9637 0.598458 42.406 0.00257639 43.91 0H237C238.514 0 239.967 0.601588 241.038 1.67242C242.108 2.74325 242.71 4.19561 242.71 5.71V277.09C242.71 278.604 242.108 280.057 241.038 281.128C239.967 282.198 238.514 282.8 237 282.8ZM43.91 0.200001C42.4637 0.20265 41.0775 0.779065 40.0557 1.80273C39.0339 2.82639 38.46 4.21365 38.46 5.66V277.09C38.46 278.536 39.0339 279.924 40.0557 280.947C41.0775 281.971 42.4637 282.547 43.91 282.55H237C238.447 282.547 239.835 281.971 240.858 280.948C241.881 279.924 242.457 278.537 242.46 277.09V5.66C242.457 4.21273 241.881 2.82549 240.858 1.80212C239.835 0.77874 238.447 0.202644 237 0.200001H43.91Z" fill="#EBEBEB"/>
<path d="M453.31 282.8H260.21C258.696 282.797 257.246 282.195 256.175 281.125C255.105 280.054 254.503 278.604 254.5 277.09V5.66C254.516 4.15511 255.124 2.71708 256.193 1.65759C257.262 0.598109 258.705 0.00254829 260.21 0H453.31C454.812 0.0052045 456.252 0.602249 457.317 1.66173C458.382 2.72121 458.987 4.15775 459 5.66V277.09C459 278.601 458.401 280.05 457.335 281.121C456.268 282.191 454.821 282.795 453.31 282.8ZM260.21 0.200001C258.763 0.202644 257.375 0.77874 256.352 1.80212C255.329 2.82549 254.753 4.21273 254.75 5.66V277.09C254.753 278.537 255.329 279.924 256.352 280.948C257.375 281.971 258.763 282.547 260.21 282.55H453.31C454.757 282.547 456.145 281.971 457.168 280.948C458.191 279.924 458.767 278.537 458.77 277.09V5.66C458.767 4.21273 458.191 2.82549 457.168 1.80212C456.145 0.77874 454.757 0.202644 453.31 0.200001H260.21Z" fill="#EBEBEB"/>
<path d="M149.43 143.49H142.7V327.65H149.43V143.49Z" fill="#F5F5F5"/>
<path d="M176.04 166.87H169.31V327.65H176.04V166.87Z" fill="#F5F5F5"/>
<path d="M202.4 190.25H195.67V327.65H202.4V190.25Z" fill="#F5F5F5"/>
<path d="M228.77 174.66H222.04V327.65H228.77V174.66Z" fill="#F5F5F5"/>
<path d="M255.14 166.87H248.41V327.65H255.14V166.87Z" fill="#F5F5F5"/>
<path d="M281.5 151.28H274.77V327.65H281.5V151.28Z" fill="#F5F5F5"/>
<path d="M307.87 159.08H301.14V327.65H307.87V159.08Z" fill="#F5F5F5"/>
<path d="M334.24 151.28H327.51V327.65H334.24V151.28Z" fill="#F5F5F5"/>
<path d="M360.6 135.69H353.87V327.64H360.6V135.69Z" fill="#F5F5F5"/>
<path d="M386.97 120.11H380.24V327.65H386.97V120.11Z" fill="#F5F5F5"/>
<path d="M413.33 104.52H406.6V327.65H413.33V104.52Z" fill="#F5F5F5"/>
<path d="M199 179.3C198.625 179.285 198.269 179.132 198 178.87L141.66 123.94C141.375 123.662 141.212 123.281 141.207 122.883C141.203 122.484 141.356 122.1 141.635 121.815C141.913 121.53 142.294 121.367 142.692 121.362C143.091 121.358 143.475 121.512 143.76 121.79L199.19 175.84L277.26 118.84C277.562 118.625 277.933 118.528 278.302 118.568C278.671 118.609 279.012 118.784 279.26 119.06L304.82 148L410.62 87.3801C410.791 87.2822 410.98 87.2191 411.176 87.1943C411.372 87.1695 411.571 87.1835 411.761 87.2355C411.951 87.2875 412.13 87.3765 412.286 87.4974C412.441 87.6183 412.572 87.7687 412.67 87.9401C412.768 88.1114 412.831 88.3004 412.856 88.4962C412.881 88.6919 412.867 88.8907 412.815 89.081C412.763 89.2714 412.674 89.4496 412.553 89.6056C412.432 89.7616 412.281 89.8922 412.11 89.9901L305.25 151.23C304.95 151.4 304.6 151.461 304.26 151.405C303.92 151.349 303.609 151.177 303.38 150.92L277.92 122.12L199.92 179.01C199.654 179.205 199.33 179.307 199 179.3Z" fill="#F0F0F0"/>
<path d="M192.65 326.5L143.48 132.59L145.94 122.9H143.38V67.52H136.78V122.9H134.22L136.68 132.59L87.5 326.5H94.31L136.78 159.02V327.52H143.38V159.02L185.85 326.5H192.65Z" fill="#E0E0E0"/>
<path d="M177.128 130.663C181.958 110.2 169.285 89.6962 148.822 84.8665C128.358 80.0367 107.854 92.7101 103.025 113.173C98.1948 133.637 110.868 154.141 131.331 158.97C151.795 163.8 172.299 151.127 177.128 130.663Z" fill="#E6E6E6"/>
<path d="M140.08 154.43C158.029 154.43 172.58 139.879 172.58 121.93C172.58 103.981 158.029 89.4299 140.08 89.4299C122.131 89.4299 107.58 103.981 107.58 121.93C107.58 139.879 122.131 154.43 140.08 154.43Z" fill="#F5F5F5"/>
<path d="M140.08 147.37C154.13 147.37 165.52 135.98 165.52 121.93C165.52 107.88 154.13 96.49 140.08 96.49C126.03 96.49 114.64 107.88 114.64 121.93C114.64 135.98 126.03 147.37 140.08 147.37Z" fill="#E6E6E6"/>
<path d="M148.064 141.189C158.703 136.782 163.755 124.585 159.348 113.947C154.941 103.308 142.745 98.2562 132.106 102.663C121.468 107.07 116.416 119.266 120.822 129.905C125.229 140.543 137.426 145.595 148.064 141.189Z" fill="#F5F5F5"/>
<path d="M154.16 125.242C155.995 117.465 151.178 109.671 143.4 107.836C135.623 106 127.829 110.817 125.993 118.595C124.158 126.373 128.975 134.166 136.753 136.002C144.53 137.837 152.324 133.02 154.16 125.242Z" fill="#E6E6E6"/>
<path d="M144.061 131.525C149.363 129.329 151.88 123.251 149.684 117.95C147.488 112.648 141.411 110.131 136.109 112.327C130.808 114.523 128.29 120.6 130.486 125.902C132.682 131.203 138.76 133.721 144.061 131.525Z" fill="#F5F5F5"/>
<path d="M144.79 121.93C144.79 122.864 144.513 123.777 143.994 124.553C143.475 125.33 142.737 125.935 141.874 126.292C141.011 126.649 140.061 126.741 139.145 126.559C138.23 126.376 137.389 125.925 136.729 125.264C136.069 124.603 135.62 123.761 135.439 122.845C135.258 121.928 135.353 120.979 135.712 120.117C136.071 119.254 136.677 118.518 137.455 118.001C138.232 117.483 139.146 117.208 140.08 117.21C140.699 117.21 141.313 117.332 141.885 117.569C142.457 117.807 142.976 118.155 143.414 118.593C143.851 119.031 144.198 119.552 144.434 120.124C144.67 120.697 144.791 121.311 144.79 121.93Z" fill="#E6E6E6"/>
<path d="M91.22 90.53L92.25 97.41L85.09 99.82L92.25 103.58L99.39 101.07L98.14 94.29L91.22 90.53Z" fill="#E6E6E6"/>
<path d="M140.08 122.93C139.92 122.928 139.763 122.891 139.62 122.82L88.39 96.5601C88.162 96.4349 87.9918 96.2258 87.9154 95.9772C87.839 95.7286 87.8626 95.46 87.981 95.2284C88.0993 94.9968 88.3033 94.8205 88.5496 94.7368C88.7958 94.6531 89.065 94.6686 89.3 94.7801L140.53 121C140.766 121.12 140.944 121.328 141.026 121.579C141.109 121.83 141.089 122.104 140.97 122.34C140.893 122.513 140.768 122.659 140.61 122.764C140.453 122.868 140.269 122.926 140.08 122.93Z" fill="#E0E0E0"/>
<path d="M210.58 79.1601C210.575 77.7842 210.893 76.4263 211.509 75.1958C212.125 73.9653 213.021 72.8965 214.125 72.0755C215.229 71.2544 216.51 70.704 217.866 70.4686C219.222 70.2332 220.614 70.3194 221.93 70.7201C221.539 68.0667 221.725 65.3603 222.474 62.7852C223.224 60.2101 224.52 57.8268 226.273 55.7977C228.027 53.7686 230.198 52.1415 232.637 51.0271C235.077 49.9127 237.728 49.3373 240.41 49.3401C241.561 49.3397 242.709 49.4468 243.84 49.6601C245.68 46.6356 248.454 44.2917 251.744 42.9818C255.033 41.6719 258.659 41.4672 262.074 42.3984C265.49 43.3297 268.51 45.3464 270.68 48.1445C272.849 50.9425 274.049 54.3701 274.1 57.9101H274.38C278.369 57.9101 282.194 59.4947 285.015 62.3152C287.835 65.1358 289.42 68.9612 289.42 72.9501C289.42 76.9389 287.835 80.7644 285.015 83.585C282.194 86.4055 278.369 87.9901 274.38 87.9901H219.14C216.844 87.9249 214.663 86.9653 213.064 85.3158C211.465 83.6663 210.574 81.4574 210.58 79.1601Z" fill="#F0F0F0"/>
<path d="M367.47 74.3201C367.47 73.1929 367.918 72.1119 368.715 71.3149C369.512 70.5178 370.593 70.0701 371.72 70.0701C372.133 70.0738 372.544 70.1344 372.94 70.2501C372.876 69.8196 372.843 69.3852 372.84 68.9501C372.839 67.6272 373.13 66.3204 373.692 65.1227C374.254 63.9251 375.073 62.8661 376.091 62.021C377.109 61.176 378.301 60.5658 379.581 60.2337C380.862 59.9017 382.2 59.8561 383.5 60.1001C384.391 58.6459 385.73 57.5204 387.316 56.8931C388.902 56.2658 390.648 56.1706 392.293 56.6218C393.938 57.073 395.391 58.0462 396.435 59.3949C397.479 60.7436 398.056 62.3949 398.08 64.1001H398.21C400.133 64.1001 401.977 64.8639 403.337 66.2235C404.696 67.5832 405.46 69.4273 405.46 71.3501C405.46 73.2729 404.696 75.117 403.337 76.4766C401.977 77.8362 400.133 78.6001 398.21 78.6001H371.6C370.488 78.5713 369.431 78.1064 368.659 77.3057C367.886 76.505 367.459 75.4327 367.47 74.3201Z" fill="#F0F0F0"/>
<path d="M94.72 79.61C94.72 79.2349 94.794 78.8635 94.9379 78.5171C95.0817 78.1706 95.2926 77.856 95.5583 77.5912C95.824 77.3265 96.1393 77.1167 96.4863 76.9741C96.8332 76.8315 97.2049 76.7587 97.58 76.76C97.8578 76.7593 98.1341 76.7997 98.4 76.88C98.3564 76.5887 98.333 76.2946 98.33 76C98.3431 74.4128 98.9794 72.8942 100.102 71.7718C101.224 70.6494 102.743 70.0131 104.33 70C104.706 70.0015 105.081 70.0384 105.45 70.11C106.044 69.1268 106.941 68.3639 108.008 67.9369C109.074 67.51 110.25 67.4424 111.358 67.7443C112.466 68.0462 113.446 68.7012 114.148 69.6099C114.85 70.5187 115.237 71.6316 115.25 72.78H115.34C116.595 72.8369 117.779 73.3753 118.647 74.2833C119.515 75.1914 119.999 76.399 119.999 77.655C119.999 78.911 119.515 80.1187 118.647 81.0267C117.779 81.9347 116.595 82.4732 115.34 82.53H97.5C97.1257 82.5209 96.7569 82.4382 96.4145 82.2865C96.0722 82.1348 95.7632 81.9172 95.505 81.646C95.2468 81.3749 95.0446 81.0555 94.9099 80.7061C94.7752 80.3568 94.7107 79.9843 94.72 79.61Z" fill="#F0F0F0"/>
<path d="M250 372.56C357.082 372.56 443.89 367.492 443.89 361.24C443.89 354.988 357.082 349.92 250 349.92C142.917 349.92 56.11 354.988 56.11 361.24C56.11 367.492 142.917 372.56 250 372.56Z" fill="#F5F5F5"/>
<path d="M138.38 170.56L145.24 166.64C145.24 166.64 147.88 162.57 148.67 162.38C149.46 162.19 158.16 162.38 158.16 162.38C158.16 162.38 156.85 168.02 156.71 169.13C156.57 170.24 148.27 169.13 148.27 169.13L141.55 173.13L138.38 170.56Z" fill="#EBB376"/>
<path d="M74.49 353L67.31 351.57C67.1819 351.569 67.0573 351.612 66.9572 351.693C66.8571 351.773 66.7875 351.885 66.76 352.01L64.83 359.19C64.7894 359.435 64.8416 359.687 64.9766 359.896C65.1116 360.105 65.3196 360.256 65.56 360.32H65.77C68.31 360.32 70.16 360.12 73.34 360.12C75.34 360.12 81.22 360.33 83.93 360.33C86.64 360.33 87 357.65 85.93 357.41C80.93 356.32 77.21 354.82 75.62 353.41C75.3121 353.13 74.906 352.982 74.49 353Z" fill="#263238"/>
<path d="M162.36 352.76H154.52C154.391 352.757 154.266 352.8 154.165 352.88C154.065 352.961 153.996 353.074 153.97 353.2L152.69 359C152.652 359.245 152.707 359.496 152.844 359.703C152.981 359.91 153.19 360.058 153.43 360.12H153.64C156.18 360.07 158.02 359.92 161.21 359.92C163.21 359.92 169.09 360.12 171.8 360.12C174.51 360.12 174.86 357.45 173.75 357.2C168.75 356.12 165.03 354.61 163.44 353.2C163.299 353.058 163.13 352.945 162.945 352.87C162.759 352.794 162.56 352.757 162.36 352.76Z" fill="#263238"/>
<path d="M88.33 220.67L121.53 212.25C129.06 228.69 156.69 296.19 163.39 352.35L152.15 355.2C152.15 355.2 132.25 272.38 115.56 248.2C115.56 248.2 114.67 284.96 112.86 290.31C111.37 294.71 77.2 353.58 77.2 353.58L66.1 352.33C66.1 352.33 94 292.25 95.64 284.76C96.8 279.66 91.72 242.2 91.72 242.2C90.83 238.86 89.49 225.03 89.49 225.03C89.49 225.03 88.49 221.36 88.33 220.67Z" fill="#407BFF"/>
<path opacity="0.2" d="M115.57 248.22C118.387 252.482 120.846 256.971 122.92 261.64C120.62 248.7 113.49 236.17 113.49 236.17L115.57 248.22Z" fill="black"/>
<path opacity="0.3" d="M88.33 220.67L121.53 212.25C129.06 228.69 156.69 296.19 163.39 352.35L152.15 355.2C152.15 355.2 132.25 272.38 115.56 248.2C115.56 248.2 114.67 284.96 112.86 290.31C111.37 294.71 77.2 353.58 77.2 353.58L66.1 352.33C66.1 352.33 94 292.25 95.64 284.76C96.8 279.66 91.72 242.2 91.72 242.2C90.83 238.86 89.49 225.03 89.49 225.03C89.49 225.03 88.49 221.36 88.33 220.67Z" fill="black"/>
<path d="M146.05 171.13C146.05 171.13 130.91 181.35 126.92 181.89C125.33 182.11 122.05 181.57 118.66 180.89C113.52 179.79 108.16 178.25 108.16 178.25L107.49 173.18L106.78 167.76C107.98 167.36 123.64 173.76 125.98 174.76C128.32 175.76 143.45 166.76 143.45 166.76L146.05 171.13Z" fill="#263238"/>
<path d="M99.23 218.33L100.21 222.17L89.49 225.03L88.49 221.05L99.23 218.33Z" fill="black"/>
<path d="M116.14 214.04L117.07 217.68L101.4 221.86L100.42 218.03L116.14 214.04Z" fill="black"/>
<path d="M123.24 216.04L118.25 217.37L117.33 213.74L121.91 212.58L123.24 216.04Z" fill="black"/>
<path d="M107.615 220.204L113.799 218.636L112.668 214.177L106.484 215.745L107.615 220.204Z" fill="white"/>
<path d="M121.9 212.57L88.48 221.05C86.85 216.64 85.19 212.2 83.57 207.87C82.38 204.7 81.21 201.59 80.07 198.58C79.7833 197.807 79.4933 197.047 79.2 196.3L78.2 193.64C77.46 191.693 76.7467 189.817 76.06 188.01L74.22 183.2L73.35 180.92L71.7 176.62L106.79 167.72C118.36 187.91 121.9 212.57 121.9 212.57Z" fill="#263238"/>
<path d="M84.44 175.76C88.05 177.49 94.71 174.44 94.71 174.44C94.71 174.44 96.92 172 95.6 170.92C92.92 171.27 93.09 170.39 92.12 169.02C91.5654 168.155 91.1849 167.191 91 166.18C90.88 165.622 90.7899 165.058 90.73 164.49L80.2 160.71C82.59 164.57 86.3 171.88 84.44 175.76Z" fill="#EBB376"/>
<path opacity="0.2" d="M83.4 164.16C85.3 169.21 89.96 169.36 92.12 169.02C91.5654 168.155 91.1849 167.19 91 166.18L83.4 164.16Z" fill="black"/>
<path d="M97.12 145C97.12 145 99.87 153.3 95.9 157.35C91.93 161.4 89.24 145.53 89.24 145.53L97.12 145Z" fill="#263238"/>
<path d="M83.92 166.39C85.108 167.629 86.6695 168.445 88.3655 168.713C90.0615 168.98 91.7984 168.684 93.31 167.87C95.2919 166.846 96.8084 165.104 97.55 163C97.65 162.72 97.74 162.42 97.82 162.12C99.16 156.53 98.32 147.3 92.23 144.82C90.8878 144.267 89.4262 144.066 87.9845 144.237C86.5427 144.408 85.1687 144.945 83.993 145.797C82.8174 146.648 81.8793 147.787 81.2679 149.104C80.6565 150.421 80.3921 151.872 80.5 153.32C80.86 159.55 80.78 163.21 83.92 166.39Z" fill="#EBB376"/>
<path d="M89.93 155.09C89.93 155.59 90.19 156 90.53 156C90.87 156 91.12 155.59 91.13 155.09C91.14 154.59 90.86 154.17 90.53 154.17C90.2 154.17 89.93 154.58 89.93 155.09Z" fill="#263238"/>
<path d="M95.65 155.09C95.65 155.6 95.92 156.01 96.25 156.01C96.58 156.01 96.84 155.59 96.85 155.09C96.86 154.59 96.57 154.18 96.25 154.18C95.93 154.18 95.65 154.61 95.65 155.09Z" fill="#263238"/>
<path d="M93.83 155.34C94.4279 156.888 95.239 158.346 96.24 159.67C95.8928 159.919 95.4951 160.088 95.0751 160.166C94.6552 160.243 94.2232 160.228 93.81 160.12L93.83 155.34Z" fill="#D58745"/>
<path d="M97.74 152.75C97.692 152.774 97.6389 152.787 97.585 152.787C97.5311 152.787 97.478 152.774 97.43 152.75C97.1343 152.523 96.7892 152.368 96.4227 152.298C96.0562 152.229 95.6785 152.247 95.32 152.35C95.2471 152.378 95.1661 152.376 95.0948 152.344C95.0235 152.312 94.9679 152.253 94.94 152.18C94.9122 152.107 94.9144 152.026 94.9463 151.955C94.9782 151.883 95.0371 151.828 95.11 151.8C95.5585 151.658 96.0345 151.627 96.4976 151.709C96.9608 151.791 97.3973 151.983 97.77 152.27C97.8028 152.291 97.8309 152.319 97.8528 152.351C97.8746 152.383 97.8897 152.42 97.8972 152.458C97.9047 152.496 97.9043 152.536 97.8962 152.574C97.8881 152.612 97.8724 152.648 97.85 152.68C97.8164 152.708 97.7795 152.731 97.74 152.75Z" fill="#263238"/>
<path d="M88.8 152.82C88.7428 152.812 88.6881 152.792 88.64 152.76C88.585 152.704 88.5543 152.628 88.5543 152.55C88.5543 152.471 88.585 152.396 88.64 152.34C88.9895 152.02 89.4112 151.789 89.8691 151.667C90.3271 151.545 90.8077 151.536 91.27 151.64C91.343 151.663 91.4044 151.713 91.4415 151.78C91.4787 151.847 91.4889 151.926 91.47 152C91.4468 152.076 91.3955 152.139 91.3267 152.178C91.2579 152.217 91.1768 152.229 91.1 152.21C90.7352 152.137 90.3583 152.151 90.0002 152.252C89.642 152.353 89.313 152.537 89.04 152.79C89.0043 152.811 88.9645 152.825 88.9232 152.83C88.8819 152.835 88.8399 152.832 88.8 152.82Z" fill="#263238"/>
<path d="M85.06 145.6L85.66 146.75C83.66 147.52 84.16 149.88 84.66 150.93C85.66 153.19 84.51 156.82 82.82 158.33C82.82 158.33 82.71 157.33 81.88 157.61C81.05 157.89 81.53 163.07 83.29 165.47C83.29 165.47 80.7 163.34 79.04 157.96C77.51 152.96 77.15 148.79 78.1 146.79L85.06 145.6Z" fill="#263238"/>
<path d="M77.78 158.44C78.1202 159.138 78.5947 159.763 79.1764 160.277C79.7581 160.792 80.4355 161.187 81.17 161.44C83.17 162.1 84.17 160.37 83.77 158.44C83.35 156.75 81.84 154.3 79.77 154.49C79.3335 154.539 78.9161 154.695 78.5555 154.946C78.1949 155.197 77.9026 155.534 77.705 155.926C77.5074 156.318 77.4107 156.753 77.4238 157.192C77.4369 157.631 77.5594 158.06 77.78 158.44Z" fill="#EBB376"/>
<path d="M85 168.89C87.94 170.95 93.67 171.62 96.48 167.89C99.29 164.16 98.39 158.17 98.39 158.17C98.0673 159.508 97.4526 160.758 96.59 161.83C95 159.91 92.3 161 92.3 161C91.7311 160.259 90.9147 159.748 90 159.56C88.69 159.43 85 159.65 85 159.65C83.82 158.9 83.77 155.56 83.77 155.56L83.05 156.16C83.05 156.16 82.05 166.82 85 168.89Z" fill="#263238"/>
<path d="M92.86 147.72C92.86 147.72 99.86 144.32 99.03 140.92C98.2 137.52 96.16 141.4 96.16 141.4C96.16 141.4 97.1 138.82 95.26 138.4C93.42 137.98 94 139.63 93 140.62C92 141.61 82.3 140.17 79.17 142.11C76.04 144.05 78.43 150.76 78.43 150.76C80.2786 148.904 82.6285 147.628 85.1917 147.088C87.7548 146.548 90.4199 146.768 92.86 147.72Z" fill="#263238"/>
<path opacity="0.2" d="M85 168.89C87.94 170.95 93.67 171.62 96.48 167.89C99.29 164.16 98.39 158.17 98.39 158.17C98.0673 159.508 97.4526 160.758 96.59 161.83C95 159.91 92.3 161 92.3 161C91.7311 160.259 90.9147 159.748 90 159.56C88.69 159.43 85 159.65 85 159.65C83.82 158.9 83.77 155.56 83.77 155.56L83.05 156.16C83.05 156.16 82.05 166.82 85 168.89Z" fill="white"/>
<path d="M92.6 162.9C92.0619 163.62 91.5772 164.379 91.15 165.17L90.7 165C88.7 164.27 87.98 163.27 87.82 162.37C87.7553 161.934 87.793 161.489 87.93 161.07C88.0029 160.827 88.1071 160.595 88.24 160.38C89.2919 161.384 90.5467 162.151 91.92 162.63C92.33 162.81 92.6 162.9 92.6 162.9Z" fill="#263238"/>
<path d="M91.92 162.64L91.47 163.3C89.57 162.61 88.32 161.87 87.93 161.08C88.0029 160.837 88.1071 160.605 88.24 160.39C89.2919 161.394 90.5467 162.161 91.92 162.64Z" fill="white"/>
<path d="M90.7 165C88.7 164.27 87.98 163.27 87.82 162.37C88.5837 162.667 89.2907 163.093 89.91 163.63C90.3108 163.992 90.5872 164.472 90.7 165Z" fill="#DE5753"/>
<path d="M96.03 174.45L95.44 179.63L106.24 202.64L105.17 205.69L101.64 204.06L93.94 180.59L88.28 176.76L92.4 174.5L96.03 174.45Z" fill="#407BFF"/>
<path d="M84.68 170.91L91.83 173.86L92.12 169.02L97.39 170.32L97.84 177.69L92.77 175.62L90.65 180.34L81.64 174.32L84.68 170.91Z" fill="#263238"/>
<path opacity="0.2" d="M84.68 170.91L91.83 173.86L92.12 169.02L97.39 170.32L97.84 177.69L92.77 175.62L90.65 180.34L81.64 174.32L84.68 170.91Z" fill="white"/>
<path opacity="0.2" d="M78.19 193.64C77.45 191.693 76.7367 189.817 76.05 188.01L74.21 183.2L73.34 180.92C74.34 180.43 76.89 180.72 77.6 181.92C80.2 186.46 78.19 193.64 78.19 193.64Z" fill="black"/>
<path opacity="0.2" d="M90.72 198.72C90.2929 200.684 89.4282 202.527 88.1903 204.112C86.9523 205.696 85.3731 206.98 83.57 207.87C82.38 204.7 81.21 201.59 80.07 198.58C79.7833 197.807 79.4933 197.047 79.2 196.3L78.2 193.64L89.78 195.11L90.72 198.72Z" fill="black"/>
<path opacity="0.2" d="M118.66 180.85C113.52 179.75 108.16 178.21 108.16 178.21L107.49 173.14C107.49 173.14 116.94 174.15 118.66 180.85Z" fill="black"/>
<path d="M71.69 299C71.3765 299.01 71.0676 298.922 70.8068 298.748C70.546 298.574 70.3463 298.322 70.236 298.029C70.1256 297.735 70.11 297.414 70.1915 297.111C70.2729 296.808 70.4473 296.539 70.69 296.34C87.38 282.64 87.06 261.17 86.75 240.4C86.51 224.74 86.29 209.94 93.66 199.88C104 185.74 145.59 163.31 152.48 162.67C157.41 162.18 307.78 120.39 386.61 98.3599C386.993 98.2525 387.403 98.3017 387.75 98.4967C388.097 98.6918 388.353 99.0166 388.46 99.3999C388.567 99.7831 388.518 100.193 388.323 100.54C388.128 100.887 387.803 101.142 387.42 101.25C378.09 103.86 158.94 165.09 152.76 165.66C146.83 166.21 105.66 188.55 96.08 201.66C89.31 210.91 89.52 225.22 89.75 240.36C90.05 260.84 90.4 284.06 72.59 298.67C72.3349 298.877 72.0183 298.993 71.69 299Z" fill="#263238"/>
<path opacity="0.4" d="M387.47 101.24L366.91 107C310.36 122.78 157.91 165.2 152.81 165.67C146.88 166.22 105.71 188.56 96.13 201.67C89.36 210.92 89.5701 225.23 89.8001 240.37C90.1001 260.85 90.45 284.07 72.64 298.68C72.3599 298.912 72.0039 299.033 71.64 299.02C71.3265 299.03 71.0177 298.942 70.7568 298.768C70.496 298.594 70.2963 298.342 70.186 298.049C70.0756 297.755 70.06 297.434 70.1415 297.131C70.2229 296.828 70.3973 296.559 70.64 296.36C87.33 282.66 87.01 261.19 86.7 240.42C86.46 224.76 86.24 209.96 93.61 199.9C103.95 185.76 145.54 163.33 152.43 162.69C157.07 162.23 290.29 125.25 371.71 102.53L386.56 98.3799C386.943 98.2725 387.353 98.3217 387.7 98.5167C388.047 98.7118 388.303 99.0367 388.41 99.4199C388.517 99.8031 388.468 100.213 388.273 100.56C388.078 100.907 387.753 101.162 387.37 101.27L387.47 101.24Z" fill="white"/>
<path opacity="0.2" d="M387.47 101.24L366.91 107C368.351 105.309 369.997 103.804 371.81 102.52L386.66 98.3699C387.043 98.2625 387.453 98.3117 387.8 98.5068C388.147 98.7018 388.403 99.0267 388.51 99.4099C388.617 99.7931 388.568 100.203 388.373 100.55C388.178 100.897 387.853 101.152 387.47 101.26V101.24Z" fill="black"/>
<path d="M81.91 195.8L89.77 195.11C89.77 195.11 93.88 192.51 94.67 192.68C95.46 192.85 103.29 196.68 103.29 196.68C103.29 196.68 99.74 201.25 99.15 202.2C98.56 203.15 91.49 198.67 91.49 198.67L83.7 199.5L81.91 195.8Z" fill="#EBB376"/>
<path d="M71.69 176.62C68.12 179.17 58.82 199.96 59.81 203.17C60.8 206.38 89.74 200.05 89.74 200.05L88.46 194.64H72.89L76.59 188.8C76.59 188.8 78.87 186.58 77.47 181.42C76.46 177.7 71.69 176.62 71.69 176.62Z" fill="#263238"/>
<path d="M373.21 178.71L367.28 175.9C367.28 175.9 364.28 170.16 363.4 169.24C362.52 168.32 358.27 171.89 358.27 172.51C358.27 173.13 361.35 178.93 362.15 179.28C363.34 179.455 364.55 179.455 365.74 179.28L371.38 182.01L373.21 178.71Z" fill="#9F5B53"/>
<path d="M387.05 143.14L388.24 138.89C388.24 138.89 390.12 133.35 389.92 132.07C389.552 130.555 389.078 129.068 388.5 127.62C388.5 127.62 383.3 133.95 383.3 134.74C383.3 135.53 385.36 138.4 385.36 138.4L384.36 143.14H387.05Z" fill="#9F5B53"/>
<path d="M391.62 174.8C391.62 174.8 387.14 169.23 385.82 164.05C384.5 158.87 388.49 142.05 388.49 142.05L384.28 140.93C384.28 140.93 379.28 158.14 379.11 164.42C378.94 170.7 388.28 189.13 388.28 189.13L391.62 174.8Z" fill="#407BFF"/>
<path opacity="0.2" d="M388.91 186.36L388.27 189.09C388.27 189.09 385.05 182.74 382.42 176.22C385.157 178.186 387.221 180.948 388.33 184.13C388.584 184.856 388.778 185.602 388.91 186.36Z" fill="black"/>
<path d="M415.34 187C415.283 188.162 415.143 189.318 414.92 190.46C414.46 192.96 413.68 195.91 412.79 199.16C412.31 200.87 411.79 202.7 411.33 204.63C409.1 213.3 407.89 216.75 406.24 227.82L374.59 220.31C376.301 210.834 378.909 201.542 382.38 192.56C383.3 190.17 384.38 187.78 385.47 185.42C387.218 181.72 389.275 178.174 391.62 174.82C391.62 174.82 396.74 179.5 412.82 182.31C414.77 182.61 415.44 184.31 415.34 187Z" fill="#407BFF"/>
<path opacity="0.2" d="M411.36 183.39C411.36 184.39 415.15 189.15 414.92 190.39C414.49 190.68 413.98 191 413.4 191.39C402.69 197.62 388.64 194.46 382.4 192.53C383.32 190.14 385.4 185.75 386.48 183.39L393.99 185.06C393.99 185.06 406.27 182.26 411.36 183.39Z" fill="black"/>
<path d="M398.49 176.71C399.64 176.27 409.08 178.62 408.38 178.82C407.68 179.02 404.16 189.82 399.23 189.01C394.3 188.2 394.39 178.27 398.49 176.71Z" fill="#407BFF"/>
<path d="M355.75 353.66L349.81 354.95L346.34 341.29L352.29 340L355.75 353.66Z" fill="#9F5B53"/>
<path d="M348.33 352.47H355.72C355.841 352.47 355.957 352.512 356.05 352.589C356.143 352.665 356.207 352.772 356.23 352.89L357.43 358.3C357.456 358.416 357.459 358.536 357.439 358.652C357.418 358.769 357.375 358.881 357.31 358.98C357.246 359.08 357.162 359.166 357.064 359.233C356.967 359.3 356.856 359.346 356.74 359.37H356.54C354.15 359.37 352.41 359.18 349.41 359.18C347.56 359.18 341.98 359.37 339.41 359.37C336.84 359.37 336.53 356.85 337.57 356.62C342.26 355.62 345.79 354.18 347.29 352.84C347.43 352.713 347.594 352.614 347.773 352.551C347.951 352.487 348.141 352.46 348.33 352.47Z" fill="#263238"/>
<path d="M346.32 353.54C345.906 353.571 345.494 353.462 345.15 353.23C345.038 353.138 344.951 353.019 344.899 352.885C344.846 352.75 344.829 352.603 344.85 352.46C344.845 352.376 344.866 352.292 344.908 352.219C344.951 352.146 345.014 352.087 345.09 352.05C345.77 351.7 347.73 352.91 347.95 353.05C347.975 353.063 347.996 353.083 348.008 353.108C348.021 353.134 348.025 353.162 348.02 353.19C348.016 353.219 348.004 353.246 347.984 353.268C347.964 353.289 347.939 353.304 347.91 353.31C347.39 353.446 346.857 353.523 346.32 353.54ZM345.41 352.28C345.352 352.26 345.288 352.26 345.23 352.28C345.23 352.28 345.14 352.33 345.13 352.45C345.12 352.545 345.132 352.641 345.167 352.73C345.202 352.819 345.258 352.898 345.33 352.96C346.01 353.271 346.782 353.31 347.49 353.07C346.854 352.675 346.148 352.406 345.41 352.28Z" fill="#407BFF"/>
<path d="M347.87 353.32H347.8C347.18 352.98 345.96 351.64 346.08 351C346.103 350.893 346.162 350.796 346.248 350.727C346.333 350.658 346.44 350.62 346.55 350.62C346.659 350.606 346.771 350.615 346.876 350.648C346.981 350.681 347.078 350.736 347.16 350.81C347.86 351.38 348.01 353.13 348.02 353.21C348.022 353.236 348.016 353.262 348.004 353.285C347.991 353.308 347.973 353.327 347.95 353.34C347.936 353.344 347.921 353.345 347.907 353.341C347.893 353.338 347.88 353.33 347.87 353.32ZM346.65 350.85H346.58C346.39 350.85 346.38 350.96 346.37 351C346.29 351.4 347.07 352.41 347.69 352.88C347.656 352.198 347.415 351.542 347 351C346.955 350.953 346.901 350.915 346.841 350.889C346.78 350.863 346.715 350.85 346.65 350.85Z" fill="#407BFF"/>
<path d="M406.5 228.65C406.5 228.65 401.37 253.11 389.37 259.65C387.993 260.425 386.484 260.937 384.92 261.16C384.92 261.16 372.75 266.16 362.23 270.89C355.83 273.78 350.04 276.6 347.97 278.18C342.49 282.35 355.91 347.45 355.91 347.45L346.79 347.55C346.79 347.55 327.6 289.91 330.79 274.78C333.98 259.65 368.42 236.49 368.42 236.49L373.72 221.91L406.5 228.65Z" fill="#263238"/>
<path opacity="0.2" d="M389.37 259.68C387.993 260.455 386.484 260.967 384.92 261.19C384.92 261.19 372.75 266.19 362.23 270.92C369 258.47 381.07 250.38 381.07 250.38L389.37 259.68Z" fill="black"/>
<path d="M432.21 353.66L426.27 354.95L422.8 341.29L428.75 340L432.21 353.66Z" fill="#9F5B53"/>
<path d="M424.79 352.47H432.18C432.301 352.47 432.417 352.512 432.51 352.589C432.603 352.665 432.667 352.772 432.69 352.89L433.89 358.3C433.916 358.416 433.919 358.536 433.899 358.652C433.878 358.769 433.835 358.881 433.77 358.98C433.706 359.08 433.622 359.166 433.524 359.233C433.427 359.3 433.316 359.346 433.2 359.37H433C430.61 359.37 428.87 359.18 425.87 359.18C424.02 359.18 418.44 359.37 415.87 359.37C413.3 359.37 412.99 356.85 414.03 356.62C418.72 355.62 422.25 354.18 423.75 352.84C423.89 352.713 424.054 352.614 424.233 352.551C424.411 352.487 424.601 352.46 424.79 352.47Z" fill="#263238"/>
<path d="M422.78 353.54C422.366 353.571 421.954 353.462 421.61 353.23C421.498 353.138 421.411 353.019 421.359 352.885C421.306 352.75 421.289 352.603 421.31 352.46C421.305 352.376 421.326 352.292 421.368 352.219C421.411 352.146 421.474 352.087 421.55 352.05C422.23 351.7 424.19 352.91 424.41 353.05C424.435 353.063 424.456 353.083 424.468 353.108C424.481 353.134 424.485 353.162 424.48 353.19C424.476 353.219 424.464 353.246 424.444 353.268C424.425 353.289 424.399 353.304 424.37 353.31C423.85 353.446 423.317 353.523 422.78 353.54ZM421.87 352.28C421.812 352.26 421.748 352.26 421.69 352.28C421.69 352.28 421.6 352.33 421.59 352.45C421.58 352.545 421.592 352.641 421.627 352.73C421.662 352.819 421.718 352.898 421.79 352.96C422.47 353.271 423.242 353.31 423.95 353.07C423.314 352.675 422.608 352.406 421.87 352.28Z" fill="#407BFF"/>
<path d="M424.33 353.32H424.26C423.64 352.98 422.42 351.64 422.54 351C422.563 350.893 422.622 350.796 422.708 350.727C422.793 350.658 422.9 350.62 423.01 350.62C423.119 350.606 423.231 350.615 423.336 350.648C423.441 350.681 423.538 350.736 423.62 350.81C424.32 351.38 424.47 353.13 424.48 353.21C424.482 353.236 424.476 353.262 424.464 353.285C424.451 353.308 424.433 353.327 424.41 353.34C424.396 353.344 424.381 353.345 424.367 353.341C424.353 353.338 424.34 353.33 424.33 353.32ZM423.11 350.85H423C422.81 350.85 422.8 350.96 422.79 351C422.71 351.4 423.49 352.41 424.11 352.88C424.071 352.188 423.82 351.524 423.39 350.98C423.314 350.907 423.215 350.861 423.11 350.85Z" fill="#407BFF"/>
<path d="M408.55 181.89C407.06 182.89 400.19 182.51 400.19 182.51L397 186L396.69 180.23C396.69 180.23 394.54 179.34 395.13 178.72C395.878 178.776 396.629 178.682 397.34 178.443C398.051 178.204 398.707 177.826 399.27 177.33C400.66 175.97 400.93 173.78 400.91 171.61C400.91 171.61 400.91 171.55 400.91 171.53L406.78 168.53L410.84 166.44C408.93 170.56 406.2 178.29 408.55 181.89Z" fill="#9F5B53"/>
<path opacity="0.2" d="M408.72 169.9C406.78 174.81 401.72 177 399.23 177.32C400.62 175.96 400.89 173.77 400.87 171.6C400.875 171.57 400.875 171.54 400.87 171.51L406.74 168.51C406.75 169.31 409 169.15 408.72 169.9Z" fill="black"/>
<path d="M412.45 169.7C412.45 169.7 416.26 171.7 417.53 169.31C418.8 166.92 416.99 166.78 418.86 165.92C420.73 165.06 423.39 164.46 422.78 162.65C422.17 160.84 420.28 160.65 422.38 158.65C424.48 156.65 424.94 153.83 421.8 153.28C418.66 152.73 419.86 150.28 419.7 149.28C419.54 148.28 417.78 147.58 415.87 147.98C413.96 148.38 413.16 145.55 411.98 144.67C410.8 143.79 409.17 144.87 408.74 146.06C408.31 147.25 407.18 145.67 405.5 145.47C403.82 145.27 404.21 147.04 403.69 148.69C403.17 150.34 402.14 149.27 400.94 150.63C399.74 151.99 399.63 161.27 412.45 169.7Z" fill="#263238"/>
<path d="M414.11 164C411.24 168.5 409.61 171.47 406.39 172.93C405.956 173.13 405.508 173.297 405.05 173.43C398.79 175.27 393.63 169.24 395.28 163.27C395.594 162.192 395.995 161.142 396.48 160.13C398.72 155.44 403.03 150.64 408.18 151.27C409.255 151.393 410.296 151.727 411.242 152.252C412.188 152.778 413.021 153.485 413.694 154.333C414.366 155.181 414.865 156.154 415.161 157.195C415.457 158.236 415.545 159.325 415.42 160.4C415.269 161.685 414.82 162.918 414.11 164Z" fill="#9F5B53"/>
<path d="M405.3 161C405.09 161.45 404.64 161.65 404.36 161.5C404.08 161.35 404.05 160.86 404.28 160.44C404.51 160.02 404.95 159.79 405.22 159.94C405.49 160.09 405.54 160.59 405.3 161Z" fill="#263238"/>
<path d="M400.45 158.33C400.388 158.518 400.255 158.674 400.08 158.766C399.904 158.857 399.7 158.877 399.51 158.82C399.24 158.66 399.2 158.19 399.44 157.76C399.68 157.33 400.1 157.11 400.38 157.27C400.66 157.43 400.68 157.92 400.45 158.33Z" fill="#263238"/>
<path d="M401.88 159.4C400.637 160.422 399.261 161.269 397.79 161.92C397.966 162.294 398.222 162.626 398.54 162.89C398.858 163.154 399.23 163.346 399.63 163.45L401.88 159.4Z" fill="#892B29"/>
<path d="M408.2 159.88C408.148 159.888 408.094 159.882 408.045 159.863C407.996 159.843 407.953 159.811 407.92 159.77C407.717 159.471 407.447 159.225 407.13 159.051C406.814 158.877 406.461 158.781 406.1 158.77C406.058 158.778 406.015 158.776 405.974 158.766C405.932 158.755 405.894 158.736 405.861 158.708C405.828 158.681 405.802 158.647 405.784 158.608C405.766 158.57 405.756 158.528 405.756 158.485C405.756 158.442 405.766 158.4 405.784 158.362C405.802 158.323 405.828 158.289 405.861 158.262C405.894 158.235 405.932 158.215 405.974 158.204C406.015 158.194 406.058 158.192 406.1 158.2C406.556 158.203 407.004 158.317 407.406 158.531C407.809 158.745 408.153 159.054 408.41 159.43C408.434 159.459 408.451 159.493 408.461 159.529C408.472 159.565 408.475 159.603 408.47 159.641C408.465 159.678 408.453 159.714 408.434 159.747C408.415 159.779 408.39 159.808 408.36 159.83C408.311 159.859 408.257 159.877 408.2 159.88Z" fill="#263238"/>
<path d="M400.8 166.13C401.471 166.348 402.186 166.401 402.882 166.285C403.578 166.168 404.236 165.885 404.8 165.46C404.825 165.431 404.839 165.394 404.839 165.355C404.839 165.317 404.825 165.279 404.8 165.25C404.772 165.223 404.734 165.207 404.695 165.207C404.656 165.207 404.618 165.223 404.59 165.25C404.056 165.634 403.44 165.888 402.791 165.992C402.142 166.096 401.477 166.048 400.85 165.85C400.832 165.842 400.813 165.838 400.794 165.839C400.775 165.839 400.756 165.844 400.739 165.852C400.721 165.861 400.706 165.873 400.694 165.889C400.683 165.904 400.674 165.921 400.67 165.94C400.662 165.958 400.658 165.977 400.659 165.996C400.659 166.015 400.664 166.034 400.672 166.051C400.681 166.069 400.693 166.084 400.708 166.096C400.724 166.108 400.741 166.116 400.76 166.12L400.8 166.13Z" fill="#263238"/>
<path d="M400 154.18C399.985 154.125 399.985 154.066 400 154.01C400.033 153.942 400.091 153.889 400.162 153.863C400.233 153.837 400.311 153.839 400.38 153.87C400.8 154.058 401.168 154.344 401.453 154.705C401.739 155.065 401.933 155.489 402.02 155.94C402.028 156.016 402.007 156.091 401.96 156.151C401.914 156.211 401.845 156.25 401.77 156.26C401.695 156.269 401.619 156.247 401.559 156.201C401.499 156.154 401.46 156.085 401.45 156.01C401.371 155.657 401.211 155.328 400.982 155.048C400.752 154.768 400.461 154.546 400.13 154.4C400.094 154.374 400.064 154.342 400.042 154.304C400.02 154.266 400.005 154.224 400 154.18Z" fill="#263238"/>
<path d="M404.12 151.69C405.58 151.87 406.3 153.69 406.3 153.69C408.065 154.335 409.772 155.132 411.4 156.07C411.897 156.475 412.27 157.011 412.479 157.617C412.687 158.223 412.722 158.875 412.58 159.5C412.53 159.98 411.35 160.42 411.35 160.42C411.35 160.42 409.19 165.52 408.6 166.93L408.9 171.64C412.869 169.13 416.048 165.549 418.07 161.31C421.48 154.21 407.25 147.96 407.25 147.96L404.12 151.69Z" fill="#263238"/>
<path d="M413.25 171.12C411.92 171.848 410.356 172.021 408.9 171.6C406.97 171.02 407.08 169.04 408.51 167.77C409.79 166.67 412.36 165.58 413.85 166.86C414.176 167.139 414.427 167.495 414.579 167.896C414.731 168.297 414.779 168.73 414.719 169.155C414.659 169.579 414.493 169.982 414.236 170.326C413.98 170.669 413.64 170.942 413.25 171.12Z" fill="#9F5B53"/>
<path d="M408.38 178.82L400.43 181.11L397 185.76L397.93 180.07C397.93 180.07 397.08 178.76 398.49 176.71L393.65 177.71L390.73 182.59L396.41 181.26L396.8 186.93L400.11 183.03L402.82 187.31L410.88 182.2L408.38 178.82Z" fill="#407BFF"/>
<path opacity="0.2" d="M408.38 178.82L400.43 181.11L397 185.76L397.93 180.07C397.93 180.07 397.08 178.76 398.49 176.71L393.65 177.71L390.73 182.59L396.41 181.26L396.8 186.93L400.11 183.03L402.82 187.31L410.88 182.2L408.38 178.82Z" fill="black"/>
<path d="M375.01 217L373.77 221.94L406.49 228.65L406.98 223.16L375.01 217Z" fill="black"/>
<path d="M389.62 219.59C389.36 219.22 382.08 217.65 381.39 218.17C381.39 218.17 379.98 223.04 380.22 223.55C380.46 224.06 387.54 225.05 388.22 225.19C388.9 225.33 389.88 220 389.62 219.59ZM387.62 224.59C387.08 224.48 381.26 223.67 381.06 223.25C380.86 222.83 382.06 218.83 382.06 218.83C382.63 218.4 388.61 219.69 388.82 219.99C389.03 220.29 388.16 224.65 387.62 224.54V224.59Z" fill="white"/>
<path d="M387.9 221.25L386.45 220.95C386.318 220.925 386.181 220.95 386.066 221.02C385.952 221.09 385.867 221.201 385.83 221.33C385.809 221.402 385.804 221.478 385.814 221.553C385.824 221.627 385.85 221.699 385.89 221.763C385.929 221.827 385.982 221.882 386.044 221.925C386.106 221.967 386.176 221.996 386.25 222.01L387.7 222.29C387.841 222.318 387.986 222.289 388.106 222.209C388.225 222.129 388.307 222.006 388.335 221.865C388.363 221.724 388.334 221.579 388.254 221.459C388.174 221.34 388.051 221.258 387.91 221.23L387.9 221.25Z" fill="white"/>
<path d="M406.49 228.65C406.49 228.65 407.12 265.65 406.08 276.45C405.04 287.25 432 346.36 432 346.36H423.27C423.27 346.36 396.82 303.08 390.76 289.76C384.7 276.44 380.22 244.66 380.22 244.66L406.49 228.65Z" fill="#263238"/>
<path d="M415.45 184.4C414.1 181.34 393.37 185.87 391.5 185.34C389.63 184.81 370.17 176.66 370.17 176.66L368.48 181C368.48 181 385.93 191 389.75 192.58C393.57 194.16 408.84 193.4 412.75 191.71C413.419 191.422 414.023 191 414.524 190.471C415.026 189.943 415.414 189.317 415.667 188.634C415.919 187.95 416.03 187.223 415.993 186.495C415.956 185.767 415.771 185.054 415.45 184.4Z" fill="#407BFF"/>
<path d="M411.78 104.93L405.5 64.9299L372.42 88.3199L383.42 92.9799C372.8 117.32 338.35 188.63 279.07 241.21C203.38 308.36 97.44 341.4 96.38 341.72L102.24 360.85C106.74 359.47 213.32 326.27 292.38 256.14C355.38 200.26 390.8 126.56 401.92 100.76L411.78 104.93Z" fill="#407BFF"/>
<path opacity="0.4" d="M405.78 97.9299L405.5 64.9299L372.42 88.3199L383.42 92.9799C372.8 117.32 338.35 188.63 279.07 241.21C203.38 308.36 97.44 341.4 96.38 341.72L98.24 353.85C102.74 352.47 209.32 322.27 288.38 252.14C351.38 196.26 384.8 121.56 395.92 95.7599L405.78 97.9299Z" fill="white"/>
<path d="M400 106.62C399.844 106.621 399.689 106.598 399.54 106.55L380.33 100.34C380.132 100.289 379.947 100.198 379.785 100.072C379.624 99.9467 379.49 99.7896 379.392 99.6104C379.293 99.4313 379.232 99.2339 379.213 99.0305C379.193 98.827 379.216 98.6217 379.279 98.4271C379.341 98.2326 379.443 98.053 379.578 97.8993C379.713 97.7455 379.877 97.621 380.062 97.5332C380.247 97.4455 380.447 97.3964 380.652 97.3889C380.856 97.3815 381.06 97.4159 381.25 97.49L400.46 103.69C400.802 103.798 401.094 104.026 401.283 104.331C401.471 104.636 401.545 104.998 401.489 105.353C401.433 105.707 401.253 106.03 400.979 106.262C400.706 106.495 400.359 106.622 400 106.62Z" fill="#263238"/>
<path opacity="0.4" d="M400 106.62C399.844 106.621 399.689 106.598 399.54 106.55L380.33 100.34C380.132 100.289 379.947 100.198 379.785 100.072C379.624 99.9467 379.49 99.7896 379.392 99.6104C379.293 99.4313 379.232 99.2339 379.213 99.0305C379.193 98.827 379.216 98.6217 379.279 98.4271C379.341 98.2326 379.443 98.053 379.578 97.8993C379.713 97.7455 379.877 97.621 380.062 97.5332C380.247 97.4455 380.447 97.3964 380.652 97.3889C380.856 97.3815 381.06 97.4159 381.25 97.49L400.46 103.69C400.802 103.798 401.094 104.026 401.283 104.331C401.471 104.636 401.545 104.998 401.489 105.353C401.433 105.707 401.253 106.03 400.979 106.262C400.706 106.495 400.359 106.622 400 106.62Z" fill="white"/>
<path d="M169.93 293.82C169.532 293.82 169.151 293.662 168.869 293.381C168.588 293.099 168.43 292.718 168.43 292.32C168.43 244.58 182.3 238.32 184.9 237.55L229 206.7L229.1 206.64L398.52 106.18C398.862 105.985 399.266 105.932 399.647 106.033C400.027 106.134 400.352 106.38 400.553 106.718C400.753 107.056 400.813 107.46 400.719 107.842C400.625 108.224 400.385 108.553 400.05 108.76L230.71 209.19L186.4 240.19C186.211 240.321 185.996 240.41 185.77 240.45C185.66 240.45 171.43 243.95 171.43 292.35C171.422 292.743 171.261 293.116 170.98 293.391C170.7 293.666 170.323 293.82 169.93 293.82Z" fill="#263238"/>
<path opacity="0.4" d="M169.93 293.82C169.532 293.82 169.151 293.662 168.869 293.381C168.588 293.099 168.43 292.718 168.43 292.32C168.43 244.58 182.3 238.32 184.9 237.55L229 206.7L229.1 206.64L398.52 106.18C398.862 105.985 399.266 105.932 399.647 106.033C400.027 106.134 400.352 106.38 400.553 106.718C400.753 107.056 400.813 107.46 400.719 107.842C400.625 108.224 400.385 108.553 400.05 108.76L230.71 209.19L186.4 240.19C186.211 240.321 185.996 240.41 185.77 240.45C185.66 240.45 171.43 243.95 171.43 292.35C171.422 292.743 171.261 293.116 170.98 293.391C170.7 293.666 170.323 293.82 169.93 293.82Z" fill="white"/>
<path d="M181.45 244.28C181.45 244.28 173.74 249.28 167.88 250.79C166.434 251.279 164.882 251.365 163.39 251.04C159.03 249.66 161.62 241.22 164.22 235.89C164.64 235.02 165.06 234.24 165.45 233.58L173.07 238.29C173.07 238.29 168.45 244.88 168.98 245.29C169.51 245.7 176.63 241.73 176.98 241.6C177.33 241.47 181.45 244.28 181.45 244.28Z" fill="#407BFF"/>
<path opacity="0.2" d="M181.45 244.28C181.45 244.28 173.74 249.28 167.88 250.79C166.253 245.932 165.029 240.949 164.22 235.89C164.64 235.02 165.06 234.24 165.45 233.58L173.07 238.29C173.07 238.29 168.45 244.88 168.98 245.29C169.51 245.7 176.63 241.73 176.98 241.6C177.33 241.47 181.45 244.28 181.45 244.28Z" fill="black"/>
<path d="M219 215.26L223.52 211.26C223.881 210.118 224.378 209.024 225 208C225.49 207.59 233.72 206.95 233.72 206.95C233.72 206.95 233.88 211.3 233.23 212.43C232.58 213.56 225.86 214.05 225.86 214.05L222.26 217.52L219 215.26Z" fill="#EEC1BB"/>
<path d="M243.08 310.05C241.79 328.61 238.34 354.95 238.34 354.95L233.9 355.95C233.9 355.95 229.8 333.9 230.45 313.44C230.566 308.98 230.987 304.533 231.71 300.13C231.71 300.13 216.33 294.22 205.65 288.93C200.55 286.41 196.52 284.02 195.75 282.48C193.37 277.73 204.19 266.57 204.19 266.57C204.53 266.84 211.06 271 218.66 275.93C228.75 282.47 240.72 290.37 242.66 292.34C243.82 293.47 243.72 300.79 243.08 310.05Z" fill="#EEC1BB"/>
<path opacity="0.2" d="M243.08 310.05C238.976 311.538 234.75 312.666 230.45 313.42C230.566 308.96 230.987 304.513 231.71 300.11C231.71 300.11 216.33 294.2 205.65 288.91L218.65 275.91C228.74 282.45 240.71 290.35 242.65 292.32C243.82 293.47 243.72 300.79 243.08 310.05Z" fill="black"/>
<path d="M208.46 263.47C208.46 263.47 251.13 288 256.93 293.54C262.73 299.08 296.21 350.85 296.21 350.85L293.39 353.54C293.39 353.54 265.59 329.68 254.5 307L208.5 284.77L208.46 263.47Z" fill="#EEC1BB"/>
<path d="M176 218.18C176.069 218.227 176.143 218.268 176.22 218.3C177.268 218.894 178.424 219.271 179.62 219.41C183.1 219.72 185.34 218.94 186.62 217.2C188.4 214.62 188.36 210.5 187.38 205.65C187.056 203.709 186.424 201.832 185.51 200.09C185.51 200.09 185.51 200.02 185.51 200.01L185.39 199.81C184.833 198.834 184.041 198.014 183.086 197.423C182.13 196.833 181.042 196.491 179.92 196.43C178.943 196.349 177.961 196.376 176.99 196.51C167.49 197.74 168 213.76 176 218.18Z" fill="#EEC1BB"/>
<path opacity="0.2" d="M176.26 218.3C177.31 218.861 178.464 219.201 179.65 219.3C183.12 219.61 185.35 218.71 186.65 216.96C184.705 217.735 182.561 217.858 180.54 217.31C179.798 217.138 179.027 217.138 178.285 217.31C177.544 217.481 176.851 217.82 176.26 218.3Z" fill="black"/>
<path d="M175.62 226.12C174.79 228.8 178.22 230.22 178.22 230.22C184.22 228.22 185.57 225.29 185.57 225.29C180.97 222.29 182.99 215.35 182.99 215.35L181.99 215.75L174.99 216.49C174.99 216.49 176.58 220.32 176.76 221.18C177.64 225.69 175.62 226.12 175.62 226.12Z" fill="#EBB376"/>
<path d="M185.57 200C185.57 200 187.03 206.61 181.1 210.36C181.1 210.36 179.35 217.69 175.36 218.36C169.92 219.26 164.03 212.17 164.81 203.99C165.83 193.41 181.25 190.4 185.57 200Z" fill="#263238"/>
<path d="M184 208C183.85 207 182.77 205.32 181.18 205.79C179.59 206.26 179.18 210.53 183.44 210.88C184.09 211 184.35 210.2 184 208Z" fill="#EBB376"/>
<path d="M294.35 347.67L289.75 351.21C289.656 351.286 289.59 351.391 289.563 351.509C289.535 351.627 289.549 351.75 289.6 351.86L291.94 356.86C291.99 356.966 292.061 357.061 292.148 357.139C292.235 357.218 292.337 357.278 292.448 357.317C292.558 357.356 292.675 357.373 292.793 357.367C292.91 357.36 293.024 357.331 293.13 357.28C293.19 357.252 293.247 357.219 293.3 357.18C295.16 355.69 295.22 355.46 297.59 353.64C299.04 352.52 303.59 349.28 305.59 347.73C307.59 346.18 306.33 343.99 305.37 344.44C301.05 346.44 297.37 347.51 295.37 347.36C295.003 347.332 294.639 347.443 294.35 347.67Z" fill="#263238"/>
<path d="M295.35 347.58C295.324 347.592 295.296 347.597 295.268 347.592C295.24 347.588 295.214 347.575 295.193 347.555C295.172 347.536 295.158 347.511 295.152 347.483C295.146 347.455 295.149 347.426 295.16 347.4C295.25 347.16 296.07 345.01 296.81 344.88C296.892 344.862 296.977 344.869 297.055 344.899C297.134 344.929 297.201 344.982 297.25 345.05C297.352 345.151 297.427 345.277 297.467 345.415C297.507 345.553 297.512 345.7 297.48 345.84C297.361 346.248 297.103 346.602 296.75 346.84C296.313 347.14 295.844 347.388 295.35 347.58ZM295.56 347.17C296.266 346.931 296.853 346.429 297.2 345.77C297.22 345.675 297.215 345.577 297.187 345.485C297.159 345.392 297.109 345.308 297.04 345.24C296.96 345.16 296.89 345.14 296.86 345.17C296.798 345.182 296.739 345.209 296.69 345.25C296.195 345.812 295.811 346.464 295.56 347.17Z" fill="#407BFF"/>
<path d="M295.34 347.63C295.315 347.631 295.29 347.626 295.268 347.615C295.245 347.605 295.226 347.589 295.21 347.57C295.21 347.5 294.21 346.03 294.42 345.15C294.444 345.043 294.489 344.942 294.552 344.853C294.616 344.763 294.697 344.688 294.79 344.63C294.875 344.562 294.981 344.525 295.09 344.525C295.199 344.525 295.305 344.562 295.39 344.63C295.88 345.06 295.73 346.85 295.44 347.5L295.39 347.55L295.34 347.63ZM294.67 345.17C294.667 345.861 294.873 346.537 295.26 347.11C295.499 346.362 295.463 345.554 295.16 344.83C295.16 344.83 295.05 344.72 294.91 344.83H294.85C294.751 344.918 294.687 345.039 294.67 345.17Z" fill="#407BFF"/>
<path d="M239.12 352L233.31 352.11C233.191 352.116 233.077 352.162 232.987 352.24C232.896 352.317 232.834 352.423 232.81 352.54L231.72 357.95C231.688 358.176 231.743 358.405 231.875 358.592C232.007 358.778 232.206 358.906 232.43 358.95C232.496 358.96 232.564 358.96 232.63 358.95C235 358.86 235.19 358.71 238.18 358.65C240.02 358.65 245.57 358.7 248.11 358.65C250.65 358.6 250.93 356.08 249.89 355.87C245.2 354.95 241.67 353.61 240.15 352.3C239.858 352.072 239.489 351.964 239.12 352Z" fill="#263238"/>
<path d="M239.64 352.64C239.611 352.635 239.584 352.621 239.564 352.599C239.544 352.577 239.532 352.549 239.53 352.52C239.522 352.493 239.524 352.465 239.535 352.439C239.546 352.414 239.565 352.393 239.59 352.38C239.8 352.24 241.73 351 242.41 351.33C242.487 351.364 242.553 351.421 242.599 351.492C242.645 351.562 242.67 351.645 242.67 351.73C242.69 351.872 242.674 352.017 242.623 352.152C242.572 352.286 242.489 352.406 242.38 352.5C242.044 352.742 241.633 352.859 241.22 352.83C240.688 352.827 240.158 352.763 239.64 352.64ZM240.05 352.43C240.759 352.657 241.529 352.603 242.2 352.28C242.271 352.215 242.324 352.133 242.356 352.043C242.387 351.952 242.395 351.855 242.38 351.76C242.38 351.65 242.32 351.6 242.29 351.6C242.227 351.586 242.163 351.586 242.1 351.6C241.371 351.745 240.675 352.027 240.05 352.43Z" fill="#407BFF"/>
<path d="M239.6 352.67C239.577 352.658 239.557 352.639 239.545 352.616C239.532 352.593 239.527 352.566 239.53 352.54C239.53 352.46 239.64 350.72 240.33 350.13C240.412 350.056 240.509 350.001 240.614 349.968C240.719 349.935 240.831 349.925 240.94 349.94C241.049 349.937 241.156 349.973 241.241 350.041C241.327 350.108 241.387 350.203 241.41 350.31C241.54 350.94 240.41 352.31 239.74 352.65H239.67C239.65 352.665 239.625 352.672 239.6 352.67ZM240.52 350.3C240.108 350.854 239.871 351.52 239.84 352.21C240.46 351.73 241.21 350.7 241.12 350.31C241.12 350.31 241.12 350.17 240.91 350.17H240.84C240.721 350.172 240.607 350.218 240.52 350.3Z" fill="#407BFF"/>
<path d="M207.27 256.9L186.1 265.79C177.35 244.04 165.45 233.58 165.45 233.58C173.93 223.41 189.59 218.73 189.59 218.73C191.903 220.612 193.899 222.854 195.5 225.37C197.266 228.103 198.804 230.976 200.1 233.96C203.245 241.35 205.647 249.034 207.27 256.9Z" fill="#407BFF"/>
<path d="M185.37 204.42C185.37 204.42 192.02 197.64 185.65 193.17C179.28 188.7 172.96 194.67 172.96 194.67C172.96 194.67 157.83 198.48 161.15 208.53C164.47 218.58 166.59 219.41 161.84 224.63C157.09 229.85 152.25 237.55 157.21 242.4C162.17 247.25 179.27 242.05 184.4 234.61C189.53 227.17 180.19 211.4 185.37 204.42Z" fill="#263238"/>
<path d="M205.73 250.38L182.73 258.27C182.73 258.27 187.82 283.32 191.51 287.51C195.2 291.7 219.87 311.1 223.36 309.57C226.85 308.04 250 287.51 250 287.51L210.83 260.65L205.73 250.38Z" fill="#263238"/>
<path d="M202.38 255.09L207.27 253.47L206.06 251.05L201.43 252.68L202.38 255.09Z" fill="black"/>
<path d="M187.76 257.49L182.75 259.25L183.42 261.39L188.32 259.76L187.76 257.49Z" fill="black"/>
<path d="M189.37 259.41L201.4 255.42L200.5 253L188.71 257.15L189.37 259.41Z" fill="black"/>
<path opacity="0.2" d="M200.1 234C195.04 233.41 192.19 225.8 192.19 225.8C193.285 225.604 194.39 225.473 195.5 225.41C197.266 228.143 198.804 231.016 200.1 234Z" fill="black"/>
<path d="M189.59 218.73C195.09 217.91 207.39 222.37 208.46 222.32C209.53 222.27 221.46 212.89 221.46 212.89L224.56 215.62C224.56 215.62 212.06 228.51 209.49 228.62C206.92 228.73 193.49 227.76 193.49 227.76C193.49 227.76 190.2 226.59 189.57 223.62C189.186 222.012 189.193 220.335 189.59 218.73Z" fill="#407BFF"/>
</svg>
